<svg xmlns="http://www.w3.org/2000/svg" xmlns:xlink="http://www.w3.org/1999/xlink" width="80" zoomAndPan="magnify" viewBox="0 0 60 112.499997" height="150" preserveAspectRatio="xMidYMid meet" version="1.0"><defs><clipPath id="fbaf4d8d1b"><path d="M 0.132812 0 L 59.867188 0 L 59.867188 112.003906 L 0.132812 112.003906 Z M 0.132812 0 " clip-rule="nonzero"/></clipPath><clipPath id="4dd5682e4f"><path d="M 17.101562 18 L 41 18 L 41 92 L 17.101562 92 Z M 17.101562 18 " clip-rule="nonzero"/></clipPath><clipPath id="ceb5fb09e9"><path d="M 17.101562 56 L 18 56 L 18 58 L 17.101562 58 Z M 17.101562 56 " clip-rule="nonzero"/></clipPath></defs><g clip-path="url(#fbaf4d8d1b)"><path fill="#ffffff" d="M 0.132812 0 L 59.867188 0 L 59.867188 112.003906 L 0.132812 112.003906 Z M 0.132812 0 " fill-opacity="1" fill-rule="nonzero"/><path fill="#ffffff" d="M 0.132812 0 L 59.867188 0 L 59.867188 112.003906 L 0.132812 112.003906 Z M 0.132812 0 " fill-opacity="1" fill-rule="nonzero"/></g><g clip-path="url(#4dd5682e4f)"><path fill="#030303" d="M 30.753906 18.875 C 31.070312 19.125 31.363281 19.390625 31.652344 19.671875 C 31.734375 19.746094 31.816406 19.820312 31.898438 19.894531 C 32.074219 20.085938 32.234375 20.277344 32.386719 20.484375 C 32.453125 20.570312 32.453125 20.570312 32.519531 20.660156 C 32.859375 21.386719 32.835938 22.160156 32.785156 22.941406 C 32.773438 23.128906 32.765625 23.316406 32.753906 23.5 C 32.75 23.589844 32.746094 23.679688 32.738281 23.773438 C 32.726562 24.09375 32.734375 24.414062 32.746094 24.738281 C 32.75 25.367188 32.582031 25.65625 32.152344 26.121094 C 31.886719 26.4375 31.757812 26.773438 31.617188 27.15625 C 31.347656 27.847656 31.015625 28.390625 30.46875 28.910156 C 30.222656 29.296875 30.257812 29.652344 30.265625 30.101562 C 30.265625 30.183594 30.265625 30.265625 30.265625 30.351562 C 30.269531 30.804688 30.292969 31.101562 30.574219 31.476562 C 30.574219 31.535156 30.574219 31.59375 30.574219 31.652344 C 30.652344 31.675781 30.726562 31.703125 30.804688 31.726562 C 31.121094 31.832031 31.425781 31.957031 31.730469 32.085938 C 31.785156 32.109375 31.839844 32.132812 31.898438 32.15625 C 32.191406 32.28125 32.476562 32.414062 32.757812 32.558594 C 33.3125 32.835938 33.878906 32.980469 34.488281 33.101562 C 35.203125 33.261719 35.636719 33.550781 36.0625 34.136719 C 37.5625 36.558594 37.808594 39.726562 38.125 42.488281 C 38.132812 42.550781 38.140625 42.609375 38.148438 42.671875 C 38.179688 42.949219 38.210938 43.222656 38.238281 43.5 C 38.3125 44.160156 38.507812 44.605469 38.867188 45.164062 C 39.066406 45.492188 39.175781 45.816406 39.269531 46.183594 C 39.285156 46.246094 39.304688 46.308594 39.320312 46.371094 C 39.371094 46.550781 39.417969 46.734375 39.464844 46.917969 C 39.511719 47.082031 39.511719 47.082031 39.558594 47.253906 C 39.648438 47.605469 39.667969 47.9375 39.671875 48.300781 C 39.675781 48.433594 39.675781 48.5625 39.679688 48.695312 C 39.679688 48.761719 39.679688 48.832031 39.679688 48.902344 C 39.695312 50.074219 39.738281 51.246094 39.832031 52.414062 C 39.839844 52.546875 39.851562 52.679688 39.859375 52.8125 C 39.921875 53.675781 40.082031 54.457031 40.347656 55.28125 C 40.554688 55.9375 40.703125 56.613281 40.632812 57.300781 C 40.488281 57.566406 40.488281 57.566406 40.273438 57.832031 C 40.1875 57.949219 40.097656 58.066406 40.011719 58.1875 C 39.917969 58.304688 39.828125 58.421875 39.734375 58.542969 C 39.695312 58.59375 39.65625 58.644531 39.617188 58.699219 C 39.386719 58.992188 39.207031 59.167969 38.835938 59.25 C 38.5625 59.230469 38.433594 59.199219 38.226562 59.023438 C 38.171875 58.960938 38.171875 58.960938 38.117188 58.898438 C 38.058594 58.957031 38 59.011719 37.9375 59.074219 C 37.851562 59.074219 37.761719 59.074219 37.667969 59.074219 C 37.269531 58.285156 37.609375 56.738281 37.867188 55.953125 C 38.019531 55.574219 38.277344 55.269531 38.539062 54.957031 C 38.742188 54.5625 38.589844 54.160156 38.464844 53.753906 C 38.421875 53.628906 38.382812 53.5 38.339844 53.375 C 38.316406 53.308594 38.292969 53.238281 38.269531 53.167969 C 38.195312 52.949219 38.125 52.730469 38.050781 52.511719 C 37.957031 52.226562 37.859375 51.941406 37.765625 51.65625 C 37.742188 51.585938 37.71875 51.515625 37.695312 51.445312 C 37.230469 50.042969 36.808594 48.691406 36.675781 47.214844 C 36.667969 47.136719 36.660156 47.054688 36.652344 46.96875 C 36.640625 46.851562 36.640625 46.851562 36.632812 46.730469 C 36.554688 45.867188 36.390625 45.148438 36.054688 44.347656 C 35.773438 43.648438 35.570312 42.929688 35.367188 42.207031 C 35.351562 42.144531 35.332031 42.085938 35.316406 42.019531 C 35.230469 41.71875 35.148438 41.417969 35.066406 41.117188 C 34.949219 40.699219 34.832031 40.285156 34.710938 39.867188 C 34.695312 39.808594 34.675781 39.746094 34.660156 39.683594 C 34.621094 39.550781 34.574219 39.417969 34.527344 39.285156 C 34.464844 39.253906 34.40625 39.226562 34.347656 39.195312 C 34.332031 39.351562 34.332031 39.351562 34.3125 39.507812 C 34.25 40.074219 34.167969 40.640625 34.082031 41.203125 C 34.0625 41.328125 34.046875 41.453125 34.027344 41.578125 C 33.867188 42.730469 33.542969 43.746094 32.933594 44.746094 C 32.289062 45.816406 32.355469 46.960938 32.640625 48.160156 C 32.789062 48.660156 32.953125 49.15625 33.117188 49.652344 C 33.285156 50.15625 33.425781 50.660156 33.539062 51.175781 C 33.550781 51.238281 33.566406 51.296875 33.582031 51.359375 C 33.847656 52.535156 33.992188 53.703125 34.078125 54.902344 C 34.082031 54.972656 34.085938 55.039062 34.09375 55.109375 C 34.238281 57.070312 34.335938 59.15625 33.988281 61.097656 C 33.871094 61.835938 33.855469 62.574219 33.839844 63.324219 C 33.835938 63.476562 33.835938 63.628906 33.832031 63.78125 C 33.804688 65.023438 33.796875 66.265625 33.796875 67.511719 C 33.796875 67.597656 33.796875 67.6875 33.796875 67.777344 C 33.773438 69.535156 33.773438 69.535156 33.992188 71.273438 C 34.117188 71.894531 34.113281 72.519531 34.109375 73.152344 C 34.109375 73.214844 34.109375 73.277344 34.109375 73.34375 C 34.109375 74.476562 33.988281 75.566406 33.765625 76.679688 C 33.722656 76.886719 33.683594 77.097656 33.648438 77.308594 C 33.550781 77.839844 33.441406 78.367188 33.316406 78.890625 C 32.929688 80.546875 32.773438 82.171875 32.75 83.871094 C 32.746094 84.179688 32.738281 84.492188 32.734375 84.800781 C 32.730469 85 32.726562 85.203125 32.722656 85.402344 C 32.71875 85.539062 32.71875 85.539062 32.714844 85.679688 C 32.707031 86.382812 32.792969 86.898438 33.195312 87.5 C 33.25 87.582031 33.304688 87.667969 33.363281 87.753906 C 33.53125 88.003906 33.53125 88.003906 33.722656 88.214844 C 34.195312 88.78125 34.21875 89.222656 34.164062 89.925781 C 34.058594 90.285156 33.941406 90.382812 33.628906 90.578125 C 33.183594 90.816406 32.78125 90.871094 32.277344 90.835938 C 32.070312 90.828125 32.070312 90.828125 31.832031 91.019531 C 31.605469 91.054688 31.605469 91.054688 31.382812 91.019531 C 31.03125 90.710938 30.949219 90.199219 30.917969 89.75 C 30.914062 89.535156 30.914062 89.316406 30.910156 89.101562 C 30.898438 88.527344 30.847656 88.109375 30.5625 87.59375 C 30.113281 86.710938 30.25 85.585938 30.394531 84.632812 C 30.425781 84.566406 30.453125 84.5 30.484375 84.429688 C 30.589844 84.140625 30.597656 83.910156 30.597656 83.601562 C 30.597656 83.542969 30.597656 83.484375 30.597656 83.425781 C 30.597656 83.238281 30.597656 83.050781 30.597656 82.859375 C 30.597656 82.726562 30.597656 82.59375 30.597656 82.460938 C 30.597656 82.179688 30.597656 81.898438 30.597656 81.617188 C 30.597656 81.265625 30.597656 80.910156 30.597656 80.558594 C 30.601562 79.222656 30.589844 77.898438 30.460938 76.566406 C 30.386719 75.800781 30.367188 75.039062 30.371094 74.269531 C 30.371094 74.050781 30.371094 73.832031 30.371094 73.613281 C 30.371094 73.003906 30.375 72.414062 30.484375 71.808594 C 30.605469 71.125 30.601562 70.445312 30.597656 69.753906 C 30.597656 69.527344 30.597656 69.304688 30.597656 69.078125 C 30.601562 68.355469 30.578125 67.679688 30.394531 66.972656 C 30.363281 66.789062 30.335938 66.601562 30.3125 66.417969 C 30.289062 66.261719 30.289062 66.261719 30.265625 66.101562 C 30.226562 65.8125 30.1875 65.519531 30.148438 65.226562 C 30.136719 65.140625 30.125 65.054688 30.109375 64.964844 C 30.085938 64.789062 30.0625 64.613281 30.039062 64.441406 C 30.03125 64.359375 30.019531 64.277344 30.007812 64.195312 C 29.996094 64.125 29.988281 64.050781 29.976562 63.976562 C 29.949219 63.777344 29.949219 63.777344 29.898438 63.59375 C 29.820312 63.285156 29.808594 62.964844 29.777344 62.644531 C 29.710938 61.964844 29.632812 61.285156 29.542969 60.605469 C 29.402344 59.535156 29.308594 58.464844 29.226562 57.386719 C 29.078125 57.386719 28.929688 57.386719 28.777344 57.386719 C 28.664062 57.613281 28.664062 57.789062 28.648438 58.039062 C 28.644531 58.136719 28.636719 58.234375 28.628906 58.332031 C 28.625 58.4375 28.617188 58.539062 28.609375 58.648438 C 28.546875 59.523438 28.441406 60.347656 28.238281 61.203125 C 28.105469 61.839844 28.023438 62.476562 27.953125 63.121094 C 27.824219 64.324219 27.644531 65.519531 27.464844 66.714844 C 27.453125 66.789062 27.441406 66.863281 27.429688 66.941406 C 27.421875 67.011719 27.410156 67.078125 27.398438 67.148438 C 27.390625 67.210938 27.382812 67.269531 27.371094 67.332031 C 27.339844 67.503906 27.339844 67.503906 27.296875 67.671875 C 27.222656 67.976562 27.238281 68.285156 27.238281 68.597656 C 27.234375 68.667969 27.234375 68.742188 27.234375 68.816406 C 27.234375 68.96875 27.234375 69.121094 27.234375 69.273438 C 27.234375 69.503906 27.234375 69.734375 27.230469 69.964844 C 27.21875 70.839844 27.21875 70.839844 27.339844 71.707031 C 27.496094 72.417969 27.457031 73.160156 27.453125 73.886719 C 27.453125 74.144531 27.453125 74.40625 27.457031 74.664062 C 27.457031 75.472656 27.433594 76.261719 27.339844 77.0625 C 27.203125 78.304688 27.222656 79.558594 27.226562 80.804688 C 27.230469 81.160156 27.230469 81.511719 27.226562 81.867188 C 27.226562 82.140625 27.226562 82.417969 27.226562 82.691406 C 27.226562 82.820312 27.226562 82.953125 27.226562 83.082031 C 27.226562 83.261719 27.226562 83.445312 27.226562 83.625 C 27.226562 83.726562 27.230469 83.828125 27.230469 83.9375 C 27.234375 84.207031 27.234375 84.207031 27.429688 84.453125 C 27.488281 84.847656 27.5 85.242188 27.515625 85.640625 C 27.523438 85.75 27.53125 85.855469 27.539062 85.964844 C 27.574219 86.835938 27.375 87.496094 26.980469 88.269531 C 26.964844 88.523438 26.953125 88.777344 26.941406 89.03125 C 26.867188 90.582031 26.867188 90.582031 26.441406 91.019531 C 25.847656 90.953125 25.847656 90.953125 25.546875 90.753906 C 25.453125 90.773438 25.359375 90.789062 25.265625 90.808594 C 24.726562 90.859375 24.328125 90.65625 23.910156 90.335938 C 23.695312 90.0625 23.683594 89.863281 23.660156 89.523438 C 23.648438 89.417969 23.640625 89.3125 23.632812 89.203125 C 23.664062 88.820312 23.78125 88.660156 24.019531 88.359375 C 24.085938 88.261719 24.15625 88.164062 24.222656 88.066406 C 24.328125 87.917969 24.433594 87.769531 24.542969 87.621094 C 25.140625 86.769531 25.113281 85.941406 25.09375 84.929688 C 25.09375 84.800781 25.09375 84.800781 25.089844 84.667969 C 25.085938 84.484375 25.082031 84.304688 25.078125 84.121094 C 25.074219 83.847656 25.070312 83.574219 25.066406 83.300781 C 25.039062 81.804688 24.898438 80.332031 24.511719 78.878906 C 24.472656 78.722656 24.433594 78.566406 24.394531 78.410156 C 24.375 78.339844 24.359375 78.265625 24.339844 78.1875 C 24.222656 77.707031 24.132812 77.226562 24.050781 76.738281 C 24.027344 76.613281 24.003906 76.488281 23.980469 76.363281 C 23.773438 75.28125 23.722656 74.21875 23.722656 73.121094 C 23.722656 73.058594 23.71875 72.992188 23.71875 72.925781 C 23.71875 72.277344 23.734375 71.660156 23.882812 71.027344 C 24.097656 69.890625 24.035156 68.679688 24.03125 67.527344 C 24.03125 67.445312 24.03125 67.363281 24.03125 67.28125 C 24.050781 63.839844 24.050781 63.839844 23.832031 60.40625 C 23.585938 57.894531 23.699219 55.378906 23.996094 52.878906 C 24.007812 52.78125 24.019531 52.683594 24.03125 52.582031 C 24.195312 51.1875 24.449219 49.871094 24.898438 48.535156 C 25.257812 47.453125 25.589844 46.347656 25.1875 45.230469 C 25.035156 44.9375 24.863281 44.660156 24.6875 44.378906 C 24.128906 43.4375 23.9375 42.417969 23.777344 41.355469 C 23.757812 41.234375 23.738281 41.113281 23.71875 40.992188 C 23.625 40.394531 23.539062 39.796875 23.480469 39.195312 C 23.273438 39.273438 23.273438 39.273438 23.210938 39.523438 C 23.179688 39.636719 23.148438 39.753906 23.113281 39.867188 C 23.097656 39.929688 23.078125 39.996094 23.058594 40.0625 C 22.941406 40.472656 22.824219 40.882812 22.710938 41.296875 C 22.625 41.601562 22.539062 41.910156 22.453125 42.21875 C 22.425781 42.3125 22.425781 42.3125 22.398438 42.40625 C 22.171875 43.21875 21.917969 44.007812 21.605469 44.789062 C 21.46875 45.140625 21.382812 45.480469 21.324219 45.851562 C 21.308594 45.945312 21.292969 46.035156 21.277344 46.132812 C 21.199219 46.644531 21.140625 47.148438 21.121094 47.664062 C 20.988281 49.484375 20.226562 51.253906 19.621094 52.957031 C 19.589844 53.042969 19.5625 53.125 19.53125 53.210938 C 19.476562 53.371094 19.417969 53.53125 19.359375 53.6875 C 19.179688 54.195312 19.179688 54.195312 19.167969 54.726562 C 19.273438 54.910156 19.273438 54.910156 19.421875 55.074219 C 20.359375 56.191406 20.285156 57.617188 20.246094 58.984375 C 20.078125 59.039062 20.078125 59.039062 19.886719 59.074219 C 19.828125 59.015625 19.769531 58.957031 19.707031 58.898438 C 19.679688 58.941406 19.648438 58.984375 19.617188 59.03125 C 19.382812 59.203125 19.183594 59.210938 18.898438 59.199219 C 18.402344 59.097656 18.089844 58.5 17.800781 58.121094 C 17.65625 57.9375 17.5 57.769531 17.332031 57.597656 C 17.113281 57.351562 17.105469 57.300781 17.070312 56.949219 C 17.082031 56.859375 17.09375 56.769531 17.101562 56.679688 C 17.164062 56.679688 17.222656 56.679688 17.28125 56.679688 C 17.285156 56.617188 17.285156 56.558594 17.285156 56.496094 C 17.3125 55.949219 17.40625 55.472656 17.589844 54.957031 C 17.875 54.148438 17.929688 53.328125 17.984375 52.476562 C 18 52.25 18.023438 52.027344 18.046875 51.800781 C 18.089844 51.351562 18.101562 50.902344 18.105469 50.449219 C 18.109375 50.375 18.109375 50.300781 18.109375 50.222656 C 18.113281 49.914062 18.117188 49.605469 18.121094 49.296875 C 18.128906 47.882812 18.273438 46.523438 18.910156 45.234375 C 18.941406 45.167969 18.972656 45.101562 19.003906 45.035156 C 19.136719 44.757812 19.265625 44.507812 19.4375 44.253906 C 19.488281 44.011719 19.53125 43.777344 19.566406 43.535156 C 19.578125 43.460938 19.589844 43.386719 19.601562 43.3125 C 19.695312 42.6875 19.773438 42.0625 19.847656 41.4375 C 19.859375 41.339844 19.871094 41.246094 19.882812 41.148438 C 19.929688 40.761719 19.972656 40.378906 20.015625 39.996094 C 20.246094 38.003906 20.65625 35.070312 22.207031 33.605469 C 22.65625 33.253906 23.121094 33.132812 23.675781 33.011719 C 24.660156 32.777344 25.519531 32.378906 26.417969 31.929688 C 26.601562 31.839844 26.785156 31.773438 26.976562 31.710938 C 27.273438 31.554688 27.371094 31.4375 27.476562 31.125 C 27.644531 30.417969 27.714844 29.523438 27.359375 28.875 C 27.21875 28.714844 27.078125 28.5625 26.925781 28.414062 C 26.386719 27.855469 25.90625 26.84375 25.90625 26.0625 C 25.835938 26.042969 25.765625 26.023438 25.695312 26 C 25.402344 25.859375 25.324219 25.730469 25.1875 25.441406 C 25.105469 25.179688 25.085938 24.953125 25.09375 24.679688 C 25.09375 24.566406 25.09375 24.566406 25.097656 24.445312 C 25.097656 24.363281 25.101562 24.285156 25.101562 24.199219 C 25.109375 23.578125 25.089844 22.988281 24.957031 22.378906 C 24.804688 21.527344 25.074219 20.851562 25.5625 20.160156 C 25.929688 19.695312 26.140625 19.585938 26.710938 19.496094 C 26.824219 19.285156 26.824219 19.285156 26.890625 19.050781 C 27.777344 18.09375 29.746094 18.207031 30.753906 18.875 Z M 19.078125 57.742188 C 19.125 58.074219 19.15625 58.257812 19.347656 58.542969 C 19.4375 58.511719 19.527344 58.484375 19.617188 58.453125 C 19.558594 58.246094 19.5 58.042969 19.4375 57.832031 C 19.320312 57.800781 19.203125 57.773438 19.078125 57.742188 Z M 38.476562 57.742188 C 38.261719 57.917969 38.261719 57.917969 38.285156 58.242188 C 38.289062 58.339844 38.292969 58.441406 38.296875 58.542969 C 38.484375 58.5 38.484375 58.5 38.65625 58.363281 C 38.730469 58.046875 38.730469 58.046875 38.746094 57.742188 C 38.65625 57.742188 38.570312 57.742188 38.476562 57.742188 Z M 38.476562 57.742188 " fill-opacity="1" fill-rule="nonzero"/></g><path fill="#82fc74" d="M 33.179688 50.109375 C 33.207031 50.109375 33.238281 50.109375 33.269531 50.109375 C 33.699219 51.695312 33.964844 53.265625 34.078125 54.902344 C 34.082031 54.972656 34.085938 55.039062 34.09375 55.109375 C 34.238281 57.070312 34.335938 59.15625 33.988281 61.097656 C 33.871094 61.835938 33.855469 62.574219 33.839844 63.324219 C 33.835938 63.476562 33.835938 63.628906 33.832031 63.78125 C 33.804688 65.023438 33.796875 66.265625 33.796875 67.511719 C 33.796875 67.597656 33.796875 67.6875 33.796875 67.777344 C 33.773438 69.535156 33.773438 69.535156 33.992188 71.273438 C 34.117188 71.894531 34.113281 72.519531 34.109375 73.152344 C 34.109375 73.214844 34.109375 73.277344 34.109375 73.34375 C 34.109375 74.476562 33.988281 75.566406 33.765625 76.679688 C 33.722656 76.886719 33.683594 77.097656 33.644531 77.308594 C 33.550781 77.839844 33.441406 78.367188 33.316406 78.890625 C 32.929688 80.546875 32.773438 82.171875 32.75 83.871094 C 32.746094 84.179688 32.738281 84.492188 32.734375 84.800781 C 32.730469 85 32.726562 85.203125 32.722656 85.402344 C 32.71875 85.492188 32.71875 85.585938 32.714844 85.679688 C 32.707031 86.382812 32.792969 86.898438 33.195312 87.5 C 33.25 87.582031 33.304688 87.667969 33.363281 87.753906 C 33.53125 88.003906 33.53125 88.003906 33.722656 88.214844 C 34.195312 88.78125 34.21875 89.222656 34.164062 89.925781 C 34.058594 90.285156 33.941406 90.382812 33.628906 90.578125 C 33.183594 90.816406 32.78125 90.871094 32.277344 90.835938 C 32.070312 90.828125 32.070312 90.828125 31.832031 91.019531 C 31.605469 91.054688 31.605469 91.054688 31.382812 91.019531 C 31.03125 90.710938 30.949219 90.199219 30.917969 89.75 C 30.914062 89.535156 30.914062 89.316406 30.910156 89.101562 C 30.898438 88.527344 30.847656 88.109375 30.5625 87.59375 C 30.113281 86.710938 30.25 85.585938 30.394531 84.632812 C 30.425781 84.566406 30.453125 84.5 30.484375 84.429688 C 30.589844 84.140625 30.597656 83.910156 30.597656 83.601562 C 30.597656 83.542969 30.597656 83.484375 30.597656 83.425781 C 30.597656 83.238281 30.597656 83.050781 30.597656 82.859375 C 30.597656 82.726562 30.597656 82.59375 30.597656 82.460938 C 30.597656 82.179688 30.597656 81.898438 30.597656 81.617188 C 30.597656 81.265625 30.597656 80.910156 30.597656 80.558594 C 30.601562 79.222656 30.589844 77.898438 30.460938 76.566406 C 30.386719 75.800781 30.367188 75.039062 30.371094 74.269531 C 30.371094 74.050781 30.371094 73.832031 30.371094 73.613281 C 30.371094 73.003906 30.375 72.414062 30.484375 71.808594 C 30.605469 71.125 30.601562 70.445312 30.597656 69.753906 C 30.597656 69.527344 30.597656 69.304688 30.597656 69.078125 C 30.601562 68.355469 30.578125 67.679688 30.394531 66.972656 C 30.363281 66.789062 30.335938 66.601562 30.3125 66.417969 C 30.296875 66.3125 30.28125 66.210938 30.265625 66.101562 C 30.226562 65.8125 30.1875 65.519531 30.148438 65.226562 C 30.136719 65.140625 30.125 65.054688 30.109375 64.964844 C 30.085938 64.789062 30.0625 64.613281 30.039062 64.441406 C 30.03125 64.359375 30.019531 64.277344 30.007812 64.195312 C 29.996094 64.125 29.988281 64.050781 29.976562 63.976562 C 29.949219 63.777344 29.949219 63.777344 29.898438 63.59375 C 29.820312 63.285156 29.808594 62.964844 29.777344 62.644531 C 29.710938 61.964844 29.632812 61.285156 29.542969 60.605469 C 29.402344 59.535156 29.308594 58.464844 29.226562 57.386719 C 29.078125 57.386719 28.929688 57.386719 28.777344 57.386719 C 28.664062 57.613281 28.664062 57.789062 28.648438 58.039062 C 28.644531 58.136719 28.636719 58.234375 28.628906 58.332031 C 28.625 58.4375 28.617188 58.539062 28.609375 58.648438 C 28.546875 59.523438 28.441406 60.347656 28.238281 61.203125 C 28.105469 61.839844 28.023438 62.476562 27.953125 63.121094 C 27.824219 64.324219 27.644531 65.519531 27.464844 66.714844 C 27.453125 66.789062 27.441406 66.863281 27.429688 66.941406 C 27.421875 67.011719 27.410156 67.078125 27.398438 67.148438 C 27.390625 67.210938 27.382812 67.269531 27.371094 67.332031 C 27.339844 67.503906 27.339844 67.503906 27.296875 67.671875 C 27.222656 67.976562 27.238281 68.285156 27.238281 68.597656 C 27.234375 68.667969 27.234375 68.742188 27.234375 68.816406 C 27.234375 68.96875 27.234375 69.121094 27.234375 69.273438 C 27.234375 69.503906 27.234375 69.734375 27.230469 69.964844 C 27.21875 70.839844 27.21875 70.839844 27.339844 71.707031 C 27.496094 72.417969 27.457031 73.160156 27.453125 73.886719 C 27.453125 74.144531 27.453125 74.40625 27.457031 74.664062 C 27.457031 75.472656 27.433594 76.261719 27.339844 77.0625 C 27.203125 78.304688 27.222656 79.558594 27.226562 80.804688 C 27.230469 81.160156 27.230469 81.511719 27.226562 81.867188 C 27.226562 82.140625 27.226562 82.417969 27.226562 82.691406 C 27.226562 82.820312 27.226562 82.953125 27.226562 83.082031 C 27.226562 83.261719 27.226562 83.445312 27.226562 83.625 C 27.226562 83.726562 27.230469 83.828125 27.230469 83.9375 C 27.234375 84.207031 27.234375 84.207031 27.429688 84.453125 C 27.488281 84.847656 27.5 85.242188 27.515625 85.640625 C 27.523438 85.75 27.53125 85.855469 27.539062 85.964844 C 27.574219 86.835938 27.375 87.496094 26.980469 88.269531 C 26.964844 88.523438 26.953125 88.777344 26.941406 89.03125 C 26.867188 90.582031 26.867188 90.582031 26.441406 91.019531 C 25.847656 90.953125 25.847656 90.953125 25.546875 90.753906 C 25.453125 90.773438 25.359375 90.789062 25.265625 90.808594 C 24.726562 90.859375 24.328125 90.65625 23.910156 90.335938 C 23.695312 90.0625 23.683594 89.863281 23.660156 89.523438 C 23.648438 89.417969 23.640625 89.3125 23.632812 89.203125 C 23.664062 88.820312 23.78125 88.660156 24.019531 88.359375 C 24.085938 88.261719 24.15625 88.164062 24.222656 88.066406 C 24.328125 87.917969 24.433594 87.769531 24.542969 87.621094 C 25.140625 86.769531 25.113281 85.941406 25.09375 84.929688 C 25.09375 84.84375 25.09375 84.757812 25.089844 84.667969 C 25.085938 84.484375 25.082031 84.304688 25.078125 84.121094 C 25.074219 83.847656 25.070312 83.574219 25.066406 83.300781 C 25.039062 81.804688 24.898438 80.332031 24.511719 78.878906 C 24.472656 78.722656 24.433594 78.566406 24.394531 78.410156 C 24.375 78.339844 24.359375 78.265625 24.339844 78.1875 C 24.222656 77.707031 24.132812 77.226562 24.050781 76.738281 C 24.027344 76.613281 24.003906 76.488281 23.980469 76.363281 C 23.773438 75.28125 23.722656 74.21875 23.722656 73.121094 C 23.722656 73.058594 23.71875 72.992188 23.71875 72.925781 C 23.71875 72.277344 23.734375 71.660156 23.882812 71.027344 C 24.097656 69.890625 24.035156 68.679688 24.03125 67.527344 C 24.03125 67.445312 24.03125 67.363281 24.03125 67.28125 C 24.050781 63.839844 24.050781 63.839844 23.832031 60.40625 C 23.511719 57.160156 23.84375 53.949219 24.289062 50.734375 C 24.316406 50.734375 24.347656 50.734375 24.378906 50.734375 C 24.378906 50.9375 24.378906 51.140625 24.378906 51.355469 C 27.3125 51.355469 30.246094 51.355469 33.269531 51.355469 C 33.222656 51.089844 33.222656 51.089844 33.179688 50.820312 C 33.167969 50.582031 33.175781 50.347656 33.179688 50.109375 Z M 33.179688 50.109375 " fill-opacity="1" fill-rule="nonzero"/><path fill="#060606" d="M 24.019531 60.9375 C 25.382812 60.9375 26.746094 60.9375 28.148438 60.9375 C 28.007812 62.878906 27.753906 64.792969 27.464844 66.714844 C 27.453125 66.789062 27.441406 66.863281 27.429688 66.941406 C 27.421875 67.011719 27.410156 67.078125 27.398438 67.148438 C 27.390625 67.210938 27.382812 67.269531 27.371094 67.332031 C 27.339844 67.503906 27.339844 67.503906 27.296875 67.671875 C 27.222656 67.976562 27.238281 68.285156 27.238281 68.597656 C 27.234375 68.667969 27.234375 68.742188 27.234375 68.816406 C 27.234375 68.96875 27.234375 69.121094 27.234375 69.273438 C 27.234375 69.503906 27.234375 69.734375 27.230469 69.964844 C 27.21875 70.839844 27.21875 70.839844 27.339844 71.707031 C 27.496094 72.417969 27.457031 73.160156 27.453125 73.886719 C 27.453125 74.144531 27.453125 74.40625 27.457031 74.664062 C 27.457031 75.472656 27.433594 76.261719 27.339844 77.0625 C 27.203125 78.304688 27.222656 79.558594 27.226562 80.804688 C 27.230469 81.160156 27.230469 81.511719 27.226562 81.867188 C 27.226562 82.140625 27.226562 82.417969 27.226562 82.691406 C 27.226562 82.820312 27.226562 82.953125 27.226562 83.082031 C 27.226562 83.261719 27.226562 83.445312 27.226562 83.625 C 27.226562 83.726562 27.230469 83.828125 27.230469 83.9375 C 27.234375 84.207031 27.234375 84.207031 27.429688 84.453125 C 27.488281 84.847656 27.5 85.242188 27.515625 85.640625 C 27.523438 85.75 27.53125 85.855469 27.539062 85.964844 C 27.574219 86.835938 27.375 87.496094 26.980469 88.269531 C 26.964844 88.523438 26.953125 88.777344 26.941406 89.03125 C 26.867188 90.582031 26.867188 90.582031 26.441406 91.019531 C 25.847656 90.953125 25.847656 90.953125 25.546875 90.753906 C 25.453125 90.773438 25.359375 90.789062 25.265625 90.808594 C 24.726562 90.859375 24.328125 90.65625 23.910156 90.335938 C 23.695312 90.0625 23.683594 89.863281 23.660156 89.523438 C 23.648438 89.417969 23.640625 89.3125 23.632812 89.203125 C 23.664062 88.820312 23.78125 88.660156 24.019531 88.359375 C 24.085938 88.261719 24.15625 88.164062 24.222656 88.066406 C 24.328125 87.917969 24.433594 87.769531 24.542969 87.621094 C 25.140625 86.769531 25.113281 85.941406 25.09375 84.929688 C 25.09375 84.84375 25.09375 84.757812 25.089844 84.667969 C 25.085938 84.484375 25.082031 84.304688 25.078125 84.121094 C 25.074219 83.847656 25.070312 83.574219 25.066406 83.300781 C 25.039062 81.804688 24.898438 80.332031 24.511719 78.878906 C 24.472656 78.722656 24.433594 78.566406 24.394531 78.410156 C 24.375 78.339844 24.359375 78.265625 24.339844 78.1875 C 24.222656 77.707031 24.132812 77.226562 24.050781 76.738281 C 24.027344 76.613281 24.003906 76.488281 23.980469 76.363281 C 23.773438 75.28125 23.722656 74.21875 23.722656 73.121094 C 23.722656 73.058594 23.71875 72.992188 23.71875 72.925781 C 23.71875 72.28125 23.730469 71.667969 23.882812 71.039062 C 23.9375 70.738281 23.960938 70.4375 23.980469 70.128906 C 23.984375 70.0625 23.988281 69.996094 23.992188 69.929688 C 24.035156 69.054688 24.03125 68.183594 24.027344 67.308594 C 24.027344 67.121094 24.027344 66.9375 24.027344 66.753906 C 24.027344 66.269531 24.027344 65.789062 24.023438 65.308594 C 24.023438 64.726562 24.023438 64.148438 24.023438 63.566406 C 24.023438 62.691406 24.019531 61.8125 24.019531 60.9375 Z M 24.019531 60.9375 " fill-opacity="1" fill-rule="nonzero"/><path fill="#050505" d="M 29.675781 60.9375 C 31.039062 60.9375 32.402344 60.9375 33.808594 60.9375 C 33.804688 61.535156 33.804688 62.136719 33.804688 62.753906 C 33.804688 63.136719 33.804688 63.519531 33.804688 63.902344 C 33.800781 64.507812 33.800781 65.109375 33.800781 65.714844 C 33.800781 66.203125 33.800781 66.695312 33.800781 67.183594 C 33.796875 67.367188 33.796875 67.554688 33.796875 67.738281 C 33.773438 69.515625 33.773438 69.515625 33.992188 71.273438 C 34.117188 71.894531 34.113281 72.519531 34.109375 73.152344 C 34.109375 73.214844 34.109375 73.277344 34.109375 73.34375 C 34.109375 74.476562 33.988281 75.566406 33.765625 76.679688 C 33.722656 76.886719 33.683594 77.097656 33.648438 77.308594 C 33.550781 77.839844 33.441406 78.367188 33.316406 78.890625 C 32.929688 80.546875 32.773438 82.171875 32.75 83.871094 C 32.746094 84.179688 32.738281 84.492188 32.734375 84.800781 C 32.730469 85 32.726562 85.203125 32.722656 85.402344 C 32.71875 85.492188 32.71875 85.585938 32.714844 85.679688 C 32.707031 86.382812 32.792969 86.898438 33.195312 87.5 C 33.25 87.582031 33.304688 87.667969 33.363281 87.753906 C 33.53125 88.003906 33.53125 88.003906 33.722656 88.214844 C 34.195312 88.78125 34.21875 89.222656 34.164062 89.925781 C 34.058594 90.285156 33.941406 90.382812 33.628906 90.578125 C 33.183594 90.816406 32.78125 90.871094 32.277344 90.835938 C 32.070312 90.828125 32.070312 90.828125 31.832031 91.019531 C 31.605469 91.054688 31.605469 91.054688 31.382812 91.019531 C 31.03125 90.710938 30.949219 90.199219 30.917969 89.75 C 30.914062 89.535156 30.914062 89.316406 30.910156 89.101562 C 30.898438 88.527344 30.847656 88.109375 30.5625 87.59375 C 30.113281 86.710938 30.25 85.585938 30.394531 84.632812 C 30.441406 84.53125 30.441406 84.53125 30.484375 84.429688 C 30.589844 84.140625 30.597656 83.910156 30.597656 83.601562 C 30.597656 83.542969 30.597656 83.484375 30.597656 83.425781 C 30.597656 83.238281 30.597656 83.050781 30.597656 82.859375 C 30.597656 82.726562 30.597656 82.59375 30.597656 82.460938 C 30.597656 82.179688 30.597656 81.898438 30.597656 81.617188 C 30.597656 81.265625 30.597656 80.910156 30.597656 80.558594 C 30.601562 79.222656 30.589844 77.898438 30.460938 76.566406 C 30.386719 75.800781 30.367188 75.039062 30.371094 74.269531 C 30.371094 74.050781 30.371094 73.832031 30.371094 73.613281 C 30.371094 73.003906 30.375 72.414062 30.484375 71.808594 C 30.605469 71.125 30.601562 70.445312 30.597656 69.753906 C 30.597656 69.527344 30.597656 69.304688 30.597656 69.078125 C 30.601562 68.355469 30.578125 67.679688 30.394531 66.972656 C 30.363281 66.789062 30.335938 66.601562 30.3125 66.417969 C 30.289062 66.261719 30.289062 66.261719 30.265625 66.101562 C 30.226562 65.8125 30.1875 65.519531 30.148438 65.226562 C 30.128906 65.097656 30.128906 65.097656 30.109375 64.964844 C 30.085938 64.789062 30.0625 64.613281 30.039062 64.441406 C 30.03125 64.359375 30.019531 64.277344 30.007812 64.195312 C 29.996094 64.125 29.988281 64.050781 29.976562 63.976562 C 29.949219 63.78125 29.949219 63.78125 29.898438 63.597656 C 29.816406 63.257812 29.796875 62.90625 29.761719 62.558594 C 29.753906 62.480469 29.746094 62.402344 29.734375 62.324219 C 29.726562 62.246094 29.71875 62.171875 29.710938 62.09375 C 29.707031 62.023438 29.699219 61.957031 29.691406 61.886719 C 29.671875 61.570312 29.675781 61.253906 29.675781 60.9375 Z M 29.675781 60.9375 " fill-opacity="1" fill-rule="nonzero"/><path fill="#a4f699" d="M 24.289062 51.441406 C 24.316406 51.441406 24.347656 51.441406 24.378906 51.441406 C 24.445312 51.996094 24.472656 52.484375 24.378906 53.039062 C 24.375 53.242188 24.378906 53.441406 24.382812 53.640625 C 24.375 53.929688 24.308594 54.199219 24.242188 54.476562 C 24.070312 55.242188 24.082031 56.007812 24.085938 56.789062 C 24.085938 57.027344 24.085938 57.261719 24.082031 57.5 C 24.082031 58.234375 24.097656 58.941406 24.25 59.664062 C 24.300781 59.945312 24.300781 60.207031 24.289062 60.492188 C 24.347656 60.492188 24.40625 60.492188 24.46875 60.492188 C 24.46875 60.671875 24.46875 60.671875 24.34375 60.816406 C 24.199219 60.9375 24.199219 60.9375 24.019531 60.9375 C 24.019531 61.113281 24.019531 61.289062 24.019531 61.46875 C 23.988281 61.46875 23.960938 61.46875 23.929688 61.46875 C 23.019531 53.945312 23.019531 53.945312 24.289062 51.441406 Z M 24.289062 51.441406 " fill-opacity="1" fill-rule="nonzero"/><path fill="#369623" d="M 24.378906 51.085938 C 27.3125 51.085938 30.246094 51.085938 33.269531 51.085938 C 33.269531 51.175781 33.269531 51.261719 33.269531 51.355469 C 30.335938 51.355469 27.402344 51.355469 24.378906 51.355469 C 24.378906 51.265625 24.378906 51.179688 24.378906 51.085938 Z M 24.378906 51.085938 " fill-opacity="1" fill-rule="nonzero"/><path fill="#255320" d="M 29.675781 60.9375 C 31.039062 60.9375 32.402344 60.9375 33.808594 60.9375 C 33.808594 62.371094 33.808594 63.808594 33.808594 65.285156 C 33.777344 65.285156 33.75 65.285156 33.71875 65.285156 C 33.71875 63.9375 33.71875 62.589844 33.71875 61.203125 C 32.929688 61.222656 32.929688 61.222656 32.128906 61.242188 C 31.964844 61.246094 31.800781 61.25 31.628906 61.253906 C 31.5 61.257812 31.367188 61.261719 31.234375 61.265625 C 31.167969 61.265625 31.101562 61.265625 31.03125 61.269531 C 30.691406 61.277344 30.367188 61.300781 30.035156 61.382812 C 29.9375 61.90625 29.953125 62.398438 29.984375 62.929688 C 29.988281 63.011719 29.996094 63.09375 30 63.175781 C 30.011719 63.375 30.023438 63.578125 30.035156 63.777344 C 29.890625 63.523438 29.828125 63.316406 29.800781 63.023438 C 29.792969 62.949219 29.785156 62.871094 29.777344 62.792969 C 29.769531 62.714844 29.761719 62.636719 29.753906 62.558594 C 29.746094 62.480469 29.738281 62.402344 29.730469 62.324219 C 29.6875 61.855469 29.675781 61.414062 29.675781 60.9375 Z M 29.675781 60.9375 " fill-opacity="1" fill-rule="nonzero"/><path fill="#b8f7b1" d="M 33.359375 50.910156 C 33.589844 51.25 33.636719 51.5625 33.71875 51.957031 C 33.734375 52.035156 33.75 52.113281 33.765625 52.195312 C 33.9375 53.09375 34.011719 53.992188 34.078125 54.902344 C 34.082031 54.972656 34.085938 55.039062 34.09375 55.109375 C 34.257812 57.308594 34.28125 59.5625 33.898438 61.734375 C 33.867188 61.734375 33.839844 61.734375 33.808594 61.734375 C 33.804688 61.507812 33.804688 61.277344 33.800781 61.046875 C 33.800781 60.953125 33.800781 60.953125 33.800781 60.859375 C 33.796875 60.484375 33.816406 60.117188 33.851562 59.746094 C 33.917969 59.003906 33.914062 58.261719 33.914062 57.515625 C 33.914062 57.441406 33.914062 57.367188 33.914062 57.289062 C 33.914062 56.339844 33.890625 55.40625 33.761719 54.460938 C 33.707031 54.070312 33.695312 53.675781 33.679688 53.277344 C 33.652344 52.667969 33.5625 52.109375 33.414062 51.515625 C 33.359375 51.265625 33.359375 51.265625 33.359375 50.910156 Z M 33.359375 50.910156 " fill-opacity="1" fill-rule="nonzero"/><path fill="#325c30" d="M 24.019531 60.9375 C 25.382812 60.9375 26.746094 60.9375 28.148438 60.9375 C 28.046875 62.335938 28.046875 62.335938 28.007812 62.835938 C 28 62.929688 27.996094 63.027344 27.988281 63.125 C 27.976562 63.226562 27.976562 63.226562 27.96875 63.332031 C 27.941406 63.332031 27.910156 63.332031 27.878906 63.332031 C 27.875 63.128906 27.871094 62.921875 27.867188 62.71875 C 27.867188 62.605469 27.863281 62.488281 27.863281 62.371094 C 27.878906 62.003906 27.878906 62.003906 28.058594 61.203125 C 26.105469 61.160156 26.105469 61.160156 24.109375 61.113281 C 24.109375 62.550781 24.109375 63.984375 24.109375 65.464844 C 24.078125 65.464844 24.050781 65.464844 24.019531 65.464844 C 24.019531 63.96875 24.019531 62.476562 24.019531 60.9375 Z M 24.019531 60.9375 " fill-opacity="1" fill-rule="nonzero"/><path fill="#c1f9b9" d="M 28.597656 57.121094 C 29.140625 57.105469 29.140625 57.105469 29.316406 57.121094 C 29.570312 57.371094 29.5625 57.628906 29.597656 57.964844 C 29.605469 58.03125 29.613281 58.101562 29.621094 58.171875 C 29.71875 59.179688 29.691406 60.191406 29.675781 61.203125 C 29.648438 61.203125 29.617188 61.203125 29.585938 61.203125 C 29.46875 59.945312 29.347656 58.683594 29.226562 57.386719 C 29.078125 57.386719 28.929688 57.386719 28.777344 57.386719 C 28.664062 57.617188 28.664062 57.800781 28.648438 58.054688 C 28.640625 58.15625 28.632812 58.253906 28.625 58.359375 C 28.613281 58.566406 28.597656 58.773438 28.585938 58.984375 C 28.542969 59.589844 28.46875 60.167969 28.328125 60.761719 C 28.300781 60.761719 28.269531 60.761719 28.238281 60.761719 C 28.21875 60.03125 28.285156 59.316406 28.367188 58.589844 C 28.378906 58.480469 28.394531 58.367188 28.40625 58.25 C 28.496094 57.425781 28.496094 57.425781 28.597656 57.121094 Z M 28.597656 57.121094 " fill-opacity="1" fill-rule="nonzero"/><path fill="#96f88b" d="M 33.359375 51.265625 C 33.386719 51.265625 33.417969 51.265625 33.449219 51.265625 C 33.664062 52.140625 33.773438 52.976562 33.820312 53.878906 C 33.832031 54.109375 33.84375 54.339844 33.859375 54.570312 C 33.863281 54.671875 33.871094 54.769531 33.875 54.875 C 33.898438 55.183594 33.941406 55.484375 33.988281 55.789062 C 33.996094 55.960938 34.003906 56.132812 34.003906 56.304688 C 34.003906 56.390625 34.007812 56.472656 34.007812 56.558594 C 33.988281 56.765625 33.988281 56.765625 33.808594 56.945312 C 33.8125 56.867188 33.8125 56.867188 33.816406 56.789062 C 33.835938 56.230469 33.773438 55.707031 33.679688 55.160156 C 33.570312 54.53125 33.5 53.914062 33.472656 53.277344 C 33.464844 52.597656 33.464844 52.597656 33.25 51.96875 C 33.179688 51.796875 33.179688 51.796875 33.257812 51.507812 C 33.289062 51.429688 33.324219 51.347656 33.359375 51.265625 Z M 33.359375 51.265625 " fill-opacity="1" fill-rule="nonzero"/><path fill="#a2f893" d="M 28.507812 57.210938 C 28.636719 57.460938 28.582031 57.636719 28.546875 57.914062 C 28.535156 58.023438 28.523438 58.128906 28.511719 58.238281 C 28.484375 58.464844 28.457031 58.6875 28.429688 58.914062 C 28.363281 59.496094 28.316406 60.058594 28.34375 60.644531 C 28.328125 60.871094 28.265625 61.007812 28.148438 61.203125 C 27.929688 60.703125 27.953125 60.230469 27.96875 59.695312 C 28.03125 59.695312 28.089844 59.695312 28.148438 59.695312 C 28.148438 59.59375 28.148438 59.492188 28.148438 59.386719 C 28.144531 59.25 28.144531 59.117188 28.144531 58.980469 C 28.144531 58.914062 28.140625 58.847656 28.140625 58.777344 C 28.136719 57.609375 28.136719 57.609375 28.507812 57.210938 Z M 28.507812 57.210938 " fill-opacity="1" fill-rule="nonzero"/><path fill="#64db59" d="M 27.640625 60.621094 C 27.71875 60.628906 27.796875 60.640625 27.878906 60.648438 C 27.9375 60.65625 28 60.664062 28.058594 60.671875 C 28.105469 60.804688 28.105469 60.804688 28.148438 60.9375 C 26.847656 60.9375 25.542969 60.9375 24.199219 60.9375 C 24.199219 60.878906 24.199219 60.820312 24.199219 60.761719 C 24.273438 60.757812 24.347656 60.753906 24.421875 60.753906 C 24.757812 60.742188 25.09375 60.730469 25.425781 60.722656 C 25.542969 60.71875 25.660156 60.714844 25.78125 60.710938 C 25.890625 60.707031 26.003906 60.703125 26.117188 60.699219 C 26.273438 60.695312 26.273438 60.695312 26.429688 60.691406 C 27.585938 60.613281 27.585938 60.613281 27.640625 60.621094 Z M 27.640625 60.621094 " fill-opacity="1" fill-rule="nonzero"/><path fill="#adf7a3" d="M 24.289062 51.441406 C 24.316406 51.441406 24.347656 51.441406 24.378906 51.441406 C 24.511719 52.1875 24.414062 52.828125 24.265625 53.5625 C 24.179688 54.003906 24.136719 54.453125 24.109375 54.902344 C 24.019531 54.902344 23.929688 54.902344 23.839844 54.902344 C 23.882812 54.140625 23.96875 53.382812 24.0625 52.625 C 24.074219 52.527344 24.085938 52.433594 24.097656 52.335938 C 24.109375 52.246094 24.121094 52.15625 24.132812 52.0625 C 24.144531 51.980469 24.152344 51.902344 24.164062 51.816406 C 24.199219 51.621094 24.199219 51.621094 24.289062 51.441406 Z M 24.289062 51.441406 " fill-opacity="1" fill-rule="nonzero"/><path fill="#9af98f" d="M 33.898438 57.03125 C 33.925781 57.03125 33.957031 57.03125 33.988281 57.03125 C 34.007812 58.320312 33.976562 59.574219 33.808594 60.847656 C 33.75 60.820312 33.6875 60.789062 33.628906 60.761719 C 33.621094 60.484375 33.621094 60.210938 33.617188 59.933594 C 33.613281 59.855469 33.613281 59.777344 33.613281 59.695312 C 33.613281 59.621094 33.609375 59.546875 33.609375 59.46875 C 33.609375 59.398438 33.609375 59.332031 33.609375 59.257812 C 33.628906 59.074219 33.628906 59.074219 33.808594 58.808594 C 33.832031 58.628906 33.832031 58.628906 33.820312 58.4375 C 33.820312 58.332031 33.820312 58.332031 33.820312 58.226562 C 33.816406 58.152344 33.816406 58.078125 33.8125 58.003906 C 33.808594 57.859375 33.808594 57.714844 33.804688 57.566406 C 33.804688 57.503906 33.800781 57.4375 33.800781 57.371094 C 33.808594 57.210938 33.808594 57.210938 33.898438 57.03125 Z M 33.898438 57.03125 " fill-opacity="1" fill-rule="nonzero"/><path fill="#c1f9ba" d="M 34.078125 56.679688 C 34.105469 56.679688 34.136719 56.679688 34.167969 56.679688 C 34.1875 60.074219 34.1875 60.074219 33.898438 61.734375 C 33.867188 61.734375 33.839844 61.734375 33.808594 61.734375 C 33.785156 59.5 33.785156 59.5 33.988281 58.898438 C 34 58.726562 34.007812 58.554688 34.015625 58.386719 C 34.019531 58.285156 34.023438 58.1875 34.027344 58.085938 C 34.03125 57.980469 34.035156 57.878906 34.039062 57.769531 C 34.042969 57.667969 34.046875 57.5625 34.050781 57.453125 C 34.058594 57.195312 34.066406 56.9375 34.078125 56.679688 Z M 34.078125 56.679688 " fill-opacity="1" fill-rule="nonzero"/><path fill="#93f48b" d="M 29.496094 57.300781 C 29.6875 57.585938 29.703125 57.695312 29.726562 58.027344 C 29.734375 58.117188 29.742188 58.207031 29.746094 58.300781 C 29.753906 58.398438 29.757812 58.492188 29.765625 58.589844 C 29.808594 59.207031 29.859375 59.792969 30.015625 60.394531 C 30.039062 60.625 29.976562 60.738281 29.855469 60.9375 C 29.796875 60.9375 29.738281 60.9375 29.675781 60.9375 C 29.675781 60.878906 29.671875 60.820312 29.667969 60.761719 C 29.660156 60.496094 29.648438 60.226562 29.636719 59.960938 C 29.632812 59.871094 29.628906 59.777344 29.625 59.683594 C 29.609375 59.289062 29.589844 58.898438 29.539062 58.503906 C 29.503906 58.230469 29.488281 57.972656 29.492188 57.699219 C 29.492188 57.621094 29.492188 57.546875 29.492188 57.46875 C 29.496094 57.414062 29.496094 57.355469 29.496094 57.300781 Z M 29.496094 57.300781 " fill-opacity="1" fill-rule="nonzero"/><path fill="#2d3c2c" d="M 30.082031 61.105469 C 30.179688 61.105469 30.273438 61.105469 30.375 61.105469 C 30.53125 61.105469 30.53125 61.105469 30.695312 61.105469 C 30.859375 61.109375 30.859375 61.109375 31.027344 61.109375 C 31.195312 61.109375 31.195312 61.109375 31.367188 61.109375 C 31.640625 61.113281 31.914062 61.113281 32.191406 61.113281 C 32.191406 61.144531 32.191406 61.171875 32.191406 61.203125 C 32.015625 61.210938 32.015625 61.210938 31.832031 61.21875 C 31.675781 61.226562 31.523438 61.234375 31.367188 61.242188 C 31.25 61.246094 31.25 61.246094 31.128906 61.253906 C 30.757812 61.269531 30.398438 61.292969 30.035156 61.382812 C 29.9375 61.90625 29.953125 62.398438 29.984375 62.929688 C 29.988281 63.011719 29.996094 63.09375 30 63.175781 C 30.011719 63.375 30.023438 63.578125 30.035156 63.777344 C 29.644531 63.0625 29.710938 62.003906 29.765625 61.203125 C 29.855469 61.113281 29.855469 61.113281 30.082031 61.105469 Z M 30.082031 61.105469 " fill-opacity="1" fill-rule="nonzero"/><path fill="#adf7a0" d="M 33.808594 54.191406 C 33.835938 54.191406 33.867188 54.191406 33.898438 54.191406 C 33.898438 54.425781 33.898438 54.660156 33.898438 54.902344 C 33.957031 54.902344 34.015625 54.902344 34.078125 54.902344 C 34.175781 56.242188 34.152344 57.558594 34.078125 58.898438 C 34.046875 58.898438 34.019531 58.898438 33.988281 58.898438 C 33.984375 58.804688 33.984375 58.714844 33.980469 58.621094 C 33.972656 58.28125 33.960938 57.941406 33.953125 57.605469 C 33.949219 57.457031 33.945312 57.3125 33.941406 57.164062 C 33.9375 56.953125 33.929688 56.742188 33.925781 56.53125 C 33.925781 56.464844 33.921875 56.402344 33.921875 56.335938 C 33.910156 55.941406 33.867188 55.558594 33.808594 55.167969 C 33.800781 54.992188 33.800781 54.816406 33.800781 54.640625 C 33.800781 54.558594 33.804688 54.472656 33.804688 54.386719 C 33.804688 54.320312 33.804688 54.257812 33.808594 54.191406 Z M 33.808594 54.191406 " fill-opacity="1" fill-rule="nonzero"/><path fill="#b4fca8" d="M 28.597656 57.121094 C 29.140625 57.105469 29.140625 57.105469 29.316406 57.121094 C 29.375 57.179688 29.4375 57.238281 29.496094 57.300781 C 29.496094 57.53125 29.496094 57.53125 29.464844 57.796875 C 29.449219 57.933594 29.449219 57.933594 29.433594 58.066406 C 29.421875 58.171875 29.421875 58.171875 29.40625 58.273438 C 29.378906 58.273438 29.347656 58.273438 29.316406 58.273438 C 29.289062 57.984375 29.257812 57.691406 29.226562 57.386719 C 29.078125 57.386719 28.929688 57.386719 28.777344 57.386719 C 28.613281 57.554688 28.613281 57.554688 28.507812 57.742188 C 28.539062 57.539062 28.566406 57.332031 28.597656 57.121094 Z M 28.597656 57.121094 " fill-opacity="1" fill-rule="nonzero"/><path fill="#b7f9ab" d="M 24.019531 53.039062 C 24.046875 53.039062 24.078125 53.039062 24.109375 53.039062 C 24.109375 53.65625 24.109375 54.269531 24.109375 54.902344 C 24.019531 54.902344 23.929688 54.902344 23.839844 54.902344 C 23.882812 54.28125 23.933594 53.660156 24.019531 53.039062 Z M 24.019531 53.039062 " fill-opacity="1" fill-rule="nonzero"/><path fill="#8ffb81" d="M 29.316406 56.945312 C 29.433594 57.128906 29.433594 57.128906 29.496094 57.300781 C 29.4375 57.269531 29.378906 57.242188 29.316406 57.210938 C 28.75 57.171875 28.75 57.171875 28.238281 57.386719 C 28.332031 57.140625 28.390625 57.046875 28.625 56.917969 C 28.902344 56.847656 29.050781 56.84375 29.316406 56.945312 Z M 29.316406 56.945312 " fill-opacity="1" fill-rule="nonzero"/><path fill="#78f26c" d="M 28.058594 60.671875 C 28.089844 60.757812 28.117188 60.847656 28.148438 60.9375 C 27.675781 60.878906 27.203125 60.820312 26.710938 60.761719 C 26.710938 60.730469 26.710938 60.703125 26.710938 60.671875 C 27.164062 60.539062 27.601562 60.613281 28.058594 60.671875 Z M 28.058594 60.671875 " fill-opacity="1" fill-rule="nonzero"/><path fill="#94f086" d="M 27.96875 59.695312 C 28.03125 59.695312 28.089844 59.695312 28.148438 59.695312 C 28.15625 59.757812 28.160156 59.816406 28.167969 59.878906 C 28.171875 59.960938 28.179688 60.039062 28.1875 60.121094 C 28.195312 60.203125 28.203125 60.28125 28.210938 60.363281 C 28.234375 60.59375 28.234375 60.59375 28.328125 60.847656 C 28.246094 61.042969 28.246094 61.042969 28.148438 61.203125 C 27.929688 60.703125 27.953125 60.230469 27.96875 59.695312 Z M 27.96875 59.695312 " fill-opacity="1" fill-rule="nonzero"/><path fill="#82827f" d="M 32.101562 89.957031 C 32.191406 89.957031 32.277344 89.957031 32.371094 89.957031 C 32.371094 90.21875 32.371094 90.484375 32.371094 90.753906 C 32.28125 90.753906 32.191406 90.753906 32.101562 90.753906 C 32.101562 90.492188 32.101562 90.226562 32.101562 89.957031 Z M 32.101562 89.957031 " fill-opacity="1" fill-rule="nonzero"/><path fill="#898887" d="M 25.457031 89.957031 C 25.542969 89.957031 25.632812 89.957031 25.726562 89.957031 C 25.726562 90.21875 25.726562 90.484375 25.726562 90.753906 C 25.636719 90.753906 25.546875 90.753906 25.457031 90.753906 C 25.457031 90.492188 25.457031 90.226562 25.457031 89.957031 Z M 25.457031 89.957031 " fill-opacity="1" fill-rule="nonzero"/><g clip-path="url(#ceb5fb09e9)"><path fill="#6a6b67" d="M 17.28125 56.234375 C 17.3125 56.234375 17.34375 56.234375 17.371094 56.234375 C 17.371094 56.644531 17.371094 57.054688 17.371094 57.476562 C 17.285156 57.417969 17.195312 57.359375 17.101562 57.300781 C 17.085938 56.976562 17.085938 56.976562 17.101562 56.679688 C 17.164062 56.679688 17.222656 56.679688 17.28125 56.679688 C 17.28125 56.53125 17.28125 56.386719 17.28125 56.234375 Z M 17.28125 56.234375 " fill-opacity="1" fill-rule="nonzero"/></g><path fill="#0b1208" d="M 29.765625 61.203125 C 30.003906 61.203125 30.242188 61.203125 30.484375 61.203125 C 30.484375 61.234375 30.484375 61.261719 30.484375 61.292969 C 30.335938 61.320312 30.1875 61.351562 30.035156 61.382812 C 30.007812 61.527344 29.976562 61.675781 29.945312 61.824219 C 29.886719 61.824219 29.828125 61.824219 29.765625 61.824219 C 29.765625 61.621094 29.765625 61.414062 29.765625 61.203125 Z M 29.765625 61.203125 " fill-opacity="1" fill-rule="nonzero"/></svg>