<svg xmlns="http://www.w3.org/2000/svg" xmlns:xlink="http://www.w3.org/1999/xlink" width="80" zoomAndPan="magnify" viewBox="0 0 60 112.499997" height="150" preserveAspectRatio="xMidYMid meet" version="1.0"><defs><clipPath id="272ecaa75c"><path d="M 0.132812 0 L 59.867188 0 L 59.867188 112.003906 L 0.132812 112.003906 Z M 0.132812 0 " clip-rule="nonzero"/></clipPath></defs><g clip-path="url(#272ecaa75c)"><path fill="#ffffff" d="M 0.132812 0 L 59.867188 0 L 59.867188 112.003906 L 0.132812 112.003906 Z M 0.132812 0 " fill-opacity="1" fill-rule="nonzero"/><path fill="#ffffff" d="M 0.132812 0 L 59.867188 0 L 59.867188 112.003906 L 0.132812 112.003906 Z M 0.132812 0 " fill-opacity="1" fill-rule="nonzero"/></g><path fill="#010001" d="M 29.5625 22.03125 C 29.644531 22.046875 29.726562 22.066406 29.808594 22.082031 C 30.125 22.140625 30.125 22.140625 30.410156 22.066406 C 30.996094 21.992188 31.570312 22.421875 32.066406 22.710938 C 32.128906 22.746094 32.1875 22.78125 32.25 22.816406 C 32.398438 22.902344 32.542969 22.988281 32.691406 23.074219 C 32.691406 23.136719 32.691406 23.199219 32.691406 23.265625 C 32.847656 23.296875 33.003906 23.328125 33.164062 23.359375 C 33.203125 23.511719 33.203125 23.511719 33.242188 23.667969 C 33.324219 24.011719 33.324219 24.011719 33.5 24.199219 C 33.683594 24.472656 33.671875 24.65625 33.660156 24.980469 C 33.660156 25.078125 33.660156 25.179688 33.65625 25.28125 C 33.636719 25.542969 33.636719 25.542969 33.542969 25.828125 C 33.515625 26.035156 33.496094 26.238281 33.476562 26.445312 C 33.46875 26.554688 33.457031 26.664062 33.449219 26.773438 C 33.421875 27.082031 33.421875 27.082031 33.636719 27.347656 C 33.699219 27.949219 33.59375 28.449219 33.257812 28.960938 C 33.164062 28.992188 33.070312 29.027344 32.976562 29.058594 C 32.828125 29.332031 32.78125 29.5625 32.738281 29.871094 C 32.691406 30.199219 32.691406 30.199219 32.59375 30.378906 C 32.484375 30.613281 32.476562 30.777344 32.476562 31.035156 C 32.476562 31.121094 32.476562 31.207031 32.476562 31.296875 C 32.476562 31.386719 32.476562 31.476562 32.476562 31.570312 C 32.476562 31.65625 32.476562 31.746094 32.476562 31.839844 C 32.460938 32.476562 32.460938 32.476562 32.691406 33.046875 C 32.933594 33.15625 32.933594 33.15625 33.257812 33.238281 C 33.425781 33.304688 33.589844 33.375 33.753906 33.445312 C 34.714844 33.863281 35.660156 34.261719 36.683594 34.507812 C 37.589844 34.726562 38.335938 35.152344 38.882812 35.917969 C 39.191406 36.523438 39.234375 37.179688 39.269531 37.84375 C 39.308594 38.429688 39.457031 38.882812 39.707031 39.410156 C 39.773438 39.554688 39.839844 39.703125 39.90625 39.847656 C 39.9375 39.910156 39.96875 39.972656 39.996094 40.039062 C 40.226562 40.628906 40.308594 41.179688 40.300781 41.808594 C 40.296875 41.878906 40.296875 41.953125 40.296875 42.027344 C 40.285156 42.941406 40.261719 43.9375 40.039062 44.828125 C 39.804688 45.769531 39.964844 46.652344 40.425781 47.488281 C 40.6875 48.035156 40.671875 48.625 40.671875 49.222656 C 40.671875 49.285156 40.675781 49.351562 40.675781 49.417969 C 40.675781 49.851562 40.640625 50.277344 40.585938 50.710938 C 40.460938 51.707031 40.4375 52.695312 40.441406 53.699219 C 40.441406 53.976562 40.441406 54.25 40.4375 54.527344 C 40.4375 54.703125 40.441406 54.878906 40.441406 55.054688 C 40.441406 55.136719 40.4375 55.21875 40.4375 55.304688 C 40.441406 55.71875 40.472656 56.03125 40.65625 56.410156 C 40.699219 56.691406 40.699219 56.691406 40.726562 56.988281 C 40.734375 57.082031 40.746094 57.179688 40.753906 57.28125 C 40.75 57.558594 40.703125 57.699219 40.558594 57.929688 C 40.496094 57.929688 40.433594 57.929688 40.371094 57.929688 C 40.34375 57.984375 40.320312 58.039062 40.292969 58.097656 C 40.179688 58.3125 40.054688 58.5 39.90625 58.695312 C 39.863281 58.761719 39.816406 58.824219 39.765625 58.890625 C 39.601562 59.082031 39.445312 59.21875 39.234375 59.355469 C 39.011719 59.332031 39.011719 59.332031 38.757812 59.261719 C 38.640625 59.246094 38.523438 59.230469 38.402344 59.210938 C 38.09375 59.164062 38.09375 59.164062 38 59.070312 C 37.925781 57.925781 37.929688 56.773438 38.488281 55.734375 C 38.742188 55.175781 38.398438 54.457031 38.210938 53.921875 C 37.941406 53.085938 37.738281 52.230469 37.527344 51.378906 C 37.503906 51.292969 37.484375 51.207031 37.460938 51.121094 C 37.152344 49.902344 36.96875 48.695312 36.816406 47.449219 C 36.707031 46.582031 36.527344 45.820312 36.199219 45.015625 C 36.132812 44.824219 36.070312 44.632812 36.007812 44.445312 C 35.632812 44.570312 35.554688 44.734375 35.359375 45.070312 C 35.023438 45.785156 35.050781 46.550781 35.066406 47.324219 C 35.058594 47.683594 35.007812 48.015625 34.941406 48.367188 C 34.800781 49.296875 35.058594 50.136719 35.351562 51.015625 C 35.507812 51.648438 35.546875 52.304688 35.609375 52.953125 C 35.695312 53.828125 35.84375 54.675781 36.117188 55.507812 C 36.269531 56.132812 36.234375 56.777344 36.242188 57.417969 C 36.261719 58.191406 36.378906 58.894531 36.578125 59.640625 C 36.792969 60.457031 36.808594 61.363281 36.765625 62.203125 C 36.761719 62.34375 36.761719 62.34375 36.753906 62.480469 C 36.675781 63.351562 36.378906 64.085938 36.054688 64.886719 C 35.816406 65.472656 35.601562 66.054688 35.429688 66.664062 C 35.40625 66.730469 35.386719 66.796875 35.367188 66.863281 C 35.238281 67.332031 35.257812 67.71875 35.34375 68.1875 C 35.363281 68.285156 35.378906 68.382812 35.398438 68.484375 C 35.4375 68.714844 35.480469 68.941406 35.523438 69.171875 C 35.816406 70.820312 36.082031 72.453125 35.535156 74.078125 C 35.5 74.183594 35.464844 74.292969 35.429688 74.402344 C 35.289062 74.839844 35.140625 75.273438 34.988281 75.707031 C 34.597656 76.832031 34.316406 77.925781 34.132812 79.105469 C 34.121094 79.1875 34.109375 79.265625 34.097656 79.347656 C 34.070312 79.507812 34.046875 79.664062 34.027344 79.820312 C 33.964844 80.234375 33.875 80.613281 33.734375 81.011719 C 33.449219 81.9375 33.324219 83.214844 33.640625 84.144531 C 33.933594 84.609375 34.359375 84.960938 34.78125 85.308594 C 34.964844 85.472656 34.964844 85.472656 35.15625 85.757812 C 35.164062 86.21875 35.082031 86.679688 34.871094 87.089844 C 34.628906 87.332031 34.441406 87.382812 34.113281 87.46875 C 33.890625 87.46875 33.671875 87.46875 33.449219 87.46875 C 33.222656 87.519531 33.007812 87.585938 32.785156 87.660156 C 32.378906 87.304688 32.242188 87.058594 32.152344 86.53125 C 32.128906 86.414062 32.109375 86.296875 32.085938 86.175781 C 32.066406 86.070312 32.046875 85.960938 32.027344 85.855469 C 31.992188 85.726562 31.957031 85.601562 31.917969 85.480469 C 31.835938 85.1875 31.835938 85.1875 31.800781 84.851562 C 31.765625 84.515625 31.765625 84.515625 31.550781 84.277344 C 31.296875 83.839844 31.3125 83.5 31.328125 83.003906 C 31.328125 82.921875 31.328125 82.835938 31.328125 82.753906 C 31.332031 82.390625 31.347656 82.101562 31.464844 81.757812 C 31.582031 81.394531 31.53125 81.078125 31.476562 80.707031 C 31.398438 80.109375 31.34375 79.519531 31.320312 78.921875 C 31.25 77.378906 31.109375 75.859375 30.679688 74.375 C 30.347656 73.207031 30.234375 72.023438 30.558594 70.839844 C 30.78125 69.972656 30.8125 69.054688 30.8125 68.164062 C 30.8125 68.085938 30.8125 68.011719 30.8125 67.929688 C 30.8125 67.542969 30.8125 67.542969 30.75 67.164062 C 30.675781 66.855469 30.667969 66.542969 30.652344 66.226562 C 30.644531 66.121094 30.644531 66.121094 30.640625 66.015625 C 30.628906 65.792969 30.617188 65.566406 30.605469 65.34375 C 30.589844 65.050781 30.574219 64.757812 30.558594 64.464844 C 30.554688 64.398438 30.550781 64.328125 30.546875 64.261719 C 30.527344 63.914062 30.488281 63.585938 30.414062 63.25 C 30.386719 62.945312 30.375 62.644531 30.359375 62.339844 C 30.355469 62.25 30.351562 62.164062 30.347656 62.070312 C 30.300781 60.882812 30.3125 59.691406 30.320312 58.5 C 30.195312 58.5 30.070312 58.5 29.941406 58.5 C 29.9375 58.566406 29.9375 58.628906 29.933594 58.695312 C 29.898438 59.941406 29.847656 61.1875 29.757812 62.429688 C 29.75 62.53125 29.742188 62.632812 29.734375 62.738281 C 29.695312 63.246094 29.640625 63.742188 29.558594 64.242188 C 29.457031 64.867188 29.429688 65.480469 29.414062 66.109375 C 29.378906 67.28125 29.378906 67.28125 29.316406 67.867188 C 29.265625 68.402344 29.300781 68.914062 29.355469 69.445312 C 29.363281 69.535156 29.371094 69.625 29.378906 69.71875 C 29.414062 70.089844 29.453125 70.425781 29.566406 70.785156 C 29.703125 71.320312 29.6875 71.851562 29.6875 72.402344 C 29.6875 72.515625 29.6875 72.625 29.691406 72.742188 C 29.691406 73.410156 29.613281 73.933594 29.371094 74.550781 C 28.902344 76.328125 28.800781 78.234375 28.726562 80.0625 C 28.707031 80.472656 28.667969 80.875 28.621094 81.28125 C 28.601562 81.480469 28.601562 81.480469 28.65625 81.652344 C 28.765625 82.113281 28.753906 82.601562 28.773438 83.074219 C 28.777344 83.183594 28.785156 83.296875 28.789062 83.40625 C 28.816406 84.015625 28.796875 84.511719 28.613281 85.09375 C 28.574219 85.226562 28.535156 85.363281 28.496094 85.496094 C 28.453125 85.628906 28.410156 85.761719 28.371094 85.894531 C 28.339844 85.996094 28.339844 85.996094 28.304688 86.101562 C 28.152344 86.601562 28.152344 86.601562 28.042969 86.707031 C 28.019531 86.949219 28.007812 87.1875 27.996094 87.425781 C 27.941406 87.695312 27.886719 87.789062 27.664062 87.941406 C 27.0625 87.910156 27.0625 87.910156 26.8125 87.660156 C 26.734375 87.710938 26.734375 87.710938 26.65625 87.761719 C 26.347656 87.878906 26.203125 87.808594 25.898438 87.695312 C 25.808594 87.660156 25.714844 87.628906 25.621094 87.59375 C 25.355469 87.449219 25.296875 87.371094 25.199219 87.089844 C 25.058594 86.5625 25.070312 86.160156 25.339844 85.683594 C 25.523438 85.417969 25.71875 85.164062 25.917969 84.910156 C 26.695312 83.875 26.683594 83.019531 26.527344 81.769531 C 26.453125 81.351562 26.351562 80.945312 26.242188 80.535156 C 26.0625 79.75 25.910156 78.960938 25.777344 78.164062 C 25.65625 77.457031 25.476562 76.785156 25.242188 76.105469 C 25.199219 75.96875 25.152344 75.832031 25.105469 75.695312 C 25.035156 75.484375 24.964844 75.273438 24.890625 75.0625 C 24.425781 73.710938 24.144531 72.390625 24.3125 70.953125 C 24.320312 70.867188 24.328125 70.78125 24.335938 70.691406 C 24.410156 70.019531 24.535156 69.359375 24.695312 68.703125 C 24.886719 67.902344 24.855469 67.210938 24.625 66.425781 C 24.605469 66.351562 24.582031 66.277344 24.5625 66.203125 C 24.410156 65.691406 24.222656 65.210938 24.003906 64.726562 C 23.15625 62.851562 23.292969 60.878906 23.683594 58.878906 C 23.714844 58.816406 23.746094 58.753906 23.777344 58.691406 C 23.800781 58.480469 23.816406 58.269531 23.832031 58.0625 C 23.839844 57.949219 23.847656 57.835938 23.855469 57.71875 C 23.867188 57.476562 23.871094 57.234375 23.863281 56.992188 C 23.863281 56.550781 23.949219 56.136719 24.039062 55.703125 C 24.191406 54.929688 24.328125 54.15625 24.453125 53.378906 C 24.46875 53.277344 24.484375 53.175781 24.5 53.070312 C 24.582031 52.546875 24.660156 52.027344 24.726562 51.5 C 24.800781 50.945312 24.945312 50.417969 25.113281 49.882812 C 25.25 49.394531 25.335938 48.96875 25.210938 48.472656 C 25.078125 47.835938 25.070312 47.191406 25.066406 46.539062 C 25.050781 45.917969 24.914062 45.46875 24.628906 44.917969 C 24.566406 44.761719 24.503906 44.601562 24.441406 44.445312 C 24.136719 44.511719 24.136719 44.511719 24.015625 44.792969 C 23.550781 45.882812 23.308594 46.929688 23.238281 48.117188 C 23.15625 49.03125 22.914062 49.925781 22.683594 50.808594 C 22.578125 51.222656 22.496094 51.636719 22.421875 52.058594 C 22.289062 52.757812 22.066406 53.410156 21.816406 54.074219 C 21.621094 54.628906 21.507812 55.15625 21.597656 55.746094 C 21.660156 55.808594 21.722656 55.871094 21.785156 55.9375 C 22.203125 56.804688 22.3125 57.925781 22.261719 58.878906 C 21.96875 59.171875 21.613281 59.257812 21.21875 59.355469 C 20.867188 59.355469 20.769531 59.28125 20.5 59.050781 C 20.269531 58.785156 20.085938 58.507812 19.890625 58.214844 C 19.804688 58.152344 19.71875 58.085938 19.628906 58.019531 C 19.285156 57.570312 19.351562 57.054688 19.414062 56.507812 C 19.449219 56.429688 19.480469 56.355469 19.511719 56.28125 C 19.609375 56.019531 19.628906 55.835938 19.628906 55.558594 C 19.628906 55.464844 19.632812 55.375 19.632812 55.28125 C 19.632812 55.132812 19.632812 55.132812 19.628906 54.984375 C 19.628906 54.878906 19.632812 54.777344 19.632812 54.671875 C 19.632812 54.457031 19.632812 54.238281 19.628906 54.023438 C 19.628906 53.695312 19.628906 53.367188 19.632812 53.039062 C 19.632812 52.828125 19.632812 52.617188 19.628906 52.40625 C 19.632812 52.308594 19.632812 52.210938 19.632812 52.113281 C 19.628906 51.550781 19.574219 51.023438 19.460938 50.472656 C 19.386719 50.082031 19.378906 49.695312 19.378906 49.300781 C 19.378906 49.21875 19.378906 49.136719 19.378906 49.050781 C 19.394531 48.300781 19.492188 47.515625 19.949219 46.894531 C 20.148438 46.488281 20.117188 46.097656 20.109375 45.648438 C 20.109375 45.507812 20.109375 45.507812 20.105469 45.363281 C 20.097656 44.832031 20.0625 44.3125 19.984375 43.785156 C 19.894531 43.152344 19.867188 42.53125 19.859375 41.890625 C 19.859375 41.757812 19.859375 41.757812 19.855469 41.617188 C 19.855469 40.730469 20.0625 40.035156 20.519531 39.273438 C 20.863281 38.648438 20.894531 38.089844 20.90625 37.386719 C 20.929688 36.453125 21.238281 35.933594 21.84375 35.234375 C 22.574219 34.609375 23.554688 34.4375 24.457031 34.1875 C 25.046875 34.019531 25.535156 33.84375 26.054688 33.523438 C 26.371094 33.398438 26.691406 33.285156 27.011719 33.175781 C 27.3125 33.035156 27.398438 32.945312 27.570312 32.667969 C 27.621094 32.445312 27.621094 32.445312 27.625 32.207031 C 27.628906 32.117188 27.632812 32.027344 27.636719 31.9375 C 27.640625 31.84375 27.644531 31.753906 27.648438 31.65625 C 27.652344 31.566406 27.65625 31.476562 27.660156 31.386719 C 27.691406 30.644531 27.648438 29.820312 27.285156 29.152344 C 27.226562 29.113281 27.164062 29.070312 27.101562 29.027344 C 26.757812 28.746094 26.644531 28.339844 26.601562 27.90625 C 26.597656 27.640625 26.609375 27.390625 26.679688 27.132812 C 26.730469 26.785156 26.65625 26.511719 26.582031 26.171875 C 26.429688 25.511719 26.316406 24.9375 26.621094 24.308594 C 26.683594 24.308594 26.746094 24.308594 26.8125 24.308594 C 26.835938 24.222656 26.863281 24.132812 26.886719 24.042969 C 26.992188 23.761719 27.046875 23.625 27.285156 23.453125 C 27.378906 23.453125 27.472656 23.453125 27.570312 23.453125 C 27.605469 23.371094 27.605469 23.371094 27.640625 23.289062 C 27.894531 22.835938 28.25 22.558594 28.742188 22.402344 C 29.015625 22.332031 29.285156 22.269531 29.5625 22.21875 C 29.5625 22.15625 29.5625 22.09375 29.5625 22.03125 Z M 21.027344 57.929688 C 21.085938 58.121094 21.148438 58.3125 21.21875 58.5 C 21.28125 58.53125 21.34375 58.5625 21.40625 58.59375 C 21.40625 58.40625 21.40625 58.21875 21.40625 58.027344 C 21.28125 57.996094 21.15625 57.960938 21.027344 57.929688 Z M 38.851562 57.929688 C 38.636719 58.105469 38.636719 58.105469 38.652344 58.371094 C 38.65625 58.445312 38.660156 58.519531 38.664062 58.59375 C 38.859375 58.480469 38.859375 58.480469 39.042969 58.308594 C 39.042969 58.183594 39.042969 58.058594 39.042969 57.929688 C 38.980469 57.929688 38.917969 57.929688 38.851562 57.929688 Z M 38.851562 57.929688 " fill-opacity="1" fill-rule="nonzero"/><path fill="#010102" d="M 35.441406 51.851562 C 35.449219 51.921875 35.457031 51.992188 35.46875 52.066406 C 35.660156 53.617188 35.660156 53.617188 36.027344 55.128906 C 36.253906 55.890625 36.25 56.664062 36.253906 57.457031 C 36.265625 58.21875 36.382812 58.90625 36.578125 59.640625 C 36.792969 60.457031 36.808594 61.363281 36.765625 62.203125 C 36.761719 62.34375 36.761719 62.34375 36.753906 62.480469 C 36.675781 63.351562 36.378906 64.085938 36.054688 64.886719 C 35.816406 65.472656 35.601562 66.054688 35.429688 66.664062 C 35.40625 66.730469 35.386719 66.796875 35.367188 66.863281 C 35.238281 67.332031 35.257812 67.71875 35.34375 68.1875 C 35.363281 68.285156 35.378906 68.382812 35.398438 68.484375 C 35.4375 68.714844 35.480469 68.941406 35.523438 69.171875 C 35.816406 70.820312 36.082031 72.453125 35.535156 74.078125 C 35.5 74.183594 35.464844 74.292969 35.429688 74.402344 C 35.289062 74.839844 35.140625 75.273438 34.988281 75.707031 C 34.597656 76.832031 34.316406 77.925781 34.132812 79.105469 C 34.121094 79.1875 34.109375 79.265625 34.097656 79.347656 C 34.070312 79.507812 34.046875 79.664062 34.027344 79.820312 C 33.964844 80.234375 33.875 80.613281 33.734375 81.011719 C 33.449219 81.9375 33.324219 83.214844 33.640625 84.144531 C 33.933594 84.609375 34.359375 84.960938 34.78125 85.308594 C 34.964844 85.472656 34.964844 85.472656 35.15625 85.757812 C 35.164062 86.21875 35.082031 86.679688 34.871094 87.089844 C 34.628906 87.332031 34.441406 87.382812 34.113281 87.46875 C 33.890625 87.46875 33.671875 87.46875 33.449219 87.46875 C 33.222656 87.519531 33.007812 87.585938 32.785156 87.660156 C 32.378906 87.304688 32.242188 87.058594 32.152344 86.53125 C 32.117188 86.355469 32.117188 86.355469 32.085938 86.175781 C 32.066406 86.070312 32.046875 85.960938 32.027344 85.855469 C 31.992188 85.726562 31.957031 85.601562 31.917969 85.480469 C 31.835938 85.1875 31.835938 85.1875 31.800781 84.851562 C 31.765625 84.515625 31.765625 84.515625 31.550781 84.277344 C 31.296875 83.839844 31.3125 83.5 31.328125 83.003906 C 31.328125 82.921875 31.328125 82.835938 31.328125 82.753906 C 31.332031 82.390625 31.347656 82.101562 31.464844 81.757812 C 31.582031 81.394531 31.53125 81.078125 31.476562 80.707031 C 31.398438 80.109375 31.34375 79.519531 31.320312 78.921875 C 31.25 77.378906 31.109375 75.859375 30.679688 74.375 C 30.347656 73.207031 30.234375 72.023438 30.558594 70.839844 C 30.78125 69.972656 30.8125 69.054688 30.8125 68.164062 C 30.8125 68.085938 30.8125 68.011719 30.8125 67.929688 C 30.8125 67.542969 30.8125 67.542969 30.75 67.164062 C 30.675781 66.855469 30.667969 66.542969 30.652344 66.226562 C 30.648438 66.15625 30.644531 66.085938 30.640625 66.015625 C 30.628906 65.792969 30.617188 65.566406 30.605469 65.34375 C 30.589844 65.050781 30.574219 64.757812 30.558594 64.464844 C 30.554688 64.398438 30.550781 64.328125 30.546875 64.261719 C 30.527344 63.914062 30.488281 63.585938 30.414062 63.25 C 30.386719 62.945312 30.375 62.644531 30.359375 62.339844 C 30.355469 62.25 30.351562 62.164062 30.347656 62.070312 C 30.300781 60.882812 30.3125 59.691406 30.320312 58.5 C 30.195312 58.5 30.070312 58.5 29.941406 58.5 C 29.9375 58.566406 29.9375 58.628906 29.933594 58.695312 C 29.898438 59.941406 29.847656 61.1875 29.757812 62.429688 C 29.75 62.53125 29.742188 62.632812 29.734375 62.738281 C 29.695312 63.246094 29.640625 63.742188 29.558594 64.242188 C 29.457031 64.867188 29.429688 65.480469 29.414062 66.109375 C 29.378906 67.28125 29.378906 67.28125 29.316406 67.867188 C 29.265625 68.402344 29.300781 68.914062 29.355469 69.445312 C 29.367188 69.582031 29.367188 69.582031 29.378906 69.71875 C 29.414062 70.089844 29.453125 70.425781 29.566406 70.785156 C 29.703125 71.320312 29.6875 71.851562 29.6875 72.402344 C 29.6875 72.515625 29.6875 72.625 29.691406 72.742188 C 29.691406 73.410156 29.613281 73.933594 29.371094 74.550781 C 28.902344 76.328125 28.800781 78.234375 28.726562 80.0625 C 28.707031 80.472656 28.667969 80.875 28.621094 81.28125 C 28.601562 81.480469 28.601562 81.480469 28.65625 81.652344 C 28.765625 82.113281 28.753906 82.601562 28.773438 83.074219 C 28.777344 83.183594 28.785156 83.296875 28.789062 83.40625 C 28.816406 84.015625 28.796875 84.511719 28.613281 85.09375 C 28.574219 85.226562 28.535156 85.363281 28.496094 85.496094 C 28.453125 85.628906 28.410156 85.761719 28.371094 85.894531 C 28.347656 85.964844 28.328125 86.03125 28.304688 86.101562 C 28.152344 86.601562 28.152344 86.601562 28.042969 86.707031 C 28.019531 86.949219 28.007812 87.1875 27.996094 87.425781 C 27.941406 87.695312 27.886719 87.789062 27.664062 87.941406 C 27.0625 87.910156 27.0625 87.910156 26.8125 87.660156 C 26.734375 87.710938 26.734375 87.710938 26.65625 87.761719 C 26.347656 87.878906 26.203125 87.808594 25.898438 87.695312 C 25.808594 87.660156 25.714844 87.628906 25.621094 87.59375 C 25.355469 87.449219 25.296875 87.371094 25.199219 87.089844 C 25.058594 86.5625 25.070312 86.160156 25.339844 85.683594 C 25.523438 85.417969 25.71875 85.164062 25.917969 84.910156 C 26.695312 83.875 26.683594 83.019531 26.527344 81.769531 C 26.453125 81.351562 26.351562 80.945312 26.242188 80.535156 C 26.0625 79.75 25.910156 78.960938 25.777344 78.164062 C 25.65625 77.457031 25.476562 76.785156 25.242188 76.105469 C 25.199219 75.96875 25.152344 75.832031 25.105469 75.695312 C 25.035156 75.484375 24.964844 75.273438 24.890625 75.0625 C 24.425781 73.710938 24.144531 72.390625 24.3125 70.953125 C 24.320312 70.867188 24.328125 70.78125 24.335938 70.691406 C 24.410156 70.019531 24.535156 69.359375 24.695312 68.703125 C 24.886719 67.902344 24.855469 67.210938 24.625 66.425781 C 24.605469 66.351562 24.582031 66.277344 24.5625 66.203125 C 24.410156 65.691406 24.222656 65.210938 24.003906 64.726562 C 23.15625 62.851562 23.292969 60.878906 23.683594 58.878906 C 23.730469 58.785156 23.730469 58.785156 23.777344 58.691406 C 23.800781 58.480469 23.816406 58.269531 23.832031 58.0625 C 23.839844 57.949219 23.847656 57.835938 23.855469 57.71875 C 23.867188 57.476562 23.871094 57.234375 23.863281 56.992188 C 23.863281 56.550781 23.949219 56.136719 24.039062 55.703125 C 24.21875 54.804688 24.367188 53.90625 24.507812 53 C 24.523438 52.902344 24.535156 52.808594 24.550781 52.710938 C 24.566406 52.625 24.578125 52.539062 24.589844 52.449219 C 24.628906 52.230469 24.628906 52.230469 24.726562 51.945312 C 24.882812 51.945312 25.039062 51.945312 25.199219 51.945312 C 25.199219 52.007812 25.199219 52.074219 25.199219 52.136719 C 25.382812 52.132812 25.382812 52.132812 25.570312 52.128906 C 25.734375 52.128906 25.894531 52.125 26.058594 52.125 C 26.140625 52.125 26.21875 52.121094 26.300781 52.121094 C 26.796875 52.117188 27.191406 52.179688 27.664062 52.328125 C 28.328125 52.441406 28.996094 52.441406 29.667969 52.441406 C 29.828125 52.441406 29.828125 52.441406 29.992188 52.441406 C 31.714844 52.546875 31.714844 52.546875 33.257812 52.136719 C 33.449219 52.121094 33.636719 52.105469 33.828125 52.09375 C 34.355469 52.058594 34.925781 51.851562 35.441406 51.851562 Z M 35.441406 51.851562 " fill-opacity="1" fill-rule="nonzero"/><path fill="#010101" d="M 34.730469 57.621094 C 34.851562 57.621094 34.972656 57.621094 35.101562 57.621094 C 35.214844 57.621094 35.332031 57.621094 35.449219 57.621094 C 35.605469 57.621094 35.605469 57.621094 35.761719 57.621094 C 36.007812 57.644531 36.007812 57.644531 36.199219 57.835938 C 36.253906 58.015625 36.253906 58.015625 36.296875 58.234375 C 36.3125 58.316406 36.328125 58.394531 36.34375 58.476562 C 36.359375 58.558594 36.378906 58.640625 36.394531 58.726562 C 36.425781 58.890625 36.460938 59.050781 36.492188 59.214844 C 36.507812 59.289062 36.519531 59.359375 36.535156 59.433594 C 36.5625 59.570312 36.59375 59.707031 36.628906 59.839844 C 36.808594 60.585938 36.804688 61.4375 36.765625 62.203125 C 36.761719 62.296875 36.757812 62.386719 36.753906 62.480469 C 36.675781 63.351562 36.378906 64.085938 36.054688 64.886719 C 35.816406 65.472656 35.601562 66.054688 35.429688 66.664062 C 35.40625 66.730469 35.386719 66.796875 35.367188 66.863281 C 35.238281 67.332031 35.257812 67.71875 35.34375 68.1875 C 35.363281 68.285156 35.378906 68.382812 35.398438 68.484375 C 35.4375 68.714844 35.480469 68.941406 35.523438 69.171875 C 35.816406 70.820312 36.082031 72.453125 35.535156 74.078125 C 35.5 74.183594 35.464844 74.292969 35.429688 74.402344 C 35.289062 74.839844 35.140625 75.273438 34.988281 75.707031 C 34.597656 76.832031 34.316406 77.925781 34.132812 79.105469 C 34.121094 79.1875 34.109375 79.265625 34.097656 79.347656 C 34.070312 79.507812 34.046875 79.664062 34.027344 79.820312 C 33.964844 80.234375 33.875 80.613281 33.734375 81.011719 C 33.449219 81.9375 33.324219 83.214844 33.640625 84.144531 C 33.933594 84.609375 34.359375 84.960938 34.78125 85.308594 C 34.964844 85.472656 34.964844 85.472656 35.15625 85.757812 C 35.164062 86.21875 35.082031 86.679688 34.871094 87.089844 C 34.628906 87.332031 34.441406 87.382812 34.113281 87.46875 C 33.890625 87.46875 33.671875 87.46875 33.449219 87.46875 C 33.222656 87.519531 33.007812 87.585938 32.785156 87.660156 C 32.378906 87.304688 32.242188 87.058594 32.152344 86.53125 C 32.117188 86.355469 32.117188 86.355469 32.085938 86.175781 C 32.066406 86.070312 32.046875 85.960938 32.027344 85.855469 C 31.992188 85.726562 31.957031 85.601562 31.917969 85.480469 C 31.835938 85.1875 31.835938 85.1875 31.800781 84.851562 C 31.765625 84.515625 31.765625 84.515625 31.550781 84.277344 C 31.296875 83.839844 31.3125 83.5 31.328125 83.003906 C 31.328125 82.921875 31.328125 82.835938 31.328125 82.753906 C 31.332031 82.390625 31.347656 82.101562 31.464844 81.757812 C 31.582031 81.394531 31.53125 81.078125 31.476562 80.707031 C 31.398438 80.109375 31.34375 79.519531 31.320312 78.921875 C 31.25 77.378906 31.109375 75.859375 30.679688 74.375 C 30.347656 73.207031 30.234375 72.023438 30.558594 70.839844 C 30.78125 69.972656 30.8125 69.054688 30.8125 68.164062 C 30.8125 68.085938 30.8125 68.011719 30.8125 67.929688 C 30.8125 67.542969 30.8125 67.542969 30.75 67.164062 C 30.675781 66.855469 30.667969 66.542969 30.652344 66.226562 C 30.644531 66.121094 30.644531 66.121094 30.640625 66.015625 C 30.628906 65.792969 30.617188 65.566406 30.605469 65.34375 C 30.589844 65.050781 30.574219 64.757812 30.558594 64.464844 C 30.550781 64.363281 30.550781 64.363281 30.546875 64.261719 C 30.527344 63.914062 30.488281 63.585938 30.414062 63.25 C 30.386719 62.949219 30.375 62.648438 30.359375 62.347656 C 30.355469 62.257812 30.351562 62.167969 30.347656 62.078125 C 30.300781 60.855469 30.3125 59.628906 30.320312 58.40625 C 30.414062 58.375 30.507812 58.34375 30.605469 58.308594 C 30.605469 58.246094 30.605469 58.183594 30.605469 58.121094 C 31.921875 57.625 33.339844 57.628906 34.730469 57.621094 Z M 34.730469 57.621094 " fill-opacity="1" fill-rule="nonzero"/><path fill="#83fb72" d="M 35.441406 51.851562 C 35.449219 51.921875 35.457031 51.992188 35.46875 52.066406 C 35.664062 53.632812 35.664062 53.632812 36.03125 55.164062 C 36.292969 56.035156 36.230469 56.9375 36.199219 57.835938 C 36.136719 57.804688 36.074219 57.773438 36.007812 57.742188 C 35.582031 57.71875 35.15625 57.722656 34.730469 57.722656 C 34.605469 57.722656 34.480469 57.722656 34.351562 57.722656 C 33.652344 57.726562 32.964844 57.746094 32.269531 57.824219 C 32.171875 57.835938 32.171875 57.835938 32.070312 57.847656 C 31.6875 57.894531 31.347656 58 30.984375 58.121094 C 30.859375 58.121094 30.734375 58.121094 30.605469 58.121094 C 30.605469 58.183594 30.605469 58.246094 30.605469 58.308594 C 30.320312 58.5 30.320312 58.5 29.941406 58.5 C 29.910156 58.5625 29.878906 58.625 29.84375 58.691406 C 29.609375 58.566406 29.609375 58.566406 29.371094 58.40625 C 29.371094 58.3125 29.371094 58.21875 29.371094 58.121094 C 29.261719 58.125 29.152344 58.125 29.042969 58.128906 C 28.632812 58.140625 28.222656 58.144531 27.8125 58.152344 C 27.636719 58.15625 27.460938 58.160156 27.285156 58.164062 C 25.515625 58.210938 25.515625 58.210938 24.675781 57.691406 C 24.417969 57.535156 24.160156 57.449219 23.871094 57.359375 C 23.855469 56.78125 23.921875 56.269531 24.039062 55.703125 C 24.21875 54.804688 24.367188 53.90625 24.507812 53 C 24.523438 52.902344 24.535156 52.808594 24.550781 52.710938 C 24.566406 52.625 24.578125 52.539062 24.589844 52.449219 C 24.628906 52.230469 24.628906 52.230469 24.726562 51.945312 C 24.882812 51.945312 25.039062 51.945312 25.199219 51.945312 C 25.199219 52.007812 25.199219 52.074219 25.199219 52.136719 C 25.382812 52.132812 25.382812 52.132812 25.570312 52.128906 C 25.734375 52.128906 25.894531 52.125 26.058594 52.125 C 26.140625 52.125 26.21875 52.121094 26.300781 52.121094 C 26.796875 52.117188 27.191406 52.179688 27.664062 52.328125 C 28.328125 52.441406 28.996094 52.441406 29.667969 52.441406 C 29.828125 52.441406 29.828125 52.441406 29.992188 52.441406 C 31.714844 52.546875 31.714844 52.546875 33.257812 52.136719 C 33.449219 52.121094 33.636719 52.105469 33.828125 52.09375 C 34.355469 52.058594 34.925781 51.851562 35.441406 51.851562 Z M 35.441406 51.851562 " fill-opacity="1" fill-rule="nonzero"/><path fill="#181218" d="M 19.890625 40.929688 C 19.953125 40.960938 20.015625 40.992188 20.078125 41.023438 C 20.09375 41.320312 20.113281 41.613281 20.128906 41.910156 C 20.132812 41.996094 20.136719 42.082031 20.140625 42.171875 C 20.167969 42.710938 20.179688 43.242188 20.160156 43.78125 C 20.160156 44 20.160156 44 20.363281 44.253906 C 20.390625 44.675781 20.363281 45.101562 20.347656 45.523438 C 20.34375 45.640625 20.339844 45.757812 20.335938 45.878906 C 20.332031 45.992188 20.328125 46.105469 20.324219 46.222656 C 20.320312 46.324219 20.316406 46.425781 20.3125 46.535156 C 20.261719 46.878906 20.136719 47.140625 19.890625 47.386719 C 19.855469 47.609375 19.824219 47.832031 19.796875 48.054688 C 19.734375 48.054688 19.671875 48.054688 19.605469 48.054688 C 19.605469 48.742188 19.605469 49.433594 19.605469 50.140625 C 19.542969 50.140625 19.480469 50.140625 19.414062 50.140625 C 19.324219 47.746094 19.324219 47.746094 19.949219 46.894531 C 20.148438 46.488281 20.117188 46.097656 20.109375 45.648438 C 20.109375 45.554688 20.109375 45.460938 20.105469 45.367188 C 20.097656 44.707031 20.027344 44.074219 19.933594 43.421875 C 19.828125 42.601562 19.875 41.757812 19.890625 40.929688 Z M 19.890625 40.929688 " fill-opacity="1" fill-rule="nonzero"/><path fill="#8cf880" d="M 33.257812 52.421875 C 33.257812 52.484375 33.257812 52.546875 33.257812 52.613281 C 32.882812 52.675781 32.507812 52.738281 32.121094 52.800781 C 32.089844 52.925781 32.058594 53.050781 32.027344 53.183594 C 31.871094 53.183594 31.71875 53.1875 31.5625 53.1875 C 31.433594 53.1875 31.433594 53.1875 31.304688 53.191406 C 31.078125 53.183594 31.078125 53.183594 30.886719 53.085938 C 30.738281 53.066406 30.585938 53.050781 30.433594 53.035156 C 30.300781 53.023438 30.300781 53.023438 30.164062 53.011719 C 30.023438 53 30.023438 53 29.882812 52.984375 C 29.738281 52.972656 29.738281 52.972656 29.597656 52.960938 C 29.363281 52.9375 29.128906 52.917969 28.898438 52.898438 C 28.898438 52.867188 28.898438 52.835938 28.898438 52.800781 C 28.972656 52.800781 29.050781 52.796875 29.128906 52.796875 C 29.472656 52.785156 29.816406 52.777344 30.160156 52.765625 C 30.28125 52.761719 30.398438 52.761719 30.523438 52.757812 C 30.695312 52.75 30.695312 52.75 30.871094 52.746094 C 30.976562 52.742188 31.082031 52.738281 31.191406 52.738281 C 31.476562 52.726562 31.476562 52.726562 31.742188 52.515625 C 32.253906 52.429688 32.742188 52.414062 33.257812 52.421875 Z M 33.257812 52.421875 " fill-opacity="1" fill-rule="nonzero"/><path fill="#21631b" d="M 25.199219 57.929688 C 25.253906 57.945312 25.308594 57.960938 25.363281 57.976562 C 25.574219 58.023438 25.757812 58.039062 25.96875 58.046875 C 26.085938 58.046875 26.085938 58.046875 26.199219 58.050781 C 26.320312 58.054688 26.320312 58.054688 26.445312 58.054688 C 26.527344 58.058594 26.613281 58.058594 26.699219 58.0625 C 26.964844 58.066406 27.230469 58.074219 27.5 58.078125 C 27.679688 58.082031 27.859375 58.085938 28.042969 58.089844 C 28.484375 58.101562 28.929688 58.109375 29.371094 58.121094 C 29.339844 58.214844 29.308594 58.308594 29.277344 58.40625 C 28.773438 58.410156 28.269531 58.414062 27.761719 58.414062 C 27.59375 58.417969 27.421875 58.417969 27.25 58.417969 C 27.003906 58.421875 26.753906 58.421875 26.507812 58.425781 C 26.394531 58.425781 26.394531 58.425781 26.277344 58.425781 C 25.875 58.425781 25.566406 58.402344 25.199219 58.214844 C 25.199219 58.121094 25.199219 58.027344 25.199219 57.929688 Z M 25.199219 57.929688 " fill-opacity="1" fill-rule="nonzero"/><path fill="#222420" d="M 29.371094 58.40625 C 29.738281 58.488281 29.738281 58.488281 29.84375 58.59375 C 29.871094 58.953125 29.863281 59.316406 29.863281 59.675781 C 29.863281 59.839844 29.863281 59.839844 29.863281 60.007812 C 29.855469 61.21875 29.761719 62.421875 29.65625 63.628906 C 29.625 63.628906 29.59375 63.628906 29.5625 63.628906 C 29.5625 61.9375 29.5625 60.246094 29.5625 58.5 C 29.5 58.46875 29.4375 58.4375 29.371094 58.40625 Z M 29.371094 58.40625 " fill-opacity="1" fill-rule="nonzero"/><path fill="#292628" d="M 21.597656 54.320312 C 21.628906 54.414062 21.660156 54.507812 21.691406 54.605469 C 21.660156 54.667969 21.628906 54.730469 21.597656 54.796875 C 21.585938 54.953125 21.578125 55.113281 21.578125 55.269531 C 21.578125 55.355469 21.574219 55.441406 21.574219 55.527344 C 21.574219 55.765625 21.574219 55.765625 21.785156 55.9375 C 22.203125 56.804688 22.3125 57.925781 22.261719 58.878906 C 22.199219 58.941406 22.136719 59.003906 22.070312 59.070312 C 21.871094 59.035156 21.871094 59.035156 21.691406 58.976562 C 21.722656 58.914062 21.753906 58.851562 21.785156 58.785156 C 21.847656 58.785156 21.910156 58.785156 21.976562 58.785156 C 21.953125 58.703125 21.953125 58.703125 21.929688 58.621094 C 21.882812 58.410156 21.863281 58.21875 21.859375 58.003906 C 21.855469 57.929688 21.851562 57.855469 21.847656 57.777344 C 21.84375 57.621094 21.835938 57.464844 21.832031 57.308594 C 21.828125 57.199219 21.828125 57.199219 21.820312 57.085938 C 21.820312 57.015625 21.816406 56.949219 21.816406 56.878906 C 21.792969 56.664062 21.792969 56.664062 21.597656 56.410156 C 21.585938 56.15625 21.585938 56.15625 21.597656 55.9375 C 21.535156 55.9375 21.472656 55.9375 21.40625 55.9375 C 21.40625 55.746094 21.40625 55.558594 21.40625 55.367188 C 21.34375 55.367188 21.28125 55.367188 21.21875 55.367188 C 21.21875 55.304688 21.21875 55.242188 21.21875 55.175781 C 21.28125 55.175781 21.34375 55.175781 21.40625 55.175781 C 21.40625 54.925781 21.40625 54.675781 21.40625 54.417969 C 21.46875 54.386719 21.53125 54.355469 21.597656 54.320312 Z M 21.597656 54.320312 " fill-opacity="1" fill-rule="nonzero"/><path fill="#293227" d="M 30.605469 58.121094 C 30.730469 58.152344 30.855469 58.183594 30.984375 58.214844 C 30.890625 58.214844 30.796875 58.214844 30.699219 58.214844 C 30.667969 58.308594 30.636719 58.402344 30.605469 58.5 C 30.542969 58.5 30.480469 58.5 30.414062 58.5 C 30.445312 58.5625 30.476562 58.625 30.507812 58.691406 C 30.519531 58.828125 30.523438 58.964844 30.527344 59.101562 C 30.527344 59.1875 30.53125 59.273438 30.53125 59.359375 C 30.535156 59.453125 30.535156 59.546875 30.535156 59.640625 C 30.539062 59.734375 30.539062 59.828125 30.542969 59.925781 C 30.546875 60.332031 30.554688 60.738281 30.5625 61.140625 C 30.566406 61.4375 30.570312 61.730469 30.578125 62.027344 C 30.578125 62.164062 30.578125 62.164062 30.582031 62.308594 C 30.582031 62.390625 30.585938 62.476562 30.585938 62.5625 C 30.585938 62.640625 30.589844 62.714844 30.589844 62.792969 C 30.585938 62.964844 30.585938 62.964844 30.699219 63.058594 C 30.707031 63.195312 30.710938 63.328125 30.707031 63.464844 C 30.707031 63.542969 30.707031 63.625 30.707031 63.710938 C 30.707031 63.792969 30.707031 63.878906 30.703125 63.96875 C 30.703125 64.054688 30.703125 64.140625 30.703125 64.226562 C 30.703125 64.4375 30.699219 64.652344 30.699219 64.863281 C 30.667969 64.863281 30.636719 64.863281 30.605469 64.863281 C 30.3125 62.714844 30.304688 60.570312 30.320312 58.40625 C 30.414062 58.375 30.507812 58.34375 30.605469 58.308594 C 30.605469 58.246094 30.605469 58.183594 30.605469 58.121094 Z M 30.605469 58.121094 " fill-opacity="1" fill-rule="nonzero"/><path fill="#9ade88" d="M 24.820312 52.042969 C 24.882812 52.042969 24.945312 52.042969 25.011719 52.042969 C 25.042969 52.136719 25.074219 52.230469 25.105469 52.328125 C 25.042969 52.390625 24.980469 52.453125 24.914062 52.515625 C 24.859375 52.742188 24.859375 52.742188 24.828125 53.007812 C 24.6875 53.910156 24.519531 54.800781 24.285156 55.679688 C 24.160156 56.175781 24.09375 56.660156 24.0625 57.171875 C 23.871094 56.980469 23.871094 56.980469 23.863281 56.808594 C 23.957031 56.015625 24.105469 55.230469 24.25 54.445312 C 24.289062 54.234375 24.328125 54.027344 24.367188 53.816406 C 24.402344 53.625 24.4375 53.433594 24.472656 53.246094 C 24.535156 52.90625 24.585938 52.570312 24.628906 52.230469 C 24.691406 52.230469 24.757812 52.230469 24.820312 52.230469 C 24.820312 52.167969 24.820312 52.105469 24.820312 52.042969 Z M 24.820312 52.042969 " fill-opacity="1" fill-rule="nonzero"/><path fill="#221e23" d="M 38.570312 54.890625 C 38.632812 54.890625 38.695312 54.890625 38.757812 54.890625 C 38.886719 55.148438 38.859375 55.367188 38.851562 55.652344 C 38.789062 55.652344 38.726562 55.652344 38.664062 55.652344 C 38.664062 55.808594 38.664062 55.964844 38.664062 56.125 C 38.570312 56.171875 38.570312 56.171875 38.472656 56.222656 C 38.4375 56.441406 38.40625 56.664062 38.378906 56.886719 C 38.347656 56.917969 38.316406 56.949219 38.285156 56.980469 C 38.277344 57.117188 38.273438 57.25 38.273438 57.386719 C 38.277344 57.464844 38.277344 57.546875 38.277344 57.628906 C 38.277344 57.714844 38.277344 57.800781 38.277344 57.890625 C 38.277344 57.976562 38.277344 58.058594 38.28125 58.148438 C 38.28125 58.359375 38.28125 58.574219 38.285156 58.785156 C 38.378906 58.785156 38.472656 58.785156 38.570312 58.785156 C 38.570312 58.878906 38.570312 58.972656 38.570312 59.070312 C 38.410156 59.105469 38.253906 59.136719 38.09375 59.164062 C 37.867188 58.9375 37.96875 58.316406 37.96875 58 C 37.980469 57.207031 38.113281 56.445312 38.484375 55.730469 C 38.617188 55.457031 38.582031 55.191406 38.570312 54.890625 Z M 38.570312 54.890625 " fill-opacity="1" fill-rule="nonzero"/><path fill="#262e23" d="M 25.199219 48.242188 C 25.230469 48.304688 25.261719 48.367188 25.292969 48.433594 C 25.355469 48.433594 25.417969 48.433594 25.484375 48.433594 C 25.515625 49.199219 25.488281 49.808594 25.199219 50.523438 C 25.136719 50.523438 25.074219 50.523438 25.011719 50.523438 C 25.011719 50.601562 25.011719 50.683594 25.011719 50.765625 C 25.015625 50.921875 25.015625 50.921875 25.015625 51.082031 C 25.015625 51.183594 25.019531 51.289062 25.019531 51.394531 C 25.011719 51.664062 25.011719 51.664062 24.914062 51.851562 C 25.351562 51.957031 25.78125 51.976562 26.226562 52 C 26.335938 52.007812 26.335938 52.007812 26.453125 52.011719 C 26.632812 52.023438 26.816406 52.03125 27 52.042969 C 27 52.074219 27 52.105469 27 52.136719 C 26.40625 52.136719 25.8125 52.136719 25.199219 52.136719 C 25.199219 52.074219 25.199219 52.011719 25.199219 51.945312 C 25.042969 51.945312 24.886719 51.945312 24.726562 51.945312 C 24.707031 51.449219 24.769531 51.035156 24.902344 50.558594 C 24.9375 50.4375 24.96875 50.316406 25.003906 50.191406 C 25.105469 49.859375 25.105469 49.859375 25.214844 49.613281 C 25.316406 49.316406 25.292969 49.09375 25.257812 48.78125 C 25.25 48.683594 25.238281 48.582031 25.226562 48.476562 C 25.21875 48.398438 25.207031 48.320312 25.199219 48.242188 Z M 25.199219 48.242188 " fill-opacity="1" fill-rule="nonzero"/><path fill="#53b349" d="M 27.664062 52.421875 C 29.261719 52.421875 30.855469 52.421875 32.5 52.421875 C 32.5 52.453125 32.5 52.484375 32.5 52.515625 C 32.414062 52.523438 32.324219 52.527344 32.234375 52.535156 C 32.0625 52.546875 32.0625 52.546875 31.890625 52.558594 C 31.777344 52.566406 31.664062 52.574219 31.546875 52.582031 C 31.277344 52.582031 31.277344 52.582031 31.171875 52.707031 C 30.78125 52.730469 30.390625 52.722656 30 52.726562 C 29.890625 52.726562 29.78125 52.726562 29.671875 52.726562 C 28.980469 52.730469 28.339844 52.667969 27.664062 52.515625 C 27.664062 52.484375 27.664062 52.453125 27.664062 52.421875 Z M 27.664062 52.421875 " fill-opacity="1" fill-rule="nonzero"/><path fill="#150f12" d="M 40.464844 50.332031 C 40.496094 50.332031 40.527344 50.332031 40.558594 50.332031 C 40.5625 50.480469 40.5625 50.625 40.566406 50.773438 C 40.566406 50.851562 40.566406 50.933594 40.570312 51.019531 C 40.558594 51.28125 40.558594 51.28125 40.511719 51.523438 C 40.453125 51.949219 40.453125 52.359375 40.453125 52.789062 C 40.453125 52.875 40.453125 52.964844 40.453125 53.058594 C 40.453125 53.246094 40.453125 53.433594 40.453125 53.617188 C 40.453125 53.90625 40.453125 54.191406 40.453125 54.480469 C 40.453125 54.660156 40.453125 54.84375 40.453125 55.027344 C 40.453125 55.109375 40.453125 55.195312 40.453125 55.285156 C 40.453125 55.363281 40.453125 55.445312 40.453125 55.527344 C 40.453125 55.597656 40.453125 55.667969 40.453125 55.738281 C 40.464844 55.941406 40.503906 56.121094 40.558594 56.316406 C 40.417969 56.363281 40.417969 56.363281 40.277344 56.410156 C 40.1875 56.113281 40.167969 55.851562 40.171875 55.542969 C 40.171875 55.445312 40.171875 55.347656 40.171875 55.25 C 40.171875 55.144531 40.171875 55.042969 40.171875 54.933594 C 40.171875 54.828125 40.171875 54.71875 40.171875 54.609375 C 40.171875 54.269531 40.171875 53.925781 40.175781 53.585938 C 40.175781 53.355469 40.175781 53.121094 40.175781 52.890625 C 40.175781 52.324219 40.179688 51.753906 40.179688 51.1875 C 40.242188 51.15625 40.304688 51.125 40.371094 51.09375 C 40.414062 50.914062 40.414062 50.914062 40.429688 50.707031 C 40.441406 50.582031 40.453125 50.460938 40.464844 50.332031 Z M 40.464844 50.332031 " fill-opacity="1" fill-rule="nonzero"/><path fill="#297221" d="M 34.691406 57.640625 C 34.820312 57.640625 34.949219 57.640625 35.078125 57.640625 C 35.386719 57.640625 35.699219 57.644531 36.007812 57.644531 C 36.007812 57.675781 36.007812 57.707031 36.007812 57.742188 C 35.933594 57.746094 35.855469 57.75 35.777344 57.757812 C 35.488281 57.777344 35.195312 57.796875 34.90625 57.816406 C 34.722656 57.828125 34.539062 57.84375 34.351562 57.855469 C 34.109375 57.871094 33.867188 57.886719 33.625 57.90625 C 33.375 57.921875 33.128906 57.9375 32.878906 57.953125 C 32.699219 57.964844 32.699219 57.964844 32.515625 57.976562 C 32.410156 57.984375 32.300781 57.992188 32.1875 58 C 31.933594 58.011719 31.933594 58.011719 31.742188 58.121094 C 31.488281 58.132812 31.238281 58.125 30.984375 58.121094 C 31.222656 57.882812 31.363281 57.878906 31.695312 57.828125 C 31.832031 57.808594 31.832031 57.808594 31.976562 57.785156 C 32.085938 57.769531 32.195312 57.753906 32.3125 57.742188 C 32.410156 57.726562 32.410156 57.726562 32.511719 57.714844 C 33.238281 57.628906 33.960938 57.636719 34.691406 57.640625 Z M 34.691406 57.640625 " fill-opacity="1" fill-rule="nonzero"/><path fill="#8ef37e" d="M 24.914062 52.421875 C 25.011719 52.734375 25.007812 52.980469 24.96875 53.300781 C 24.957031 53.386719 24.949219 53.46875 24.9375 53.558594 C 24.929688 53.621094 24.921875 53.683594 24.914062 53.75 C 24.851562 53.75 24.789062 53.75 24.726562 53.75 C 24.726562 54.253906 24.726562 54.753906 24.726562 55.269531 C 24.632812 55.269531 24.539062 55.269531 24.441406 55.269531 C 24.445312 55.359375 24.453125 55.449219 24.457031 55.539062 C 24.441406 55.839844 24.441406 55.839844 24.296875 56.003906 C 24.25 56.042969 24.203125 56.085938 24.15625 56.125 C 24.195312 55.648438 24.261719 55.210938 24.394531 54.75 C 24.507812 54.355469 24.570312 53.988281 24.605469 53.582031 C 24.714844 52.625 24.714844 52.625 24.914062 52.421875 Z M 24.914062 52.421875 " fill-opacity="1" fill-rule="nonzero"/><path fill="#211c22" d="M 33.542969 25.257812 C 33.636719 25.542969 33.636719 25.542969 33.542969 25.828125 C 33.515625 26.035156 33.496094 26.238281 33.476562 26.445312 C 33.464844 26.609375 33.464844 26.609375 33.449219 26.773438 C 33.421875 27.082031 33.421875 27.082031 33.636719 27.347656 C 33.671875 27.847656 33.636719 28.207031 33.449219 28.679688 C 33.417969 28.679688 33.386719 28.679688 33.355469 28.679688 C 33.335938 28.507812 33.316406 28.335938 33.300781 28.167969 C 33.289062 28.074219 33.28125 27.976562 33.269531 27.878906 C 33.257812 27.632812 33.257812 27.632812 33.355469 27.441406 C 33.292969 27.441406 33.230469 27.441406 33.164062 27.441406 C 33.132812 27.222656 33.101562 27.003906 33.070312 26.777344 C 33.132812 26.746094 33.195312 26.714844 33.257812 26.683594 C 33.285156 26.460938 33.296875 26.242188 33.304688 26.019531 C 33.316406 25.796875 33.328125 25.574219 33.355469 25.355469 C 33.417969 25.324219 33.480469 25.289062 33.542969 25.257812 Z M 33.542969 25.257812 " fill-opacity="1" fill-rule="nonzero"/><path fill="#1d191c" d="M 30.984375 75.3125 C 31.078125 75.3125 31.171875 75.3125 31.269531 75.3125 C 31.269531 75.875 31.269531 76.441406 31.269531 77.019531 C 31.332031 77.019531 31.394531 77.019531 31.457031 77.019531 C 31.558594 77.34375 31.554688 77.621094 31.539062 77.957031 C 31.535156 78.0625 31.53125 78.167969 31.527344 78.277344 C 31.523438 78.386719 31.515625 78.5 31.511719 78.613281 C 31.503906 78.777344 31.503906 78.777344 31.496094 78.949219 C 31.484375 79.226562 31.472656 79.5 31.457031 79.773438 C 31.425781 79.773438 31.394531 79.773438 31.363281 79.773438 C 31.359375 79.671875 31.355469 79.570312 31.351562 79.46875 C 31.300781 78.210938 31.164062 76.96875 31.007812 75.722656 C 30.984375 75.5 30.984375 75.5 30.984375 75.3125 Z M 30.984375 75.3125 " fill-opacity="1" fill-rule="nonzero"/><path fill="#032602" d="M 34.207031 57.835938 C 33.914062 58.03125 33.84375 58.050781 33.511719 58.058594 C 33.390625 58.0625 33.390625 58.0625 33.269531 58.066406 C 33.023438 58.074219 33.023438 58.074219 32.773438 58.078125 C 32.652344 58.082031 32.652344 58.082031 32.53125 58.085938 C 32.425781 58.089844 32.425781 58.089844 32.3125 58.09375 C 32.09375 58.109375 32.09375 58.109375 31.835938 58.308594 C 31.714844 58.320312 31.589844 58.335938 31.464844 58.347656 C 31.160156 58.375 31.089844 58.394531 30.839844 58.601562 C 30.792969 58.660156 30.746094 58.722656 30.699219 58.785156 C 30.605469 58.753906 30.511719 58.722656 30.414062 58.691406 C 30.414062 58.5 30.414062 58.5 30.523438 58.355469 C 31.402344 57.660156 33.140625 57.8125 34.207031 57.835938 Z M 34.207031 57.835938 " fill-opacity="1" fill-rule="nonzero"/><path fill="#9def87" d="M 35.628906 53.941406 C 35.660156 53.941406 35.691406 53.941406 35.722656 53.941406 C 35.742188 54.023438 35.761719 54.105469 35.78125 54.1875 C 35.804688 54.296875 35.828125 54.40625 35.855469 54.515625 C 35.878906 54.632812 35.90625 54.746094 35.933594 54.863281 C 36.003906 55.179688 36.003906 55.179688 36.121094 55.503906 C 36.246094 56.054688 36.210938 56.609375 36.199219 57.171875 C 36.136719 57.140625 36.074219 57.109375 36.007812 57.074219 C 35.96875 56.84375 35.9375 56.617188 35.914062 56.382812 C 35.875 55.90625 35.875 55.90625 35.71875 55.457031 C 35.582031 55.167969 35.613281 54.898438 35.617188 54.582031 C 35.621094 54.460938 35.621094 54.34375 35.621094 54.21875 C 35.625 54.128906 35.628906 54.035156 35.628906 53.941406 Z M 35.628906 53.941406 " fill-opacity="1" fill-rule="nonzero"/><path fill="#1c161d" d="M 36.386719 45.296875 C 36.527344 45.394531 36.527344 45.394531 36.671875 45.488281 C 36.691406 45.832031 36.691406 45.832031 36.671875 46.152344 C 36.765625 46.152344 36.859375 46.152344 36.957031 46.152344 C 36.960938 46.269531 36.96875 46.382812 36.972656 46.503906 C 36.980469 46.652344 36.992188 46.804688 37 46.953125 C 37.003906 47.03125 37.007812 47.105469 37.007812 47.1875 C 36.996094 47.554688 36.996094 47.554688 37.148438 47.863281 C 37.152344 48.085938 37.15625 48.308594 37.152344 48.535156 C 37.152344 48.65625 37.152344 48.777344 37.148438 48.90625 C 37.148438 49 37.148438 49.09375 37.148438 49.191406 C 37.117188 49.191406 37.082031 49.191406 37.050781 49.191406 C 37.007812 48.910156 36.960938 48.628906 36.914062 48.351562 C 36.902344 48.265625 36.890625 48.183594 36.875 48.097656 C 36.808594 47.683594 36.75 47.273438 36.71875 46.855469 C 36.6875 46.464844 36.585938 46.128906 36.445312 45.765625 C 36.386719 45.582031 36.386719 45.582031 36.386719 45.296875 Z M 36.386719 45.296875 " fill-opacity="1" fill-rule="nonzero"/><path fill="#282526" d="M 23.113281 46.4375 C 23.207031 46.4375 23.300781 46.4375 23.398438 46.4375 C 23.304688 47.597656 23.183594 48.722656 22.925781 49.859375 C 22.902344 49.949219 22.882812 50.039062 22.863281 50.132812 C 22.820312 50.328125 22.777344 50.519531 22.734375 50.710938 C 22.703125 50.710938 22.671875 50.710938 22.640625 50.710938 C 22.640625 50.367188 22.640625 50.023438 22.640625 49.667969 C 22.703125 49.667969 22.765625 49.667969 22.828125 49.667969 C 22.835938 49.539062 22.835938 49.539062 22.847656 49.402344 C 22.859375 49.234375 22.859375 49.234375 22.871094 49.0625 C 22.878906 48.949219 22.886719 48.835938 22.894531 48.722656 C 22.925781 48.433594 22.925781 48.433594 23.019531 48.242188 C 23.03125 48.105469 23.042969 47.96875 23.050781 47.828125 C 23.054688 47.75 23.058594 47.667969 23.0625 47.585938 C 23.066406 47.5 23.070312 47.414062 23.070312 47.328125 C 23.078125 47.199219 23.078125 47.199219 23.085938 47.070312 C 23.09375 46.859375 23.105469 46.648438 23.113281 46.4375 Z M 23.113281 46.4375 " fill-opacity="1" fill-rule="nonzero"/><path fill="#211b22" d="M 34.113281 84.808594 C 34.234375 84.894531 34.355469 84.984375 34.472656 85.070312 C 34.574219 85.144531 34.574219 85.144531 34.675781 85.21875 C 34.878906 85.386719 35.019531 85.53125 35.15625 85.757812 C 35.183594 86.210938 35.078125 86.6875 34.871094 87.089844 C 34.628906 87.332031 34.445312 87.328125 34.113281 87.375 C 34.144531 87.3125 34.175781 87.246094 34.207031 87.183594 C 34.332031 87.183594 34.457031 87.183594 34.585938 87.183594 C 34.585938 87.121094 34.585938 87.058594 34.585938 86.992188 C 34.648438 86.992188 34.710938 86.992188 34.777344 86.992188 C 34.777344 86.742188 34.777344 86.492188 34.777344 86.234375 C 34.871094 86.234375 34.964844 86.234375 35.0625 86.234375 C 35.011719 86.160156 34.964844 86.085938 34.917969 86.007812 C 34.777344 85.757812 34.777344 85.757812 34.777344 85.570312 C 34.714844 85.570312 34.652344 85.570312 34.585938 85.570312 C 34.433594 85.4375 34.433594 85.4375 34.300781 85.285156 C 34.300781 85.222656 34.300781 85.160156 34.300781 85.09375 C 34.238281 85.09375 34.175781 85.09375 34.113281 85.09375 C 34.113281 85 34.113281 84.90625 34.113281 84.808594 Z M 34.113281 84.808594 " fill-opacity="1" fill-rule="nonzero"/><path fill="#2a3428" d="M 35.0625 50.238281 C 35.09375 50.238281 35.125 50.238281 35.15625 50.238281 C 35.203125 50.417969 35.25 50.597656 35.296875 50.777344 C 35.324219 50.878906 35.351562 50.976562 35.378906 51.082031 C 35.433594 51.351562 35.460938 51.578125 35.441406 51.851562 C 35.046875 52.246094 34.023438 52.179688 33.507812 52.207031 C 33.265625 52.203125 33.265625 52.203125 33.164062 52.328125 C 33.007812 52.332031 32.847656 52.332031 32.691406 52.328125 C 32.785156 52.296875 32.878906 52.265625 32.976562 52.230469 C 32.976562 52.167969 32.976562 52.105469 32.976562 52.042969 C 33.414062 52.042969 33.851562 52.042969 34.300781 52.042969 C 34.300781 51.980469 34.300781 51.917969 34.300781 51.851562 C 34.613281 51.851562 34.929688 51.851562 35.25 51.851562 C 35.234375 51.441406 35.234375 51.441406 35.0625 51.09375 C 35.054688 50.949219 35.050781 50.804688 35.054688 50.660156 C 35.054688 50.582031 35.054688 50.503906 35.058594 50.421875 C 35.058594 50.359375 35.058594 50.300781 35.0625 50.238281 Z M 35.0625 50.238281 " fill-opacity="1" fill-rule="nonzero"/><path fill="#1e181a" d="M 35.535156 69.800781 C 35.566406 69.800781 35.597656 69.800781 35.628906 69.800781 C 35.898438 71.128906 35.980469 72.570312 35.628906 73.886719 C 35.597656 73.886719 35.566406 73.886719 35.535156 73.886719 C 35.511719 73.703125 35.496094 73.519531 35.476562 73.335938 C 35.464844 73.230469 35.453125 73.128906 35.441406 73.023438 C 35.441406 72.746094 35.441406 72.746094 35.628906 72.460938 C 35.65625 72.164062 35.65625 72.164062 35.648438 71.839844 C 35.648438 71.730469 35.644531 71.617188 35.644531 71.507812 C 35.648438 71.234375 35.648438 71.234375 35.535156 71.039062 C 35.527344 70.828125 35.527344 70.617188 35.527344 70.40625 C 35.53125 70.296875 35.53125 70.183594 35.53125 70.066406 C 35.53125 69.980469 35.535156 69.890625 35.535156 69.800781 Z M 35.535156 69.800781 " fill-opacity="1" fill-rule="nonzero"/><path fill="#0e0a0e" d="M 21.027344 57.835938 C 21.253906 57.859375 21.253906 57.859375 21.5 57.929688 C 21.625 58.125 21.625 58.125 21.691406 58.308594 C 21.753906 58.183594 21.816406 58.058594 21.882812 57.929688 C 21.914062 58.210938 21.945312 58.496094 21.976562 58.785156 C 21.914062 58.785156 21.851562 58.785156 21.785156 58.785156 C 21.761719 58.84375 21.738281 58.902344 21.714844 58.964844 C 21.570312 59.207031 21.484375 59.269531 21.21875 59.355469 C 20.957031 59.320312 20.957031 59.320312 20.742188 59.261719 C 20.773438 59.199219 20.804688 59.136719 20.839844 59.070312 C 20.996094 59.070312 21.152344 59.070312 21.3125 59.070312 C 21.34375 59.007812 21.375 58.945312 21.40625 58.878906 C 21.46875 58.878906 21.53125 58.878906 21.597656 58.878906 C 21.597656 58.785156 21.597656 58.691406 21.597656 58.59375 C 21.535156 58.59375 21.472656 58.59375 21.40625 58.59375 C 21.398438 58.503906 21.386719 58.414062 21.378906 58.324219 C 21.34375 57.996094 21.34375 57.996094 21.027344 57.835938 Z M 21.027344 57.835938 " fill-opacity="1" fill-rule="nonzero"/><path fill="#201f1f" d="M 22.542969 50.808594 C 22.648438 51.117188 22.632812 51.207031 22.558594 51.515625 C 22.539062 51.601562 22.519531 51.683594 22.5 51.769531 C 22.464844 51.902344 22.464844 51.902344 22.433594 52.035156 C 22.410156 52.125 22.390625 52.214844 22.367188 52.308594 C 22.203125 52.960938 22.019531 53.597656 21.785156 54.226562 C 21.722656 54.195312 21.660156 54.164062 21.597656 54.132812 C 21.597656 53.976562 21.597656 53.816406 21.597656 53.65625 C 21.660156 53.625 21.722656 53.59375 21.785156 53.5625 C 21.820312 53.339844 21.851562 53.117188 21.882812 52.898438 C 21.945312 52.835938 22.007812 52.769531 22.070312 52.707031 C 22.113281 52.519531 22.113281 52.519531 22.128906 52.316406 C 22.148438 52.132812 22.148438 52.132812 22.164062 51.945312 C 22.226562 51.945312 22.289062 51.945312 22.355469 51.945312 C 22.355469 51.601562 22.355469 51.257812 22.355469 50.902344 C 22.417969 50.871094 22.480469 50.839844 22.542969 50.808594 Z M 22.542969 50.808594 " fill-opacity="1" fill-rule="nonzero"/><path fill="#7cef70" d="M 27.664062 52.515625 C 27.726562 52.523438 27.785156 52.53125 27.847656 52.539062 C 28.566406 52.609375 29.277344 52.625 30 52.625 C 30.167969 52.625 30.167969 52.625 30.339844 52.625 C 30.445312 52.625 30.550781 52.625 30.660156 52.625 C 30.757812 52.625 30.855469 52.625 30.953125 52.625 C 31.167969 52.636719 31.167969 52.636719 31.269531 52.515625 C 31.425781 52.511719 31.585938 52.511719 31.742188 52.515625 C 31.515625 52.785156 31.472656 52.800781 31.097656 52.839844 C 30.949219 52.839844 30.796875 52.839844 30.648438 52.839844 C 30.570312 52.839844 30.488281 52.839844 30.410156 52.839844 C 30.242188 52.839844 30.074219 52.839844 29.90625 52.839844 C 29.652344 52.835938 29.394531 52.839844 29.136719 52.839844 C 28.976562 52.839844 28.8125 52.839844 28.652344 52.839844 C 28.535156 52.839844 28.535156 52.839844 28.417969 52.839844 C 28.203125 52.839844 28.203125 52.839844 27.855469 52.800781 C 27.792969 52.707031 27.730469 52.613281 27.664062 52.515625 Z M 27.664062 52.515625 " fill-opacity="1" fill-rule="nonzero"/><path fill="#1b161c" d="M 19.699219 51.28125 C 19.730469 51.28125 19.761719 51.28125 19.796875 51.28125 C 19.796875 52.976562 19.796875 54.667969 19.796875 56.410156 C 19.703125 56.410156 19.605469 56.410156 19.511719 56.410156 C 19.535156 56.332031 19.535156 56.332031 19.558594 56.25 C 19.609375 56.011719 19.621094 55.796875 19.625 55.550781 C 19.625 55.457031 19.628906 55.363281 19.628906 55.265625 C 19.632812 55.160156 19.632812 55.058594 19.636719 54.957031 C 19.636719 54.851562 19.640625 54.746094 19.640625 54.636719 C 19.648438 54.300781 19.652344 53.96875 19.660156 53.632812 C 19.664062 53.40625 19.667969 53.179688 19.671875 52.953125 C 19.679688 52.394531 19.691406 51.839844 19.699219 51.28125 Z M 19.699219 51.28125 " fill-opacity="1" fill-rule="nonzero"/><path fill="#150e15" d="M 29.5625 22.03125 C 29.644531 22.046875 29.726562 22.066406 29.808594 22.082031 C 30.125 22.140625 30.125 22.140625 30.410156 22.066406 C 30.808594 22.015625 31.007812 22.136719 31.363281 22.3125 C 31.09375 22.449219 30.859375 22.425781 30.558594 22.425781 C 30.445312 22.429688 30.335938 22.429688 30.222656 22.429688 C 29.941406 22.410156 29.941406 22.410156 29.75 22.21875 C 29.703125 22.253906 29.652344 22.289062 29.601562 22.328125 C 29.054688 22.699219 29.054688 22.699219 28.707031 22.675781 C 28.644531 22.652344 28.582031 22.625 28.519531 22.597656 C 28.574219 22.570312 28.632812 22.542969 28.691406 22.515625 C 28.914062 22.40625 28.914062 22.40625 29.183594 22.21875 C 29.308594 22.21875 29.433594 22.21875 29.5625 22.21875 C 29.5625 22.15625 29.5625 22.09375 29.5625 22.03125 Z M 29.5625 22.03125 " fill-opacity="1" fill-rule="nonzero"/><path fill="#070408" d="M 20.933594 57.929688 C 21.074219 58.117188 21.207031 58.289062 21.3125 58.5 C 21.40625 58.53125 21.5 58.5625 21.597656 58.59375 C 21.597656 58.6875 21.597656 58.785156 21.597656 58.878906 C 21.535156 58.878906 21.472656 58.878906 21.40625 58.878906 C 21.375 58.972656 21.34375 59.070312 21.3125 59.164062 C 21.125 59.101562 20.9375 59.039062 20.742188 58.976562 C 20.742188 58.757812 20.742188 58.535156 20.742188 58.308594 C 20.804688 58.308594 20.867188 58.308594 20.933594 58.308594 C 20.933594 58.183594 20.933594 58.058594 20.933594 57.929688 Z M 20.933594 57.929688 " fill-opacity="1" fill-rule="nonzero"/><path fill="#211b22" d="M 27.664062 30.007812 C 27.757812 30.054688 27.757812 30.054688 27.855469 30.101562 C 27.824219 30.226562 27.792969 30.351562 27.757812 30.480469 C 27.855469 30.480469 27.949219 30.480469 28.042969 30.480469 C 28.050781 30.652344 28.054688 30.824219 28.054688 30.992188 C 28.058594 31.085938 28.058594 31.183594 28.0625 31.28125 C 28.042969 31.527344 28.042969 31.527344 27.855469 31.71875 C 27.8125 31.949219 27.8125 31.949219 27.796875 32.203125 C 27.785156 32.332031 27.785156 32.332031 27.773438 32.464844 C 27.769531 32.53125 27.765625 32.597656 27.757812 32.667969 C 27.726562 32.667969 27.695312 32.667969 27.664062 32.667969 C 27.664062 31.789062 27.664062 30.910156 27.664062 30.007812 Z M 27.664062 30.007812 " fill-opacity="1" fill-rule="nonzero"/><path fill="#171316" d="M 40.179688 41.023438 C 40.210938 41.023438 40.242188 41.023438 40.277344 41.023438 C 40.300781 42.242188 40.226562 43.425781 40.085938 44.632812 C 40.054688 44.632812 40.023438 44.632812 39.992188 44.632812 C 39.988281 44.222656 39.988281 43.816406 39.984375 43.40625 C 39.984375 43.289062 39.984375 43.171875 39.984375 43.050781 C 39.980469 42.941406 39.980469 42.828125 39.980469 42.714844 C 39.980469 42.609375 39.980469 42.507812 39.980469 42.402344 C 39.992188 42.164062 39.992188 42.164062 40.085938 42.070312 C 40.109375 41.894531 40.125 41.71875 40.140625 41.542969 C 40.148438 41.445312 40.15625 41.347656 40.164062 41.25 C 40.167969 41.175781 40.175781 41.101562 40.179688 41.023438 Z M 40.179688 41.023438 " fill-opacity="1" fill-rule="nonzero"/><path fill="#1f181b" d="M 33.070312 86.707031 C 33.195312 86.707031 33.320312 86.707031 33.449219 86.707031 C 33.449219 86.769531 33.449219 86.832031 33.449219 86.898438 C 33.542969 86.929688 33.636719 86.960938 33.734375 86.992188 C 33.734375 87.117188 33.734375 87.242188 33.734375 87.375 C 33.859375 87.40625 33.984375 87.4375 34.113281 87.46875 C 34.015625 87.464844 33.921875 87.460938 33.820312 87.457031 C 33.429688 87.46875 33.152344 87.539062 32.785156 87.660156 C 32.722656 87.59375 32.660156 87.53125 32.59375 87.46875 C 32.925781 87.421875 32.925781 87.421875 33.257812 87.375 C 33.257812 87.246094 33.257812 87.121094 33.257812 86.992188 C 33.195312 86.992188 33.132812 86.992188 33.070312 86.992188 C 33.070312 86.898438 33.070312 86.804688 33.070312 86.707031 Z M 33.070312 86.707031 " fill-opacity="1" fill-rule="nonzero"/><path fill="#0b080b" d="M 27.855469 86.421875 C 27.949219 86.421875 28.042969 86.421875 28.140625 86.421875 C 28.113281 86.625 28.089844 86.824219 28.0625 87.023438 C 28.046875 87.132812 28.035156 87.246094 28.019531 87.359375 C 27.949219 87.65625 27.917969 87.777344 27.664062 87.941406 C 27.320312 87.925781 27.320312 87.925781 27 87.847656 C 26.96875 87.785156 26.9375 87.722656 26.90625 87.660156 C 27.03125 87.660156 27.15625 87.660156 27.285156 87.660156 C 27.316406 87.5625 27.347656 87.46875 27.378906 87.375 C 27.613281 87.46875 27.613281 87.46875 27.855469 87.5625 C 27.855469 87.1875 27.855469 86.8125 27.855469 86.421875 Z M 27.855469 86.421875 " fill-opacity="1" fill-rule="nonzero"/><path fill="#1a171c" d="M 24.441406 69.992188 C 24.472656 69.992188 24.503906 69.992188 24.535156 69.992188 C 24.542969 70.410156 24.542969 70.832031 24.546875 71.25 C 24.550781 71.429688 24.550781 71.429688 24.550781 71.613281 C 24.554688 71.726562 24.554688 71.839844 24.554688 71.957031 C 24.554688 72.0625 24.554688 72.167969 24.558594 72.277344 C 24.535156 72.550781 24.488281 72.707031 24.347656 72.9375 C 24.25 72.25 24.261719 71.617188 24.339844 70.929688 C 24.351562 70.839844 24.359375 70.75 24.367188 70.65625 C 24.390625 70.433594 24.417969 70.214844 24.441406 69.992188 Z M 24.441406 69.992188 " fill-opacity="1" fill-rule="nonzero"/><path fill="#1f1b1c" d="M 29.277344 66.476562 C 29.308594 66.476562 29.339844 66.476562 29.371094 66.476562 C 29.378906 66.941406 29.371094 67.390625 29.324219 67.851562 C 29.273438 68.34375 29.265625 68.832031 29.277344 69.328125 C 29.214844 69.328125 29.152344 69.328125 29.085938 69.328125 C 29.085938 68.980469 29.082031 68.636719 29.082031 68.289062 C 29.082031 68.191406 29.078125 68.089844 29.078125 67.988281 C 29.078125 67.847656 29.078125 67.847656 29.078125 67.703125 C 29.078125 67.617188 29.078125 67.53125 29.078125 67.441406 C 29.085938 67.238281 29.085938 67.238281 29.183594 67.144531 C 29.21875 66.921875 29.25 66.699219 29.277344 66.476562 Z M 29.277344 66.476562 " fill-opacity="1" fill-rule="nonzero"/><path fill="#1d1a1f" d="M 34.777344 48.148438 C 34.808594 48.148438 34.839844 48.148438 34.871094 48.148438 C 34.867188 48.203125 34.867188 48.257812 34.863281 48.316406 C 34.851562 48.972656 34.9375 49.589844 35.0625 50.238281 C 34.964844 50.238281 34.871094 50.238281 34.777344 50.238281 C 34.777344 50.019531 34.777344 49.796875 34.777344 49.574219 C 34.714844 49.574219 34.652344 49.574219 34.585938 49.574219 C 34.585938 49.289062 34.585938 49.007812 34.585938 48.71875 C 34.648438 48.71875 34.710938 48.71875 34.777344 48.71875 C 34.777344 48.53125 34.777344 48.339844 34.777344 48.148438 Z M 34.777344 48.148438 " fill-opacity="1" fill-rule="nonzero"/><path fill="#5fa755" d="M 35.0625 51.945312 C 35.0625 52.042969 35.0625 52.136719 35.0625 52.230469 C 34.96875 52.238281 34.875 52.242188 34.78125 52.25 C 34.597656 52.261719 34.597656 52.261719 34.414062 52.273438 C 34.292969 52.28125 34.175781 52.289062 34.050781 52.296875 C 33.734375 52.316406 33.734375 52.316406 33.449219 52.421875 C 33.285156 52.429688 33.121094 52.429688 32.957031 52.429688 C 32.828125 52.425781 32.828125 52.425781 32.699219 52.425781 C 32.632812 52.425781 32.566406 52.421875 32.5 52.421875 C 32.5 52.390625 32.5 52.359375 32.5 52.328125 C 32.609375 52.3125 32.714844 52.300781 32.828125 52.285156 C 33.144531 52.269531 33.144531 52.269531 33.257812 52.136719 C 33.460938 52.117188 33.664062 52.101562 33.871094 52.089844 C 34.289062 52.0625 34.648438 51.945312 35.0625 51.945312 Z M 35.0625 51.945312 " fill-opacity="1" fill-rule="nonzero"/><path fill="#2b3028" d="M 36.007812 57.742188 C 36.101562 57.789062 36.101562 57.789062 36.199219 57.835938 C 36.253906 58.007812 36.253906 58.007812 36.300781 58.230469 C 36.316406 58.308594 36.332031 58.390625 36.351562 58.472656 C 36.367188 58.554688 36.382812 58.640625 36.398438 58.726562 C 36.417969 58.808594 36.433594 58.890625 36.453125 58.976562 C 36.578125 59.597656 36.578125 59.597656 36.578125 59.925781 C 36.484375 59.925781 36.390625 59.925781 36.292969 59.925781 C 36.292969 59.519531 36.292969 59.109375 36.292969 58.691406 C 36.199219 58.660156 36.105469 58.628906 36.007812 58.59375 C 36.007812 58.3125 36.007812 58.03125 36.007812 57.742188 Z M 36.007812 57.742188 " fill-opacity="1" fill-rule="nonzero"/><path fill="#395f33" d="M 23.96875 57.457031 C 24.503906 57.53125 24.753906 57.585938 25.199219 57.835938 C 25.015625 57.890625 25.015625 57.890625 24.820312 57.929688 C 24.789062 57.898438 24.757812 57.867188 24.726562 57.835938 C 24.503906 57.863281 24.28125 57.894531 24.0625 57.929688 C 24.03125 58.242188 24 58.558594 23.96875 58.878906 C 23.90625 58.878906 23.84375 58.878906 23.777344 58.878906 C 23.839844 58.410156 23.902344 57.941406 23.96875 57.457031 Z M 23.96875 57.457031 " fill-opacity="1" fill-rule="nonzero"/><path fill="#7cee6a" d="M 24.25 56.886719 C 24.53125 56.933594 24.53125 56.933594 24.820312 56.980469 C 24.820312 57.074219 24.820312 57.167969 24.820312 57.265625 C 24.496094 57.484375 24.347656 57.472656 23.96875 57.457031 C 23.9375 57.300781 23.90625 57.140625 23.871094 56.980469 C 23.964844 57.074219 24.058594 57.167969 24.15625 57.265625 C 24.1875 57.140625 24.21875 57.015625 24.25 56.886719 Z M 24.25 56.886719 " fill-opacity="1" fill-rule="nonzero"/><path fill="#171018" d="M 26.621094 24.5 C 26.652344 24.5 26.683594 24.5 26.714844 24.5 C 26.714844 24.574219 26.710938 24.648438 26.710938 24.722656 C 26.699219 24.972656 26.699219 24.972656 26.8125 25.164062 C 26.804688 25.40625 26.789062 25.644531 26.769531 25.886719 C 26.765625 25.953125 26.761719 26.023438 26.753906 26.089844 C 26.742188 26.257812 26.730469 26.421875 26.714844 26.589844 C 26.683594 26.589844 26.652344 26.589844 26.621094 26.589844 C 26.320312 24.949219 26.320312 24.949219 26.621094 24.5 Z M 26.621094 24.5 " fill-opacity="1" fill-rule="nonzero"/><path fill="#322f32" d="M 22.070312 57.742188 C 22.101562 57.742188 22.132812 57.742188 22.164062 57.742188 C 22.257812 58.125 22.28125 58.484375 22.261719 58.878906 C 22.199219 58.941406 22.136719 59.003906 22.070312 59.070312 C 21.871094 59.035156 21.871094 59.035156 21.691406 58.976562 C 21.722656 58.914062 21.753906 58.851562 21.785156 58.785156 C 21.847656 58.785156 21.910156 58.785156 21.976562 58.785156 C 21.976562 58.71875 21.972656 58.652344 21.972656 58.582031 C 21.972656 58.449219 21.972656 58.449219 21.96875 58.316406 C 21.96875 58.230469 21.96875 58.140625 21.964844 58.050781 C 21.976562 57.835938 21.976562 57.835938 22.070312 57.742188 Z M 22.070312 57.742188 " fill-opacity="1" fill-rule="nonzero"/><path fill="#120e13" d="M 28.328125 22.597656 C 28.328125 22.941406 28.242188 23.085938 28.042969 23.359375 C 27.949219 23.359375 27.855469 23.359375 27.757812 23.359375 C 27.789062 23.453125 27.824219 23.546875 27.855469 23.644531 C 27.761719 23.691406 27.761719 23.691406 27.664062 23.738281 C 27.570312 23.644531 27.476562 23.550781 27.378906 23.453125 C 27.441406 23.453125 27.503906 23.453125 27.570312 23.453125 C 27.59375 23.398438 27.617188 23.34375 27.640625 23.289062 C 27.808594 22.984375 28.015625 22.757812 28.328125 22.597656 Z M 28.328125 22.597656 " fill-opacity="1" fill-rule="nonzero"/><path fill="#85d975" d="M 35.25 53.371094 C 35.375 53.371094 35.5 53.371094 35.628906 53.371094 C 35.628906 53.875 35.628906 54.375 35.628906 54.890625 C 35.597656 54.890625 35.566406 54.890625 35.535156 54.890625 C 35.503906 54.578125 35.472656 54.265625 35.441406 53.941406 C 35.378906 53.941406 35.316406 53.941406 35.25 53.941406 C 35.25 53.753906 35.25 53.566406 35.25 53.371094 Z M 35.25 53.371094 " fill-opacity="1" fill-rule="nonzero"/><path fill="#221f22" d="M 30.605469 70.65625 C 30.636719 70.65625 30.667969 70.65625 30.699219 70.65625 C 30.699219 71.003906 30.699219 71.347656 30.699219 71.703125 C 30.636719 71.703125 30.574219 71.703125 30.507812 71.703125 C 30.507812 72.234375 30.507812 72.769531 30.507812 73.316406 C 30.476562 73.316406 30.445312 73.316406 30.414062 73.316406 C 30.410156 73.015625 30.40625 72.714844 30.402344 72.414062 C 30.402344 72.332031 30.398438 72.246094 30.398438 72.160156 C 30.394531 71.625 30.453125 71.171875 30.605469 70.65625 Z M 30.605469 70.65625 " fill-opacity="1" fill-rule="nonzero"/><path fill="#262023" d="M 28.328125 80.441406 C 28.421875 80.441406 28.515625 80.441406 28.613281 80.441406 C 28.613281 80.878906 28.613281 81.316406 28.613281 81.769531 C 28.519531 81.738281 28.425781 81.707031 28.328125 81.675781 C 28.328125 81.265625 28.328125 80.859375 28.328125 80.441406 Z M 28.328125 80.441406 " fill-opacity="1" fill-rule="nonzero"/><path fill="#222121" d="M 21.597656 54.320312 C 21.628906 54.414062 21.660156 54.507812 21.691406 54.605469 C 21.660156 54.667969 21.628906 54.730469 21.597656 54.796875 C 21.585938 54.957031 21.585938 55.117188 21.585938 55.277344 C 21.585938 55.363281 21.585938 55.449219 21.585938 55.535156 C 21.574219 55.742188 21.574219 55.742188 21.691406 55.839844 C 21.695312 56.03125 21.695312 56.222656 21.691406 56.410156 C 21.660156 56.410156 21.628906 56.410156 21.597656 56.410156 C 21.597656 56.253906 21.597656 56.097656 21.597656 55.9375 C 21.535156 55.9375 21.472656 55.9375 21.40625 55.9375 C 21.40625 55.746094 21.40625 55.558594 21.40625 55.367188 C 21.34375 55.367188 21.28125 55.367188 21.21875 55.367188 C 21.21875 55.304688 21.21875 55.242188 21.21875 55.175781 C 21.28125 55.175781 21.34375 55.175781 21.40625 55.175781 C 21.40625 54.925781 21.40625 54.675781 21.40625 54.417969 C 21.46875 54.386719 21.53125 54.355469 21.597656 54.320312 Z M 21.597656 54.320312 " fill-opacity="1" fill-rule="nonzero"/><path fill="#1e1b1c" d="M 39.707031 44.632812 C 39.800781 44.632812 39.894531 44.632812 39.992188 44.632812 C 39.992188 45.363281 39.992188 46.089844 39.992188 46.816406 C 39.929688 46.785156 39.867188 46.753906 39.800781 46.722656 C 39.695312 46.355469 39.695312 46 39.699219 45.621094 C 39.703125 45.511719 39.703125 45.40625 39.703125 45.296875 C 39.703125 45.203125 39.707031 45.109375 39.707031 45.015625 C 39.707031 44.917969 39.707031 44.824219 39.707031 44.730469 C 39.707031 44.699219 39.707031 44.667969 39.707031 44.632812 Z M 39.707031 44.632812 " fill-opacity="1" fill-rule="nonzero"/><path fill="#181416" d="M 39.042969 36.65625 C 39.074219 36.65625 39.105469 36.65625 39.136719 36.65625 C 39.21875 37.070312 39.242188 37.457031 39.238281 37.878906 C 39.238281 37.988281 39.238281 38.097656 39.234375 38.210938 C 39.234375 38.292969 39.234375 38.375 39.234375 38.460938 C 38.976562 38.203125 38.960938 37.957031 38.949219 37.605469 C 38.96875 37.289062 39 36.972656 39.042969 36.65625 Z M 39.042969 36.65625 " fill-opacity="1" fill-rule="nonzero"/><path fill="#8bea78" d="M 35.914062 56.03125 C 35.945312 56.03125 35.976562 56.03125 36.007812 56.03125 C 36.015625 56.101562 36.019531 56.171875 36.027344 56.242188 C 36.035156 56.335938 36.042969 56.429688 36.050781 56.523438 C 36.058594 56.613281 36.066406 56.707031 36.074219 56.800781 C 36.101562 57.054688 36.144531 57.300781 36.199219 57.550781 C 35.917969 57.550781 35.636719 57.550781 35.34375 57.550781 C 35.722656 57.359375 35.722656 57.359375 35.914062 57.359375 C 35.914062 56.921875 35.914062 56.484375 35.914062 56.03125 Z M 35.914062 56.03125 " fill-opacity="1" fill-rule="nonzero"/><path fill="#86de7a" d="M 25.199219 52.230469 C 25.480469 52.230469 25.765625 52.226562 26.046875 52.226562 C 26.128906 52.226562 26.207031 52.222656 26.292969 52.222656 C 26.367188 52.222656 26.445312 52.222656 26.523438 52.222656 C 26.59375 52.222656 26.664062 52.222656 26.738281 52.222656 C 26.90625 52.230469 26.90625 52.230469 27 52.328125 C 27.222656 52.363281 27.441406 52.394531 27.664062 52.421875 C 27.664062 52.453125 27.664062 52.484375 27.664062 52.515625 C 27.53125 52.519531 27.394531 52.519531 27.261719 52.523438 C 27.148438 52.523438 27.148438 52.523438 27.035156 52.527344 C 26.816406 52.515625 26.644531 52.476562 26.433594 52.421875 C 26.21875 52.402344 26.003906 52.382812 25.792969 52.367188 C 25.679688 52.359375 25.570312 52.351562 25.457031 52.34375 C 25.371094 52.339844 25.285156 52.332031 25.199219 52.328125 C 25.199219 52.296875 25.199219 52.265625 25.199219 52.230469 Z M 25.199219 52.230469 " fill-opacity="1" fill-rule="nonzero"/><path fill="#121012" d="M 32.3125 30.386719 C 32.375 30.386719 32.4375 30.386719 32.5 30.386719 C 32.5 31.171875 32.5 31.953125 32.5 32.761719 C 32.4375 32.792969 32.375 32.824219 32.3125 32.855469 C 32.222656 32.589844 32.210938 32.464844 32.226562 32.191406 C 32.230469 32.117188 32.238281 32.046875 32.242188 31.972656 C 32.25 31.859375 32.25 31.859375 32.257812 31.746094 C 32.261719 31.671875 32.265625 31.59375 32.273438 31.515625 C 32.285156 31.332031 32.296875 31.144531 32.3125 30.957031 C 32.25 30.925781 32.1875 30.894531 32.121094 30.863281 C 32.183594 30.863281 32.246094 30.863281 32.3125 30.863281 C 32.3125 30.707031 32.3125 30.550781 32.3125 30.386719 Z M 32.3125 30.386719 " fill-opacity="1" fill-rule="nonzero"/><path fill="#2f292e" d="M 30.414062 62.773438 C 30.601562 62.929688 30.691406 63.011719 30.730469 63.257812 C 30.730469 63.332031 30.726562 63.40625 30.726562 63.480469 C 30.726562 63.5625 30.726562 63.644531 30.722656 63.726562 C 30.722656 63.808594 30.71875 63.894531 30.71875 63.980469 C 30.714844 64.105469 30.714844 64.105469 30.714844 64.234375 C 30.710938 64.445312 30.703125 64.65625 30.699219 64.863281 C 30.667969 64.863281 30.636719 64.863281 30.605469 64.863281 C 30.570312 64.605469 30.539062 64.34375 30.507812 64.085938 C 30.5 64.011719 30.492188 63.941406 30.480469 63.863281 C 30.4375 63.5 30.402344 63.144531 30.414062 62.773438 Z M 30.414062 62.773438 " fill-opacity="1" fill-rule="nonzero"/><path fill="#183c13" d="M 34.300781 51.851562 C 34.425781 51.851562 34.550781 51.851562 34.679688 51.851562 C 34.679688 51.914062 34.679688 51.976562 34.679688 52.042969 C 34.332031 52.21875 33.917969 52.179688 33.53125 52.207031 C 33.269531 52.203125 33.269531 52.203125 33.164062 52.328125 C 33.007812 52.332031 32.847656 52.332031 32.691406 52.328125 C 32.785156 52.296875 32.878906 52.265625 32.976562 52.230469 C 32.976562 52.167969 32.976562 52.105469 32.976562 52.042969 C 33.414062 52.042969 33.851562 52.042969 34.300781 52.042969 C 34.300781 51.980469 34.300781 51.917969 34.300781 51.851562 Z M 34.300781 51.851562 " fill-opacity="1" fill-rule="nonzero"/><path fill="#1d191c" d="M 40.558594 56.410156 C 40.589844 56.410156 40.621094 56.410156 40.65625 56.410156 C 40.679688 56.59375 40.699219 56.773438 40.71875 56.957031 C 40.738281 57.109375 40.738281 57.109375 40.757812 57.265625 C 40.75 57.589844 40.683594 57.699219 40.464844 57.929688 C 40.347656 57.375 40.410156 56.957031 40.558594 56.410156 Z M 40.558594 56.410156 " fill-opacity="1" fill-rule="nonzero"/><path fill="#9fe78e" d="M 35.628906 53.941406 C 35.660156 53.941406 35.691406 53.941406 35.722656 53.941406 C 35.816406 54.410156 35.910156 54.882812 36.007812 55.367188 C 35.882812 55.335938 35.757812 55.304688 35.628906 55.269531 C 35.628906 54.832031 35.628906 54.394531 35.628906 53.941406 Z M 35.628906 53.941406 " fill-opacity="1" fill-rule="nonzero"/><path fill="#a2ed97" d="M 35.15625 52.042969 C 35.21875 52.042969 35.28125 52.042969 35.34375 52.042969 C 35.574219 52.484375 35.554688 52.886719 35.535156 53.371094 C 35.472656 53.371094 35.410156 53.371094 35.34375 53.371094 C 35.28125 52.933594 35.21875 52.492188 35.15625 52.042969 Z M 35.15625 52.042969 " fill-opacity="1" fill-rule="nonzero"/><path fill="#171218" d="M 34.113281 84.808594 C 34.234375 84.898438 34.359375 84.988281 34.480469 85.074219 C 34.546875 85.125 34.617188 85.175781 34.6875 85.226562 C 34.871094 85.378906 34.871094 85.378906 35.0625 85.664062 C 35.027344 85.757812 34.996094 85.851562 34.964844 85.949219 C 34.902344 85.824219 34.839844 85.699219 34.777344 85.570312 C 34.714844 85.570312 34.652344 85.570312 34.585938 85.570312 C 34.433594 85.4375 34.433594 85.4375 34.300781 85.285156 C 34.300781 85.222656 34.300781 85.160156 34.300781 85.09375 C 34.238281 85.09375 34.175781 85.09375 34.113281 85.09375 C 34.113281 85 34.113281 84.90625 34.113281 84.808594 Z M 34.113281 84.808594 " fill-opacity="1" fill-rule="nonzero"/><path fill="#191418" d="M 31.742188 79.773438 C 31.742188 80.152344 31.742188 80.527344 31.742188 80.914062 C 31.648438 80.960938 31.648438 80.960938 31.550781 81.011719 C 31.519531 80.632812 31.488281 80.257812 31.457031 79.871094 C 31.648438 79.773438 31.648438 79.773438 31.742188 79.773438 Z M 31.742188 79.773438 " fill-opacity="1" fill-rule="nonzero"/><path fill="#080408" d="M 34.871094 51.09375 C 35.058594 51.140625 35.058594 51.140625 35.25 51.1875 C 35.25 51.375 35.25 51.5625 35.25 51.757812 C 35.09375 51.726562 34.9375 51.695312 34.777344 51.664062 C 34.808594 51.472656 34.839844 51.285156 34.871094 51.09375 Z M 34.871094 51.09375 " fill-opacity="1" fill-rule="nonzero"/><path fill="#1e1b1d" d="M 23.113281 46.4375 C 23.207031 46.4375 23.300781 46.4375 23.398438 46.4375 C 23.335938 47.003906 23.273438 47.566406 23.207031 48.148438 C 23.175781 48.148438 23.144531 48.148438 23.113281 48.148438 C 23.113281 47.582031 23.113281 47.019531 23.113281 46.4375 Z M 23.113281 46.4375 " fill-opacity="1" fill-rule="nonzero"/><path fill="#161115" d="M 35.25 68.1875 C 35.28125 68.1875 35.3125 68.1875 35.34375 68.1875 C 35.40625 68.691406 35.46875 69.191406 35.535156 69.707031 C 35.441406 69.644531 35.347656 69.582031 35.25 69.519531 C 35.222656 69.207031 35.222656 69.207031 35.234375 68.839844 C 35.234375 68.71875 35.238281 68.597656 35.238281 68.472656 C 35.242188 68.378906 35.246094 68.285156 35.25 68.1875 Z M 35.25 68.1875 " fill-opacity="1" fill-rule="nonzero"/><path fill="#161417" d="M 27.855469 86.421875 C 27.949219 86.421875 28.042969 86.421875 28.140625 86.421875 C 28.117188 86.625 28.09375 86.824219 28.066406 87.023438 C 28.054688 87.132812 28.042969 87.246094 28.027344 87.359375 C 27.949219 87.660156 27.949219 87.660156 27.753906 87.839844 C 27.691406 87.875 27.632812 87.910156 27.570312 87.941406 C 27.601562 87.816406 27.632812 87.691406 27.664062 87.5625 C 27.726562 87.5625 27.789062 87.5625 27.855469 87.5625 C 27.855469 87.1875 27.855469 86.8125 27.855469 86.421875 Z M 27.855469 86.421875 " fill-opacity="1" fill-rule="nonzero"/><path fill="#1d1a1e" d="M 21.597656 58.785156 C 21.660156 58.847656 21.722656 58.910156 21.785156 58.976562 C 21.285156 59.359375 21.285156 59.359375 20.945312 59.332031 C 20.878906 59.308594 20.8125 59.285156 20.742188 59.261719 C 20.773438 59.199219 20.804688 59.136719 20.839844 59.070312 C 20.945312 59.078125 20.945312 59.078125 21.058594 59.089844 C 21.316406 59.09375 21.316406 59.09375 21.484375 58.929688 C 21.519531 58.878906 21.558594 58.832031 21.597656 58.785156 Z M 21.597656 58.785156 " fill-opacity="1" fill-rule="nonzero"/><path fill="#8bf07d" d="M 33.734375 52.230469 C 34.109375 52.230469 34.484375 52.230469 34.871094 52.230469 C 34.839844 52.324219 34.808594 52.421875 34.777344 52.515625 C 34.636719 52.507812 34.5 52.492188 34.359375 52.480469 C 34.246094 52.472656 34.246094 52.472656 34.128906 52.460938 C 33.921875 52.421875 33.921875 52.421875 33.734375 52.230469 Z M 33.734375 52.230469 " fill-opacity="1" fill-rule="nonzero"/><path fill="#110d11" d="M 20.457031 39.316406 C 20.488281 39.441406 20.519531 39.566406 20.554688 39.695312 C 20.617188 39.695312 20.679688 39.695312 20.742188 39.695312 C 20.710938 39.757812 20.679688 39.820312 20.648438 39.886719 C 20.554688 39.917969 20.460938 39.949219 20.363281 39.980469 C 20.332031 40.074219 20.300781 40.167969 20.269531 40.265625 C 20.207031 40.234375 20.144531 40.203125 20.078125 40.171875 C 20.203125 39.886719 20.328125 39.605469 20.457031 39.316406 Z M 20.457031 39.316406 " fill-opacity="1" fill-rule="nonzero"/><path fill="#1c1a1c" d="M 27.191406 87.183594 C 27.019531 87.421875 27.019531 87.421875 26.8125 87.660156 C 26.71875 87.660156 26.625 87.660156 26.527344 87.660156 C 26.558594 87.5 26.589844 87.34375 26.621094 87.183594 C 26.90625 87.089844 26.90625 87.089844 27.191406 87.183594 Z M 27.191406 87.183594 " fill-opacity="1" fill-rule="nonzero"/><path fill="#092605" d="M 24.472656 57.71875 C 24.746094 57.742188 24.949219 57.816406 25.199219 57.929688 C 25.199219 57.992188 25.199219 58.054688 25.199219 58.121094 C 24.636719 58.027344 24.636719 58.027344 24.0625 57.929688 C 24.25 57.742188 24.25 57.742188 24.472656 57.71875 Z M 24.472656 57.71875 " fill-opacity="1" fill-rule="nonzero"/><path fill="#021701" d="M 25.011719 51.472656 C 25.289062 51.597656 25.289062 51.597656 25.578125 51.757812 C 25.609375 51.851562 25.640625 51.945312 25.671875 52.042969 C 25.421875 51.980469 25.167969 51.914062 24.914062 51.851562 C 24.945312 51.726562 24.976562 51.601562 25.011719 51.472656 Z M 25.011719 51.472656 " fill-opacity="1" fill-rule="nonzero"/><path fill="#292728" d="M 29.277344 66.476562 C 29.308594 66.476562 29.339844 66.476562 29.371094 66.476562 C 29.390625 67.371094 29.390625 67.371094 29.277344 67.808594 C 29.214844 67.808594 29.152344 67.808594 29.085938 67.808594 C 29.082031 67.617188 29.082031 67.429688 29.085938 67.238281 C 29.117188 67.207031 29.148438 67.175781 29.183594 67.144531 C 29.21875 66.921875 29.25 66.699219 29.277344 66.476562 Z M 29.277344 66.476562 " fill-opacity="1" fill-rule="nonzero"/><path fill="#130f11" d="M 39.042969 57.929688 C 39.074219 58.023438 39.105469 58.117188 39.136719 58.214844 C 39.199219 58.246094 39.261719 58.277344 39.328125 58.308594 C 39.265625 58.46875 39.203125 58.625 39.136719 58.785156 C 39.011719 58.722656 38.886719 58.660156 38.757812 58.59375 C 38.851562 58.375 38.945312 58.15625 39.042969 57.929688 Z M 39.042969 57.929688 " fill-opacity="1" fill-rule="nonzero"/><path fill="#92eb85" d="M 24.820312 52.042969 C 24.882812 52.042969 24.945312 52.042969 25.011719 52.042969 C 25.042969 52.136719 25.074219 52.230469 25.105469 52.328125 C 25.042969 52.390625 24.980469 52.453125 24.914062 52.515625 C 24.851562 52.726562 24.851562 52.726562 24.808594 52.957031 C 24.785156 53.074219 24.785156 53.074219 24.761719 53.191406 C 24.75 53.25 24.738281 53.308594 24.726562 53.371094 C 24.617188 53.046875 24.644531 52.824219 24.71875 52.492188 C 24.738281 52.410156 24.757812 52.324219 24.777344 52.238281 C 24.789062 52.171875 24.804688 52.109375 24.820312 52.042969 Z M 24.820312 52.042969 " fill-opacity="1" fill-rule="nonzero"/><path fill="#151316" d="M 25.390625 33.902344 C 25.390625 33.996094 25.390625 34.089844 25.390625 34.1875 C 25.144531 34.339844 25.039062 34.378906 24.75 34.339844 C 24.679688 34.320312 24.609375 34.300781 24.535156 34.28125 C 24.820312 34.09375 25.066406 34.003906 25.390625 33.902344 Z M 25.390625 33.902344 " fill-opacity="1" fill-rule="nonzero"/><path fill="#272627" d="M 28.898438 75.597656 C 28.960938 75.597656 29.023438 75.597656 29.085938 75.597656 C 29.054688 76.035156 29.023438 76.472656 28.992188 76.925781 C 28.800781 76.734375 28.800781 76.734375 28.78125 76.492188 C 28.78125 76.398438 28.785156 76.304688 28.785156 76.207031 C 28.785156 76.113281 28.785156 76.019531 28.785156 75.921875 C 28.800781 75.691406 28.800781 75.691406 28.898438 75.597656 Z M 28.898438 75.597656 " fill-opacity="1" fill-rule="nonzero"/><path fill="#130f15" d="M 27.097656 23.550781 C 27.160156 23.582031 27.222656 23.613281 27.285156 23.644531 C 27.285156 23.800781 27.285156 23.957031 27.285156 24.117188 C 27.191406 24.148438 27.097656 24.179688 27 24.214844 C 26.96875 24.277344 26.9375 24.339844 26.90625 24.402344 C 26.84375 24.371094 26.78125 24.339844 26.714844 24.308594 C 26.84375 24.058594 26.96875 23.808594 27.097656 23.550781 Z M 27.097656 23.550781 " fill-opacity="1" fill-rule="nonzero"/><path fill="#1d1a20" d="M 26.621094 82.910156 C 26.753906 83.03125 26.878906 83.160156 27 83.289062 C 27 83.351562 27 83.414062 27 83.480469 C 26.90625 83.527344 26.90625 83.527344 26.8125 83.574219 C 26.75 83.8125 26.75 83.8125 26.714844 84.050781 C 26.652344 84.019531 26.589844 83.988281 26.527344 83.953125 C 26.558594 83.609375 26.589844 83.265625 26.621094 82.910156 Z M 26.621094 82.910156 " fill-opacity="1" fill-rule="nonzero"/><path fill="#272324" d="M 36.292969 58.878906 C 36.324219 58.878906 36.355469 58.878906 36.386719 58.878906 C 36.449219 59.226562 36.511719 59.570312 36.578125 59.925781 C 36.484375 59.925781 36.390625 59.925781 36.292969 59.925781 C 36.292969 59.582031 36.292969 59.234375 36.292969 58.878906 Z M 36.292969 58.878906 " fill-opacity="1" fill-rule="nonzero"/><path fill="#130e13" d="M 36.863281 34.566406 C 37.003906 34.609375 37.144531 34.652344 37.28125 34.695312 C 37.359375 34.722656 37.4375 34.746094 37.519531 34.769531 C 37.714844 34.851562 37.714844 34.851562 37.808594 35.042969 C 37.496094 34.980469 37.183594 34.914062 36.863281 34.851562 C 36.863281 34.757812 36.863281 34.664062 36.863281 34.566406 Z M 36.863281 34.566406 " fill-opacity="1" fill-rule="nonzero"/><path fill="#161517" d="M 34.679688 33.902344 C 34.964844 33.996094 35.246094 34.089844 35.535156 34.1875 C 35.410156 34.3125 35.285156 34.4375 35.15625 34.566406 C 35.128906 34.503906 35.105469 34.445312 35.078125 34.382812 C 34.976562 34.15625 34.976562 34.15625 34.679688 34.089844 C 34.679688 34.027344 34.679688 33.964844 34.679688 33.902344 Z M 34.679688 33.902344 " fill-opacity="1" fill-rule="nonzero"/><path fill="#120c14" d="M 27.570312 32.761719 C 27.632812 32.761719 27.695312 32.761719 27.757812 32.761719 C 27.789062 32.855469 27.824219 32.949219 27.855469 33.046875 C 27.246094 33.339844 27.246094 33.339844 26.960938 33.300781 C 26.910156 33.28125 26.863281 33.257812 26.8125 33.238281 C 26.902344 33.195312 26.992188 33.152344 27.085938 33.105469 C 27.378906 32.96875 27.378906 32.96875 27.570312 32.761719 Z M 27.570312 32.761719 " fill-opacity="1" fill-rule="nonzero"/><path fill="#120f14" d="M 26.714844 28.203125 C 26.8125 28.203125 26.90625 28.203125 27 28.203125 C 27 28.390625 27 28.578125 27 28.773438 C 27.09375 28.804688 27.1875 28.835938 27.285156 28.867188 C 27.285156 28.929688 27.285156 28.992188 27.285156 29.058594 C 27.109375 29.003906 27.109375 29.003906 26.90625 28.867188 C 26.789062 28.523438 26.789062 28.523438 26.714844 28.203125 Z M 26.714844 28.203125 " fill-opacity="1" fill-rule="nonzero"/><path fill="#140f14" d="M 38.757812 57.742188 C 38.851562 57.804688 38.945312 57.867188 39.042969 57.929688 C 38.949219 57.992188 38.855469 58.054688 38.757812 58.121094 C 38.734375 58.414062 38.734375 58.414062 38.757812 58.691406 C 38.664062 58.660156 38.570312 58.628906 38.472656 58.59375 C 38.53125 58.011719 38.53125 58.011719 38.570312 57.835938 C 38.632812 57.804688 38.695312 57.773438 38.757812 57.742188 Z M 38.757812 57.742188 " fill-opacity="1" fill-rule="nonzero"/><path fill="#181719" d="M 37.621094 51.566406 C 37.746094 51.566406 37.871094 51.566406 38 51.566406 C 37.96875 51.910156 37.9375 52.257812 37.90625 52.613281 C 37.875 52.613281 37.84375 52.613281 37.808594 52.613281 C 37.746094 52.265625 37.683594 51.921875 37.621094 51.566406 Z M 37.621094 51.566406 " fill-opacity="1" fill-rule="nonzero"/><path fill="#161016" d="M 19.511719 50.238281 C 19.726562 50.566406 19.75 50.800781 19.796875 51.1875 C 19.734375 51.1875 19.671875 51.1875 19.605469 51.1875 C 19.496094 50.855469 19.503906 50.582031 19.511719 50.238281 Z M 19.511719 50.238281 " fill-opacity="1" fill-rule="nonzero"/><path fill="#16151a" d="M 34.777344 48.148438 C 34.808594 48.148438 34.839844 48.148438 34.871094 48.148438 C 34.871094 48.492188 34.871094 48.835938 34.871094 49.191406 C 34.777344 49.191406 34.683594 49.191406 34.585938 49.191406 C 34.585938 49.035156 34.585938 48.878906 34.585938 48.71875 C 34.648438 48.71875 34.710938 48.71875 34.777344 48.71875 C 34.777344 48.53125 34.777344 48.339844 34.777344 48.148438 Z M 34.777344 48.148438 " fill-opacity="1" fill-rule="nonzero"/><path fill="#1e1720" d="M 25.199219 86.613281 C 25.292969 86.613281 25.386719 86.613281 25.484375 86.613281 C 25.484375 86.832031 25.484375 87.050781 25.484375 87.277344 C 25.421875 87.277344 25.359375 87.277344 25.292969 87.277344 C 25.261719 87.058594 25.230469 86.839844 25.199219 86.613281 Z M 25.199219 86.613281 " fill-opacity="1" fill-rule="nonzero"/><path fill="#201c21" d="M 38.570312 59.070312 C 38.820312 59.070312 39.070312 59.070312 39.328125 59.070312 C 39.296875 59.164062 39.265625 59.257812 39.234375 59.355469 C 38.78125 59.285156 38.78125 59.285156 38.570312 59.070312 Z M 38.570312 59.070312 " fill-opacity="1" fill-rule="nonzero"/><path fill="#6fe765" d="M 27.664062 52.515625 C 28.007812 52.546875 28.351562 52.578125 28.707031 52.613281 C 28.355469 52.789062 28.226562 52.851562 27.855469 52.800781 C 27.792969 52.707031 27.730469 52.613281 27.664062 52.515625 Z M 27.664062 52.515625 " fill-opacity="1" fill-rule="nonzero"/><path fill="#1a131b" d="M 27.757812 23.074219 C 27.824219 23.105469 27.886719 23.136719 27.949219 23.167969 C 27.886719 23.355469 27.824219 23.546875 27.757812 23.738281 C 27.632812 23.675781 27.507812 23.613281 27.378906 23.550781 C 27.441406 23.519531 27.503906 23.488281 27.570312 23.453125 C 27.675781 23.261719 27.675781 23.261719 27.757812 23.074219 Z M 27.757812 23.074219 " fill-opacity="1" fill-rule="nonzero"/><path fill="#313131" d="M 33.070312 86.707031 C 33.195312 86.707031 33.320312 86.707031 33.449219 86.707031 C 33.480469 86.863281 33.511719 87.023438 33.542969 87.183594 C 33.308594 87.089844 33.308594 87.089844 33.070312 86.992188 C 33.070312 86.898438 33.070312 86.804688 33.070312 86.707031 Z M 33.070312 86.707031 " fill-opacity="1" fill-rule="nonzero"/><path fill="#100f15" d="M 32.214844 85.664062 C 32.246094 85.757812 32.277344 85.851562 32.3125 85.949219 C 32.375 86.105469 32.4375 86.265625 32.5 86.421875 C 32.40625 86.453125 32.3125 86.484375 32.214844 86.519531 C 32.152344 86.269531 32.089844 86.015625 32.027344 85.757812 C 32.089844 85.726562 32.152344 85.695312 32.214844 85.664062 Z M 32.214844 85.664062 " fill-opacity="1" fill-rule="nonzero"/><path fill="#141314" d="M 22.542969 50.808594 C 22.667969 51.179688 22.566406 51.390625 22.449219 51.757812 C 22.417969 51.757812 22.386719 51.757812 22.355469 51.757812 C 22.355469 51.476562 22.355469 51.191406 22.355469 50.902344 C 22.417969 50.871094 22.480469 50.839844 22.542969 50.808594 Z M 22.542969 50.808594 " fill-opacity="1" fill-rule="nonzero"/></svg>