<?xml version="1.0" encoding="UTF-8"?>
<svg version="1.1" xmlns="http://www.w3.org/2000/svg" width="24" height="31">
<path d="M0 0 C1.36465267 0.00399021 2.7293066 0.01874032 4.09375 0.04296875 C4.78339844 0.04361328 5.47304687 0.04425781 6.18359375 0.04492188 C11.31263951 0.0899135 11.31263951 0.0899135 13.59375 1.23046875 C13.59375 9.48046875 13.59375 17.73046875 13.59375 26.23046875 C7.59375 24.23046875 7.59375 24.23046875 5.515625 23.515625 C2.94394354 23.13405438 1.26888784 23.77637396 -1.15625 24.66796875 C-1.95546875 24.95542969 -2.7546875 25.24289063 -3.578125 25.5390625 C-4.48304688 25.88130859 -4.48304688 25.88130859 -5.40625 26.23046875 C-5.46410647 22.2721964 -5.49979717 18.31403205 -5.53125 14.35546875 C-5.54800781 13.22753906 -5.56476562 12.09960938 -5.58203125 10.9375 C-5.58847656 9.86113281 -5.59492187 8.78476563 -5.6015625 7.67578125 C-5.61203613 6.68078613 -5.62250977 5.68579102 -5.63330078 4.66064453 C-5.25392387 0.60008779 -3.92869918 0.26581795 0 0 Z M-1.40625 4.23046875 C-1.40625 9.51046875 -1.40625 14.79046875 -1.40625 20.23046875 C2.05875 19.73546875 2.05875 19.73546875 5.59375 19.23046875 C8.06875 20.22046875 8.06875 20.22046875 10.59375 21.23046875 C10.59375 15.62046875 10.59375 10.01046875 10.59375 4.23046875 C6.63375 4.23046875 2.67375 4.23046875 -1.40625 4.23046875 Z " fill="#000000" transform="translate(5.40625,4.76953125)"/>
<path d="M0 0 C2.81256281 -0.02684312 5.62487241 -0.04676188 8.4375 -0.0625 C9.23994141 -0.07087891 10.04238281 -0.07925781 10.86914062 -0.08789062 C12.91295221 -0.0965143 14.95683902 -0.0522815 17 0 C18 1 18 1 18.11352539 3.31665039 C18.10828857 4.31688232 18.10305176 5.31711426 18.09765625 6.34765625 C18.09443359 7.42724609 18.09121094 8.50683594 18.08789062 9.61914062 C18.07951172 10.75544922 18.07113281 11.89175781 18.0625 13.0625 C18.05798828 14.20267578 18.05347656 15.34285156 18.04882812 16.51757812 C18.03699747 19.34510351 18.0205141 22.1725264 18 25 C17.01 24.67 16.02 24.34 15 24 C14.97494385 23.42967041 14.9498877 22.85934082 14.92407227 22.27172852 C14.80843451 19.70173843 14.68556376 17.13214473 14.5625 14.5625 C14.52318359 13.66466797 14.48386719 12.76683594 14.44335938 11.84179688 C14.40146484 10.98779297 14.35957031 10.13378906 14.31640625 9.25390625 C14.27974854 8.46314697 14.24309082 7.6723877 14.20532227 6.85766602 C14.19436743 4.98598559 14.19436743 4.98598559 13 4 C10.65012738 3.76472227 8.29443961 3.58613583 5.9375 3.4375 C4.64714844 3.35371094 3.35679688 3.26992188 2.02734375 3.18359375 C0.52880859 3.09271484 0.52880859 3.09271484 -1 3 C-0.67 2.01 -0.34 1.02 0 0 Z " fill="#000000" transform="translate(6,0)"/>
</svg>
