<?xml version="1.0" standalone="no"?>
<!DOCTYPE svg PUBLIC "-//W3C//DTD SVG 20010904//EN"
 "http://www.w3.org/TR/2001/REC-SVG-20010904/DTD/svg10.dtd">
<svg version="1.0" xmlns="http://www.w3.org/2000/svg"
 width="35.000000pt" height="35.000000pt" viewBox="0 0 35.000000 35.000000"
 preserveAspectRatio="xMidYMid meet">

<g transform="translate(0.000000,35.000000) scale(0.100000,-0.100000)"
fill="#000000" stroke="none">
<path d="M26 334 c-13 -13 -16 -41 -16 -155 0 -78 5 -149 10 -160 10 -17 23
-19 154 -19 185 0 176 -9 176 177 0 181 8 173 -173 173 -110 0 -139 -3 -151
-16z m279 -159 l0 -140 -119 -3 c-78 -2 -123 1 -132 9 -19 15 -20 249 -2 267
9 9 48 12 133 10 l120 -3 0 -140z"/>
<path d="M160 221 c0 -24 -5 -30 -25 -33 -35 -4 -36 -22 -2 -26 23 -3 27 -8
27 -33 0 -40 33 -37 38 4 3 21 9 27 28 27 15 0 24 6 24 15 0 9 -9 15 -24 15
-19 0 -25 6 -28 27 -5 41 -38 44 -38 4z"/>
</g>
</svg>
