<svg width="211" height="226" viewBox="0 0 211 226" fill="none" xmlns="http://www.w3.org/2000/svg">
<path d="M204.068 54.0458L161.407 29.1328C160.44 28.56 159.355 28.2564 158.25 28.25H131.875C130.126 28.25 128.449 28.9941 127.212 30.3186C125.976 31.643 125.281 33.4394 125.281 35.3125C125.281 40.9318 123.197 46.3209 119.487 50.2943C115.778 54.2678 110.746 56.5 105.5 56.5C100.254 56.5 95.2222 54.2678 91.5125 50.2943C87.8028 46.3209 85.7187 40.9318 85.7187 35.3125C85.7187 33.4394 85.024 31.643 83.7874 30.3186C82.5509 28.9941 80.8737 28.25 79.125 28.25H52.75C51.6425 28.2549 50.554 28.5585 49.585 29.1328L6.93163 54.0458C3.8911 55.7669 1.61184 58.7091 0.593642 62.2275C-0.424561 65.7458 -0.098606 69.5531 1.50003 72.8144L17.3827 105.311C18.5376 107.647 20.2686 109.599 22.3875 110.955C24.5063 112.311 26.9318 113.018 29.3998 113H46.1562V183.625C46.1562 187.371 47.5456 190.964 50.0187 193.613C52.4919 196.262 55.8462 197.75 59.3437 197.75H151.656C155.154 197.75 158.508 196.262 160.981 193.613C163.454 190.964 164.844 187.371 164.844 183.625V113H181.608C184.076 113.018 186.502 112.311 188.621 110.955C190.74 109.599 192.471 107.647 193.625 105.311L209.508 72.8144C211.106 69.552 211.431 65.7439 210.411 62.2254C209.391 58.7069 207.11 55.7653 204.068 54.0458ZM29.3998 98.875C29.278 98.8812 29.1582 98.8405 29.0619 98.7602L13.2616 66.4405L46.1562 47.2128V98.875H29.3998ZM151.656 183.625H59.3437V42.375H73.1906C74.7119 50.3482 78.7576 57.5139 84.6434 62.6601C90.5292 67.8063 97.8939 70.6171 105.492 70.6171C113.09 70.6171 120.454 67.8063 126.34 62.6601C132.226 57.5139 136.272 50.3482 137.793 42.375H151.656V183.625ZM181.946 98.7514C181.901 98.7954 181.847 98.8291 181.789 98.8503C181.731 98.8716 181.67 98.88 181.608 98.875H164.844V47.2128L197.747 66.4405L181.946 98.7514Z" fill="#D9D9D9"/>
<path d="M155 131H181V215H155V131Z" fill="#D9D9D9"/>
<rect x="124" y="186" width="26" height="87" transform="rotate(-90 124 186)" fill="#D9D9D9"/>
</svg>
