<?xml version="1.0" encoding="UTF-8"?>
<svg version="1.1" xmlns="http://www.w3.org/2000/svg" width="291" height="858">
<path d="M0 0 C3.53854372 2.81151534 6.78860696 5.82364033 10 9 C10.9075 9.825 11.815 10.65 12.75 11.5 C14.69050692 13.6561188 16.46857005 15.79187206 18.1875 18.125 C18.92033203 19.11886719 18.92033203 19.11886719 19.66796875 20.1328125 C23.45784603 28.29049557 23.19509659 37.02676487 22.625 45.8125 C22.50631481 47.92171932 22.39041535 50.0310973 22.27734375 52.140625 C22.22304199 53.14673828 22.16874023 54.15285156 22.11279297 55.18945312 C21.96668777 58.83006571 22.06639226 62.42145434 22.1875 66.0625 C22.2392371 73.17635121 20.37088423 76.40078021 15.56640625 81.66796875 C12.60624391 85.20706791 11.1930417 89.01840468 9.625 93.3125 C6.60185934 101.1209552 2.9308517 107.25230627 -3.1796875 113.078125 C-5.90349099 117.45023876 -5.54507733 121.45427636 -5.4375 126.5 C-5.44458984 127.43714844 -5.45167969 128.37429687 -5.45898438 129.33984375 C-5.41194208 134.4421238 -5.15394997 137.78357883 -2 142 C-2 142.66 -2 143.32 -2 144 C-1.15179688 144.27070313 -0.30359375 144.54140625 0.5703125 144.8203125 C4.08264922 146.02842832 7.46291909 147.40833716 10.875 148.875 C11.49141357 149.13966064 12.10782715 149.40432129 12.74291992 149.67700195 C15.98879634 151.0831069 19.17585839 152.55291212 22.3125 154.1875 C28.48616877 157.33945748 34.78559553 158.96650974 41.5625 160.3125 C49.52912918 162.12309754 54.35324728 165.40050652 59.125 172 C75.81252655 199.28636098 78.5343609 234.98625574 82.0859375 266.09375 C82.16687653 266.78078003 82.24781555 267.46781006 82.33120728 268.17565918 C82.69678198 271.2863676 83.03577431 274.39422957 83.31884766 277.51367188 C84.14874508 284.93987982 86.33960756 289.93966634 90.33349609 296.23632812 C92.56603156 299.93868697 93.75735511 303.58516395 94.8125 307.75 C95.00263672 308.43964844 95.19277344 309.12929688 95.38867188 309.83984375 C95.94793141 311.88854019 96.48036425 313.94087437 97 316 C97.51771973 317.87075195 97.51771973 317.87075195 98.04589844 319.77929688 C99.03417473 323.75375344 99.26903078 327.50413488 99.30859375 331.609375 C99.33132082 333.08366484 99.35445069 334.55794851 99.37792969 336.03222656 C99.38707397 336.8005481 99.39621826 337.56886963 99.40563965 338.36047363 C99.58194071 351.58305288 100.05663892 364.78294448 101.07546997 377.96838379 C101.18952007 379.45935106 101.29727577 380.95081678 101.3979187 382.44274902 C102.06547029 392.16909647 103.85223407 400.99282228 106.83959961 410.27807617 C109.13281049 417.63343065 110.78435228 425.28720254 110 433 C108.375 436 108.375 436 106 439 C105.01952499 440.33237153 104.04043503 441.66576306 103.0625 443 C102.04433991 444.33537579 101.02360009 445.66878952 100 447 C99.56429687 447.58523438 99.12859375 448.17046875 98.6796875 448.7734375 C96.12336243 452.06932832 94.11909318 454.07320404 90 455 C86.96360297 454.7831145 85.50079753 454.43172201 83.1875 452.4375 C82.5996875 451.7259375 82.5996875 451.7259375 82 451 C81.34 451.66 80.68 452.32 80 453 C79.01 453 78.02 453 77 453 C72.55025023 444.10050046 76.32171572 426.67520325 79.1875 417.8125 C80.90295559 413.55529609 83.78375199 410.11781515 86.671875 406.58984375 C88.94773408 402.15191854 87.26524686 397.64765575 85.86425781 393.06274414 C85.3997293 391.63496524 84.92905132 390.20917643 84.453125 388.78515625 C84.20004578 388.011754 83.94696655 387.23835175 83.68621826 386.44151306 C82.87959465 383.98001154 82.06512849 381.52119666 81.25 379.0625 C80.19075617 375.84569273 79.13439423 372.62794132 78.078125 369.41015625 C77.81888748 368.62152695 77.55964996 367.83289764 77.29255676 367.02037048 C72.11865039 351.25094547 67.43482288 335.98592568 65.9375 319.375 C65.855 318.46105469 65.7725 317.54710937 65.6875 316.60546875 C65.56761719 315.27128906 65.56761719 315.27128906 65.4453125 313.91015625 C64.56824125 304.19448202 62.75183695 296.06556045 59.02514648 287.04052734 C55.87903768 279.17805936 53.62331655 271.08937814 51.375 262.9375 C51.18234558 262.2406308 50.98969116 261.5437616 50.79119873 260.82577515 C49.85528018 257.43567347 48.92481488 254.0441144 47.99853516 250.65136719 C46.71217888 245.94751768 45.40632239 241.2502404 44.0625 236.5625 C43.8754248 235.88372803 43.68834961 235.20495605 43.49560547 234.50561523 C43.05730615 232.98507265 42.53784278 231.48824769 42 230 C41.34 229.67 40.68 229.34 40 229 C39.82210937 230.74023438 39.82210937 230.74023438 39.640625 232.515625 C38.9257419 238.90957947 38.01756761 245.27482374 37.06298828 251.63671875 C36.85551914 253.03754001 36.65394925 254.43924858 36.45849609 255.84179688 C34.64704664 268.81116608 31.03659162 280.28578968 24.25 291.5625 C17.0913224 303.62104916 17.82327518 316.50582545 21 330 C22.64563759 335.65455101 24.49422855 341.24420674 26.328125 346.83984375 C28.18131252 352.50788065 29.73852811 358.17112987 31 364 C31.1556543 364.68642578 31.31130859 365.37285156 31.47167969 366.08007812 C34.45702228 379.3320867 36.06840233 392.45756516 37 406 C37.05784668 406.77069824 37.11569336 407.54139648 37.17529297 408.33544922 C38.80963717 430.41606977 39.89157868 453.91862253 36 475.78515625 C34.69933096 484.13772381 34.53240344 492.43960663 34.375 500.875 C34.33744422 502.60213307 34.29984549 504.32926521 34.26220703 506.05639648 C33.97747557 520.0571241 33.89639269 534.05918071 33.875 548.0625 C33.87232117 549.05288269 33.86964233 550.04326538 33.86688232 551.06365967 C33.62314054 570.86679772 33.62314054 570.86679772 36.0390625 590.4609375 C37.42710096 597.46833464 37.39251579 604.51061741 37.375 611.625 C37.37545319 612.34388397 37.37590637 613.06276794 37.37637329 613.80343628 C37.35287391 626.58727633 36.0166346 638.84692373 33.51708984 651.39941406 C33.04988097 653.74913499 32.61865583 656.10095659 32.20703125 658.4609375 C31.1504909 664.45448133 29.92447545 670.39748098 28.54475403 676.32414246 C24.24511278 694.97767974 22.49687616 713.27939777 22.23657227 732.41650391 C22.18685916 735.92016508 22.11126128 739.42264805 22.03320312 742.92578125 C21.99327767 745.17705699 21.95481108 747.42835919 21.91796875 749.6796875 C21.88379097 751.23283157 21.88379097 751.23283157 21.84892273 752.81735229 C21.76328568 760.75968515 22.71125614 766.56228328 27.1875 773.3125 C27.79980469 774.26253906 28.41210938 775.21257813 29.04296875 776.19140625 C30.930541 778.99799851 30.930541 778.99799851 33.05078125 781.40234375 C38.31958568 787.74813827 38.57143729 792.75552737 37.953125 800.6796875 C36.79633503 804.70948864 35.50583067 805.8037002 32 808 C27.05343053 810.6944728 22.55498215 811.29494567 16.98046875 810.91015625 C14.67461624 810.84395019 14.67461624 810.84395019 12 813 C9.5 813.375 9.5 813.375 7 813 C3.07901714 809.51468191 2.18775392 803.75060948 1.84301758 798.70019531 C1.7953622 796.25842462 1.77219684 793.81712491 1.75 791.375 C1.59075974 784.88861353 1.02541352 780.18221387 -2.125 774.375 C-7.11592912 764.42896182 -5.6303526 751.75782783 -4 741 C-3.66679749 740.25503265 -3.33359497 739.51006531 -2.99029541 738.74252319 C-1.81006443 735.47399261 -1.74597554 732.86107538 -1.74121094 729.38745117 C-1.7377063 728.74252213 -1.73420166 728.09759308 -1.73059082 727.43312073 C-1.72180352 725.30295974 -1.72762505 723.17313313 -1.734375 721.04296875 C-1.73302439 719.53819211 -1.73108058 718.03341591 -1.72857666 716.52864075 C-1.72562685 713.36369704 -1.72990694 710.19886611 -1.73925781 707.03393555 C-1.75046881 703.05253161 -1.74403296 699.07140056 -1.73235703 695.09000683 C-1.69510723 680.03484346 -1.82624769 665.12119053 -3.27868652 650.12203979 C-4.10777994 641.48577627 -4.30621568 632.91328737 -4.26074219 624.2409668 C-4.24981967 621.771733 -4.26085305 619.30319951 -4.2734375 616.83398438 C-4.27873063 609.96184185 -4.20049077 603.31029071 -3 596.5234375 C-1.63678061 588.80807912 -1.69966531 581.14439639 -1.73925781 573.33325195 C-1.75002808 570.80591091 -1.73927612 568.27927343 -1.7265625 565.75195312 C-1.71978556 557.58036345 -1.98006726 549.96308134 -4 542 C-4.33583656 539.92030102 -4.65067098 537.83702255 -4.9375 535.75 C-5.18113281 533.99816406 -5.18113281 533.99816406 -5.4296875 532.2109375 C-5.87679966 528.92506958 -6.31703078 525.63828478 -6.7578125 522.3515625 C-6.8906665 521.36575195 -7.02352051 520.37994141 -7.16040039 519.36425781 C-7.42492211 517.39777091 -7.68719239 515.43097962 -7.94702148 513.46386719 C-8.06891846 512.55540039 -8.19081543 511.64693359 -8.31640625 510.7109375 C-8.42412354 509.89931152 -8.53184082 509.08768555 -8.64282227 508.25146484 C-8.96243791 506.02058463 -8.96243791 506.02058463 -9.51586914 503.95068359 C-10.38423411 500.45182526 -10.54860152 496.83340893 -10.875 493.25 C-11.60405149 485.56104994 -12.49978088 477.90810403 -13.5 470.25 C-15.06223759 458.19704657 -16.09568233 446.11818154 -17 434 C-18.65 434 -20.3 434 -22 434 C-23.26587555 436.53175111 -23.25857662 438.52564725 -23.4296875 441.35546875 C-23.50123047 442.44593506 -23.57277344 443.53640137 -23.64648438 444.65991211 C-23.72189453 445.82401611 -23.79730469 446.98812012 -23.875 448.1875 C-24.56884357 458.04720537 -25.74487999 467.37002809 -28 477 C-29.49698459 484.16487797 -30.41004347 491.34377525 -31.18212891 498.61694336 C-32.63623043 512.16399816 -34.62722918 525.64901527 -36.625 539.125 C-36.7480249 539.96015137 -36.8710498 540.79530273 -36.99780273 541.65576172 C-37.11454346 542.43193848 -37.23128418 543.20811523 -37.3515625 544.0078125 C-37.45291504 544.68473145 -37.55426758 545.36165039 -37.65869141 546.05908203 C-38 548 -38 548 -38.51225281 549.88581848 C-39.30496629 553.32190224 -39.1629367 556.80719936 -39.16796875 560.31640625 C-39.17129715 561.12810776 -39.17462555 561.93980927 -39.17805481 562.77610779 C-39.18311271 564.49501989 -39.18546349 566.21394179 -39.18530273 567.93286133 C-39.18747199 570.52897971 -39.20559165 573.12466084 -39.22460938 575.72070312 C-39.34874088 585.59745902 -39.34874088 585.59745902 -38.00390625 595.34765625 C-36.25959784 603.38796147 -36.70420825 611.71692293 -36.73925781 619.90234375 C-36.74985021 622.83355013 -36.73938829 625.76412634 -36.7265625 628.6953125 C-36.72062777 637.77630907 -36.97007443 646.69415685 -38 655.71875 C-39.5533574 669.72720329 -39.30219694 683.8243339 -39.26074219 697.89941406 C-39.24916907 701.88377141 -39.2560499 705.86786448 -39.26788712 709.85221291 C-39.2750948 712.94566875 -39.27282594 716.03906107 -39.26763153 719.13251877 C-39.26630121 720.60373339 -39.26792104 722.07495384 -39.27259064 723.54616165 C-39.27765697 725.58367046 -39.26856885 727.62119977 -39.25878906 729.65869141 C-39.25719788 730.81446686 -39.25560669 731.97024231 -39.25396729 733.16104126 C-39.20996625 736.20327012 -39.20996625 736.20327012 -37 739 C-36.34766485 743.43075954 -36.25361345 747.90340571 -36.0625 752.375 C-35.98193359 753.58800781 -35.90136719 754.80101562 -35.81835938 756.05078125 C-35.39466341 765.85332751 -37.64148464 773.28296928 -42 782 C-42.18422199 784.85690299 -42.32485041 787.70280141 -42.4375 790.5625 C-43.2843589 808.07001158 -43.2843589 808.07001158 -48 813 C-54.625 812.25 -54.625 812.25 -58 810 C-59.03125 810.20625 -60.0625 810.4125 -61.125 810.625 C-67.09807856 811.20303986 -71.53511075 808.91519713 -76.20703125 805.28515625 C-78.60853047 802.22442195 -78.73465405 799.98080829 -79 796.125 C-79.103125 794.93132813 -79.20625 793.73765625 -79.3125 792.5078125 C-78.92892074 788.20213534 -77.62138546 786.39974906 -75 783 C-74.23107224 781.90778054 -73.46814955 780.8113116 -72.7109375 779.7109375 C-71.53646173 778.03198892 -70.36038326 776.35426907 -69.1796875 774.6796875 C-62.49411905 765.10306242 -62.7937501 755.78147704 -63.015625 744.3828125 C-63.04036896 742.91604568 -63.04036896 742.91604568 -63.06561279 741.41964722 C-63.1028442 739.36075846 -63.14335276 737.30192655 -63.18701172 735.24316406 C-63.24914394 732.16737819 -63.29108852 729.091756 -63.33203125 726.015625 C-63.62731412 709.14733697 -65.18335602 692.54312948 -69.5 676.1875 C-69.93764921 674.43167359 -70.37252383 672.67515337 -70.8046875 670.91796875 C-71.01061523 670.08313965 -71.21654297 669.24831055 -71.42871094 668.38818359 C-72.7197092 662.99136949 -73.73007224 657.55032975 -74.64404297 652.07714844 C-74.88755161 650.65618033 -75.14507176 649.23756159 -75.41455078 647.82128906 C-77.72489945 635.64702788 -78.29345584 623.67000495 -78.3125 611.3125 C-78.31599457 610.57775452 -78.31948914 609.84300903 -78.3230896 609.08599854 C-78.34237869 601.78492536 -78.15866461 594.84954511 -76.50024414 587.70483398 C-74.12925481 574.88482869 -74.83539592 561.23492628 -74.875 548.25 C-74.8765509 547.33890472 -74.87810181 546.42780945 -74.87969971 545.48910522 C-74.6610779 506.68757054 -74.6610779 506.68757054 -77.0625 468 C-79.82274411 439.72439199 -78.53418814 411.34674531 -75.25 383.1875 C-75.12375244 382.08966187 -74.99750488 380.99182373 -74.86743164 379.86071777 C-73.02004237 364.11412077 -70.18372166 349.30861146 -65.20874023 334.2265625 C-61.1981681 322.0255084 -57.48864979 309.59013735 -62 297 C-63.67828841 293.69897552 -65.61279365 290.5561667 -67.546875 287.40039062 C-73.79130769 276.80790497 -75.88839891 265.32045379 -77.6875 253.3125 C-77.90079344 251.94972874 -78.11498277 250.58709739 -78.33007812 249.22460938 C-79.38139942 242.4976834 -80.32024889 235.77510168 -81 229 C-83.29994197 229.86281161 -83.29994197 229.86281161 -83.97265625 232.69140625 C-84.34401621 233.97946906 -84.70638362 235.2701397 -85.0625 236.5625 C-85.2694751 237.2855835 -85.4764502 238.00866699 -85.68969727 238.75366211 C-87.00725845 243.38020928 -88.28122617 248.01875061 -89.55770874 252.6567688 C-90.51362983 256.12646046 -91.47452181 259.59476097 -92.4375 263.0625 C-92.72938202 264.11537201 -92.72938202 264.11537201 -93.02716064 265.18951416 C-95.56491865 274.31181071 -98.36845855 283.2107479 -101.85546875 292.01953125 C-103.37635308 295.98005939 -104.34408202 299.81764125 -105 304 C-105.17144531 305.04285156 -105.34289062 306.08570313 -105.51953125 307.16015625 C-106.40919123 312.93974594 -107.0453398 318.59409852 -107.25 324.4375 C-108.72613083 344.94677233 -117.20277789 364.8631511 -123.96923828 384.08056641 C-124.29901672 385.02540894 -124.62879517 385.97025146 -124.96856689 386.94372559 C-125.59449924 388.73570387 -126.22679413 390.52547646 -126.86639404 392.31262207 C-128.89988579 398.00878019 -128.89988579 398.00878019 -129 404 C-127.83323738 406.08364381 -127.83323738 406.08364381 -126.1875 407.9375 C-115.73821296 420.50244515 -116.58157599 436.59579769 -117 452 C-118.875 452.625 -118.875 452.625 -121 453 C-121.66 452.34 -122.32 451.68 -123 451 C-123.33 451.495 -123.66 451.99 -124 452.5 C-126.59750217 454.44812663 -128.82334188 454.54788971 -132.01953125 454.40234375 C-137.52331708 453.28421763 -141.00643309 446.520536 -144.21875 442.265625 C-145.86144866 440.17622758 -147.60392 438.29506962 -149.4375 436.375 C-151.88155798 433.6067964 -151.99676309 433.03398752 -152.375 429.0625 C-152.25125 428.051875 -152.1275 427.04125 -152 426 C-151.34 426 -150.68 426 -150 426 C-149.98582031 425.319375 -149.97164062 424.63875 -149.95703125 423.9375 C-149.65428699 417.78442749 -148.60843713 412.42022903 -146.5625 406.625 C-143.40522286 397.47935682 -142.79948616 388.23729142 -142.18823242 378.63598633 C-142.00710762 376.09953437 -141.74446144 373.58279443 -141.47265625 371.0546875 C-140.99708056 365.96944385 -140.88828063 360.91174054 -140.82421875 355.80859375 C-140.81224457 354.97263168 -140.80027039 354.13666962 -140.78793335 353.27537537 C-140.73947744 349.79807824 -140.69207399 346.32111251 -140.67407227 342.84350586 C-140.57603096 326.90500582 -138.96029188 311.56983717 -131.875 297.0625 C-131.52824219 296.31033203 -131.18148437 295.55816406 -130.82421875 294.78320312 C-129.37110759 291.66820046 -127.91355719 288.87033578 -126 286 C-125.43217037 283.28274199 -124.96349824 280.61745596 -124.5625 277.875 C-124.43689697 277.04967773 -124.31129395 276.22435547 -124.18188477 275.37402344 C-123.13944009 268.34837394 -122.2757682 261.30250227 -121.4375 254.25 C-121.30907715 253.17008789 -121.1806543 252.09017578 -121.04833984 250.97753906 C-120.53870949 246.6612145 -120.03665767 242.34553248 -119.578125 238.0234375 C-116.99586972 215.55781655 -112.43307804 182.4957703 -95.1875 166 C-90.16720618 162.0271735 -84.99932684 160.67309184 -78.83203125 159.2890625 C-67.87536112 156.68431431 -58.30551513 152.17315657 -48.29296875 147.09326172 C-46.23741489 146.11319675 -44.21168048 145.36839104 -42.0625 144.62890625 C-38.777713 142.88176827 -37.6747178 141.57963405 -36.47460938 138.06054688 C-34.63385992 130.06881571 -33.82632314 120.00859889 -37.8046875 112.671875 C-39.34570203 110.89737342 -40.94881733 109.17488736 -42.609375 107.51171875 C-48.62293856 101.19354658 -54 89.79624997 -54 81 C-54.763125 80.773125 -55.52625 80.54625 -56.3125 80.3125 C-59.61208893 78.70107285 -60.43956823 77.27690673 -62 74 C-62.90118386 71.06246886 -63.0977152 68.50228706 -63.02734375 65.4375 C-63.00704102 64.12664429 -63.00704102 64.12664429 -62.98632812 62.78930664 C-62.97021484 61.86883545 -62.95410156 60.94836426 -62.9375 60 C-62.86546034 52.98273705 -63.06586961 46.36339198 -64.5625 39.47265625 C-66.25661867 29.89786053 -63.23494376 22.29710017 -57.8125 14.5 C-53.72923038 9.26247279 -51.39078259 8.00907094 -45 7 C-43.73854232 4.63813861 -43.73854232 4.63813861 -43 2 C-33.14366307 -8.81017599 -11.22772229 -7.50247492 0 0 Z M-130 438 C-129.5020163 441.73487777 -129.12508244 443.81237635 -127 447 C-126.01 446.67 -125.02 446.34 -124 446 C-124.66 443.69 -125.32 441.38 -126 439 C-127.32 438.67 -128.64 438.34 -130 438 Z M86 438 C83.58878141 439.95633975 83.58878141 439.95633975 83.875 443.625 C83.91625 444.73875 83.9575 445.8525 84 447 C86.06402968 446.51294288 86.06402968 446.51294288 88 445 C88.81870185 441.43793339 88.81870185 441.43793339 89 438 C88.01 438 87.02 438 86 438 Z " fill="#030303" transform="translate(152,10)"/>
<path d="M0 0 C0.33 0 0.66 0 1 0 C5.78924202 17.85081117 8.73179157 35.56432705 10 54 C10.05784668 54.77069824 10.11569336 55.54139648 10.17529297 56.33544922 C11.80963717 78.41606977 12.89157868 101.91862253 9 123.78515625 C7.69933096 132.13772381 7.53240344 140.43960663 7.375 148.875 C7.33744422 150.60213307 7.29984549 152.32926521 7.26220703 154.05639648 C6.97747557 168.0571241 6.89639269 182.05918071 6.875 196.0625 C6.87232117 197.05288269 6.86964233 198.04326538 6.86688232 199.06365967 C6.62314054 218.86679772 6.62314054 218.86679772 9.0390625 238.4609375 C10.42710096 245.46833464 10.39251579 252.51061741 10.375 259.625 C10.37545319 260.34388397 10.37590637 261.06276794 10.37637329 261.80343628 C10.35287391 274.58727633 9.0166346 286.84692373 6.51708984 299.39941406 C6.04988097 301.74913499 5.61865583 304.10095659 5.20703125 306.4609375 C4.1504909 312.45448133 2.92447545 318.39748098 1.54475403 324.32414246 C-2.75488722 342.97767974 -4.50312384 361.27939777 -4.76342773 380.41650391 C-4.81314084 383.92016508 -4.88873872 387.42264805 -4.96679688 390.92578125 C-5.00672233 393.17705699 -5.04518892 395.42835919 -5.08203125 397.6796875 C-5.10481644 398.71511688 -5.12760162 399.75054626 -5.15107727 400.81735229 C-5.23671432 408.75968515 -4.28874386 414.56228328 0.1875 421.3125 C0.79980469 422.26253906 1.41210938 423.21257812 2.04296875 424.19140625 C3.930541 426.99799851 3.930541 426.99799851 6.05078125 429.40234375 C11.31958568 435.74813827 11.57143729 440.75552737 10.953125 448.6796875 C9.79633503 452.70948864 8.50583067 453.8037002 5 456 C0.05343053 458.6944728 -4.44501785 459.29494567 -10.01953125 458.91015625 C-12.32538376 458.84395019 -12.32538376 458.84395019 -15 461 C-17.5 461.375 -17.5 461.375 -20 461 C-23.92098286 457.51468191 -24.81224608 451.75060948 -25.15698242 446.70019531 C-25.2046378 444.25842462 -25.22780316 441.81712491 -25.25 439.375 C-25.40924026 432.88861353 -25.97458648 428.18221387 -29.125 422.375 C-34.11592912 412.42896182 -32.6303526 399.75782783 -31 389 C-30.66679749 388.25503265 -30.33359497 387.51006531 -29.99029541 386.74252319 C-28.81006443 383.47399261 -28.74597554 380.86107538 -28.74121094 377.38745117 C-28.7377063 376.74252213 -28.73420166 376.09759308 -28.73059082 375.43312073 C-28.72180352 373.30295974 -28.72762505 371.17313313 -28.734375 369.04296875 C-28.73302439 367.53819211 -28.73108058 366.03341591 -28.72857666 364.52864075 C-28.72562685 361.36369704 -28.72990694 358.19886611 -28.73925781 355.03393555 C-28.75046881 351.05253161 -28.74403296 347.07140056 -28.73235703 343.09000683 C-28.69510723 328.03484346 -28.82624769 313.12119053 -30.27868652 298.12203979 C-31.10777994 289.48577627 -31.30621568 280.91328737 -31.26074219 272.2409668 C-31.24981967 269.771733 -31.26085305 267.30319951 -31.2734375 264.83398438 C-31.27873063 257.96184185 -31.20049077 251.31029071 -30 244.5234375 C-28.63678061 236.80807912 -28.69966531 229.14439639 -28.73925781 221.33325195 C-28.75002808 218.80591091 -28.73927612 216.27927343 -28.7265625 213.75195312 C-28.71978556 205.58036345 -28.98006726 197.96308134 -31 190 C-31.33583656 187.92030102 -31.65067098 185.83702255 -31.9375 183.75 C-32.09992188 182.58210937 -32.26234375 181.41421875 -32.4296875 180.2109375 C-32.87679966 176.92506958 -33.31703078 173.63828478 -33.7578125 170.3515625 C-33.8906665 169.36575195 -34.02352051 168.37994141 -34.16040039 167.36425781 C-34.42492211 165.39777091 -34.68719239 163.43097962 -34.94702148 161.46386719 C-35.06891846 160.55540039 -35.19081543 159.64693359 -35.31640625 158.7109375 C-35.42412354 157.89931152 -35.53184082 157.08768555 -35.64282227 156.25146484 C-35.96243791 154.02058463 -35.96243791 154.02058463 -36.51586914 151.95068359 C-37.38423411 148.45182526 -37.54860152 144.83340893 -37.875 141.25 C-38.60405149 133.56104994 -39.49978088 125.90810403 -40.5 118.25 C-42.06223759 106.19704657 -43.09568233 94.11818154 -44 82 C-45.65 82 -47.3 82 -49 82 C-50.26587555 84.53175111 -50.25857662 86.52564725 -50.4296875 89.35546875 C-50.50123047 90.44593506 -50.57277344 91.53640137 -50.64648438 92.65991211 C-50.72189453 93.82401611 -50.79730469 94.98812012 -50.875 96.1875 C-51.56884357 106.04720537 -52.74487999 115.37002809 -55 125 C-56.49698459 132.16487797 -57.41004347 139.34377525 -58.18212891 146.61694336 C-59.63623043 160.16399816 -61.62722918 173.64901527 -63.625 187.125 C-63.7480249 187.96015137 -63.8710498 188.79530273 -63.99780273 189.65576172 C-64.11454346 190.43193848 -64.23128418 191.20811523 -64.3515625 192.0078125 C-64.45291504 192.68473145 -64.55426758 193.36165039 -64.65869141 194.05908203 C-65 196 -65 196 -65.51225281 197.88581848 C-66.30496629 201.32190224 -66.1629367 204.80719936 -66.16796875 208.31640625 C-66.17129715 209.12810776 -66.17462555 209.93980927 -66.17805481 210.77610779 C-66.18311271 212.49501989 -66.18546349 214.21394179 -66.18530273 215.93286133 C-66.18747199 218.52897971 -66.20559165 221.12466084 -66.22460938 223.72070312 C-66.34874088 233.59745902 -66.34874088 233.59745902 -65.00390625 243.34765625 C-63.25959784 251.38796147 -63.70420825 259.71692293 -63.73925781 267.90234375 C-63.74985021 270.83355013 -63.73938829 273.76412634 -63.7265625 276.6953125 C-63.72062777 285.77630907 -63.97007443 294.69415685 -65 303.71875 C-66.5533574 317.72720329 -66.30219694 331.8243339 -66.26074219 345.89941406 C-66.24916907 349.88377141 -66.2560499 353.86786448 -66.26788712 357.85221291 C-66.2750948 360.94566875 -66.27282594 364.03906107 -66.26763153 367.13251877 C-66.26630121 368.60373339 -66.26792104 370.07495384 -66.27259064 371.54616165 C-66.27765697 373.58367046 -66.26856885 375.62119977 -66.25878906 377.65869141 C-66.25719788 378.81446686 -66.25560669 379.97024231 -66.25396729 381.16104126 C-66.20996625 384.20327012 -66.20996625 384.20327012 -64 387 C-63.34766485 391.43075954 -63.25361345 395.90340571 -63.0625 400.375 C-62.98193359 401.58800781 -62.90136719 402.80101562 -62.81835938 404.05078125 C-62.39466341 413.85332751 -64.64148464 421.28296928 -69 430 C-69.18422199 432.85690299 -69.32485041 435.70280141 -69.4375 438.5625 C-70.2843589 456.07001158 -70.2843589 456.07001158 -75 461 C-81.625 460.25 -81.625 460.25 -85 458 C-86.03125 458.20625 -87.0625 458.4125 -88.125 458.625 C-94.09807856 459.20303986 -98.53511075 456.91519713 -103.20703125 453.28515625 C-105.60853047 450.22442195 -105.73465405 447.98080829 -106 444.125 C-106.103125 442.93132812 -106.20625 441.73765625 -106.3125 440.5078125 C-105.92892074 436.20213534 -104.62138546 434.39974906 -102 431 C-101.23107224 429.90778054 -100.46814955 428.8113116 -99.7109375 427.7109375 C-98.53646173 426.03198892 -97.36038326 424.35426907 -96.1796875 422.6796875 C-89.49411905 413.10306242 -89.7937501 403.78147704 -90.015625 392.3828125 C-90.03212097 391.40496796 -90.04861694 390.42712341 -90.06561279 389.41964722 C-90.1028442 387.36075846 -90.14335276 385.30192655 -90.18701172 383.24316406 C-90.24914394 380.16737819 -90.29108852 377.091756 -90.33203125 374.015625 C-90.62731412 357.14733697 -92.18335602 340.54312948 -96.5 324.1875 C-96.93764921 322.43167359 -97.37252383 320.67515337 -97.8046875 318.91796875 C-98.01061523 318.08313965 -98.21654297 317.24831055 -98.42871094 316.38818359 C-99.7197092 310.99136949 -100.73007224 305.55032975 -101.64404297 300.07714844 C-101.88755161 298.65618033 -102.14507176 297.23756159 -102.41455078 295.82128906 C-104.72489945 283.64702788 -105.29345584 271.67000495 -105.3125 259.3125 C-105.31599457 258.57775452 -105.31948914 257.84300903 -105.3230896 257.08599854 C-105.34237869 249.78492536 -105.15866461 242.84954511 -103.50024414 235.70483398 C-101.12925481 222.88482869 -101.83539592 209.23492628 -101.875 196.25 C-101.8765509 195.33890472 -101.87810181 194.42780945 -101.87969971 193.48910522 C-101.6610779 154.68757054 -101.6610779 154.68757054 -104.0625 116 C-107.63397787 79.41421118 -103.94265867 43.26569846 -99 7 C-98.67 7 -98.34 7 -98 7 C-98 9.31 -98 11.62 -98 14 C-65.33 14 -32.66 14 1 14 C0.505 11.03 0.505 11.03 0 8 C-0.11196073 5.32189925 -0.04625299 2.68267314 0 0 Z " fill="#82FC74" transform="translate(179,362)"/>
<path d="M0 0 C15.18 0 30.36 0 46 0 C44.4384781 21.86130658 41.58755399 43.45468227 38.375 65.125 C38.2519751 65.96015137 38.1289502 66.79530273 38.00219727 67.65576172 C37.88545654 68.43193848 37.76871582 69.20811523 37.6484375 70.0078125 C37.54708496 70.68473145 37.44573242 71.36165039 37.34130859 72.05908203 C37 74 37 74 36.48774719 75.88581848 C35.69503371 79.32190224 35.8370633 82.80719936 35.83203125 86.31640625 C35.82870285 87.12810776 35.82537445 87.93980927 35.82194519 88.77610779 C35.81688729 90.49501989 35.81453651 92.21394179 35.81469727 93.93286133 C35.81252801 96.52897971 35.79440835 99.12466084 35.77539062 101.72070312 C35.65125912 111.59745902 35.65125912 111.59745902 36.99609375 121.34765625 C38.74040216 129.38796147 38.29579175 137.71692293 38.26074219 145.90234375 C38.25014979 148.83355013 38.26061171 151.76412634 38.2734375 154.6953125 C38.27937223 163.77630907 38.02992557 172.69415685 37 181.71875 C35.4466426 195.72720329 35.69780306 209.8243339 35.73925781 223.89941406 C35.75083093 227.88377141 35.7439501 231.86786448 35.73211288 235.85221291 C35.7249052 238.94566875 35.72717406 242.03906107 35.73236847 245.13251877 C35.73369879 246.60373339 35.73207896 248.07495384 35.72740936 249.54616165 C35.72234303 251.58367046 35.73143115 253.62119977 35.74121094 255.65869141 C35.74280212 256.81446686 35.74439331 257.97024231 35.74603271 259.16104126 C35.79003375 262.20327012 35.79003375 262.20327012 38 265 C38.65233515 269.43075954 38.74638655 273.90340571 38.9375 278.375 C39.01806641 279.58800781 39.09863281 280.80101562 39.18164062 282.05078125 C39.60533659 291.85332751 37.35851536 299.28296928 33 308 C32.81577801 310.85690299 32.67514959 313.70280141 32.5625 316.5625 C31.7156411 334.07001158 31.7156411 334.07001158 27 339 C20.375 338.25 20.375 338.25 17 336 C15.96875 336.20625 14.9375 336.4125 13.875 336.625 C7.90192144 337.20303986 3.46488925 334.91519713 -1.20703125 331.28515625 C-3.60853047 328.22442195 -3.73465405 325.98080829 -4 322.125 C-4.103125 320.93132812 -4.20625 319.73765625 -4.3125 318.5078125 C-3.92892074 314.20213534 -2.62138546 312.39974906 0 309 C0.76892776 307.90778054 1.53185045 306.8113116 2.2890625 305.7109375 C3.46353827 304.03198892 4.63961674 302.35426907 5.8203125 300.6796875 C12.50588095 291.10306242 12.2062499 281.78147704 11.984375 270.3828125 C11.96787903 269.40496796 11.95138306 268.42712341 11.93438721 267.41964722 C11.8971558 265.36075846 11.85664724 263.30192655 11.81298828 261.24316406 C11.75085606 258.16737819 11.70891148 255.091756 11.66796875 252.015625 C11.37268588 235.14733697 9.81664398 218.54312948 5.5 202.1875 C5.06235079 200.43167359 4.62747617 198.67515337 4.1953125 196.91796875 C3.98938477 196.08313965 3.78345703 195.24831055 3.57128906 194.38818359 C2.2802908 188.99136949 1.26992776 183.55032975 0.35595703 178.07714844 C0.11244839 176.65618033 -0.14507176 175.23756159 -0.41455078 173.82128906 C-2.72489945 161.64702788 -3.29345584 149.67000495 -3.3125 137.3125 C-3.31599457 136.57775452 -3.31948914 135.84300903 -3.3230896 135.08599854 C-3.34223514 127.83925852 -3.19542251 120.92921556 -1.52362061 113.84100342 C-0.89424083 110.42618347 -0.63587189 107.03439971 -0.44091797 103.57373047 C-0.3989306 102.83654565 -0.35694323 102.09936083 -0.31368351 101.33983707 C0.19220486 91.49053278 0.12404212 81.63659062 0.09765625 71.77734375 C0.09578596 69.69413792 0.09436495 67.61093165 0.09336853 65.52772522 C0.08959143 60.10442848 0.07980355 54.68115948 0.06866455 49.25787354 C0.0565243 42.71884484 0.05202526 36.17980675 0.04621124 29.64076996 C0.03658814 19.76049414 0.01739826 9.88027893 0 0 Z " fill="#060606" transform="translate(77,484)"/>
<path d="M0 0 C15.18 0 30.36 0 46 0 C45.98839844 6.75597656 45.97679687 13.51195312 45.96484375 20.47265625 C45.95972798 24.77929785 45.95491355 29.08593565 45.95117188 33.39257812 C45.94521819 40.2126545 45.93821175 47.03271732 45.92456055 53.8527832 C45.91361215 59.35764654 45.90769809 64.86249531 45.90512276 70.3673687 C45.90328988 72.45666164 45.89971125 74.54595389 45.89426994 76.63524055 C45.60025088 96.65339695 45.60025088 96.65339695 48.0390625 116.4609375 C49.42710096 123.46833464 49.39251579 130.51061741 49.375 137.625 C49.37545319 138.34388397 49.37590637 139.06276794 49.37637329 139.80343628 C49.35287391 152.58727633 48.0166346 164.84692373 45.51708984 177.39941406 C45.04988097 179.74913499 44.61865583 182.10095659 44.20703125 184.4609375 C43.1504909 190.45448133 41.92447545 196.39748098 40.54475403 202.32414246 C36.24511278 220.97767974 34.49687616 239.27939777 34.23657227 258.41650391 C34.18685916 261.92016508 34.11126128 265.42264805 34.03320312 268.92578125 C33.99327767 271.17705699 33.95481108 273.42835919 33.91796875 275.6796875 C33.89518356 276.71511688 33.87239838 277.75054626 33.84892273 278.81735229 C33.76328568 286.75968515 34.71125614 292.56228328 39.1875 299.3125 C39.79980469 300.26253906 40.41210938 301.21257812 41.04296875 302.19140625 C42.930541 304.99799851 42.930541 304.99799851 45.05078125 307.40234375 C50.31958568 313.74813827 50.57143729 318.75552737 49.953125 326.6796875 C48.79633503 330.70948864 47.50583067 331.8037002 44 334 C39.05343053 336.6944728 34.55498215 337.29494567 28.98046875 336.91015625 C26.67461624 336.84395019 26.67461624 336.84395019 24 339 C21.5 339.375 21.5 339.375 19 339 C15.07901714 335.51468191 14.18775392 329.75060948 13.84301758 324.70019531 C13.7953622 322.25842462 13.77219684 319.81712491 13.75 317.375 C13.59075974 310.88861353 13.02541352 306.18221387 9.875 300.375 C4.88407088 290.42896182 6.3696474 277.75782783 8 267 C8.49980377 265.88254898 8.49980377 265.88254898 9.00970459 264.74252319 C10.18993557 261.47399261 10.25402446 258.86107538 10.25878906 255.38745117 C10.2622937 254.74252213 10.26579834 254.09759308 10.26940918 253.43312073 C10.27819648 251.30295974 10.27237495 249.17313313 10.265625 247.04296875 C10.26697561 245.53819211 10.26891942 244.03341591 10.27142334 242.52864075 C10.27437315 239.36369704 10.27009306 236.19886611 10.26074219 233.03393555 C10.24953119 229.05253161 10.25596704 225.07140056 10.26764297 221.09000683 C10.30489277 206.03484346 10.17375231 191.12119053 8.72131348 176.12203979 C7.89222006 167.48577627 7.69378432 158.91328737 7.73925781 150.2409668 C7.75018033 147.771733 7.73914695 145.30319951 7.7265625 142.83398438 C7.72126937 135.96184185 7.79950923 129.31029071 9 122.5234375 C10.36321939 114.80807912 10.30033469 107.14439639 10.26074219 99.33325195 C10.24997192 96.80591091 10.26072388 94.27927343 10.2734375 91.75195312 C10.28021444 83.58036345 10.01993274 75.96308134 8 68 C7.66416344 65.92030102 7.34932902 63.83702255 7.0625 61.75 C6.81886719 59.99816406 6.81886719 59.99816406 6.5703125 58.2109375 C6.12320034 54.92506958 5.68296922 51.63828478 5.2421875 48.3515625 C5.04290649 46.87284668 5.04290649 46.87284668 4.83959961 45.36425781 C4.57507789 43.39777091 4.31280761 41.43097962 4.05297852 39.46386719 C3.93108154 38.55540039 3.80918457 37.64693359 3.68359375 36.7109375 C3.57587646 35.89931152 3.46815918 35.08768555 3.35717773 34.25146484 C3.03888265 32.02636329 3.03888265 32.02636329 2.49072266 29.98583984 C1.54183399 26.14590931 1.32412911 22.17929731 0.9375 18.25 C0.84662109 17.38117188 0.75574219 16.51234375 0.66210938 15.6171875 C0.57638672 14.75867188 0.49066406 13.90015625 0.40234375 13.015625 C0.32491943 12.24508789 0.24749512 11.47455078 0.16772461 10.68066406 C-0.05462507 7.12695298 0 3.56066031 0 0 Z " fill="#050505" transform="translate(140,484)"/>
<path d="M0 0 C0.33 0 0.66 0 1 0 C1.73522927 6.25510441 2.04113951 11.75316297 1 18 C0.96457502 20.26719849 0.99704453 22.52266676 1.0625 24.7890625 C0.97135012 28.01348962 0.2247839 31.06322666 -0.52636719 34.19360352 C-2.42173661 42.83389217 -2.30272327 51.4614246 -2.26074219 60.26049805 C-2.2500363 62.9284546 -2.26067813 65.59573592 -2.2734375 68.26367188 C-2.27932066 76.54899209 -2.11974635 84.51277958 -0.44091797 92.6652832 C0.15810375 95.83717948 0.14619102 98.78379766 0 102 C0.66 102 1.32 102 2 102 C2 104 2 104 0.625 105.625 C-1 107 -1 107 -3 107 C-3 108.98 -3 110.96 -3 113 C-3.33 113 -3.66 113 -4 113 C-14.11177988 28.22355976 -14.11177988 28.22355976 0 0 Z " fill="#A4F699" transform="translate(80,377)"/>
<path d="M0 0 C32.67 0 65.34 0 99 0 C99 0.99 99 1.98 99 3 C66.33 3 33.66 3 0 3 C0 2.01 0 1.02 0 0 Z " fill="#369623" transform="translate(81,373)"/>
<path d="M0 0 C15.18 0 30.36 0 46 0 C46 16.17 46 32.34 46 49 C45.67 49 45.34 49 45 49 C45 33.82 45 18.64 45 3 C36.2446875 3.2165625 36.2446875 3.2165625 27.3125 3.4375 C25.47856689 3.48060303 23.64463379 3.52370605 21.75512695 3.56811523 C20.29116938 3.60626422 18.82722017 3.64473554 17.36328125 3.68359375 C16.6115564 3.70006958 15.85983154 3.71654541 15.08532715 3.73352051 C11.28507598 3.83854151 7.69946998 4.10151161 4 5 C2.90435416 10.91648755 3.06233677 16.44782492 3.4375 22.4375 C3.48970703 23.35982422 3.54191406 24.28214844 3.59570312 25.23242188 C3.72430016 27.48871536 3.8592071 29.74444029 4 32 C2.39177068 29.12039467 1.68075143 26.79185123 1.3671875 23.515625 C1.28339844 22.66226562 1.19960937 21.80890625 1.11328125 20.9296875 C1.03464844 20.04539062 0.95601562 19.16109375 0.875 18.25 C0.78863281 17.38117188 0.70226562 16.51234375 0.61328125 15.6171875 C0.1141676 10.34084316 0 5.34999424 0 0 Z " fill="#255320" transform="translate(140,484)"/>
<path d="M0 0 C2.55591876 3.83387814 3.11930781 7.33810507 4 11.8125 C4.17442627 12.69542725 4.34885254 13.57835449 4.52856445 14.48803711 C6.42925895 24.59752812 7.29476101 34.74809261 8 45 C8.05784668 45.77069824 8.11569336 46.54139648 8.17529297 47.33544922 C10.00747972 72.08899895 10.25521341 97.50153834 6 122 C5.67 122 5.34 122 5 122 C4.9724518 119.41659088 4.95290411 116.83348916 4.9375 114.25 C4.92493164 113.18458984 4.92493164 113.18458984 4.91210938 112.09765625 C4.89348873 107.88939023 5.08774387 103.77145676 5.4921875 99.58203125 C6.23778372 91.20984217 6.19579839 82.83628781 6.1875 74.4375 C6.18789276 73.59239868 6.18828552 72.74729736 6.18869019 71.87658691 C6.18272742 61.17254194 5.93740994 50.65643666 4.5 40.03515625 C3.89918277 35.59542166 3.73783304 31.16083648 3.5625 26.6875 C3.27119045 19.82305191 2.27271971 13.50584152 0.62109375 6.8203125 C0 4 0 4 0 0 Z " fill="#B8F7B1" transform="translate(181,371)"/>
<path d="M0 0 C15.18 0 30.36 0 46 0 C44.875 15.75 44.875 15.75 44.4375 21.375 C44.35371094 22.45523437 44.26992187 23.53546875 44.18359375 24.6484375 C44.09271484 25.81246094 44.09271484 25.81246094 44 27 C43.67 27 43.34 27 43 27 C42.94516462 24.68777479 42.90683598 22.37515623 42.875 20.0625 C42.85179687 18.77472656 42.82859375 17.48695313 42.8046875 16.16015625 C43 12 43 12 45 3 C23.22 2.505 23.22 2.505 1 2 C1 18.17 1 34.34 1 51 C0.67 51 0.34 51 0 51 C0 34.17 0 17.34 0 0 Z " fill="#325C30" transform="translate(77,484)"/>
<path d="M0 0 C6.0546875 -0.1953125 6.0546875 -0.1953125 8 0 C10.80084355 2.80084355 10.72414644 5.72111153 11.125 9.5 C11.20991699 10.26940918 11.29483398 11.03881836 11.38232422 11.83154297 C12.48201565 23.18027008 12.17200393 34.61333989 12 46 C11.67 46 11.34 46 11 46 C9.68 31.81 8.36 17.62 7 3 C5.35 3 3.7 3 2 3 C0.71437902 5.57124196 0.72144402 7.65826848 0.53515625 10.53125 C0.45716797 11.65273438 0.37917969 12.77421875 0.29882812 13.9296875 C0.14335253 16.27852543 -0.01034294 18.62748199 -0.16210938 20.9765625 C-0.63958441 27.79319799 -1.44468986 34.34224777 -3 41 C-3.33 41 -3.66 41 -4 41 C-4.2476381 32.76812672 -3.47740834 24.73709967 -2.5625 16.5625 C-2.42779297 15.29728516 -2.29308594 14.03207031 -2.15429688 12.72851562 C-1.13488963 3.4046689 -1.13488963 3.4046689 0 0 Z " fill="#C1F9B9" transform="translate(128,441)"/>
<path d="M0 0 C0.33 0 0.66 0 1 0 C3.41372653 9.86226108 4.60483639 19.29430954 5.125 29.4375 C5.27110615 32.04049649 5.41946817 34.64336754 5.5703125 37.24609375 C5.62977051 38.37716553 5.68922852 39.5082373 5.75048828 40.67358398 C6.01111851 44.14822869 6.48981747 47.55414322 7 51 C7.10766774 52.93551548 7.17394433 54.87403959 7.1875 56.8125 C7.20167969 57.74707031 7.21585938 58.68164062 7.23046875 59.64453125 C7 62 7 62 5 64 C5.05220703 63.13955078 5.05220703 63.13955078 5.10546875 62.26171875 C5.30633126 55.95846179 4.62488493 50.06359541 3.5625 43.875 C2.35058883 36.80680771 1.58322815 29.86039225 1.29125977 22.69482422 C1.2051846 15.03048974 1.2051846 15.03048974 -1.1875 7.9375 C-2 6 -2 6 -1.125 2.75 C-0.75375 1.8425 -0.3825 0.935 0 0 Z " fill="#96F88B" transform="translate(181,375)"/>
<path d="M0 0 C1.41389721 2.82779442 0.81652646 4.80312902 0.44140625 7.93359375 C0.30283203 9.14080078 0.16425781 10.34800781 0.02148438 11.59179688 C-0.28031338 14.12047681 -0.58238867 16.64912364 -0.88476562 19.17773438 C-1.63897655 25.75014387 -2.15233046 32.09905345 -1.85961914 38.71508789 C-2.01639533 41.26685896 -2.71418857 42.81358599 -4 45 C-6.44064587 39.35600642 -6.19289099 34.02248522 -6 28 C-5.34 28 -4.68 28 -4 28 C-4.01160156 26.85402344 -4.02320312 25.70804687 -4.03515625 24.52734375 C-4.04454242 22.99739748 -4.05364173 21.46744942 -4.0625 19.9375 C-4.07087891 19.18533203 -4.07925781 18.43316406 -4.08789062 17.65820312 C-4.14482982 4.5052498 -4.14482982 4.5052498 0 0 Z " fill="#A2F893" transform="translate(127,442)"/>
<path d="M0 0 C0.88300781 0.10183594 1.76601562 0.20367187 2.67578125 0.30859375 C3.33964844 0.39238281 4.00351563 0.47617187 4.6875 0.5625 C5.1825 2.0475 5.1825 2.0475 5.6875 3.5625 C-8.8325 3.5625 -23.3525 3.5625 -38.3125 3.5625 C-38.3125 2.9025 -38.3125 2.2425 -38.3125 1.5625 C-37.49048096 1.53744385 -36.66846191 1.5123877 -35.8215332 1.48657227 C-32.08920626 1.37037345 -28.35711683 1.24775495 -24.625 1.125 C-23.33142578 1.08568359 -22.03785156 1.04636719 -20.70507812 1.00585938 C-19.45791016 0.96396484 -18.21074219 0.92207031 -16.92578125 0.87890625 C-15.20548706 0.82391968 -15.20548706 0.82391968 -13.45043945 0.76782227 C-0.60544777 -0.07265373 -0.60544777 -0.07265373 0 0 Z " fill="#64DB59" transform="translate(117.3125,480.4375)"/>
<path d="M0 0 C0.33 0 0.66 0 1 0 C2.50614162 8.40172978 1.38377579 15.63307196 -0.23046875 23.87109375 C-1.20509127 28.88294267 -1.68100977 33.90715596 -2 39 C-2.99 39 -3.98 39 -5 39 C-4.51254128 30.3938322 -3.55507877 21.86492662 -2.5 13.3125 C-2.36940186 12.23677734 -2.23880371 11.16105469 -2.10424805 10.05273438 C-1.97703369 9.04146484 -1.84981934 8.03019531 -1.71875 6.98828125 C-1.60466797 6.07602783 -1.49058594 5.16377441 -1.37304688 4.22387695 C-1 2 -1 2 0 0 Z " fill="#ADF7A3" transform="translate(80,377)"/>
<path d="M0 0 C0.33 0 0.66 0 1 0 C1.24187541 14.49205849 0.89884716 28.62301438 -1 43 C-1.66 42.67 -2.32 42.34 -3 42 C-3.05807043 38.89591193 -3.09361914 35.7919636 -3.125 32.6875 C-3.14175781 31.80642578 -3.15851563 30.92535156 -3.17578125 30.01757812 C-3.18222656 29.17001953 -3.18867188 28.32246094 -3.1953125 27.44921875 C-3.20578613 26.66893311 -3.21625977 25.88864746 -3.22705078 25.0847168 C-3 23 -3 23 -1 20 C-0.74194367 18.00299568 -0.74194367 18.00299568 -0.83984375 15.83984375 C-0.8562793 14.6497168 -0.8562793 14.6497168 -0.87304688 13.43554688 C-0.89431641 12.61119141 -0.91558594 11.78683594 -0.9375 10.9375 C-0.97188837 9.30086853 -1.00203932 7.66414088 -1.02734375 6.02734375 C-1.04531006 5.30281006 -1.06327637 4.57827637 -1.08178711 3.83178711 C-1 2 -1 2 0 0 Z " fill="#9AF98F" transform="translate(187,440)"/>
<path d="M0 0 C0.33 0 0.66 0 1 0 C1.25063323 38.28518929 1.25063323 38.28518929 -2 57 C-2.33 57 -2.66 57 -3 57 C-3.26865672 31.80597015 -3.26865672 31.80597015 -1 25 C-0.85060226 23.08234406 -0.75189717 21.16053478 -0.68359375 19.23828125 C-0.64169922 18.12001953 -0.59980469 17.00175781 -0.55664062 15.84960938 C-0.51732422 14.68236328 -0.47800781 13.51511719 -0.4375 12.3125 C-0.39431641 11.13365234 -0.35113281 9.95480469 -0.30664062 8.74023438 C-0.20048824 5.82694117 -0.09843758 2.91356243 0 0 Z " fill="#C1F9BA" transform="translate(189,436)"/>
<path d="M0 0 C2.14296426 3.21444639 2.31750881 4.44649438 2.5625 8.19140625 C2.63726562 9.21943359 2.71203125 10.24746094 2.7890625 11.30664062 C2.85867187 12.38107422 2.92828125 13.45550781 3 14.5625 C3.46104014 21.49944651 4.04148045 28.11378216 5.79296875 34.85913086 C6.04771393 37.49340035 5.35944847 38.77415581 4 41 C3.34 41 2.68 41 2 41 C1.97494385 40.34515625 1.9498877 39.6903125 1.92407227 39.015625 C1.80707345 36.01026764 1.68482365 33.00514515 1.5625 30 C1.52318359 28.97003906 1.48386719 27.94007813 1.44335938 26.87890625 C1.25897979 22.42543008 1.05788799 18.01411454 0.46875 13.59375 C0.06560567 10.50297677 -0.10568838 7.60956342 -0.0625 4.5 C-0.05347656 3.6440625 -0.04445312 2.788125 -0.03515625 1.90625 C-0.02355469 1.2771875 -0.01195312 0.648125 0 0 Z " fill="#93F48B" transform="translate(138,443)"/>
<path d="M0 0 C1.084021 0.00523682 2.16804199 0.01047363 3.28491211 0.01586914 C5.03964844 0.02070313 5.03964844 0.02070313 6.82983398 0.02563477 C8.67738281 0.03820312 8.67738281 0.03820312 10.56225586 0.05102539 C12.41560547 0.05779297 12.41560547 0.05779297 14.30639648 0.06469727 C17.37089703 0.07652931 20.43530307 0.09301366 23.49975586 0.11352539 C23.49975586 0.44352539 23.49975586 0.77352539 23.49975586 1.11352539 C21.52942383 1.2044043 21.52942383 1.2044043 19.51928711 1.29711914 C17.78360045 1.38155795 16.04792388 1.46620427 14.31225586 1.55102539 C13.01578125 1.61 13.01578125 1.61 11.69311523 1.67016602 C7.54061464 1.87699555 3.55437724 2.1145607 -0.50024414 3.11352539 C-1.59588998 9.03001294 -1.43790737 14.56135031 -1.06274414 20.55102539 C-1.01053711 21.47334961 -0.95833008 22.39567383 -0.90454102 23.34594727 C-0.77594398 25.60224075 -0.64103704 27.85796568 -0.50024414 30.11352539 C-4.84984957 22.03895711 -4.09657458 10.14617757 -3.50024414 1.11352539 C-2.50024414 0.11352539 -2.50024414 0.11352539 0 0 Z " fill="#2D3C2C" transform="translate(144.500244140625,485.886474609375)"/>
<path d="M0 0 C0.33 0 0.66 0 1 0 C1 2.64 1 5.28 1 8 C1.66 8 2.32 8 3 8 C4.09512013 23.07896178 3.82159867 37.90941216 3 53 C2.67 53 2.34 53 2 53 C1.97494385 51.97640381 1.9498877 50.95280762 1.92407227 49.89819336 C1.82941206 46.07565258 1.72933805 42.2532689 1.62768555 38.4309082 C1.58455714 36.78120619 1.54286799 35.13146585 1.50268555 33.48168945 C1.44444353 31.10095711 1.38090903 28.72041373 1.31640625 26.33984375 C1.29969376 25.61039047 1.28298126 24.88093719 1.26576233 24.12937927 C1.13916035 19.68488606 0.6749729 15.40223291 0 11 C-0.06252492 9.02171151 -0.08693365 7.04162549 -0.0625 5.0625 C-0.05347656 4.10472656 -0.04445312 3.14695312 -0.03515625 2.16015625 C-0.02355469 1.44730469 -0.01195312 0.73445313 0 0 Z " fill="#ADF7A0" transform="translate(186,408)"/>
<path d="M0 0 C6.0546875 -0.1953125 6.0546875 -0.1953125 8 0 C8.66 0.66 9.32 1.32 10 2 C9.9765625 4.6015625 9.9765625 4.6015625 9.625 7.625 C9.45871094 9.12933594 9.45871094 9.12933594 9.2890625 10.6640625 C9.14597656 11.82035156 9.14597656 11.82035156 9 13 C8.67 13 8.34 13 8 13 C7.67 9.7 7.34 6.4 7 3 C5.35 3 3.7 3 2 3 C0.15684329 4.9004467 0.15684329 4.9004467 -1 7 C-0.67 4.69 -0.34 2.38 0 0 Z " fill="#B4FCA8" transform="translate(128,441)"/>
<path d="M0 0 C0.33 0 0.66 0 1 0 C1 6.93 1 13.86 1 21 C0.01 21 -0.98 21 -2 21 C-1.49656013 13.97326485 -0.95812032 6.98059091 0 0 Z " fill="#B7F9AB" transform="translate(77,395)"/>
<path d="M0 0 C1.3125 2.0625 1.3125 2.0625 2 4 C1.34 3.67 0.68 3.34 0 3 C-6.31645868 2.58492826 -6.31645868 2.58492826 -12 5 C-10.98059612 2.2198076 -10.30279713 1.17185783 -7.6875 -0.3125 C-4.61585239 -1.09827032 -2.96443553 -1.12167831 0 0 Z " fill="#8FFB81" transform="translate(136,439)"/>
<path d="M0 0 C0.33 0.99 0.66 1.98 1 3 C-4.28 2.34 -9.56 1.68 -15 1 C-15 0.67 -15 0.34 -15 0 C-9.96266834 -1.5111995 -5.11828973 -0.64599773 0 0 Z " fill="#78F26C" transform="translate(122,481)"/>
<path d="M0 0 C0.66 0 1.32 0 2 0 C2.06058594 0.68707031 2.12117188 1.37414062 2.18359375 2.08203125 C2.26738281 2.98308594 2.35117188 3.88414062 2.4375 4.8125 C2.51871094 5.70582031 2.59992188 6.59914063 2.68359375 7.51953125 C2.93489767 10.12743559 2.93489767 10.12743559 4 13 C3.0625 15.1875 3.0625 15.1875 2 17 C-0.44064587 11.35600642 -0.19289099 6.02248522 0 0 Z " fill="#94F086" transform="translate(121,470)"/>
<path d="M0 0 C0.99 0 1.98 0 3 0 C3 2.97 3 5.94 3 9 C2.01 9 1.02 9 0 9 C0 6.03 0 3.06 0 0 Z " fill="#82827F" transform="translate(167,811)"/>
<path d="M0 0 C0.99 0 1.98 0 3 0 C3 2.97 3 5.94 3 9 C2.01 9 1.02 9 0 9 C0 6.03 0 3.06 0 0 Z " fill="#898887" transform="translate(93,811)"/>
<path d="M0 0 C0.33 0 0.66 0 1 0 C1 4.62 1 9.24 1 14 C0.01 13.34 -0.98 12.68 -2 12 C-2.1875 8.375 -2.1875 8.375 -2 5 C-1.34 5 -0.68 5 0 5 C0 3.35 0 1.7 0 0 Z " fill="#6A6B67" transform="translate(2,431)"/>
<path d="M0 0 C2.64 0 5.28 0 8 0 C8 0.33 8 0.66 8 1 C6.35 1.33 4.7 1.66 3 2 C2.67 3.65 2.34 5.3 2 7 C1.34 7 0.68 7 0 7 C0 4.69 0 2.38 0 0 Z " fill="#0B1208" transform="translate(141,487)"/>
</svg>
