<?xml version="1.0" encoding="UTF-8"?>
<svg version="1.1" xmlns="http://www.w3.org/2000/svg" width="240" height="689">
<path d="M0 0 C3.22096339 2.8324206 4.56987216 5.15493831 6.0703125 9.17578125 C7.15583338 11.3057739 8.47721262 12.41102698 10.25 14 C12.47202652 16.48472916 12.98182577 17.66334393 13.1640625 21.0390625 C12.96209343 23.54457068 12.70920964 26.04626262 12.41796875 28.54296875 C12.04646199 31.84282295 11.97831494 35.0433816 12.05078125 38.36328125 C12.07092285 39.28608887 12.09106445 40.20889648 12.11181641 41.15966797 C12.16114891 42.97032998 12.22397151 44.78069016 12.30224609 46.59033203 C12.42974213 52.72768687 11.21697041 56.79206114 8 62 C7.63680664 62.60553711 7.27361328 63.21107422 6.89941406 63.83496094 C6.58198242 64.36379883 6.26455078 64.89263672 5.9375 65.4375 C4.03094902 68.70376175 2.95773405 72.01481486 1.859375 75.62109375 C0.91944987 78.2229774 -0.32916629 80.46739165 -1.6875 82.875 C-5.07358506 89.43299003 -4.77800901 95.94407535 -3.375 103.0625 C-2.30435208 106.24071553 -2.30435208 106.24071553 0.671875 107.00390625 C1.77015625 107.33261719 2.8684375 107.66132812 4 108 C6.20983447 108.95486675 8.418042 109.91350363 10.625 110.875 C16.75433917 113.45807308 22.77195306 114.86036847 29.3125 116 C39.43614417 117.8026974 46.6841126 120.53628811 53 129 C57.267025 137.16419064 59.34352137 145.77294006 61.125 154.75 C61.36347656 155.89726562 61.60195312 157.04453125 61.84765625 158.2265625 C62.58665684 161.81371132 63.29428135 165.40616824 64 169 C64.26200195 170.27149902 64.52400391 171.54299805 64.79394531 172.85302734 C66.90533376 183.29808651 67.89032161 193.67877014 68.65673828 204.29638672 C69.50009925 215.75010554 70.77302853 226.90325841 74.625 237.8125 C77.67892927 246.46751849 77.27648919 256.10271291 77.61328125 265.17578125 C77.69733797 267.25607368 77.78360972 269.33626771 77.8698988 271.41646862 C78.08037011 276.49124187 78.28686143 281.56605742 78.47143555 286.6418457 C79.0230534 301.68236793 79.62578644 316.3930934 83.18432617 331.09057617 C84.22546359 336.08061911 84.84932287 340.19610676 82.64453125 344.87890625 C80.78459566 347.60337481 78.92736442 350.32265696 77 353 C76.54882812 353.6496875 76.09765625 354.299375 75.6328125 354.96875 C73.76095349 357.46456201 71.9354551 359.03814017 69.25 360.625 C64.48970415 361.17426491 61.10136122 359.30539673 57 357 C55.30615763 355.30615763 55.74696901 353.26305119 55.6875 350.9375 C55.73858448 342.41660838 57.64528698 333.26968535 61.1328125 325.46484375 C63.80204704 317.87796539 60.74010793 310.0215046 58.8125 302.5625 C58.52052734 301.39267578 58.22855469 300.22285156 57.92773438 299.01757812 C56.65542024 294.00767022 55.36660525 289.02420294 53.72729492 284.12060547 C50.73211831 275.16035753 49.01028262 266.58402442 47.9430542 257.20385742 C46.25205956 242.62099749 43.17249084 229.34634712 37.90917969 215.58984375 C36.59099275 211.83492243 35.64659109 208.00150038 34.71533203 204.13476562 C34.21721427 201.81444442 34.21721427 201.81444442 32 201 C31.88785156 201.62519531 31.77570313 202.25039062 31.66015625 202.89453125 C31.11736748 205.44788672 30.49199873 207.93193221 29.80859375 210.44921875 C26.54640902 222.74197052 24.08673462 235.05383364 26.53125 247.76171875 C27.10580444 251.73093234 27.00841041 255.54702329 26.93481445 259.55126953 C26.681372 273.63439399 27.95876381 287.08883555 30 301 C35.91947671 341.96449459 35.54006767 379.88245813 26.56835938 420.37597656 C23.29639516 435.48210689 23.74184398 449.53475093 25 464.875 C27.3750149 494.91914943 26.08431702 524.10133012 18.234375 553.28125 C9.81794878 584.36001275 9.81794878 584.36001275 15.125 614.6875 C17.0058749 617.53678585 17.0058749 617.53678585 19 620 C23.36616279 626.03716337 25.1755319 630.41472573 24 638 C23.11886705 641.21660901 22.64130324 642.59365211 19.79296875 644.3984375 C18.50326172 644.88183594 18.50326172 644.88183594 17.1875 645.375 C16.33542969 645.71273437 15.48335937 646.05046875 14.60546875 646.3984375 C11.69199215 647.07111426 9.88550105 646.59767594 7 646 C6.34 646.66 5.68 647.32 5 648 C2.25020061 648.35253838 0.67749764 648.50033948 -1.59375 646.82299805 C-3.45388101 644.41160946 -3.65503469 642.52928561 -4.0625 639.51953125 C-4.21976562 638.43736328 -4.37703125 637.35519531 -4.5390625 636.24023438 C-4.69117188 635.10908203 -4.84328125 633.97792969 -5 632.8125 C-5.30424185 630.58869831 -5.61657918 628.36598728 -5.9375 626.14453125 C-6.07027344 625.15815674 -6.20304687 624.17178223 -6.33984375 623.15551758 C-6.92244434 619.85157411 -6.92244434 619.85157411 -8.55249023 616.38256836 C-10.67201368 610.9313103 -10.33500742 605.50570438 -10.22265625 599.734375 C-10.21366806 598.54692688 -10.20467987 597.35947876 -10.19541931 596.13604736 C-10.16552776 592.34039444 -10.11594597 588.54538904 -10.0625 584.75 C-9.74404592 560.33945428 -10.35260638 536.28020623 -14.125 512.125 C-16.29529346 496.75451235 -16.30905609 481.51684251 -16.02783203 466.01611328 C-15.86977381 456.21520584 -16.09347196 446.60354374 -16.95703125 436.8359375 C-17.87344338 426.36088659 -18.24945884 415.94559726 -18.37890625 405.4375 C-18.3882444 404.68495312 -18.39758255 403.93240623 -18.40720367 403.1570549 C-18.46154706 398.55328096 -18.50413463 393.94945095 -18.54260254 389.34552002 C-18.59567308 383.08954467 -18.65965619 376.8337051 -18.73081779 370.57791138 C-18.75351951 368.41189966 -18.76983761 366.24590623 -18.78553772 364.07983398 C-18.79902756 362.78247314 -18.8125174 361.4851123 -18.82641602 360.1484375 C-18.83592789 359.00552246 -18.84543976 357.86260742 -18.85523987 356.68505859 C-18.81964003 354.02870864 -18.81964003 354.02870864 -20 352 C-21.32 352 -22.64 352 -24 352 C-25.21716957 356.8838219 -25.28871903 361.76142161 -25.46484375 366.765625 C-25.50239777 367.73582077 -25.53995178 368.70601654 -25.5786438 369.70561218 C-25.65938401 371.79723963 -25.73842599 373.88893319 -25.81594849 375.98068237 C-26.02170509 381.51482725 -26.24176685 387.04840399 -26.4609375 392.58203125 C-26.50515335 393.70464859 -26.5493692 394.82726593 -26.59492493 395.98390198 C-26.99626866 406.09340417 -27.44643588 416.20015266 -27.93533325 426.30578613 C-28.01928287 428.04312209 -28.10220978 429.78050781 -28.18405151 431.51794434 C-28.29831255 433.93788769 -28.4161453 436.35762987 -28.53515625 438.77734375 C-28.5835112 439.81189949 -28.5835112 439.81189949 -28.63284302 440.86735535 C-28.8203907 444.57368566 -29.12472271 448.24183764 -29.53173828 451.9309082 C-30.03086858 456.75685279 -30.06619801 461.48245487 -29.95703125 466.328125 C-29.93136059 468.09967076 -29.90716716 469.8712384 -29.88427734 471.64282227 C-29.87176941 472.55750275 -29.85926147 473.47218323 -29.84637451 474.4145813 C-29.66527614 489.57316774 -30.09284106 504.11262058 -32.42797852 519.11523438 C-36.30835798 544.3005722 -37.28648909 570.73786397 -35.62890625 596.140625 C-35.56743408 597.12836914 -35.50596191 598.11611328 -35.44262695 599.13378906 C-35.31952143 600.96554937 -35.17555962 602.79610472 -35.00463867 604.62402344 C-34.59567385 610.41854022 -35.6713873 614.29798178 -38.02929688 619.58056641 C-39.49284103 623.22838396 -39.82923288 626.79563747 -40.125 630.6875 C-41.29062812 644.29062812 -41.29062812 644.29062812 -45 648 C-52.3963431 648.31835049 -60.96720173 647.69667516 -67 643 C-70.09431228 638.4232037 -70.59896308 633.40700305 -70 628 C-68.31859337 624.39108224 -66.21579562 621.09359638 -64.0625 617.75 C-62.94697846 615.97536459 -61.83359764 614.19938122 -60.72265625 612.421875 C-60.22515869 611.64424805 -59.72766113 610.86662109 -59.21508789 610.06542969 C-49.84537283 594.13860843 -61.13066587 563.37912727 -65.02734375 546.5390625 C-65.52743514 544.37410856 -66.02749582 542.20914798 -66.52703857 540.04406738 C-66.97746888 538.09737608 -67.43222453 536.15168708 -67.88720703 534.20605469 C-70.75622363 521.51409662 -71.16457874 509.16805335 -71.13037109 496.22045898 C-71.12504741 493.83375583 -71.13032866 491.44724407 -71.13671875 489.06054688 C-71.14011836 480.68914821 -70.91059853 472.37743678 -70.3651886 464.02380371 C-69.26699271 446.99092962 -69.41194855 430.34348774 -72.91796875 413.62109375 C-80.00819296 379.2321269 -79.43071102 346.27034955 -75.73712158 311.52728271 C-72.59882107 283.24147357 -72.59882107 283.24147357 -71.93359375 254.8203125 C-72.04885737 249.99473802 -71.7357342 245.24711976 -71.375 240.4375 C-70.46979034 226.80848377 -73.65129156 214.78055533 -78 202 C-80.66601218 204.66601218 -80.86454798 206.90030151 -81.75 210.5625 C-82.99211753 215.55514758 -84.44339368 220.35645033 -86.27148438 225.16601562 C-90.40437247 236.05438995 -92.20768583 246.96565633 -93.34790039 258.52783203 C-94.46497421 268.99999479 -96.89789276 278.6835553 -99.9375 288.75 C-100.82578213 291.74356551 -101.70796918 294.73891641 -102.58984375 297.734375 C-102.8005098 298.44751358 -103.01117584 299.16065216 -103.22822571 299.895401 C-106.96026979 312.59200879 -108.92337663 320.62424082 -103.9375 333.25390625 C-102.05623788 338.76443654 -101.86474921 344.09970668 -101.9375 349.875 C-101.94201172 350.56335938 -101.94652344 351.25171875 -101.95117188 351.9609375 C-101.96283664 353.64066335 -101.98076729 355.32034375 -102 357 C-103.36223611 357.73258031 -104.74065372 358.43511126 -106.125 359.125 C-106.89070313 359.51945312 -107.65640625 359.91390625 -108.4453125 360.3203125 C-111.99651576 361.26512805 -113.71286056 360.58333418 -117 359 C-119.4140625 356.6796875 -119.4140625 356.6796875 -121.625 353.875 C-122.35976562 352.96492188 -123.09453125 352.05484375 -123.8515625 351.1171875 C-130.56913379 341.37060225 -130.56913379 341.37060225 -129.5859375 335.50390625 C-129.20301806 333.85182945 -128.79797073 332.20477915 -128.375 330.5625 C-126.74992454 323.15254435 -125.47051171 315.8783096 -124.875 308.3125 C-124.79709229 307.3323291 -124.71918457 306.3521582 -124.63891602 305.34228516 C-124.17456615 298.66892838 -123.92909723 292.00570238 -123.76324463 285.31922913 C-123.6542735 280.95986192 -123.52453061 276.60114554 -123.39727783 272.24227905 C-123.31499901 269.03491556 -123.26881786 265.82843253 -123.22412109 262.62036133 C-122.94462164 250.51731195 -121.23524198 240.01535134 -117.54072571 228.47999573 C-115.03614448 220.57521921 -113.92853272 213.22973654 -113.59063721 204.97372437 C-112.9884037 191.02887579 -111.17002908 177.4005275 -108.625 163.6875 C-108.48360596 162.90429382 -108.34221191 162.12108765 -108.1965332 161.31414795 C-102.78370686 131.58988667 -102.78370686 131.58988667 -93.8125 122.875 C-87.47178067 118.64785378 -81.59219499 116.82140766 -74.0625 115.6875 C-67.51162786 114.6699742 -61.45370549 113.03194208 -55.25 110.6875 C-54.49984619 110.41574951 -53.74969238 110.14399902 -52.97680664 109.86401367 C-47.83431356 107.82419509 -44.95193177 105.73787893 -42 101 C-41.46689921 98.15282481 -41.23320824 96.07143707 -41.3125 93.25 C-41.32176514 92.54407715 -41.33103027 91.8381543 -41.34057617 91.11083984 C-41.59453767 85.51856932 -43.19383647 81.87293319 -46.48046875 77.30859375 C-48.13937586 74.78824902 -48.86059093 72.59567082 -49.625 69.6875 C-50.44823322 66.55921377 -50.90944177 65.11036785 -53 62.5625 C-56.64176232 57.89649202 -58.26387341 51.69150878 -57.6875 45.8125 C-57.460625 44.884375 -57.23375 43.95625 -57 43 C-56.7702272 38.40454403 -57.02813008 34.49403681 -58 30 C-59.65886275 21.85424115 -60.00124858 18.04282176 -55.4375 10.875 C-49.65992358 2.8370735 -44.687585 -1.62089344 -35 -4 C-33.89205078 -4.27263672 -33.89205078 -4.27263672 -32.76171875 -4.55078125 C-21.54080125 -6.37596585 -9.87020696 -6.14865352 0 0 Z M-111 347 C-111.33 348.32 -111.66 349.64 -112 351 C-111.01 351.33 -110.02 351.66 -109 352 C-109.33 350.35 -109.66 348.7 -110 347 C-110.33 347 -110.66 347 -111 347 Z M65 347 C64.34 348.32 63.68 349.64 63 351 C63.99 351 64.98 351 66 351 C65.67 349.68 65.34 348.36 65 347 Z " fill="#000000" transform="translate(149,10)"/>
<path d="M0 0 C2.19237962 13.34428394 3.82779592 26.64727777 4.78710938 40.13818359 C4.9890108 42.85227594 5.23464015 45.55950201 5.484375 48.26953125 C7.53659661 73.93885153 3.10699299 100.37753089 -2.43164062 125.37597656 C-5.70360484 140.48210689 -5.25815602 154.53475093 -4 169.875 C-1.6249851 199.91914943 -2.91568298 229.10133012 -10.765625 258.28125 C-19.18205122 289.36001275 -19.18205122 289.36001275 -13.875 319.6875 C-11.9941251 322.53678585 -11.9941251 322.53678585 -10 325 C-5.63383721 331.03716337 -3.8244681 335.41472573 -5 343 C-5.88113295 346.21660901 -6.35869676 347.59365211 -9.20703125 349.3984375 C-10.49673828 349.88183594 -10.49673828 349.88183594 -11.8125 350.375 C-12.66457031 350.71273438 -13.51664062 351.05046875 -14.39453125 351.3984375 C-17.30800785 352.07111426 -19.11449895 351.59767594 -22 351 C-22.66 351.66 -23.32 352.32 -24 353 C-26.74979939 353.35253838 -28.32250236 353.50033948 -30.59375 351.82299805 C-32.45388101 349.41160946 -32.65503469 347.52928561 -33.0625 344.51953125 C-33.21976562 343.43736328 -33.37703125 342.35519531 -33.5390625 341.24023438 C-33.69117188 340.10908203 -33.84328125 338.97792969 -34 337.8125 C-34.30424185 335.58869831 -34.61657918 333.36598728 -34.9375 331.14453125 C-35.07027344 330.15815674 -35.20304687 329.17178223 -35.33984375 328.15551758 C-35.92244434 324.85157411 -35.92244434 324.85157411 -37.55249023 321.38256836 C-39.67201368 315.9313103 -39.33500742 310.50570438 -39.22265625 304.734375 C-39.21366806 303.54692688 -39.20467987 302.35947876 -39.19541931 301.13604736 C-39.16552776 297.34039444 -39.11594597 293.54538904 -39.0625 289.75 C-38.74404592 265.33945428 -39.35260638 241.28020623 -43.125 217.125 C-45.29529346 201.75451235 -45.30905609 186.51684251 -45.02783203 171.01611328 C-44.86977381 161.21520584 -45.09347196 151.60354374 -45.95703125 141.8359375 C-46.87344338 131.36088659 -47.24945884 120.94559726 -47.37890625 110.4375 C-47.3882444 109.68495312 -47.39758255 108.93240623 -47.40720367 108.1570549 C-47.46154706 103.55328096 -47.50413463 98.94945095 -47.54260254 94.34552002 C-47.59567308 88.08954467 -47.65965619 81.8337051 -47.73081779 75.57791138 C-47.75351951 73.41189966 -47.76983761 71.24590623 -47.78553772 69.07983398 C-47.79902756 67.78247314 -47.8125174 66.4851123 -47.82641602 65.1484375 C-47.83592789 64.00552246 -47.84543976 62.86260742 -47.85523987 61.68505859 C-47.81964003 59.02870864 -47.81964003 59.02870864 -49 57 C-50.32 57 -51.64 57 -53 57 C-54.21716957 61.8838219 -54.28871903 66.76142161 -54.46484375 71.765625 C-54.50239777 72.73582077 -54.53995178 73.70601654 -54.5786438 74.70561218 C-54.65938401 76.79723963 -54.73842599 78.88893319 -54.81594849 80.98068237 C-55.02170509 86.51482725 -55.24176685 92.04840399 -55.4609375 97.58203125 C-55.50515335 98.70464859 -55.5493692 99.82726593 -55.59492493 100.98390198 C-55.99626866 111.09340417 -56.44643588 121.20015266 -56.93533325 131.30578613 C-57.01928287 133.04312209 -57.10220978 134.78050781 -57.18405151 136.51794434 C-57.29831255 138.93788769 -57.4161453 141.35762987 -57.53515625 143.77734375 C-57.56739288 144.46704758 -57.59962952 145.1567514 -57.63284302 145.86735535 C-57.8203907 149.57368566 -58.12472271 153.24183764 -58.53173828 156.9309082 C-59.03086858 161.75685279 -59.06619801 166.48245487 -58.95703125 171.328125 C-58.93136059 173.09967076 -58.90716716 174.8712384 -58.88427734 176.64282227 C-58.87176941 177.55750275 -58.85926147 178.47218323 -58.84637451 179.4145813 C-58.66527614 194.57316774 -59.09284106 209.11262058 -61.42797852 224.11523438 C-65.30835798 249.3005722 -66.28648909 275.73786397 -64.62890625 301.140625 C-64.56743408 302.12836914 -64.50596191 303.11611328 -64.44262695 304.13378906 C-64.31952143 305.96554937 -64.17555962 307.79610472 -64.00463867 309.62402344 C-63.59567385 315.41854022 -64.6713873 319.29798178 -67.02929688 324.58056641 C-68.49284103 328.22838396 -68.82923288 331.79563747 -69.125 335.6875 C-70.29062812 349.29062812 -70.29062812 349.29062812 -74 353 C-81.3963431 353.31835049 -89.96720173 352.69667516 -96 348 C-99.09431228 343.4232037 -99.59896308 338.40700305 -99 333 C-97.31859337 329.39108224 -95.21579562 326.09359638 -93.0625 322.75 C-91.94697846 320.97536459 -90.83359764 319.19938122 -89.72265625 317.421875 C-89.22515869 316.64424805 -88.72766113 315.86662109 -88.21508789 315.06542969 C-78.84537283 299.13860843 -90.13066587 268.37912727 -94.02734375 251.5390625 C-94.52743514 249.37410856 -95.02749582 247.20914798 -95.52703857 245.04406738 C-95.97746888 243.09737608 -96.43222453 241.15168708 -96.88720703 239.20605469 C-99.75622363 226.51409662 -100.16457874 214.16805335 -100.13037109 201.22045898 C-100.12504741 198.83375583 -100.13032866 196.44724407 -100.13671875 194.06054688 C-100.14011836 185.68914821 -99.91059853 177.37743678 -99.3651886 169.02380371 C-98.26699271 151.99092962 -98.41194855 135.34348774 -101.91796875 118.62109375 C-108.81364512 85.17572178 -108.70515136 52.79345367 -105 19 C-104.89896973 18.03690918 -104.79793945 17.07381836 -104.69384766 16.08154297 C-103.35855404 3.35855404 -103.35855404 3.35855404 -101 1 C-97.87771969 0.78184012 -94.84162892 0.68852649 -91.71679688 0.68115234 C-90.75411392 0.67110672 -89.79143097 0.6610611 -88.79957581 0.65071106 C-85.60597346 0.61973234 -82.41245557 0.60280106 -79.21875 0.5859375 C-77.00678782 0.56723479 -74.79483283 0.54766206 -72.58288574 0.5272522 C-66.75083666 0.47579848 -60.91876434 0.43624876 -55.08660889 0.39910889 C-49.1475237 0.35918685 -43.20853682 0.30801737 -37.26953125 0.2578125 C-6.20733695 0 -6.20733695 0 0 0 Z " fill="#82FD72" transform="translate(178,305)"/>
<path d="M0 0 C5.88988016 -0.04950439 11.7796387 -0.0857692 17.66967773 -0.10986328 C19.67262889 -0.11990963 21.67556542 -0.13354909 23.6784668 -0.15087891 C26.56042088 -0.17518713 29.44218072 -0.18649687 32.32421875 -0.1953125 C33.21711105 -0.20563507 34.11000336 -0.21595764 35.029953 -0.22659302 C39.4717257 -0.22739134 42.96349427 -0.10378748 47 2 C47.98623389 7.54582603 48.00511526 12.68755741 47.6953125 18.30078125 C47.63015945 19.61540596 47.63015945 19.61540596 47.56369019 20.95658875 C47.47090376 22.80317004 47.37490937 24.64959265 47.27587891 26.49584961 C47.12603694 29.29314204 46.98596313 32.09078776 46.84765625 34.88867188 C46.75578332 36.69273771 46.6633533 38.49677527 46.5703125 40.30078125 C46.52858917 41.12403397 46.48686584 41.94728668 46.44387817 42.79548645 C46.22217289 46.88891867 45.91134895 50.94816353 45.46166992 55.02319336 C44.96337002 59.81729341 44.93451551 64.51412653 45.04296875 69.328125 C45.06863941 71.09967076 45.09283284 72.8712384 45.11572266 74.64282227 C45.12823059 75.55750275 45.14073853 76.47218323 45.15362549 77.4145813 C45.33472386 92.57316774 44.90715894 107.11262058 42.57202148 122.11523438 C38.69164202 147.3005722 37.71351091 173.73786397 39.37109375 199.140625 C39.43256592 200.12836914 39.49403809 201.11611328 39.55737305 202.13378906 C39.68047857 203.96554937 39.82444038 205.79610472 39.99536133 207.62402344 C40.40432615 213.41854022 39.3286127 217.29798178 36.97070312 222.58056641 C35.50715897 226.22838396 35.17076712 229.79563747 34.875 233.6875 C33.70937188 247.29062812 33.70937188 247.29062812 30 251 C22.6036569 251.31835049 14.03279827 250.69667516 8 246 C4.90568772 241.4232037 4.40103692 236.40700305 5 231 C6.68140663 227.39108224 8.78420438 224.09359638 10.9375 220.75 C12.05302154 218.97536459 13.16640236 217.19938122 14.27734375 215.421875 C14.77484131 214.64424805 15.27233887 213.86662109 15.78491211 213.06542969 C25.15462717 197.13860843 13.86933413 166.37912727 9.97265625 149.5390625 C9.47256486 147.37410856 8.97250418 145.20914798 8.47296143 143.04406738 C8.02253112 141.09737608 7.56777547 139.15168708 7.11279297 137.20605469 C4.24377637 124.51409662 3.83542126 112.16805335 3.86962891 99.22045898 C3.87495259 96.83375583 3.86967134 94.44724407 3.86328125 92.06054688 C3.85988164 83.68914821 4.08940147 75.37743678 4.6348114 67.02380371 C5.62177095 51.71619054 5.99772075 36.09761177 3 21 C2.59248926 18.86529817 2.18880729 16.72990348 1.78637695 14.59423828 C1.52029244 13.19922903 1.24715917 11.80553786 0.96557617 10.41357422 C0.26459708 6.87306632 -0.05779823 3.60082964 0 0 Z " fill="#000000" transform="translate(74,407)"/>
<path d="M0 0 C1.19579933 0.02997826 1.19579933 0.02997826 2.41575623 0.06056213 C3.76704369 0.09070656 3.76704369 0.09070656 5.14562988 0.12145996 C6.12478867 0.14849503 7.10394745 0.17553009 8.11277771 0.2033844 C9.11018478 0.22699539 10.10759186 0.25060638 11.13522339 0.27493286 C14.33491008 0.35177942 17.53436738 0.43571294 20.73387146 0.51979065 C22.89727153 0.57299034 25.06068294 0.62573085 27.22410583 0.67799377 C32.54000435 0.80742276 37.8557312 0.94267758 43.17137146 1.08229065 C44.82207384 4.61274395 45.41150182 6.7476707 44.56199646 10.55885315 C44.38507263 11.388526 44.2081488 12.21819885 44.02586365 13.07301331 C43.82638123 13.94232483 43.6268988 14.81163635 43.42137146 15.70729065 C43.03587464 17.5197736 42.65045719 19.33227344 42.26512146 21.14479065 C41.67386907 23.83559235 41.07015373 26.52236774 40.45262146 29.20729065 C37.74616121 41.94357416 39.11706196 55.10246971 40.17137146 67.95729065 C42.54638636 98.00144008 41.25568848 127.18362077 33.40574646 156.36354065 C24.98932024 187.4423034 24.98932024 187.4423034 30.29637146 217.76979065 C32.17724636 220.6190765 32.17724636 220.6190765 34.17137146 223.08229065 C38.53753425 229.11945402 40.34690336 233.49701638 39.17137146 241.08229065 C38.29023851 244.29889966 37.8126747 245.67594276 34.96434021 247.48072815 C34.10453552 247.80299377 33.24473083 248.1252594 32.35887146 248.45729065 C31.08076599 248.96389221 31.08076599 248.96389221 29.77684021 249.48072815 C26.86336361 250.1534049 25.05687251 249.67996659 22.17137146 249.08229065 C21.18137146 250.07229065 21.18137146 250.07229065 20.17137146 251.08229065 C17.42157207 251.43482903 15.8488691 251.58263013 13.57762146 249.9052887 C11.71749045 247.49390011 11.51633677 245.61157626 11.10887146 242.6018219 C10.95160583 241.51965393 10.79434021 240.43748596 10.63230896 239.32252502 C10.48019958 238.19137268 10.32809021 237.06022034 10.17137146 235.89479065 C9.86712961 233.67098896 9.55479228 231.44827793 9.23387146 229.2268219 C9.10109802 228.24044739 8.96832458 227.25407288 8.83152771 226.23780823 C8.24892712 222.93386476 8.24892712 222.93386476 6.61888123 219.46485901 C4.49935778 214.01360095 4.83636404 208.58799503 4.94871521 202.81666565 C4.9577034 201.62921753 4.96669159 200.44176941 4.97595215 199.21833801 C5.0058437 195.42268509 5.05542549 191.62767969 5.10887146 187.83229065 C5.42732554 163.42174493 4.81876508 139.36249688 1.04637146 115.20729065 C-1.14455732 99.69065922 -1.05500546 84.33189783 -0.89161682 68.68751526 C-0.77943686 57.2925388 -1.02994057 46.15291328 -2.11158752 34.79981995 C-2.81631199 27.19689009 -3.02046014 19.65478089 -3.01612854 12.01979065 C-3.01677307 10.93464172 -3.0174176 9.8494928 -3.01808167 8.73146057 C-2.95643925 0.13304359 -2.95643925 0.13304359 0 0 Z " fill="#000000" transform="translate(133.82862854003906,406.91770935058594)"/>
<path d="M0 0 C1.19579933 0.02997826 1.19579933 0.02997826 2.41575623 0.06056213 C3.76704369 0.09070656 3.76704369 0.09070656 5.14562988 0.12145996 C6.12478867 0.14849503 7.10394745 0.17553009 8.11277771 0.2033844 C9.11018478 0.22699539 10.10759186 0.25060638 11.13522339 0.27493286 C14.33491008 0.35177942 17.53436738 0.43571294 20.73387146 0.51979065 C22.89727153 0.57299034 25.06068294 0.62573085 27.22410583 0.67799377 C32.54000435 0.80742276 37.8557312 0.94267758 43.17137146 1.08229065 C44.82207384 4.61274395 45.41150182 6.7476707 44.56199646 10.55885315 C44.38507263 11.388526 44.2081488 12.21819885 44.02586365 13.07301331 C43.82638123 13.94232483 43.6268988 14.81163635 43.42137146 15.70729065 C43.03587464 17.5197736 42.65045719 19.33227344 42.26512146 21.14479065 C41.67386907 23.83559235 41.07015373 26.52236774 40.45262146 29.20729065 C37.74616121 41.94357416 39.11706196 55.10246971 40.17137146 67.95729065 C41.74259454 87.83340216 41.86601391 107.24266915 39.29637146 127.01979065 C39.20942017 127.69272156 39.12246887 128.36565247 39.03288269 129.05897522 C37.38202444 141.54927887 37.38202444 141.54927887 35.17137146 146.08229065 C34.51137146 146.41229065 33.85137146 146.74229065 33.17137146 147.08229065 C33.50137146 144.77229065 33.83137146 142.46229065 34.17137146 140.08229065 C34.83137146 140.08229065 35.49137146 140.08229065 36.17137146 140.08229065 C36.00766052 139.5305719 35.84394958 138.97885315 35.67527771 138.41041565 C35.11376732 135.81615058 35.07398138 133.48393654 35.10887146 130.83229065 C35.1178949 129.9402594 35.12691833 129.04822815 35.13621521 128.12916565 C35.14781677 127.4536969 35.15941833 126.77822815 35.17137146 126.08229065 C35.83137146 125.75229065 36.49137146 125.42229065 37.17137146 125.08229065 C37.15074646 124.13354065 37.13012146 123.18479065 37.10887146 122.20729065 C37.17137146 119.08229065 37.17137146 119.08229065 38.17137146 117.08229065 C38.18790694 114.82157409 38.13495394 112.56023138 38.05027771 110.30104065 C38.0149292 109.27843391 38.0149292 109.27843391 37.97886658 108.23516846 C37.90175422 106.01735483 37.8178405 103.7998543 37.73387146 101.58229065 C37.62581467 98.56809418 37.52215835 95.55376988 37.42137146 92.5393219 C37.39656204 91.80119766 37.37175262 91.06307343 37.34619141 90.30258179 C37.14303452 83.92005851 37.10672747 77.54420335 37.2966156 71.16041565 C37.39319265 67.56876759 37.39319265 67.56876759 36.17576599 64.25758362 C34.8698291 61.42921763 34.92872768 59.21856456 34.94090271 56.1096344 C34.9428363 54.96301331 34.9447699 53.81639221 34.94676208 52.63502502 C34.96513123 50.84548401 34.96513123 50.84548401 34.98387146 49.01979065 C34.98451599 47.82289612 34.98516052 46.62600159 34.98582458 45.39283752 C35.03084467 36.50387101 35.03084467 36.50387101 36.17137146 33.08229065 C36.83137146 33.08229065 37.49137146 33.08229065 38.17137146 33.08229065 C37.84137146 32.09229065 37.51137146 31.10229065 37.17137146 30.08229065 C37.20748025 28.28796172 37.31984255 26.49447129 37.48387146 24.70729065 C37.56250427 23.77143127 37.64113708 22.8355719 37.72215271 21.87135315 C38.18124649 19.02097958 39.07495923 16.74130613 40.17137146 14.08229065 C40.57547022 11.9806918 40.57547022 11.9806918 40.73387146 9.95729065 C41.17137146 6.08229065 41.17137146 6.08229065 42.17137146 3.08229065 C32.74220745 2.82513163 23.59672882 3.29227337 14.22703552 4.37086487 C9.16788555 4.94192787 4.26368667 5.1758349 -0.82862854 5.08229065 C-0.78786194 5.94507629 -0.74709534 6.80786194 -0.70509338 7.6967926 C-0.55877226 10.90010299 -0.42193852 14.10363832 -0.29151917 17.30763245 C-0.23314463 18.69386539 -0.1709983 20.07994488 -0.10499573 21.46583557 C-0.01074649 23.45863577 0.06878926 25.45211468 0.14793396 27.4455719 C0.20030212 28.64480286 0.25267029 29.84403381 0.30662537 31.0796051 C0.17137146 34.08229065 0.17137146 34.08229065 -1.82862854 37.08229065 C-2.73392452 28.65980483 -2.93792514 20.29707715 -2.95362854 11.83229065 C-2.95814026 10.79580383 -2.96265198 9.75931702 -2.96730042 8.69142151 C-2.96536682 7.72212708 -2.96343323 6.75283264 -2.96144104 5.75416565 C-2.96031311 4.87856995 -2.95918518 4.00297424 -2.95802307 3.10084534 C-2.7910367 0.49585795 -2.61967821 0.11788891 0 0 Z " fill="#191D19" transform="translate(133.82862854003906,406.91770935058594)"/>
<path d="M0 0 C5.88988016 -0.04950439 11.7796387 -0.0857692 17.66967773 -0.10986328 C19.67262889 -0.11990963 21.67556542 -0.13354909 23.6784668 -0.15087891 C26.56042088 -0.17518713 29.44218072 -0.18649687 32.32421875 -0.1953125 C33.21711105 -0.20563507 34.11000336 -0.21595764 35.029953 -0.22659302 C39.4717257 -0.22739134 42.96349427 -0.10378748 47 2 C47.98623389 7.54582603 48.00511526 12.68755741 47.6953125 18.30078125 C47.63015945 19.61540596 47.63015945 19.61540596 47.56369019 20.95658875 C47.47090376 22.80317004 47.37490937 24.64959265 47.27587891 26.49584961 C47.12603694 29.29314204 46.98596313 32.09078776 46.84765625 34.88867188 C46.75578332 36.69273771 46.6633533 38.49677527 46.5703125 40.30078125 C46.52858917 41.12403397 46.48686584 41.94728668 46.44387817 42.79548645 C46.22217289 46.88891867 45.91134895 50.94816353 45.46166992 55.02319336 C44.96336937 59.81729969 44.93455972 64.51412284 45.04296875 69.328125 C45.06854242 71.10129867 45.09265547 72.87449387 45.11547852 74.64770508 C45.12797638 75.56258698 45.14047424 76.47746887 45.15335083 77.42007446 C45.36855218 95.25370819 44.34208568 112.12514289 41.45751953 129.72509766 C40.65664958 135.45768545 40.32503848 141.2236484 40 147 C39.67 147 39.34 147 39 147 C37.93690433 141.82682579 37.88306062 136.87630664 37.9375 131.625 C37.94201172 130.79355469 37.94652344 129.96210937 37.95117188 129.10546875 C37.96286836 127.07028103 37.98080065 125.03513077 38 123 C38.66 123 39.32 123 40 123 C39.97679687 122.01 39.95359375 121.02 39.9296875 120 C39.81730741 113.06140739 39.8225962 106.66829915 42 100 C42.66 100 43.32 100 44 100 C43.91621094 98.87980469 43.83242187 97.75960937 43.74609375 96.60546875 C43.64291555 95.13283444 43.54006821 93.66017692 43.4375 92.1875 C43.35338867 91.08051758 43.35338867 91.08051758 43.26757812 89.95117188 C43.04230276 86.63211484 42.93744188 84.18767436 44 81 C43.01 80.67 42.02 80.34 41 80 C40.97108051 75.70834738 40.95322882 71.41671964 40.9375 67.125 C40.92912109 65.90167969 40.92074219 64.67835938 40.91210938 63.41796875 C40.90888672 62.25136719 40.90566406 61.08476562 40.90234375 59.8828125 C40.89710693 58.80402832 40.89187012 57.72524414 40.88647461 56.61376953 C41 54 41 54 42 52 C42.22950319 49.795636 42.41075933 47.58607827 42.5625 45.375 C42.64628906 44.18648438 42.73007813 42.99796875 42.81640625 41.7734375 C42.87699219 40.85820312 42.93757813 39.94296875 43 39 C43.66 39 44.32 39 45 39 C44.7215625 37.4221875 44.7215625 37.4221875 44.4375 35.8125 C44.0331896 32.28922366 44.30500818 30.37826459 45 27 C45.07747197 25.23447202 45.10799073 23.46641544 45.09765625 21.69921875 C45.09443359 20.72275391 45.09121094 19.74628906 45.08789062 18.74023438 C45.07951172 17.73283203 45.07113281 16.72542969 45.0625 15.6875 C45.05798828 14.66076172 45.05347656 13.63402344 45.04882812 12.57617188 C45.03708184 10.05072118 45.02065565 7.52539095 45 5 C43.71416016 5.05220703 43.71416016 5.05220703 42.40234375 5.10546875 C41.25894531 5.13253906 40.11554688 5.15960938 38.9375 5.1875 C37.81214844 5.22230469 36.68679687 5.25710938 35.52734375 5.29296875 C32.13140809 5.01091429 30.15127881 4.13383325 27.12670898 2.70581055 C22.32691445 1.11285842 17.07358577 1.41220893 12.0625 1.3125 C10.32129883 1.26125977 10.32129883 1.26125977 8.54492188 1.20898438 C5.69671118 1.12693715 2.84879161 1.05764464 0 1 C0 0.67 0 0.34 0 0 Z " fill="#121611" transform="translate(74,407)"/>
<path d="M0 0 C0.66 0 1.32 0 2 0 C2.02870178 0.70727234 2.05740356 1.41454468 2.0869751 2.14324951 C2.36430641 8.90717998 2.65716561 15.67029169 2.9662056 22.43284225 C3.12445964 25.90709033 3.27731435 29.38137709 3.41650391 32.85644531 C4.00660265 47.49710006 4.76921777 61.74813943 8.18652344 76.04003906 C9.29398695 80.89376703 9.80895024 85.28185496 7.64453125 89.87890625 C5.78459566 92.60337481 3.92736442 95.32265696 2 98 C1.32324219 98.97453125 1.32324219 98.97453125 0.6328125 99.96875 C-1.23904651 102.46456201 -3.0645449 104.03814017 -5.75 105.625 C-10.51029585 106.17426491 -13.89863878 104.30539673 -18 102 C-19.77368347 100.22631653 -19.1727488 97.71104575 -19.1875 95.3125 C-19.16074231 90.82256034 -18.84929766 87.16091973 -17 83 C-16.34 83 -15.68 83 -15 83 C-14.79913557 86.71599191 -14.8480563 87.77208445 -17 91 C-17.38499891 92.65549531 -17.72793135 94.3222433 -18 96 C-14.57421051 92.82460444 -14.57421051 92.82460444 -12 89 C-10.35 89 -8.7 89 -7 89 C-6.67 90.32 -6.34 91.64 -6 93 C-7.32 92.34 -8.64 91.68 -10 91 C-10.66 93.97 -11.32 96.94 -12 100 C-9.49698229 101.18198059 -7.60398817 102.0172568 -4.8125 101.9375 C-2.19127114 100.58169197 -2.06481463 98.71043725 -1 96 C-0.04288149 94.41087118 0.9577838 92.84716336 2 91.3125 C2.515625 90.54550781 3.03125 89.77851563 3.5625 88.98828125 C5 87 5 87 7 85 C7 84.01 7 83.02 7 82 C6.34 82 5.68 82 5 82 C4.86722656 81.21753906 4.73445313 80.43507813 4.59765625 79.62890625 C4.42105469 78.61699219 4.24445313 77.60507812 4.0625 76.5625 C3.88847656 75.55316406 3.71445313 74.54382813 3.53515625 73.50390625 C3.25248903 71.0712562 3.25248903 71.0712562 2 70 C-0.29747286 54.63419716 -0.24369744 39.24785494 -0.125 23.75 C-0.11493714 21.43229559 -0.10581721 19.11458689 -0.09765625 16.796875 C-0.07593468 11.19782072 -0.04272588 5.59893142 0 0 Z " fill="#111610" transform="translate(224,265)"/>
<path d="M0 0 C0.66 0 1.32 0 2 0 C2 0.66 2 1.32 2 2 C2.99 2 3.98 2 5 2 C13.38710072 30.43861461 9.38495569 63.16500122 5 92 C-0.94 91.67 -6.88 91.34 -13 91 C-13 90.67 -13 90.34 -13 90 C-11.85660156 89.95101562 -10.71320313 89.90203125 -9.53515625 89.8515625 C-8.04424527 89.77654811 -6.55336108 89.70099972 -5.0625 89.625 C-4.30775391 89.5940625 -3.55300781 89.563125 -2.77539062 89.53125 C-0.84492605 89.4273685 1.07942081 89.22104386 3 89 C3.33 88.34 3.66 87.68 4 87 C3.34 87 2.68 87 2 87 C2 86.34 2 85.68 2 85 C0.68 84.34 -0.64 83.68 -2 83 C-1.195625 82.690625 -0.39125 82.38125 0.4375 82.0625 C2.89080405 81.23664655 2.89080405 81.23664655 4 80 C4.1590489 78.33367441 4.25145358 76.66091949 4.31640625 74.98828125 C4.35846191 73.92988037 4.40051758 72.87147949 4.44384766 71.78100586 C4.48300293 70.63639893 4.5221582 69.49179199 4.5625 68.3125 C4.6251001 66.57141968 4.6251001 66.57141968 4.68896484 64.79516602 C4.94882459 57.00944985 5.10348243 49.22751298 5.125 41.4375 C5.12959229 40.4988208 5.13418457 39.5601416 5.13891602 38.59301758 C5.5488802 34.47148243 5.5488802 34.47148243 4 31 C3.80821547 29.29251715 3.67630289 27.57822878 3.5703125 25.86328125 C3.49683594 24.81076172 3.42335937 23.75824219 3.34765625 22.67382812 C3.20054036 20.45289439 3.05979651 18.23152836 2.92578125 16.00976562 C2.51611555 10.30569156 2.11543587 5.86042044 -1 1 C-0.67 0.67 -0.34 0.34 0 0 Z " fill="#97F98E" transform="translate(173,315)"/>
<path d="M0 0 C1.19579933 0.02997826 1.19579933 0.02997826 2.41575623 0.06056213 C3.76704369 0.09070656 3.76704369 0.09070656 5.14562988 0.12145996 C6.12478867 0.14849503 7.10394745 0.17553009 8.11277771 0.2033844 C9.11018478 0.22699539 10.10759186 0.25060638 11.13522339 0.27493286 C14.33491008 0.35177942 17.53436738 0.43571294 20.73387146 0.51979065 C22.89727153 0.57299034 25.06068294 0.62573085 27.22410583 0.67799377 C32.54000435 0.80742276 37.8557312 0.94267758 43.17137146 1.08229065 C44.82969818 4.62554047 45.40757903 6.76787191 44.56199646 10.5940094 C44.38410583 11.43512268 44.20621521 12.27623596 44.02293396 13.14283752 C43.82441833 14.00973206 43.62590271 14.87662659 43.42137146 15.76979065 C43.23832458 16.61734924 43.05527771 17.46490784 42.86668396 18.33815002 C42.49752712 20.0474502 42.12319252 21.7556405 41.74363708 23.46266174 C40.82729034 27.65737189 39.99875779 31.86927101 39.17137146 36.08229065 C38.51137146 36.08229065 37.85137146 36.08229065 37.17137146 36.08229065 C37.50137146 43.34229065 37.83137146 50.60229065 38.17137146 58.08229065 C37.51137146 58.08229065 36.85137146 58.08229065 36.17137146 58.08229065 C36.17137146 49.83229065 36.17137146 41.58229065 36.17137146 33.08229065 C36.83137146 33.08229065 37.49137146 33.08229065 38.17137146 33.08229065 C37.84137146 32.09229065 37.51137146 31.10229065 37.17137146 30.08229065 C37.20748025 28.28796172 37.31984255 26.49447129 37.48387146 24.70729065 C37.56250427 23.77143127 37.64113708 22.8355719 37.72215271 21.87135315 C38.18124649 19.02097958 39.07495923 16.74130613 40.17137146 14.08229065 C40.57547022 11.9806918 40.57547022 11.9806918 40.73387146 9.95729065 C41.17137146 6.08229065 41.17137146 6.08229065 42.17137146 3.08229065 C32.74220745 2.82513163 23.59672882 3.29227337 14.22703552 4.37086487 C9.16788555 4.94192787 4.26368667 5.1758349 -0.82862854 5.08229065 C-0.78786194 5.94507629 -0.74709534 6.80786194 -0.70509338 7.6967926 C-0.55877226 10.90010299 -0.42193852 14.10363832 -0.29151917 17.30763245 C-0.23314463 18.69386539 -0.1709983 20.07994488 -0.10499573 21.46583557 C-0.01074649 23.45863577 0.06878926 25.45211468 0.14793396 27.4455719 C0.20030212 28.64480286 0.25267029 29.84403381 0.30662537 31.0796051 C0.17137146 34.08229065 0.17137146 34.08229065 -1.82862854 37.08229065 C-2.73392452 28.65980483 -2.93792514 20.29707715 -2.95362854 11.83229065 C-2.95814026 10.79580383 -2.96265198 9.75931702 -2.96730042 8.69142151 C-2.96536682 7.72212708 -2.96343323 6.75283264 -2.96144104 5.75416565 C-2.96031311 4.87856995 -2.95918518 4.00297424 -2.95802307 3.10084534 C-2.7910367 0.49585795 -2.61967821 0.11788891 0 0 Z " fill="#0D2C0B" transform="translate(133.82862854003906,406.91770935058594)"/>
<path d="M0 0 C0.33 0 0.66 0 1 0 C3.236368 9.86398029 3.15945557 19.55715694 3.01367188 29.62060547 C2.94369701 35.19943515 3.04832322 40.59295137 3.76635742 46.12792969 C4.05304414 48.42501829 4.13326375 50.68615134 4.125 53 C4.12886719 54.11375 4.12886719 54.11375 4.1328125 55.25 C4 57 4 57 3 58 C-0.10435737 58.125405 -3.18752496 58.1861327 -6.29321289 58.20532227 C-7.26871597 58.21522186 -8.24421906 58.22512146 -9.24928284 58.23532104 C-12.49038218 58.26703948 -15.73149622 58.29173419 -18.97265625 58.31640625 C-21.21325574 58.33696686 -23.45385127 58.35796308 -25.69444275 58.37937927 C-31.60455123 58.43469225 -37.51469525 58.4840607 -43.42486572 58.53222656 C-49.45059386 58.5823744 -55.47627012 58.63809545 -61.50195312 58.69335938 C-73.33459114 58.80105372 -85.16727412 58.90247348 -97 59 C-97 58.34 -97 57.68 -97 57 C-64.66 56.67 -32.32 56.34 1 56 C1 53.36 1 50.72 1 48 C1.28674418 45.99279077 1.60235737 43.98821313 2 42 C0.515 41.505 0.515 41.505 -1 41 C-1.02464705 35.32169922 -1.04283462 29.64342931 -1.05493164 23.96508789 C-1.05997256 22.03181415 -1.06680519 20.09854424 -1.07543945 18.1652832 C-1.08751565 15.39273128 -1.09323057 12.62022959 -1.09765625 9.84765625 C-1.10281754 8.97786636 -1.10797882 8.10807648 -1.11329651 7.21192932 C-1.11349185 5.14094186 -1.06208168 3.07005676 -1 1 C-0.67 0.67 -0.34 0.34 0 0 Z " fill="#2F4C2D" transform="translate(173,248)"/>
<path d="M0 0 C0.33 0 0.66 0 1 0 C0.99476318 1.14887695 0.98952637 2.29775391 0.98413086 3.48144531 C0.96584974 7.79784345 0.95448465 12.11423825 0.94506836 16.43066406 C0.94008044 18.28874286 0.93328772 20.14681782 0.92456055 22.00488281 C0.84372384 35.8238158 0.84372384 35.8238158 1.78344727 49.60400391 C2.01135786 52.1256663 2.03476954 54.59429294 2 57.125 C1.93495256 62.13365261 2.40790442 67.03062634 3 72 C3.66 72 4.32 72 5 72 C4.67 73.98 4.34 75.96 4 78 C5.32 78.33 6.64 78.66 8 79 C5.69 79 3.38 79 1 79 C-1.44520474 69.15831248 -2.57848864 59.8957065 -2.8125 49.75 C-2.8315741 49.06688751 -2.85064819 48.38377502 -2.87030029 47.67996216 C-3.30192616 31.72113919 -2.43580854 15.78846808 0 0 Z " fill="#8BF880" transform="translate(74,327)"/>
<path d="M0 0 C1.91302307 3.26613695 2.35674661 5.99445248 2.625 9.75 C2.69976562 10.73484375 2.77453125 11.7196875 2.8515625 12.734375 C2.92503906 13.85585938 2.92503906 13.85585938 3 15 C3.33 15 3.66 15 4 15 C4 22.26 4 29.52 4 37 C4.66 37 5.32 37 6 37 C6.02312764 44.93613787 6.04091723 52.87226176 6.05181217 60.80842495 C6.05704008 64.49314498 6.06413605 68.17784203 6.07543945 71.86254883 C6.08627162 75.41570831 6.09227753 78.96884563 6.09487724 82.52202034 C6.0967309 83.88045666 6.10035038 85.23889171 6.10573006 86.59731865 C6.11294475 88.49382223 6.11340809 90.39034793 6.11352539 92.28686523 C6.115746 93.36830307 6.11796661 94.44974091 6.12025452 95.56394958 C6 98 6 98 5 99 C5.25347948 101.27562751 5.25347948 101.27562751 5.8125 103.875 C5.98394531 104.75929688 6.15539062 105.64359375 6.33203125 106.5546875 C6.92399703 109.22815889 6.92399703 109.22815889 9 112 C7.515 112.495 7.515 112.495 6 113 C2.53453649 106.61163693 2.63853472 100.99539294 2.77734375 93.83203125 C2.78633194 92.64316818 2.79532013 91.45430511 2.80458069 90.22941589 C2.83450934 86.42347603 2.88408953 82.61817756 2.9375 78.8125 C3.2522601 54.63607763 2.27632038 30.81482622 -0.47715759 6.78459167 C-0.68944072 4.86020756 -0.85084999 2.93030376 -1 1 C-0.67 0.67 -0.34 0.34 0 0 Z " fill="#0A0E0A" transform="translate(136,516)"/>
<path d="M0 0 C0.66 0.33 1.32 0.66 2 1 C1.5121407 8.22918778 -0.30578427 14.13324492 -2.875 20.875 C-6.63825036 31.21023129 -8.75254595 41.10620284 -10 52 C-10.19078738 53.53149053 -10.38348352 55.06274453 -10.578125 56.59375 C-10.92432071 59.32041622 -11.25365739 62.04688787 -11.5703125 64.77734375 C-12.29125 70.184375 -12.29125 70.184375 -13 72 C-14.485 72.495 -14.485 72.495 -16 73 C-16.09765625 66.84765625 -16.09765625 66.84765625 -16 65 C-15.505 64.505 -15.505 64.505 -15 64 C-14.79607799 60.6919318 -14.6537346 57.39117412 -14.5703125 54.078125 C-14.36684454 49.46618457 -13.45297472 46.83687223 -11 43 C-10.74999707 40.60160965 -10.74999707 40.60160965 -11 38.1875 C-11.16907111 33.04620132 -10.16279893 29.65833615 -8 25 C-7.34 24.34 -6.68 23.68 -6 23 C-5.83312552 20.41645782 -5.83312552 20.41645782 -6 18 C-5.34 17.67 -4.68 17.34 -4 17 C-3.76461112 15.11688898 -3.53633149 13.2324997 -3.3515625 11.34375 C-2.76014631 7.40097537 -1.37285655 3.73002534 0 0 Z " fill="#20251F" transform="translate(66,213)"/>
<path d="M0 0 C1.25841946 6.74153283 2.26404456 13.13484138 2 20 C-0.1519437 16.77208445 -0.20086443 15.71599191 0 12 C-0.99 12 -1.98 12 -3 12 C-3.495 10.02 -3.495 10.02 -4 8 C-6.31 7.67 -8.62 7.34 -11 7 C-10.01 6.67 -9.02 6.34 -8 6 C-8.495 4.02 -8.495 4.02 -9 2 C-39.36 2 -69.72 2 -101 2 C-101 1.67 -101 1.34 -101 1 C-88.12654551 0.8694978 -75.25308994 0.73910355 -62.37963295 0.60884857 C-56.40250215 0.54836792 -50.42537174 0.48784954 -44.44824219 0.42724609 C-38.68408673 0.36880341 -32.9199303 0.31045832 -27.15577316 0.25218201 C-24.95246724 0.22988896 -22.74916168 0.20756024 -20.54585648 0.18519592 C-17.46888572 0.15396958 -14.39191373 0.12286801 -11.31494141 0.09179688 C-10.39640884 0.08244614 -9.47787628 0.0730954 -8.5315094 0.0634613 C-2.22810432 0 -2.22810432 0 0 0 Z " fill="#77D46E" transform="translate(178,305)"/>
<path d="M0 0 C0.33 0 0.66 0 1 0 C1.88374546 4.20368903 1.98623228 7.35323607 1.07421875 11.54296875 C0.85531982 12.60475342 0.6364209 13.66653809 0.41088867 14.76049805 C0.05281128 16.45686401 0.05281128 16.45686401 -0.3125 18.1875 C-3.08847812 32.07312019 -4.28167011 45.8739671 -5 60 C-5.99 60 -6.98 60 -8 60 C-8 52.41 -8 44.82 -8 37 C-7.01 37 -6.02 37 -5 37 C-5.16371094 36.44828125 -5.32742187 35.8965625 -5.49609375 35.328125 C-6.05760414 32.73385993 -6.09739008 30.40164589 -6.0625 27.75 C-6.05347656 26.85796875 -6.04445312 25.9659375 -6.03515625 25.046875 C-6.02355469 24.37140625 -6.01195312 23.6959375 -6 23 C-5.34 23 -4.68 23 -4 23 C-3.95101562 22.18015625 -3.90203125 21.3603125 -3.8515625 20.515625 C-3.77679688 19.43796875 -3.70203125 18.3603125 -3.625 17.25 C-3.55539063 16.18265625 -3.48578125 15.1153125 -3.4140625 14.015625 C-3.02012236 11.14655153 -2.35668563 9.50138913 -1 7 C-0.61250787 4.67504723 -0.27017161 2.34148732 0 0 Z " fill="#111711" transform="translate(165,557)"/>
<path d="M0 0 C0.33 0 0.66 0 1 0 C1.63399836 6.6011503 2.20889314 13.20558851 2.73876953 19.81591797 C2.90113831 21.79499607 3.07235555 23.77339437 3.25732422 25.75048828 C4.49787577 39.24434038 3.64272973 52.25806717 2.1875 65.6875 C2.05441437 66.93131439 2.05441437 66.93131439 1.91864014 68.20025635 C1.65910337 70.57640589 1.38578329 72.95043833 1.10546875 75.32421875 C1.02508865 76.03989517 0.94470856 76.75557159 0.8618927 77.49293518 C0.42184377 81.02588725 -0.12729773 83.94169498 -2 87 C-2.33 86.01 -2.66 85.02 -3 84 C-17.19 83.67 -31.38 83.34 -46 83 C-46 82.67 -46 82.34 -46 82 C-31.48 82 -16.96 82 -2 82 C-1.67 77.71 -1.34 73.42 -1 69 C-0.66360274 66.37266372 -0.31170662 63.74721823 0.0625 61.125 C1.80778282 47.56378786 1.65369192 33.57694864 0.22265625 19.9921875 C-0.27180327 13.34734553 -0.07100768 6.65894261 0 0 Z " fill="#58A750" transform="translate(180,325)"/>
<path d="M0 0 C0.66 0.33 1.32 0.66 2 1 C2.02481819 5.73225528 2.04291583 10.46447221 2.05493164 15.19677734 C2.05994375 16.80485698 2.06675519 18.4129321 2.07543945 20.02099609 C2.08764226 22.33952961 2.09325964 24.65800259 2.09765625 26.9765625 C2.10281754 27.68930328 2.10797882 28.40204407 2.11329651 29.13638306 C2.11374755 33.19856429 1.78775607 37.01488106 1 41 C0.34 41 -0.32 41 -1 41 C-0.67 41.99 -0.34 42.98 0 44 C-0.37843048 46.14067392 -0.84889575 48.26575635 -1.375 50.375 C-2.32600348 54.24122909 -3.24022704 58.09161838 -4 62 C-4.32483418 63.33542939 -4.6550855 64.66961551 -5 66 C-4.34 66 -3.68 66 -3 66 C-3 66.99 -3 67.98 -3 69 C-2.34 69.33 -1.68 69.66 -1 70 C-1.33 70.99 -1.66 71.98 -2 73 C-4.66168657 69.30798315 -6.58455188 66.55768708 -7 62 C-6.47090547 59.15656806 -5.86516762 56.40750523 -5.171875 53.60546875 C-2.65010881 42.57048842 -1.90125506 31.58723394 -1.25 20.3125 C-1.12496672 18.32739364 -0.99867052 16.3423664 -0.87109375 14.35742188 C-0.56623681 9.5723969 -0.27822989 4.78664395 0 0 Z " fill="#0B100B" transform="translate(26,286)"/>
<path d="M0 0 C1.14160583 -0.00021904 1.14160583 -0.00021904 2.30627441 -0.0004425 C4.82774686 0.00025546 7.34914589 0.00804245 9.87060547 0.01586914 C11.61652588 0.01773373 13.3624468 0.01915744 15.10836792 0.02015686 C19.70824625 0.0239788 24.30809311 0.03380634 28.90795898 0.04486084 C33.59993056 0.0550819 38.29190722 0.05965597 42.98388672 0.06469727 C52.19353598 0.07542888 61.40316186 0.09250145 70.61279297 0.11352539 C70.61279297 0.77352539 70.61279297 1.43352539 70.61279297 2.11352539 C60.9593107 3.02363255 51.37423287 3.2476757 41.68701172 3.21118164 C40.20343575 3.20931086 38.71985916 3.20789008 37.23628235 3.20689392 C33.37800313 3.20312066 29.51976304 3.19333635 25.66149902 3.18218994 C21.70581593 3.17186259 17.75012636 3.16737233 13.79443359 3.16235352 C6.06720243 3.15170807 -1.65999677 3.13469609 -9.38720703 3.11352539 C-9.38720703 2.45352539 -9.38720703 1.79352539 -9.38720703 1.11352539 C-6.38214873 -0.38900376 -3.2946377 -0.0164022 0 0 Z " fill="#83FC77" transform="translate(98.38720703125,306.886474609375)"/>
<path d="M0 0 C0.66 0.33 1.32 0.66 2 1 C3.17169312 4.98375661 3.08089427 8.87439224 3 13 C3.66 13 4.32 13 5 13 C5.07347656 13.97839844 5.07347656 13.97839844 5.1484375 14.9765625 C5.22320312 15.85054687 5.29796875 16.72453125 5.375 17.625 C5.44460937 18.48351562 5.51421875 19.34203125 5.5859375 20.2265625 C5.90027436 23.03150208 5.90027436 23.03150208 7.02734375 25.640625 C8.42772895 30.47729677 8.25000511 35.11801203 8.1875 40.125 C8.18685547 41.11371094 8.18621094 42.10242188 8.18554688 43.12109375 C8.13708942 51.07888466 8.13708942 51.07888466 7 55 C6.34 55 5.68 55 5 55 C5 56.32 5 57.64 5 59 C4.34 59 3.68 59 3 59 C2.87625 59.5775 2.7525 60.155 2.625 60.75 C1.99351176 63.02335767 1.11141809 64.9253529 0 67 C-0.66 67 -1.32 67 -2 67 C-2.66 68.32 -3.32 69.64 -4 71 C-4.66 71 -5.32 71 -6 71 C-4.49126044 66.78184856 -2.33551126 63.13288526 0.0625 59.375 C8.17714196 46.62136803 5.32660095 29.39569116 2.19921875 15.03125 C1.68903735 12.92282259 1.15575652 10.81966008 0.5859375 8.7265625 C-0.05389182 5.74922339 -0.09852578 3.03638547 0 0 Z " fill="#0C110C" transform="translate(87,565)"/>
<path d="M0 0 C2 1 2 1 4 4 C4.3347168 6.01782227 4.3347168 6.01782227 4.44921875 8.31640625 C4.49240234 9.16396484 4.53558594 10.01152344 4.58007812 10.88476562 C4.61552734 11.76841797 4.65097656 12.65207031 4.6875 13.5625 C4.73455078 14.41908203 4.78160156 15.27566406 4.83007812 16.15820312 C5.02448673 20.39376111 5.01461249 24.45579405 4.51171875 28.66796875 C3.62503798 36.35228388 4.00097394 44.1296613 4.17138672 51.85205078 C4.21390367 53.89620843 4.2371875 55.93989479 4.2578125 57.984375 C4.2798877 59.18803711 4.30196289 60.39169922 4.32470703 61.63183594 C3.96472733 65.36588101 2.86781906 67.77572268 1 71 C0.11757945 68.07861605 -0.01745205 65.94098126 0.4375 62.93359375 C1.11404219 57.62425544 1.06968797 52.40675307 1 47.0625 C0.93898508 39.87770555 1.07849739 32.78840024 1.625 25.625 C2.26238801 16.9192846 1.31797857 8.60498402 0 0 Z " fill="#0B110B" transform="translate(76,225)"/>
<path d="M0 0 C1.08634584 3.39583663 0.92435715 6.09577592 0.5625 9.625 C-0.83543125 27.01744339 -0.25792519 44.61367688 1 62 C0.34 62 -0.32 62 -1 62 C-2.62007352 58.42639562 -3.25187124 55.63787706 -3.25878906 51.72241211 C-3.26509338 50.69462143 -3.27139771 49.66683075 -3.27789307 48.6078949 C-3.2738446 47.50881302 -3.26979614 46.40973114 -3.265625 45.27734375 C-3.26753845 44.13971085 -3.2694519 43.00207794 -3.27142334 41.82997131 C-3.27278258 39.42855609 -3.2691044 37.02713347 -3.26074219 34.62573242 C-3.25002938 30.94758644 -3.2606517 27.26992778 -3.2734375 23.59179688 C-3.27211605 21.25781142 -3.26955397 18.92382627 -3.265625 16.58984375 C-3.26967346 15.48873764 -3.27372192 14.38763153 -3.27789307 13.25315857 C-3.27158875 12.22852005 -3.26528442 11.20388153 -3.25878906 10.14819336 C-3.25719788 9.24838242 -3.25560669 8.34857147 -3.25396729 7.42149353 C-2.94364062 4.4626321 -2.13148164 2.13148164 0 0 Z " fill="#252824" transform="translate(113,556)"/>
<path d="M0 0 C0.66 0.33 1.32 0.66 2 1 C1.99777939 1.5732753 1.99555878 2.1465506 1.99327087 2.73719788 C1.9710848 8.72347386 1.95603792 14.7097381 1.94506836 20.69604492 C1.94005095 22.92782058 1.93323554 25.15959298 1.92456055 27.39135742 C1.91238129 30.60596526 1.90674565 33.82052949 1.90234375 37.03515625 C1.89718246 38.02709488 1.89202118 39.01903351 1.88670349 40.04103088 C1.88637859 44.08646183 1.91726162 47.9993725 2.56860352 51.99780273 C3 55 3 55 2 58 C2.66 58 3.32 58 4 58 C4.2226746 59.43534841 4.42761906 60.87345525 4.625 62.3125 C4.74101563 63.11300781 4.85703125 63.91351562 4.9765625 64.73828125 C5 67 5 67 3 70 C2.51054792 67.91905908 2.03411954 65.83505479 1.5625 63.75 C1.29566406 62.58984375 1.02882813 61.4296875 0.75390625 60.234375 C-1.33588679 49.5072061 -1.15840802 38.55270383 -1.13037109 27.67114258 C-1.12497206 25.17458125 -1.13036805 22.67819679 -1.13671875 20.18164062 C-1.1360585 18.57291628 -1.13477843 16.96419203 -1.1328125 15.35546875 C-1.13483673 14.61991257 -1.13686096 13.88435638 -1.13894653 13.12651062 C-1.11884795 8.65361204 -0.72893882 4.41453165 0 0 Z " fill="#0A100A" transform="translate(79,478)"/>
<path d="M0 0 C0.33 0 0.66 0 1 0 C1.05422119 0.76852295 1.10844238 1.5370459 1.16430664 2.32885742 C2.22982509 16.52977413 3.5633108 29.67783982 8.57666016 43.11279297 C10.94501604 49.4911042 12.09947268 55.13638534 12 62 C11.34 62 10.68 62 10 62 C9.814375 60.2984375 9.814375 60.2984375 9.625 58.5625 C9.41875 57.386875 9.2125 56.21125 9 55 C8.34 54.67 7.68 54.34 7 54 C7 51.03 7 48.06 7 45 C6.34 45 5.68 45 5 45 C4.87625 43.9275 4.7525 42.855 4.625 41.75 C4.07595287 38.45571724 3.47108195 36.85562968 2 34 C-0.31437907 26.81773875 -0.2321281 19.99896702 -0.125 12.5 C-0.11597656 11.29601562 -0.10695312 10.09203125 -0.09765625 8.8515625 C-0.07423775 5.9008321 -0.04143993 2.95052311 0 0 Z " fill="#151A14" transform="translate(214,202)"/>
<path d="M0 0 C0.99 0.33 1.98 0.66 3 1 C1.35 1.33 -0.3 1.66 -2 2 C-1.34 1.34 -0.68 0.68 0 0 Z M-5 2 C-4.01 2.33 -3.02 2.66 -2 3 C-2.33 3.66 -2.66 4.32 -3 5 C-4.32 5 -5.64 5 -7 5 C-7.33 5.66 -7.66 6.32 -8 7 C-10.6171875 7.44921875 -10.6171875 7.44921875 -13.875 7.6875 C-15.47988281 7.81705078 -15.47988281 7.81705078 -17.1171875 7.94921875 C-20 8 -20 8 -23 7 C-23.33 7.66 -23.66 8.32 -24 9 C-24.99 9.33 -25.98 9.66 -27 10 C-27.33 10.66 -27.66 11.32 -28 12 C-29.32 12 -30.64 12 -32 12 C-33.37310707 13.29233607 -34.71034824 14.62437146 -36 16 C-36.66 16 -37.32 16 -38 16 C-38.12375 16.7425 -38.2475 17.485 -38.375 18.25 C-38.9569895 20.81075381 -39.80421396 22.68814698 -41 25 C-41 25.66 -41 26.32 -41 27 C-41.66 27 -42.32 27 -43 27 C-42.67 27.99 -42.34 28.98 -42 30 C-42.66 30.99 -43.32 31.98 -44 33 C-43.67 33.66 -43.34 34.32 -43 35 C-43.33 35.66 -43.66 36.32 -44 37 C-44.66 37 -45.32 37 -46 37 C-46.33 37.66 -46.66 38.32 -47 39 C-46.0954075 29.04948245 -43.0935799 18.94804905 -35.8125 11.875 C-27.86891121 6.57927414 -19.88465353 5.06032015 -10.59765625 3.61328125 C-7.17666498 3.20939584 -7.17666498 3.20939584 -5 2 Z " fill="#0B100A" transform="translate(91,121)"/>
<path d="M0 0 C5.28263266 5.9716717 4.18276449 14.03777036 4.1875 21.5625 C4.19974609 22.59052734 4.21199219 23.61855469 4.22460938 24.67773438 C4.22654297 25.67224609 4.22847656 26.66675781 4.23046875 27.69140625 C4.23457764 28.59060791 4.23868652 29.48980957 4.24291992 30.41625977 C3.97522292 33.26353351 3.08589036 35.3694713 2 38 C1.92353835 40.3320802 1.90856701 42.66845878 2 45 C1.34 45 0.68 45 0 45 C-0.1675655 39.07365273 -0.32813049 33.14717308 -0.48217773 27.22045898 C-0.53558505 25.20380535 -0.59091343 23.18720165 -0.64819336 21.1706543 C-0.73013953 18.27403531 -0.80520145 15.37730769 -0.87890625 12.48046875 C-0.90594131 11.57725388 -0.93297638 10.674039 -0.96083069 9.74345398 C-0.98092697 8.90280899 -1.00102325 8.062164 -1.02172852 7.19604492 C-1.04171402 6.45658127 -1.06169952 5.71711761 -1.08229065 4.95524597 C-1 3 -1 3 0 0 Z " fill="#8BF980" transform="translate(133,361)"/>
<path d="M0 0 C0.33 0 0.66 0 1 0 C1 7.26 1 14.52 1 22 C1.66 22 2.32 22 3 22 C2.67 21.34 2.34 20.68 2 20 C1.91627341 18.47851674 1.89269973 16.95344222 1.90234375 15.4296875 C1.90556641 14.53378906 1.90878906 13.63789063 1.91210938 12.71484375 C1.92048828 11.77769531 1.92886719 10.84054687 1.9375 9.875 C1.94201172 8.93011719 1.94652344 7.98523438 1.95117188 7.01171875 C1.96297643 4.67441613 1.97944241 2.33723939 2 0 C2.66 0.33 3.32 0.66 4 1 C3.96519531 2.47919922 3.96519531 2.47919922 3.9296875 3.98828125 C3.76453244 14.76722963 4.412122 25.38359554 5.28417969 36.12548828 C5.96618932 44.78110148 6.23925168 53.32048083 6 62 C5.67 62 5.34 62 5 62 C4.95101562 61.07316406 4.90203125 60.14632812 4.8515625 59.19140625 C4.77679688 57.99386719 4.70203125 56.79632813 4.625 55.5625 C4.55539063 54.36753906 4.48578125 53.17257812 4.4140625 51.94140625 C4.27742187 50.97074219 4.14078125 50.00007813 4 49 C3.34 48.67 2.68 48.34 2 48 C2.02320313 46.74703125 2.04640625 45.4940625 2.0703125 44.203125 C2.08907427 42.5520893 2.10727403 40.90104715 2.125 39.25 C2.14175781 38.425 2.15851563 37.6 2.17578125 36.75 C2.18222656 35.95078125 2.18867188 35.1515625 2.1953125 34.328125 C2.20578613 33.5949707 2.21625977 32.86181641 2.22705078 32.10644531 C2.12689451 29.95772146 2.12689451 29.95772146 1 28.109375 C-0.3389755 25.28497356 -0.22586619 23.03835109 -0.1953125 19.921875 C-0.18886719 18.76171875 -0.18242187 17.6015625 -0.17578125 16.40625 C-0.15902344 15.1996875 -0.14226562 13.993125 -0.125 12.75 C-0.11597656 11.52796875 -0.10695312 10.3059375 -0.09765625 9.046875 C-0.07409513 6.03105218 -0.04119706 3.01562508 0 0 Z " fill="#0C110B" transform="translate(169,443)"/>
<path d="M0 0 C2.215015 3.3225225 2.19410876 3.87731591 1.6875 7.625 C1.58824219 8.42164063 1.48898438 9.21828125 1.38671875 10.0390625 C1 12 1 12 0 13 C-0.93971951 21.02822102 -1.0476904 29.06115704 -0.96875 37.1328125 C-1.00570883 40.52378513 -1.38070137 43.67126985 -2 47 C-2.66 47 -3.32 47 -4 47 C-3.938125 47.845625 -3.87625 48.69125 -3.8125 49.5625 C-4.04319663 53.79193829 -5.08213251 56.23802916 -7 60 C-7.99 60.495 -7.99 60.495 -9 61 C-8.7098066 59.66634524 -8.41774108 58.33309785 -8.125 57 C-7.96257813 56.2575 -7.80015625 55.515 -7.6328125 54.75 C-7.13936633 52.60564134 -6.58590813 50.47506436 -6.00927734 48.3515625 C-4.95000356 44.11470809 -4.51440649 39.97360407 -4.21875 35.625 C-4.15973511 34.85623535 -4.10072021 34.0874707 -4.03991699 33.29541016 C-3.85342989 30.86404284 -3.67559272 28.43217679 -3.5 26 C-3.26832487 22.79101229 -3.02750711 19.5828981 -2.78125 16.375 C-2.73222534 15.65393066 -2.68320068 14.93286133 -2.63269043 14.18994141 C-2.25412325 9.27284722 -1.3019463 4.75865382 0 0 Z " fill="#0D120C" transform="translate(39,186)"/>
<path d="M0 0 C5.88988016 -0.04950439 11.7796387 -0.0857692 17.66967773 -0.10986328 C19.67262889 -0.11990963 21.67556542 -0.13354909 23.6784668 -0.15087891 C26.56042088 -0.17518713 29.44218072 -0.18649687 32.32421875 -0.1953125 C33.21711105 -0.20563507 34.11000336 -0.21595764 35.029953 -0.22659302 C39.4717257 -0.22739134 42.96349427 -0.10378748 47 2 C47.495 5.465 47.495 5.465 48 9 C47.01 8.67 46.02 8.34 45 8 C45 7.01 45 6.02 45 5 C43.71416016 5.05220703 43.71416016 5.05220703 42.40234375 5.10546875 C41.25894531 5.13253906 40.11554688 5.15960938 38.9375 5.1875 C37.81214844 5.22230469 36.68679687 5.25710938 35.52734375 5.29296875 C32.13140809 5.01091429 30.15127881 4.13383325 27.12670898 2.70581055 C22.32691445 1.11285842 17.07358577 1.41220893 12.0625 1.3125 C10.32129883 1.26125977 10.32129883 1.26125977 8.54492188 1.20898438 C5.69671118 1.12693715 2.84879161 1.05764464 0 1 C0 0.67 0 0.34 0 0 Z " fill="#276623" transform="translate(74,407)"/>
<path d="M0 0 C0.33 0 0.66 0 1 0 C1 8.58 1 17.16 1 26 C0.34 26 -0.32 26 -1 26 C-2.7538308 44.40356226 -3.26062021 62.52804176 -3 81 C-3.33 81 -3.66 81 -4 81 C-6.52063648 53.81313507 -3.71422408 26.96089718 0 0 Z " fill="#64B85B" transform="translate(75,308)"/>
<path d="M0 0 C1.2065625 0.0309375 1.2065625 0.0309375 2.4375 0.0625 C1.798125 0.289375 1.15875 0.51625 0.5 0.75 C-1.74008326 1.85915843 -1.74008326 1.85915843 -2.16015625 4.06640625 C-2.81808112 8.9657109 -2.96039608 13.8846957 -3.16796875 18.8203125 C-3.45984832 24.95984832 -3.45984832 24.95984832 -4.5625 26.0625 C-4.78920908 27.62003051 -4.95685092 29.18627359 -5.09765625 30.75390625 C-5.22817383 32.17026367 -5.22817383 32.17026367 -5.36132812 33.61523438 C-5.44833984 34.60845703 -5.53535156 35.60167969 -5.625 36.625 C-5.76131836 38.12063477 -5.76131836 38.12063477 -5.90039062 39.64648438 C-6.12508814 42.11815702 -6.34560351 44.59013256 -6.5625 47.0625 C-7.5525 47.0625 -8.5425 47.0625 -9.5625 47.0625 C-9.50191406 46.28390625 -9.44132812 45.5053125 -9.37890625 44.703125 C-8.58970348 34.16423257 -8.06162751 23.61851593 -7.5625 13.0625 C-7.2325 13.0625 -6.9025 13.0625 -6.5625 13.0625 C-6.35753906 12.20785156 -6.15257813 11.35320312 -5.94140625 10.47265625 C-5.67199219 9.36792969 -5.40257813 8.26320313 -5.125 7.125 C-4.85816406 6.02285156 -4.59132813 4.92070312 -4.31640625 3.78515625 C-3.29051578 0.08025648 -3.29051578 0.08025648 0 0 Z " fill="#81E077" transform="translate(126.5625,359.9375)"/>
<path d="M0 0 C0.66 0 1.32 0 2 0 C1.53371056 3.07751032 0.8423975 5.31520499 -0.5625 8.125 C-3.16888236 13.97658392 -2.62497195 20.88995812 -1.375 27.0625 C-0.27867415 30.23229214 -0.27867415 30.23229214 2.75 31.25 C3.8225 31.4975 4.895 31.745 6 32 C8.01470098 32.97004121 10.01922047 33.96244882 12 35 C10.68 35.66 9.36 36.32 8 37 C7.01 36.34 6.02 35.68 5 35 C4.21625 34.731875 3.4325 34.46375 2.625 34.1875 C-0.91018754 32.58824849 -2.60291115 31.08931748 -5 28 C-5.68587409 24.64828267 -5.60867359 21.40839892 -5.5 18 C-5.50257813 17.11054687 -5.50515625 16.22109375 -5.5078125 15.3046875 C-5.43577201 10.47797447 -5.26370965 6.83965841 -2 3 C-1.34 3 -0.68 3 0 3 C0 2.01 0 1.02 0 0 Z " fill="#0D120D" transform="translate(147,86)"/>
<path d="M0 0 C2 1 2 1 3.1105957 3.12841797 C4.16424105 6.53027813 4.24254498 9.38448085 4.23046875 12.9453125 C4.23001053 13.59700409 4.22955231 14.24869568 4.2290802 14.9201355 C4.22607337 16.29003738 4.21823438 17.65993632 4.20581055 19.02978516 C4.18749608 21.12544867 4.18530153 23.22067083 4.18554688 25.31640625 C4.14784483 35.5564655 4.14784483 35.5564655 3 39 C1.515 39.495 1.515 39.495 0 40 C0 26.8 0 13.6 0 0 Z " fill="#0F140E" transform="translate(133,452)"/>
<path d="M0 0 C0.66 0 1.32 0 2 0 C1.125 7.625 1.125 7.625 0 11 C-0.43121636 14.4932149 -0.81069817 17.98639216 -1.16210938 21.48828125 C-2.46070568 33.46070568 -2.46070568 33.46070568 -6 37 C-9.125 36.625 -9.125 36.625 -12 36 C-10 34 -10 34 -7 33 C-6.89453857 32.28457031 -6.78907715 31.56914063 -6.68041992 30.83203125 C-6.19183913 27.55326444 -5.68978044 24.27669494 -5.1875 21 C-5.02185547 19.87464844 -4.85621094 18.74929688 -4.68554688 17.58984375 C-3.71974672 11.35769934 -2.4822588 5.80379135 0 0 Z " fill="#222722" transform="translate(110,621)"/>
<path d="M0 0 C1.89248547 3.14316379 2.17366367 4.84612315 1.390625 8.4140625 C1.21273437 9.25839844 1.03484375 10.10273438 0.8515625 10.97265625 C0.65304688 11.84792969 0.45453125 12.72320312 0.25 13.625 C0.06695312 14.47707031 -0.11609375 15.32914062 -0.3046875 16.20703125 C-0.67421374 17.92714989 -1.04855876 19.64624046 -1.42773438 21.36425781 C-2.33983321 25.5652045 -3.17064844 29.78205809 -4 34 C-4.66 34 -5.32 34 -6 34 C-5.67 41.26 -5.34 48.52 -5 56 C-5.66 56 -6.32 56 -7 56 C-7 47.75 -7 39.5 -7 31 C-6.34 31 -5.68 31 -5 31 C-5.33 30.01 -5.66 29.02 -6 28 C-5.96389121 26.20567107 -5.85152891 24.41218064 -5.6875 22.625 C-5.60886719 21.68914062 -5.53023437 20.75328125 -5.44921875 19.7890625 C-4.99024536 16.93943643 -4.09389223 14.6590661 -3 12 C-2.63120903 9.93131769 -2.63120903 9.93131769 -2.5 7.9375 C-2.08188387 4.64483547 -1.71823274 2.74917239 0 0 Z " fill="#2C322B" transform="translate(177,409)"/>
<path d="M0 0 C0.33 0 0.66 0 1 0 C3.37756672 9.74753736 4.71141825 19.2736405 5.50805664 29.25292969 C5.68959608 31.526248 5.88376405 33.79822643 6.08007812 36.0703125 C6.58531193 42.05525805 7.08182403 47.98796488 7 54 C5.3226387 51.02730987 4.67146103 48.62485146 4.3671875 45.234375 C4.28339844 44.34492188 4.19960937 43.45546875 4.11328125 42.5390625 C4.03464844 41.61867187 3.95601562 40.69828125 3.875 39.75 C3.74544922 38.34621094 3.74544922 38.34621094 3.61328125 36.9140625 C3.40167692 34.60992647 3.19751323 32.30537956 3 30 C2.34 30 1.68 30 1 30 C0.93941406 28.94039062 0.87882813 27.88078125 0.81640625 26.7890625 C0.73199873 25.40102779 0.64735083 24.01300768 0.5625 22.625 C0.52318359 21.92632812 0.48386719 21.22765625 0.44335938 20.5078125 C0.25719866 16.62639508 0.25719866 16.62639508 -1 13 C-1.14856188 8.46886254 -1.10529324 4.42117296 0 0 Z " fill="#0C120B" transform="translate(212,181)"/>
<path d="M0 0 C0.66 0 1.32 0 2 0 C2.20086443 3.71599191 2.1519437 4.77208445 0 8 C-0.38499891 9.65549531 -0.72793135 11.3222433 -1 13 C2.42578949 9.82460444 2.42578949 9.82460444 5 6 C6.65 6 8.3 6 10 6 C10.33 7.32 10.66 8.64 11 10 C9.68 9.34 8.36 8.68 7 8 C6.34 11.63 5.68 15.26 5 19 C5.66 19.33 6.32 19.66 7 20 C6.67 20.66 6.34 21.32 6 22 C-0.875 19.125 -0.875 19.125 -2 18 C-2.41654639 11.77117843 -2.57708209 5.79843469 0 0 Z " fill="#1F2D1D" transform="translate(207,348)"/>
<path d="M0 0 C4.08327357 -0.0580772 8.16644083 -0.09362249 12.25 -0.125 C13.98830078 -0.15013672 13.98830078 -0.15013672 15.76171875 -0.17578125 C16.87675781 -0.18222656 17.99179688 -0.18867188 19.140625 -0.1953125 C20.68024902 -0.21102295 20.68024902 -0.21102295 22.25097656 -0.22705078 C25 0 25 0 29 2 C20.42 2 11.84 2 3 2 C4.23996449 12.04410563 4.23996449 12.04410563 6 22 C6.33944795 23.99897128 6.67421616 25.99875639 7 28 C6.34 28.33 5.68 28.66 5 29 C2.22943437 19.41384294 0.99615846 9.89126749 0 0 Z " fill="#0A1E0A" transform="translate(74,408)"/>
<path d="M0 0 C3.45073772 3.73161172 4.30609302 7.95096214 5.5 12.75 C5.71358154 13.58313721 5.92716309 14.41627441 6.1472168 15.2746582 C8.11629728 23.12045752 9.64741795 31.0274635 11 39 C9.68 38.67 8.36 38.34 7 38 C6.95101562 37.40832031 6.90203125 36.81664062 6.8515625 36.20703125 C6.40206393 31.2060699 6.40206393 31.2060699 4.9375 26.4375 C3.9714758 23.92583708 3.92874361 22.46323763 4 19.8125 C4 18.554375 4 17.29625 4 16 C3.34 15.34 2.68 14.68 2 14 C1.62532618 11.95632461 1.49603939 9.94613566 1.34375 7.875 C1.13964634 5.76097714 1.13964634 5.76097714 -1 4 C-0.625 1.875 -0.625 1.875 0 0 Z " fill="#151814" transform="translate(202,141)"/>
<path d="M0 0 C0.99 0 1.98 0 3 0 C3 1.98 3 3.96 3 6 C2.01 5.67 1.02 5.34 0 5 C-0.14115234 5.72453369 -0.28230469 6.44906738 -0.42773438 7.19555664 C-0.95307225 9.77002599 -1.5366851 12.31791121 -2.15625 14.87109375 C-2.37410156 15.77537109 -2.59195313 16.67964844 -2.81640625 17.61132812 C-3.27124285 19.49175258 -3.72696861 21.37196219 -4.18359375 23.25195312 C-5.28235561 27.81929163 -6.31648954 32.34746857 -7 37 C-7.66 36.67 -8.32 36.34 -9 36 C-9.05429959 34.25034642 -9.09292823 32.50020213 -9.125 30.75 C-9.15980469 29.28820312 -9.15980469 29.28820312 -9.1953125 27.796875 C-8.99520027 24.93126792 -8.3798964 23.46708751 -7 21 C-6.61709538 19.00889599 -6.27395385 17.00899487 -6 15 C-5.34 15 -4.68 15 -4 15 C-4.185625 14.236875 -4.37125 13.47375 -4.5625 12.6875 C-5 10 -5 10 -4 7 C-3.01 7 -2.02 7 -1 7 C-1.309375 5.824375 -1.309375 5.824375 -1.625 4.625 C-1.74875 3.75875 -1.8725 2.8925 -2 2 C-1.34 1.34 -0.68 0.68 0 0 Z " fill="#191D18" transform="translate(181,206)"/>
<path d="M0 0 C0.33 0 0.66 0 1 0 C1.28843449 6.04638479 1.57311598 12.09293106 1.85449219 18.13964844 C1.95049452 20.19177893 2.04747858 22.24386377 2.14550781 24.29589844 C3.18928963 46.1727133 3.18928963 46.1727133 3 56 C2.34 55.67 1.68 55.34 1 55 C-0.47930939 49.36870389 -0.12631066 43.47388695 -0.09765625 37.6953125 C-0.0962413 36.61619598 -0.09482635 35.53707947 -0.09336853 34.42526245 C-0.08778844 30.99181298 -0.07523955 27.55842964 -0.0625 24.125 C-0.05748243 21.79166761 -0.05291997 19.4583342 -0.04882812 17.125 C-0.03782553 11.41664425 -0.02110721 5.70832685 0 0 Z " fill="#2B2D2B" transform="translate(224,266)"/>
<path d="M0 0 C0.99 0 1.98 0 3 0 C3.02684312 2.81256281 3.04676188 5.62487241 3.0625 8.4375 C3.07087891 9.23994141 3.07925781 10.04238281 3.08789062 10.86914062 C3.0965143 12.91295221 3.0522815 14.95683902 3 17 C2.67 17.33 2.34 17.66 2 18 C1.38752625 22.89979 2.90365454 27.61077669 5 32 C7.49032405 34.54892997 7.49032405 34.54892997 10 36 C9.505 38.475 9.505 38.475 9 41 C8.5875 40.443125 8.175 39.88625 7.75 39.3125 C6.04752905 36.96516881 6.04752905 36.96516881 4 34.9375 C0.5848768 29.9215378 -1.28338864 23.89056415 -0.6875 17.8125 C-0.460625 16.884375 -0.23375 15.95625 0 15 C0.28339195 10.18233679 -0.18795877 5.75624147 -1 1 C-0.67 0.67 -0.34 0.34 0 0 Z " fill="#0D110C" transform="translate(92,38)"/>
<path d="M0 0 C0.74056641 0.00451172 1.48113281 0.00902344 2.24414062 0.01367188 C4.05862899 0.02537825 5.87307534 0.04331102 7.6875 0.0625 C7.3575 0.7225 7.0275 1.3825 6.6875 2.0625 C-0.0625 2.1875 -0.0625 2.1875 -2.3125 1.0625 C-2.3125 1.7225 -2.3125 2.3825 -2.3125 3.0625 C-5.41445648 3.99380333 -8.0255692 4.08654919 -11.25 3.9375 C-15.50048271 3.90005081 -17.93630784 4.28210646 -21.3125 7.0625 C-22.034375 7.784375 -22.75625 8.50625 -23.5 9.25 C-24.098125 9.848125 -24.69625 10.44625 -25.3125 11.0625 C-25.9725 11.0625 -26.6325 11.0625 -27.3125 11.0625 C-27.6425 12.0525 -27.9725 13.0425 -28.3125 14.0625 C-29.3025 13.7325 -30.2925 13.4025 -31.3125 13.0625 C-25.78160737 5.28527214 -20.04903616 2.7892344 -10.99609375 0.46875 C-7.32892137 -0.08639691 -3.69789899 -0.0429604 0 0 Z " fill="#0B0F0A" transform="translate(127.3125,4.9375)"/>
<path d="M0 0 C0.66 0 1.32 0 2 0 C2 0.66 2 1.32 2 2 C2.99 2 3.98 2 5 2 C7.09228435 8.70808725 7.08264898 14.52542962 6.625 21.5 C6.56828125 22.51320313 6.5115625 23.52640625 6.453125 24.5703125 C6.31289448 27.04771836 6.16162278 29.52391344 6 32 C5.34 31.67 4.68 31.34 4 31 C3.63696289 28.77856445 3.63696289 28.77856445 3.47265625 25.86328125 C3.40240234 24.81076172 3.33214844 23.75824219 3.25976562 22.67382812 C3.12941081 20.45263368 3.00175724 18.23127887 2.87695312 16.00976562 C2.49079623 10.2939478 2.12847426 5.86746267 -1 1 C-0.67 0.67 -0.34 0.34 0 0 Z " fill="#90F687" transform="translate(173,315)"/>
<path d="M0 0 C1.25841946 6.74153283 2.26404456 13.13484138 2 20 C-0.1519437 16.77208445 -0.20086443 15.71599191 0 12 C-0.99 12 -1.98 12 -3 12 C-3.33 10.68 -3.66 9.36 -4 8 C-6.31 7.67 -8.62 7.34 -11 7 C-10.01 6.67 -9.02 6.34 -8 6 C-8.33 4.68 -8.66 3.36 -9 2 C-2.25 0 -2.25 0 0 0 Z " fill="#88FB7D" transform="translate(178,305)"/>
<path d="M0 0 C0.66 0 1.32 0 2 0 C2.09252694 4.83196224 2.10854579 9.57520221 1.5 14.375 C0.5289126 22.85491814 0.91937083 31.47811661 1 40 C-1 39 -1 39 -1.61669922 37.23095703 C-2.02076961 34.87911292 -2.12946617 32.6906231 -2.1328125 30.3046875 C-2.13410156 29.42425781 -2.13539062 28.54382813 -2.13671875 27.63671875 C-2.13285156 26.72535156 -2.12898438 25.81398438 -2.125 24.875 C-2.12886719 23.95589844 -2.13273437 23.03679687 -2.13671875 22.08984375 C-2.13542969 21.21199219 -2.13414063 20.33414062 -2.1328125 19.4296875 C-2.13168457 18.62772949 -2.13055664 17.82577148 -2.12939453 16.99951172 C-2 15 -2 15 -1 13 C-0.77049681 10.795636 -0.58924067 8.58607827 -0.4375 6.375 C-0.35371094 5.18648438 -0.26992187 3.99796875 -0.18359375 2.7734375 C-0.12300781 1.85820312 -0.06242187 0.94296875 0 0 Z " fill="#2C2F2C" transform="translate(117,446)"/>
<path d="M0 0 C1.23556641 0.01740234 1.23556641 0.01740234 2.49609375 0.03515625 C3.32238281 0.04417969 4.14867188 0.05320312 5 0.0625 C5.63808594 0.07410156 6.27617187 0.08570313 6.93359375 0.09765625 C7.59359375 1.41765625 8.25359375 2.73765625 8.93359375 4.09765625 C6.62359375 4.09765625 4.31359375 4.09765625 1.93359375 4.09765625 C0.24798108 9.31209221 -0.45153323 14.0730476 -0.69140625 19.53515625 C-0.73007813 20.26669922 -0.76875 20.99824219 -0.80859375 21.75195312 C-0.90174609 23.53349157 -0.98510911 25.31553747 -1.06640625 27.09765625 C-1.39640625 27.09765625 -1.72640625 27.09765625 -2.06640625 27.09765625 C-3.52054412 7.85629626 -3.52054412 7.85629626 -3.06640625 1.09765625 C-2.06640625 0.09765625 -2.06640625 0.09765625 0 0 Z " fill="#A3F99A" transform="translate(122.06640625,356.90234375)"/>
<path d="M0 0 C0.99 0.33 1.98 0.66 3 1 C3 6.28 3 11.56 3 17 C2.34 17 1.68 17 1 17 C1.33 21.29 1.66 25.58 2 30 C1.01 30 0.02 30 -1 30 C-0.67 20.1 -0.34 10.2 0 0 Z " fill="#0C100B" transform="translate(80,443)"/>
<path d="M0 0 C0.15602933 3.8227187 0.05501008 6.81879034 -1.0625 10.5 C-2.57645658 16.15210457 -1.38167738 20.76030976 1 26 C0.01 26.33 -0.98 26.66 -2 27 C-4.9815436 21.28537476 -5.64077536 16.43239876 -5 10 C-4.67 9.67 -4.34 9.34 -4 9 C-3.72046781 6.9412232 -3.55265649 4.88271568 -3.37890625 2.8125 C-3.25386719 2.214375 -3.12882812 1.61625 -3 1 C-1 0 -1 0 0 0 Z " fill="#262B25" transform="translate(43,314)"/>
<path d="M0 0 C0.33 0 0.66 0 1 0 C1.08564209 0.84183838 1.17128418 1.68367676 1.25952148 2.55102539 C1.5808258 5.70267143 1.90339912 8.85418438 2.22680664 12.00561523 C2.36597988 13.36428793 2.50466115 14.72301112 2.64282227 16.08178711 C2.84258762 18.04554541 3.0443251 20.00910277 3.24609375 21.97265625 C3.36654053 23.15093994 3.4869873 24.32922363 3.61108398 25.54321289 C4.00461044 29.04097881 4.48483358 32.51825262 5 36 C4.34 36 3.68 36 3 36 C-0.02456615 28.04587978 -0.37114033 20.8224553 -0.1875 12.375 C-0.17396484 11.18003906 -0.16042969 9.98507813 -0.14648438 8.75390625 C-0.11146292 5.835452 -0.06234993 2.91797652 0 0 Z " fill="#2A2D2A" transform="translate(214,202)"/>
<path d="M0 0 C0.33 0 0.66 0 1 0 C2.43794854 8.07562173 3.29599372 15.7943963 3 24 C2.34 24 1.68 24 1 24 C-1.46623808 16.44714587 -1.42723601 8.87902686 -1 1 C-0.67 0.67 -0.34 0.34 0 0 Z " fill="#131713" transform="translate(173,248)"/>
<path d="M0 0 C0.33 0.99 0.66 1.98 1 3 C0.03126968 4.35622245 -0.97676564 5.68441297 -2 7 C-2.45375 8.155 -2.9075 9.31 -3.375 10.5 C-5.12904589 14.27794499 -6.51825529 15.79206433 -10 18 C-12.3125 18.75 -12.3125 18.75 -14 19 C-14.33 18.01 -14.66 17.02 -15 16 C-15.99 15.67 -16.98 15.34 -18 15 C-16 14 -16 14 -14.125 14.5 C-11.59115517 15.09619878 -10.36541736 15.10386144 -8 14 C-7.32044536 12.3385465 -6.6559984 10.67089447 -6 9 C-4.99958424 7.36978883 -3.95760047 5.76433112 -2.875 4.1875 C-2.33617187 3.39730469 -1.79734375 2.60710937 -1.2421875 1.79296875 C-0.83226562 1.20128906 -0.42234375 0.60960937 0 0 Z " fill="#161C15" transform="translate(229,352)"/>
<path d="M0 0 C1.20628008 2.33214148 2.1654738 4.49642139 3 7 C4.32 6.67 5.64 6.34 7 6 C7 4.35 7 2.7 7 1 C8.65 1.33 10.3 1.66 12 2 C12.33 3.32 12.66 4.64 13 6 C12.01 6 11.02 6 10 6 C9.34 7.32 8.68 8.64 8 10 C5.29686424 10.21917317 3.56041618 10.32851983 1.1875 8.9375 C-0.60842137 6.00731249 -0.18977574 3.3527047 0 0 Z " fill="#0B100B" transform="translate(146,648)"/>
<path d="M0 0 C0.33 0 0.66 0 1 0 C1.33 1.98 1.66 3.96 2 6 C2.33 6 2.66 6 3 6 C3.23268915 12.28260706 2.40454548 17.88019467 1 24 C0.01 24.33 -0.98 24.66 -2 25 C-2.09765625 18.84765625 -2.09765625 18.84765625 -2 17 C-1.67 16.67 -1.34 16.34 -1 16 C-0.76321284 13.30764224 -0.57801975 10.63501844 -0.4375 7.9375 C-0.39431641 7.17888672 -0.35113281 6.42027344 -0.30664062 5.63867188 C-0.20026367 3.75934562 -0.09960066 1.87969756 0 0 Z " fill="#141813" transform="translate(52,261)"/>
<path d="M0 0 C0.99 0 1.98 0 3 0 C2.67 2.64 2.34 5.28 2 8 C-4.05525768 9.38766322 -7.32010626 8.49118146 -13 6 C-12.34 5.34 -11.68 4.68 -11 4 C-7.55834679 4.35299007 -5.93127462 5.04581692 -3 7 C-2.87625 6.21625 -2.7525 5.4325 -2.625 4.625 C-2 2 -2 2 0 0 Z " fill="#0F140F" transform="translate(96,648)"/>
<path d="M0 0 C0.33 0.99 0.66 1.98 1 3 C1.66 3 2.32 3 3 3 C3 7.29 3 11.58 3 16 C2.34 16 1.68 16 1 16 C0.86722656 16.62648438 0.73445312 17.25296875 0.59765625 17.8984375 C0.42105469 18.71570313 0.24445313 19.53296875 0.0625 20.375 C-0.11152344 21.18710937 -0.28554687 21.99921875 -0.46484375 22.8359375 C-1 25 -1 25 -2 27 C-2.66 27 -3.32 27 -4 27 C-2.30041725 18.70097357 -2.30041725 18.70097357 -0.875 15.375 C0.8995298 10.55841912 0.00776223 5.89484514 -1 1 C-0.67 0.67 -0.34 0.34 0 0 Z " fill="#0F160E" transform="translate(211,320)"/>
<path d="M0 0 C0 3.33333333 0 6.66666667 0 10 C-0.66 10 -1.32 10 -2 10 C-1.67 10.66 -1.34 11.32 -1 12 C-0.91691362 13.37548156 -0.89263984 14.75485796 -0.90234375 16.1328125 C-0.90717773 17.34130859 -0.90717773 17.34130859 -0.91210938 18.57421875 C-0.92048828 19.41597656 -0.92886719 20.25773437 -0.9375 21.125 C-0.94201172 21.97449219 -0.94652344 22.82398438 -0.95117188 23.69921875 C-0.96297126 25.79950909 -0.98090694 27.8997633 -1 30 C-1.99 30.33 -2.98 30.66 -4 31 C-3.88986124 26.93695446 -3.75929135 22.87481333 -3.625 18.8125 C-3.5940625 17.66201172 -3.563125 16.51152344 -3.53125 15.32617188 C-3.49257813 14.21435547 -3.45390625 13.10253906 -3.4140625 11.95703125 C-3.3826416 10.93585205 -3.3512207 9.91467285 -3.31884766 8.86254883 C-2.9608892 5.64887128 -2.36632241 2.36632241 0 0 Z " fill="#0C120C" transform="translate(30,248)"/>
<path d="M0 0 C0.33 0 0.66 0 1 0 C1.17788718 4.536123 1.19471623 7.97635357 -1 12 C-3.3828125 13.36328125 -3.3828125 13.36328125 -6.125 14.3125 C-7.03507813 14.63863281 -7.94515625 14.96476563 -8.8828125 15.30078125 C-9.58148438 15.53152344 -10.28015625 15.76226563 -11 16 C-10.1953125 14.078125 -10.1953125 14.078125 -9 12 C-5.875 10.75 -5.875 10.75 -3 10 C-3 7.69 -3 5.38 -3 3 C-2.01 3 -1.02 3 0 3 C0 2.01 0 1.02 0 0 Z " fill="#171B17" transform="translate(172,641)"/>
<path d="M0 0 C0.66 0.33 1.32 0.66 2 1 C1.48914188 7.43681228 0.27057103 12.95942424 -2 19 C-4.18602942 15.5415057 -4.05410732 13.45533873 -3.25 9.5 C-2.97929688 8.09234375 -2.97929688 8.09234375 -2.703125 6.65625 C-2.05363017 4.20260285 -1.23000142 2.20983307 0 0 Z " fill="#161B16" transform="translate(66,213)"/>
<path d="M0 0 C0.66 0 1.32 0 2 0 C1.33501617 4.38889325 -0.18757677 7.9811485 -2 12 C-2.66 12 -3.32 12 -4 12 C-3.67 16.62 -3.34 21.24 -3 26 C-3.66 26.33 -4.32 26.66 -5 27 C-5.08115993 23.93696422 -5.14057409 20.87609185 -5.1875 17.8125 C-5.21263672 16.94818359 -5.23777344 16.08386719 -5.26367188 15.19335938 C-5.31933634 10.35055062 -5.30477143 6.86490218 -2 3 C-1.34 3 -0.68 3 0 3 C0 2.01 0 1.02 0 0 Z " fill="#232723" transform="translate(147,86)"/>
<path d="M0 0 C0.99 0 1.98 0 3 0 C3 6.93 3 13.86 3 21 C1 17 1 17 1 14 C0.34 14 -0.32 14 -1 14 C-1.02685938 11.85423363 -1.04633088 9.70837355 -1.0625 7.5625 C-1.07410156 6.36753906 -1.08570313 5.17257813 -1.09765625 3.94140625 C-1 1 -1 1 0 0 Z " fill="#1E241E" transform="translate(158,41)"/>
<path d="M0 0 C0.99 0 1.98 0 3 0 C2.67 7.26 2.34 14.52 2 22 C1.34 21.67 0.68 21.34 0 21 C0 14.07 0 7.14 0 0 Z " fill="#232623" transform="translate(157,594)"/>
<path d="M0 0 C1.98 0 3.96 0 6 0 C6 0.66 6 1.32 6 2 C6.99 2.33 7.98 2.66 9 3 C9 4.65 9 6.3 9 8 C7.68 8.33 6.36 8.66 5 9 C5 7.02 5 5.04 5 3 C4.67 3.99 4.34 4.98 4 6 C3.67 6.99 3.34 7.98 3 9 C2.34 8.67 1.68 8.34 1 8 C0.40644386 5.35139573 0.25790731 2.70802678 0 0 Z " fill="#262F25" transform="translate(34,355)"/>
<path d="M0 0 C2 1 2 1 4 4 C4.265625 7.28515625 4.265625 7.28515625 4.25 11.0625 C4.25515625 12.31160156 4.2603125 13.56070313 4.265625 14.84765625 C4 18 4 18 2 20 C1.66254646 17.60468244 1.3299171 15.20885732 1 12.8125 C0.90460938 12.13896484 0.80921875 11.46542969 0.7109375 10.77148438 C0.21675387 7.15335423 -0.11346131 3.65203599 0 0 Z " fill="#0E130E" transform="translate(143,630)"/>
<path d="M0 0 C0.97608217 2.92824652 1.08226668 4.95613276 1 8 C0.34 8 -0.32 8 -1 8 C-1 11.63 -1 15.26 -1 19 C-1.66 19 -2.32 19 -3 19 C-3.33 20.65 -3.66 22.3 -4 24 C-5.07957773 20.7612668 -4.92256147 19.62529401 -4.2578125 16.3671875 C-4.07863281 15.47902344 -3.89945313 14.59085938 -3.71484375 13.67578125 C-3.52019531 12.75152344 -3.32554688 11.82726562 -3.125 10.875 C-2.93808594 9.94300781 -2.75117187 9.01101562 -2.55859375 8.05078125 C-1.14028159 1.14028159 -1.14028159 1.14028159 0 0 Z " fill="#0B100A" transform="translate(44,161)"/>
<path d="M0 0 C0.66 0.33 1.32 0.66 2 1 C2.20086443 4.71599191 2.1519437 5.77208445 0 9 C0.66 9.33 1.32 9.66 2 10 C1.01 10 0.02 10 -1 10 C-1.33 10.99 -1.66 11.98 -2 13 C-2.66 13 -3.32 13 -4 13 C-4.33 13.66 -4.66 14.32 -5 15 C-6.9375 15.75 -6.9375 15.75 -9 16 C-9.66 15.34 -10.32 14.68 -11 14 C-10.0925 13.608125 -9.185 13.21625 -8.25 12.8125 C-4.75548947 10.86363836 -3.11641679 9.3705897 -1 6 C-0.20309162 2.81237891 -0.20309162 2.81237891 0 0 Z M-14 15 C-11 16 -11 16 -11 16 Z " fill="#0C110C" transform="translate(108,105)"/>
<path d="M0 0 C0.66 0 1.32 0 2 0 C2 4.95 2 9.9 2 15 C-0.31 15.66 -2.62 16.32 -5 17 C-4.67 15.68 -4.34 14.36 -4 13 C-3.01 13 -2.02 13 -1 13 C-0.67 8.71 -0.34 4.42 0 0 Z " fill="#426A3D" transform="translate(45,352)"/>
<path d="M0 0 C0.99 0.66 1.98 1.32 3 2 C-0.36342833 9.5319326 -0.36342833 9.5319326 -3.125 11.5625 C-6.00990476 13.77426031 -6.222834 16.56751683 -7 20 C-7.33 20 -7.66 20 -8 20 C-8.50632171 14.68362203 -7.24708376 12.17482197 -4 8 C-3.443125 7.484375 -2.88625 6.96875 -2.3125 6.4375 C-0.50757987 4.46068272 -0.35180925 2.60338842 0 0 Z " fill="#151914" transform="translate(158,62)"/>
<path d="M0 0 C0.33 0 0.66 0 1 0 C1.93405696 6.75297935 2.77411991 13.56007878 0 20 C-0.99 20.66 -1.98 21.32 -3 22 C-2.67 19.69 -2.34 17.38 -2 15 C-1.34 15 -0.68 15 0 15 C-0.24363281 14.17048828 -0.24363281 14.17048828 -0.4921875 13.32421875 C-1.05280849 10.7582996 -1.13275333 8.43700323 -1.125 5.8125 C-1.12757813 4.93207031 -1.13015625 4.05164063 -1.1328125 3.14453125 C-1 1 -1 1 0 0 Z " fill="#222621" transform="translate(170,532)"/>
<path d="M0 0 C0.33 0 0.66 0 1 0 C1.99 4.95 2.98 9.9 4 15 C3.01 15.33 2.02 15.66 1 16 C-1.96968084 11.54547875 -1.34903947 7.09423683 -0.5 2 C-0.335 1.34 -0.17 0.68 0 0 Z " fill="#121711" transform="translate(212,181)"/>
<path d="M0 0 C7.13393752 0.51537952 14.01812817 1.44005901 21 3 C20.34 3.66 19.68 4.32 19 5 C18.01 5 17.02 5 16 5 C16 4.34 16 3.68 16 3 C15.01 3.33 14.02 3.66 13 4 C11.14261676 3.93928316 9.28691887 3.80723302 7.4375 3.625 C6.46683594 3.53476563 5.49617187 3.44453125 4.49609375 3.3515625 C2 3 2 3 0 2 C0 1.34 0 0.68 0 0 Z " fill="#0D120C" transform="translate(167,125)"/>
<path d="M0 0 C0.33 0 0.66 0 1 0 C2.59854133 5.9146029 1.25890714 11.15284453 0 17 C-0.99 17.33 -1.98 17.66 -3 18 C-3.16922842 13.60006116 -3.04657256 10.85237188 -1 7 C-0.61250787 4.67504723 -0.27017161 2.34148732 0 0 Z " fill="#202520" transform="translate(165,557)"/>
<path d="M0 0 C2.625 -0.1875 2.625 -0.1875 5 0 C5.33 1.32 5.66 2.64 6 4 C4.68 3.34 3.36 2.68 2 2 C1.34 4.31 0.68 6.62 0 9 C-0.99 8.67 -1.98 8.34 -3 8 C-2.45276317 4.62537285 -1.9451 2.91765 0 0 Z " fill="#344133" transform="translate(212,354)"/>
<path d="M0 0 C0.33 0 0.66 0 1 0 C2.25841946 6.74153283 3.26404456 13.13484138 3 20 C0.8480563 16.77208445 0.79913557 15.71599191 1 12 C0.01 12 -0.98 12 -2 12 C-1.34 8.04 -0.68 4.08 0 0 Z " fill="#6ABE60" transform="translate(177,305)"/>
<path d="M0 0 C0.99 0 1.98 0 3 0 C2.85831863 1.43791516 2.71148957 2.8753237 2.5625 4.3125 C2.48128906 5.11300781 2.40007813 5.91351563 2.31640625 6.73828125 C2 9 2 9 1 12 C0.34 12 -0.32 12 -1 12 C-1.33 12.99 -1.66 13.98 -2 15 C-2.25 8.375 -2.25 8.375 0 5 C0.16713569 2.37468476 0.16713569 2.37468476 0 0 Z " fill="#242923" transform="translate(45,296)"/>
<path d="M0 0 C1.23556641 0.01740234 1.23556641 0.01740234 2.49609375 0.03515625 C3.32238281 0.04417969 4.14867188 0.05320312 5 0.0625 C5.63808594 0.07410156 6.27617187 0.08570313 6.93359375 0.09765625 C7.59359375 1.41765625 8.25359375 2.73765625 8.93359375 4.09765625 C8.00546875 3.93265625 7.07734375 3.76765625 6.12109375 3.59765625 C2.97738022 3.02017237 2.97738022 3.02017237 -0.06640625 3.09765625 C-0.72640625 6.06765625 -1.38640625 9.03765625 -2.06640625 12.09765625 C-2.39640625 12.09765625 -2.72640625 12.09765625 -3.06640625 12.09765625 C-3.09327904 10.28523573 -3.1127434 8.47270392 -3.12890625 6.66015625 C-3.14050781 5.65082031 -3.15210937 4.64148438 -3.1640625 3.6015625 C-3.02917925 0.14315592 -3.02917925 0.14315592 0 0 Z " fill="#91F887" transform="translate(122.06640625,356.90234375)"/>
<path d="M0 0 C0.66 0 1.32 0 2 0 C2.1953125 1.98567708 2.390625 3.97135417 2.5859375 5.95703125 C2.92665391 8.29988142 2.92665391 8.29988142 5 11 C4.625 14.1875 4.625 14.1875 4 17 C1.23775226 14.23775226 1.10483987 11.73686629 0.3125 7.9375 C0.04050781 6.66777344 -0.23148438 5.39804687 -0.51171875 4.08984375 C-0.67285156 3.07019531 -0.83398438 2.05054688 -1 1 C-0.67 0.67 -0.34 0.34 0 0 Z " fill="#0C110B" transform="translate(207,303)"/>
<path d="M0 0 C0.99 0 1.98 0 3 0 C3 1.98 3 3.96 3 6 C2.01 5.67 1.02 5.34 0 5 C-0.33 6.65 -0.66 8.3 -1 10 C-1.66 10 -2.32 10 -3 10 C-3.33 10.66 -3.66 11.32 -4 12 C-4 10.35 -4 8.7 -4 7 C-3.01 7 -2.02 7 -1 7 C-1.20625 6.21625 -1.4125 5.4325 -1.625 4.625 C-1.74875 3.75875 -1.8725 2.8925 -2 2 C-1.34 1.34 -0.68 0.68 0 0 Z " fill="#212521" transform="translate(181,206)"/>
<path d="M0 0 C0.28875 0.639375 0.5775 1.27875 0.875 1.9375 C1.82823451 4.15206079 1.82823451 4.15206079 4 5 C3.67 6.98 3.34 8.96 3 11 C2.34 10.01 1.68 9.02 1 8 C-0.9254644 5.7763932 -0.9254644 5.7763932 -4 5 C-4 3.68 -4 2.36 -4 1 C-2 0 -2 0 0 0 Z " fill="#1D221D" transform="translate(71,206)"/>
<path d="M0 0 C0.33 0 0.66 0 1 0 C1 7.26 1 14.52 1 22 C1.66 22 2.32 22 3 22 C3 23.65 3 25.3 3 27 C2.01 26.67 1.02 26.34 0 26 C0 17.42 0 8.84 0 0 Z " fill="#141714" transform="translate(169,443)"/>
<path d="M0 0 C0.99 0 1.98 0 3 0 C2.25 6.75 2.25 6.75 0 9 C-3.125 8.625 -3.125 8.625 -6 8 C-4 6 -4 6 -1 5 C-0.67 3.35 -0.34 1.7 0 0 Z " fill="#111610" transform="translate(104,649)"/>
<path d="M0 0 C1.30062431 3.81516464 0.89369853 7.27561763 0.5625 11.25 C0.46066406 12.51328125 0.35882813 13.7765625 0.25390625 15.078125 C0.17011719 16.04234375 0.08632812 17.0065625 0 18 C-0.33 18 -0.66 18 -1 18 C-1.33 16.35 -1.66 14.7 -2 13 C-2.33 13 -2.66 13 -3 13 C-3.28785047 4.36448598 -3.28785047 4.36448598 -1 1 C-0.67 0.67 -0.34 0.34 0 0 Z " fill="#151B14" transform="translate(113,556)"/>
<path d="M0 0 C0.33 0 0.66 0 1 0 C1.19532961 1.7699868 1.38098882 3.54104279 1.5625 5.3125 C1.66691406 6.29863281 1.77132812 7.28476562 1.87890625 8.30078125 C2 11 2 11 1 14 C0.01 14.33 -0.98 14.66 -2 15 C-1.85973717 12.68715544 -1.71264442 10.37472409 -1.5625 8.0625 C-1.48128906 6.77472656 -1.40007812 5.48695313 -1.31640625 4.16015625 C-1 1 -1 1 0 0 Z " fill="#0A0F0A" transform="translate(135,477)"/>
<path d="M0 0 C0.99 0 1.98 0 3 0 C3.33 3.3 3.66 6.6 4 10 C3.01 10.495 3.01 10.495 2 11 C0.19769832 7.17010894 -0.19622241 4.21878192 0 0 Z " fill="#212B1F" transform="translate(42,342)"/>
<path d="M0 0 C2.4294516 3.6441774 2.16179575 5.71241272 2 10 C2.66 10 3.32 10 4 10 C4 12.31 4 14.62 4 17 C1.72532227 14.72532227 1.24867564 13.23349588 0.3125 10.1875 C0.04050781 9.33542969 -0.23148438 8.48335937 -0.51171875 7.60546875 C-1.04831986 4.74216525 -0.74719439 2.79320318 0 0 Z " fill="#0D120D" transform="translate(185,211)"/>
<path d="M0 0 C0 3.03229461 -0.51484725 5.17119448 -1.375 8.0625 C-1.63023437 8.94035156 -1.88546875 9.81820312 -2.1484375 10.72265625 C-3 13 -3 13 -5 15 C-6.37432457 11.18243176 -5.67975039 7.92744671 -5 4 C-4.34 4.33 -3.68 4.66 -3 5 C-2.01 3.35 -1.02 1.7 0 0 Z " fill="#0C110B" transform="translate(154,73)"/>
<path d="M0 0 C0.66 0.99 1.32 1.98 2 3 C1.38125 3.680625 0.7625 4.36125 0.125 5.0625 C-2.3319068 8.45881234 -3.04945605 10.96018821 -4 15 C-4.33 15 -4.66 15 -5 15 C-5.67081836 8.56014376 -3.75430238 5.16216577 0 0 Z " fill="#0E110D" transform="translate(95,19)"/>
<path d="M0 0 C2.48862878 3.23521742 4.75421558 6.59260295 7 10 C6.67 10.66 6.34 11.32 6 12 C3.63189682 11.05275873 2.24792047 10.34708866 0.75 8.25 C-0.19251213 5.42246362 -0.1345485 2.96006696 0 0 Z " fill="#0E130D" transform="translate(162,621)"/>
<path d="M0 0 C2.71472902 2.71472902 3.14258516 5.30652069 4 9 C3.67 9.66 3.34 10.32 3 11 C3.66 11.33 4.32 11.66 5 12 C4.67 13.65 4.34 15.3 4 17 C0.68341387 12.0251208 -0.38479461 5.96431647 0 0 Z " fill="#0B110B" transform="translate(83,548)"/>
<path d="M0 0 C2.31 0.33 4.62 0.66 7 1 C8.23076923 7.4 8.23076923 7.4 7.0625 10.4375 C6.711875 10.953125 6.36125 11.46875 6 12 C4.80712589 8.12315913 4 5.08378077 4 1 C2.68 0.67 1.36 0.34 0 0 Z " fill="#85ED7B" transform="translate(125,356)"/>
<path d="M0 0 C0.66 0 1.32 0 2 0 C2.20086443 3.71599191 2.1519437 4.77208445 0 8 C-0.45394552 10.27912938 -0.45394552 10.27912938 -0.625 12.6875 C-0.69976562 13.49574219 -0.77453125 14.30398438 -0.8515625 15.13671875 C-0.90054688 15.75160156 -0.94953125 16.36648438 -1 17 C-1.33 17 -1.66 17 -2 17 C-2.3690205 5.47835991 -2.3690205 5.47835991 0 0 Z " fill="#2D4F29" transform="translate(207,348)"/>
<path d="M0 0 C0.66 0 1.32 0 2 0 C3.45184478 4.53701494 4.23509196 8.18061476 4 13 C3.67 12.34 3.34 11.68 3 11 C2.34 11 1.68 11 1 11 C0.43901662 7.28348511 0 3.75822348 0 0 Z " fill="#0E130D" transform="translate(218,236)"/>
<path d="M0 0 C0.33 0.99 0.66 1.98 1 3 C0.04422943 4.36538653 -0.96352976 5.69481525 -2 7 C-2.33 7.886875 -2.66 8.77375 -3 9.6875 C-3.33 10.450625 -3.66 11.21375 -4 12 C-4.99 12.33 -5.98 12.66 -7 13 C-6.36610765 9.50155614 -4.94822306 7.15913124 -2.9375 4.25 C-2.38964844 3.45078125 -1.84179688 2.6515625 -1.27734375 1.828125 C-0.85582031 1.22484375 -0.43429688 0.6215625 0 0 Z " fill="#222722" transform="translate(229,352)"/>
<path d="M0 0 C3.28401155 5.91122079 2.99199279 10.49693616 2 17 C1.67 17 1.34 17 1 17 C0.63917123 14.35491639 0.28604648 11.70920453 -0.0625 9.0625 C-0.16626953 8.30775391 -0.27003906 7.55300781 -0.37695312 6.77539062 C-0.62665638 4.85525872 -0.81790281 2.92771856 -1 1 C-0.67 0.67 -0.34 0.34 0 0 Z " fill="#0B100A" transform="translate(196,251)"/>
<path d="M0 0 C2.78750144 1.39375072 2.89266287 3.16244861 4 6 C4.66 6.66 5.32 7.32 6 8 C6 8.99 6 9.98 6 11 C6.66 11.33 7.32 11.66 8 12 C7.01 12 6.02 12 5 12 C3.61328125 10.390625 3.61328125 10.390625 2.3125 8.25 C1.87550781 7.55390625 1.43851562 6.8578125 0.98828125 6.140625 C0 4 0 4 0 0 Z " fill="#0C110B" transform="translate(101,81)"/>
<path d="M0 0 C0.99 0 1.98 0 3 0 C3 0.99 3 1.98 3 3 C2.01 3 1.02 3 0 3 C0 4.32 0 5.64 0 7 C-0.99 7 -1.98 7 -3 7 C-2.25 2.25 -2.25 2.25 0 0 Z " fill="#333533" transform="translate(96,648)"/>
<path d="M0 0 C6.6 0.33 13.2 0.66 20 1 C20 1.33 20 1.66 20 2 C13.4 2.33 6.8 2.66 0 3 C0 2.01 0 1.02 0 0 Z " fill="#8BFA81" transform="translate(139,404)"/>
<path d="M0 0 C3 2 3 2 3.73046875 4.3828125 C3.88128906 5.28773437 4.03210938 6.19265625 4.1875 7.125 C4.34605469 8.03507812 4.50460938 8.94515625 4.66796875 9.8828125 C4.83232422 10.93082031 4.83232422 10.93082031 5 12 C4.01 11.34 3.02 10.68 2 10 C1.61866701 8.0085944 1.28674418 6.00720923 1 4 C0.34 3.01 -0.32 2.02 -1 1 C-0.67 0.67 -0.34 0.34 0 0 Z " fill="#161A16" transform="translate(150,12)"/>
<path d="M0 0 C2.97068854 2.97068854 3 5.90033813 3 10 C2.67 10.66 2.34 11.32 2 12 C0.00214565 7.8794254 -0.17835515 4.54805635 0 0 Z " fill="#0B110B" transform="translate(79,638)"/>
<path d="M0 0 C0.33 0.66 0.66 1.32 1 2 C1.66 2 2.32 2 3 2 C2.67 4.97 2.34 7.94 2 11 C-0.10814567 6.78370866 -0.17700355 4.60209225 0 0 Z " fill="#0B100B" transform="translate(134,505)"/>
<path d="M0 0 C0 2.64 0 5.28 0 8 C-1.65 6.35 -3.3 4.7 -5 3 C-1.125 0 -1.125 0 0 0 Z " fill="#8FEF86" transform="translate(177,305)"/>
<path d="M0 0 C0.66 0 1.32 0 2 0 C1.25 7.625 1.25 7.625 -1 11 C-2.26264601 6.70700357 -1.62950412 4.12168689 0 0 Z " fill="#1F251F" transform="translate(110,621)"/>
<path d="M0 0 C0.33 0 0.66 0 1 0 C1.08159574 4.16138263 0.98248524 7.9472484 0 12 C-0.33 12 -0.66 12 -1 12 C-2.02977875 7.23727328 -2.39511469 4.34114537 0 0 Z " fill="#111710" transform="translate(175,421)"/>
<path d="M0 0 C1.77706209 2.66559313 2.87548273 5.0280615 4 8 C3.01 8.33 2.02 8.66 1 9 C0.01 6.36 -0.98 3.72 -2 1 C-1.34 0.67 -0.68 0.34 0 0 Z " fill="#182217" transform="translate(40,332)"/>
<path d="M0 0 C3 3 3 3 3.07421875 5.04296875 C2.71614583 7.02864583 2.35807292 9.01432292 2 11 C1.01 10.67 0.02 10.34 -1 10 C-0.67 6.7 -0.34 3.4 0 0 Z " fill="#0E130E" transform="translate(42,305)"/>
<path d="M0 0 C0.33 0.66 0.66 1.32 1 2 C-0.28172417 4.38665879 -1.60287377 6.68520414 -3 9 C-3.6802367 10.32646156 -4.35492261 11.65608877 -5 13 C-5.50477602 7.69985182 -4.20817314 5.18034682 -1 1 C-0.67 0.67 -0.34 0.34 0 0 Z " fill="#2A2D2A" transform="translate(155,69)"/>
<path d="M0 0 C2.475 0.495 2.475 0.495 5 1 C5.33 2.32 5.66 3.64 6 5 C4.68 5 3.36 5 2 5 C2 4.01 2 3.02 2 2 C1.34 2 0.68 2 0 2 C0 1.34 0 0.68 0 0 Z " fill="#3B3C3B" transform="translate(153,649)"/>
<path d="M0 0 C0.33 0 0.66 0 1 0 C1.33 3.3 1.66 6.6 2 10 C1.01 10.495 1.01 10.495 0 11 C-0.84098656 6.98195309 -1.05404945 3.98196457 0 0 Z " fill="#121712" transform="translate(140,601)"/>
<path d="M0 0 C0.66 0 1.32 0 2 0 C2.33 3.3 2.66 6.6 3 10 C2.01 10.495 2.01 10.495 1 11 C0.63890458 9.35567294 0.28629924 7.7094792 -0.0625 6.0625 C-0.25972656 5.14597656 -0.45695312 4.22945313 -0.66015625 3.28515625 C-0.77230469 2.53105469 -0.88445312 1.77695312 -1 1 C-0.67 0.67 -0.34 0.34 0 0 Z " fill="#0A0F0A" transform="translate(78,426)"/>
<path d="M0 0 C1.32 0.66 2.64 1.32 4 2 C1.375 6.875 1.375 6.875 -2 8 C-1.67 7.01 -1.34 6.02 -1 5 C-0.28016501 2.53276657 -0.28016501 2.53276657 0 0 Z " fill="#0D140C" transform="translate(214,356)"/>
<path d="M0 0 C0.66 0 1.32 0 2 0 C2.33 1.98 2.66 3.96 3 6 C2.34 6 1.68 6 1 6 C0.67 7.32 0.34 8.64 0 10 C-1.125 2.25 -1.125 2.25 0 0 Z " fill="#0B0F0A" transform="translate(228,333)"/>
<path d="M0 0 C0.33 0 0.66 0 1 0 C1.33 3.3 1.66 6.6 2 10 C1.01 10.495 1.01 10.495 0 11 C-1.05404945 7.01803543 -0.84098656 4.01804691 0 0 Z " fill="#0D120C" transform="translate(208,159)"/>
<path d="M0 0 C4.75 1.875 4.75 1.875 7 3 C7 3.66 7 4.32 7 5 C4.61435923 4.42415568 2.33317216 3.77772405 0 3 C0 2.01 0 1.02 0 0 Z " fill="#0B0F0A" transform="translate(190,130)"/>
<path d="M0 0 C0.66 0.99 1.32 1.98 2 3 C1.67 3.99 1.34 4.98 1 6 C-0.65 6 -2.3 6 -4 6 C-4 5.34 -4 4.68 -4 4 C-3.01 3.67 -2.02 3.34 -1 3 C-0.67 2.01 -0.34 1.02 0 0 Z " fill="#1A1D1A" transform="translate(154,651)"/>
<path d="M0 0 C1.32 0.33 2.64 0.66 4 1 C4 2.65 4 4.3 4 6 C3.01 6.495 3.01 6.495 2 7 C1.34 4.69 0.68 2.38 0 0 Z " fill="#0C120C" transform="translate(188,229)"/>
</svg>
