<?xml version="1.0" encoding="UTF-8"?>
<svg version="1.1" xmlns="http://www.w3.org/2000/svg" width="252" height="723">
<path d="M0 0 C0.86625 0.185625 1.7325 0.37125 2.625 0.5625 C5.94160106 1.18238671 5.94160106 1.18238671 8.9375 0.375 C15.1488466 -0.38557305 21.20001126 4.12259918 26.4375 7.1875 C27.07365234 7.55552734 27.70980469 7.92355469 28.36523438 8.30273438 C29.91218085 9.19833496 31.45638662 10.0986668 33 11 C33 11.66 33 12.32 33 13 C34.65 13.33 36.3 13.66 38 14 C38.4021875 15.60875 38.4021875 15.60875 38.8125 17.25 C39.70025563 20.88303864 39.70025563 20.88303864 41.55859375 22.85546875 C43.47842488 25.71180287 43.33449897 27.65296639 43.25 31.0625 C43.23453125 32.10535156 43.2190625 33.14820313 43.203125 34.22265625 C43 37 43 37 42 40 C41.7242754 42.16123524 41.50071708 44.32939268 41.3125 46.5 C41.20550781 47.6446875 41.09851563 48.789375 40.98828125 49.96875 C40.72208189 53.18055884 40.72208189 53.18055884 43 56 C43.65675178 62.34860054 42.53761946 67.59300303 39 73 C38.01 73.33 37.02 73.66 36 74 C34.47417917 76.88210602 33.9548654 79.32158401 33.5 82.5625 C33 86 33 86 31.98535156 87.91430664 C30.82394989 90.37264521 30.74176601 92.09899612 30.734375 94.80859375 C30.73179687 95.72060547 30.72921875 96.63261719 30.7265625 97.57226562 C30.73429688 98.51779297 30.74203125 99.46332031 30.75 100.4375 C30.74226562 101.37916016 30.73453125 102.32082031 30.7265625 103.29101562 C30.56311779 109.97936947 30.56311779 109.97936947 33 116 C35.57108694 117.13373333 35.57108694 117.13373333 39 118 C40.74336506 118.71411182 42.47687539 119.45248522 44.203125 120.20703125 C54.36098688 124.59047198 64.32661426 128.81081432 75.11425781 131.37817383 C84.67215492 133.70265997 92.55314575 138.1557724 98.3125 146.25 C101.55110543 152.58880892 102.00454592 159.50253404 102.375 166.5 C102.78787493 172.67139366 104.35643124 177.45314344 107 183 C107.71309826 184.53946845 108.42155019 186.08109891 109.125 187.625 C109.43695313 188.27726563 109.74890625 188.92953125 110.0703125 189.6015625 C112.49062157 195.84555312 113.33466359 201.61926786 113.25 208.25 C113.24540771 209.01070801 113.24081543 209.77141602 113.23608398 210.55517578 C113.08841959 220.19150008 112.84610312 230.66204689 110.48583984 240.04370117 C108.02661145 249.94611178 109.70946214 259.25508437 114.58984375 268.03515625 C117.33979747 273.81691491 117.1818508 280.01364136 117.1875 286.3125 C117.19974609 286.98861328 117.21199219 287.66472656 117.22460938 288.36132812 C117.23689347 292.95148578 116.85360226 297.41191317 116.28321838 301.96716309 C114.97413577 312.48330516 114.69177553 322.86354634 114.73925781 333.45483398 C114.75015923 336.35485926 114.73919553 339.25428807 114.7265625 342.15429688 C114.72788138 344.01562635 114.73043812 345.87695547 114.734375 347.73828125 C114.73032654 348.59658035 114.72627808 349.45487946 114.72210693 350.33918762 C114.75651665 354.71886892 115.06784451 357.98398317 117 362 C117.484375 364.97265625 117.484375 364.97265625 117.75 368.0625 C117.84796875 369.08472656 117.9459375 370.10695313 118.046875 371.16015625 C117.998705 374.07845553 117.5255241 375.55329404 116 378 C115.34 378 114.68 378 114 378 C113.72929687 378.57621094 113.45859375 379.15242188 113.1796875 379.74609375 C111.98725121 382.02435778 110.65862379 384.00045144 109.125 386.0625 C108.63257813 386.73410156 108.14015625 387.40570313 107.6328125 388.09765625 C105.9042247 390.1115851 104.23937416 391.57739156 102 393 C99.6875 392.75 99.6875 392.75 97 392 C95.7625 391.835 94.525 391.67 93.25 391.5 C90 391 90 391 89 390 C88.23580661 377.93576662 88.27480165 365.81929144 94.140625 354.87109375 C96.83597244 349.00258728 93.21072873 341.4395081 91.234375 335.796875 C88.37324687 326.99618973 86.24378552 317.9736688 84 309 C83.77135254 308.10490723 83.54270508 307.20981445 83.30712891 306.28759766 C80.05992786 293.48783465 78.12209535 280.76057769 76.5234375 267.65600586 C75.35321858 258.5307756 73.47333649 250.50613017 70 242 C69.32087253 240.00419682 68.65053096 238.00530644 68 236 C64.04213473 237.31928842 63.20177049 239.07666097 61.140625 242.578125 C57.59337006 250.10996769 57.90082974 258.19312634 58.078125 266.33984375 C57.99727431 270.12769858 57.42914723 273.58903584 56.75 277.3125 C55.27527606 287.11326952 57.99375259 295.9290506 61.05078125 305.1796875 C62.71362706 311.87212866 63.11689048 318.74816603 63.76757812 325.6015625 C64.70357054 334.78566484 66.24349628 343.71274638 69.16015625 352.4921875 C70.73206931 359.05766623 70.39918401 365.87726333 70.47851562 372.6015625 C70.66651844 380.7452941 71.89843038 388.13745984 74 396 C76.26598417 404.61035544 76.45154928 414.12838466 76 423 C75.93425781 424.44632812 75.93425781 424.44632812 75.8671875 425.921875 C75.01477631 435.05797442 71.90847826 442.79245841 68.47338867 451.23339844 C65.97754147 457.39835867 63.70587212 463.54130994 61.875 469.9375 C61.66319092 470.6397168 61.45138184 471.34193359 61.2331543 472.06542969 C59.88865926 476.98318569 60.07180616 481.07704146 61 486 C61.18433594 487.02923584 61.36867187 488.05847168 61.55859375 489.11889648 C61.99215038 491.5317261 62.42848738 493.9440573 62.8671875 496.35595703 C65.9638559 513.69860484 68.76911613 530.90033979 63 548 C62.63648438 549.13050781 62.27296875 550.26101563 61.8984375 551.42578125 C60.39182355 556.02824388 58.83610707 560.61188587 57.23583984 565.18261719 C53.099592 576.99826744 50.15279895 588.54605716 48.2265625 600.9453125 C48.09467529 601.79424072 47.96278809 602.64316895 47.8269043 603.51782227 C47.57393955 605.17089533 47.32762479 606.82500467 47.08911133 608.48022461 C46.43848372 612.85216427 45.51588404 616.82678937 44 621 C41.01756952 630.7573343 39.69237171 644.23505165 43.02734375 654.01171875 C46.10532404 658.89726642 50.62464371 662.61832796 55.046875 666.2734375 C57 668 57 668 59 671 C59.10839567 675.82360729 58.21418331 680.70187945 56 685 C53.45027255 687.54972745 51.48129855 688.0804117 48 689 C45.66666667 689 43.33333333 689 41 689 C38.59687209 689.52568423 36.34341866 690.23480207 34 691 C29.69904569 687.2813935 28.27108564 684.70555591 27.3125 679.125 C27.08433594 677.88878906 26.85617188 676.65257812 26.62109375 675.37890625 C26.41613281 674.26386719 26.21117187 673.14882813 26 672 C25.64987293 670.68064702 25.28164446 669.36554318 24.875 668.0625 C24 665 24 665 23.625 661.4375 C23.25980374 657.92139557 23.25980374 657.92139557 20.984375 655.41015625 C18.30988244 650.81403026 18.47937013 647.21201645 18.625 642 C18.62628906 641.1234375 18.62757813 640.246875 18.62890625 639.34375 C18.68029761 635.55220983 18.82969059 632.49358763 20.07421875 628.88671875 C21.30856185 625.03785989 20.76390535 621.72434238 20.1875 617.8125 C19.37035884 611.53213151 18.80851669 605.32779399 18.5625 599 C17.81296474 582.76289573 16.33676189 566.77711145 11.8125 551.125 C8.27978868 538.83421901 7.09583184 526.37572009 10.50097656 513.91430664 C12.87711703 504.79918072 13.17850179 495.11983152 13.1875 485.75 C13.18830566 484.94006592 13.18911133 484.13013184 13.18994141 483.2956543 C13.20234518 479.22278209 13.20234518 479.22278209 12.52075195 475.22924805 C11.7588912 471.9678554 11.66705918 468.68126993 11.5 465.34765625 C11.4390918 464.2419352 11.4390918 464.2419352 11.37695312 463.11387634 C11.24763169 460.76359923 11.12324718 458.41310297 11 456.0625 C10.83747748 452.96981078 10.6701162 449.87743596 10.5 446.78515625 C10.46455078 446.0798024 10.42910156 445.37444855 10.39257812 444.64772034 C10.19212997 441.00621812 9.76220347 437.56228229 9 434 C8.69522019 430.81920046 8.57706718 427.62949024 8.4375 424.4375 C8.3950415 423.49890137 8.35258301 422.56030273 8.30883789 421.59326172 C7.8041234 409.06781203 7.91046026 396.53280834 8 384 C6.68 384 5.36 384 4 384 C3.98018066 384.67651611 3.96036133 385.35303223 3.93994141 386.05004883 C3.5409373 399.17419785 3.00852826 412.27778491 2.0625 425.375 C1.98789551 426.4472583 1.91329102 427.5195166 1.83642578 428.62426758 C1.43200463 433.95824344 0.84291849 439.19046755 -0.03125 444.46875 C-1.08781881 451.02625518 -1.40043612 457.49223932 -1.5625 464.125 C-1.90518549 476.44709541 -1.90518549 476.44709541 -2.578125 482.6015625 C-3.12995206 488.24030595 -2.76316654 493.62648198 -2.1875 499.25 C-2.10435547 500.19101562 -2.02121094 501.13203125 -1.93554688 502.1015625 C-1.55912062 506.02518804 -1.13702945 509.56658091 0.0546875 513.3359375 C1.51164195 518.98314112 1.32824583 524.56793716 1.3125 530.375 C1.32861328 531.55578125 1.34472656 532.7365625 1.36132812 533.953125 C1.36523299 540.96625436 0.55387406 546.50194775 -2 553 C-6.96698943 571.69519632 -8.01820202 591.77949495 -8.8125 611.0390625 C-9.01614775 615.34112117 -9.40619009 619.5953571 -9.9140625 623.87109375 C-10.10349914 625.96191496 -10.10349914 625.96191496 -9.52954102 627.77075195 C-8.37336814 632.63797858 -8.5182117 637.76903415 -8.3125 642.75 C-8.25255859 643.905 -8.19261719 645.06 -8.13085938 646.25 C-7.86371902 652.66136854 -8.05022046 657.88595622 -10 664 C-10.41860797 665.41517566 -10.83655871 666.83054587 -11.25390625 668.24609375 C-11.68772941 669.64396837 -12.1239311 671.04110703 -12.5625 672.4375 C-12.89411133 673.51547852 -12.89411133 673.51547852 -13.23242188 674.61523438 C-14.87704971 679.87704971 -14.87704971 679.87704971 -16 681 C-16.24349011 683.51606449 -16.38363366 686.03086024 -16.5234375 688.5546875 C-17.0743799 691.38165425 -17.64555265 692.36663629 -20 694 C-26.33333333 693.66666667 -26.33333333 693.66666667 -29 691 C-29.81597656 691.54527344 -29.81597656 691.54527344 -30.6484375 692.1015625 C-33.87696909 693.33505463 -35.42845286 692.57262817 -38.625 691.375 C-39.58664063 691.03210938 -40.54828125 690.68921875 -41.5390625 690.3359375 C-44.35210278 688.80885849 -44.98683246 687.98443918 -46 685 C-47.47684662 679.46702534 -47.3465522 675.21984808 -44.51171875 670.2265625 C-42.60084162 667.41209231 -40.52287177 664.75001011 -38.4375 662.0625 C-30.22888819 651.17628499 -30.33246346 642.17472134 -32 629 C-32.79088686 624.60189744 -33.86595434 620.32017394 -35 616 C-36.89395718 607.72125935 -38.51615041 599.41191508 -39.91015625 591.03613281 C-41.16919069 583.60711427 -43.07392837 576.499052 -45.53125 569.37890625 C-46.0177531 567.93322042 -46.50340178 566.48724683 -46.98828125 565.04101562 C-47.73726908 562.81422279 -48.49065797 560.58948374 -49.25927734 558.36938477 C-54.16253171 544.16394731 -57.12775781 530.2399757 -55.375 515.125 C-55.28234863 514.21081299 -55.18969727 513.29662598 -55.09423828 512.35473633 C-54.3107554 505.27711134 -53.01511857 498.34357116 -51.32177734 491.42822266 C-49.31174243 483.00657496 -49.63299785 475.72579013 -52.0625 467.4375 C-52.28147949 466.66591553 -52.50045898 465.89433105 -52.72607422 465.09936523 C-54.31580769 459.7327805 -56.31318117 454.65524678 -58.625 449.5625 C-67.56622083 429.83105789 -66.1279267 409.02662661 -62 388 C-61.67 387.34 -61.34 386.68 -61 386 C-60.76573114 383.79613738 -60.58665313 381.58625433 -60.4375 379.375 C-60.35371094 378.18648438 -60.26992188 376.99796875 -60.18359375 375.7734375 C-60.05974968 373.22804653 -60.02804091 370.67673623 -60.08203125 368.12890625 C-60.10505274 363.47070368 -59.20061482 359.10699854 -58.25 354.5625 C-56.6229989 346.41944006 -55.17570427 338.26409447 -53.875 330.0625 C-53.70516602 328.99676758 -53.53533203 327.93103516 -53.36035156 326.83300781 C-52.49383558 321.3336341 -51.70572371 315.83447848 -51 310.3125 C-50.19679801 304.43682421 -48.67146442 298.90841646 -46.90234375 293.25390625 C-45.48388683 288.13886462 -44.55610663 283.63177182 -45.875 278.4375 C-47.30016253 271.69610619 -47.34763965 264.92468212 -47.39404297 258.05639648 C-47.55330297 251.50523064 -49.00408017 246.7930618 -52 241 C-52.67834587 239.33805262 -53.35199575 237.67401097 -54 236 C-57.22564908 236.70190002 -57.22564908 236.70190002 -58.5 239.66796875 C-63.39592769 251.15554909 -65.92704766 262.157919 -66.69921875 274.6640625 C-67.56662303 284.28436454 -70.11002913 293.69831888 -72.52539062 303.02978516 C-73.64277327 307.39284815 -74.52377953 311.75034249 -75.3125 316.1875 C-76.69975464 323.52903857 -79.04355763 330.42522623 -81.66333008 337.41674805 C-83.75173446 343.24088304 -84.95557166 348.7943964 -84 355 C-83.34 355.66 -82.68 356.32 -82 357 C-77.61069586 366.14438363 -76.43459119 377.9357232 -77 388 C-80.0759499 391.0759499 -83.83140678 391.97778844 -88 393 C-91.70973944 393 -92.72104656 392.23813098 -95.5625 389.8125 C-97.99439907 387.00646261 -99.94269086 384.08596371 -102 381 C-102.9075 380.319375 -103.815 379.63875 -104.75 378.9375 C-108.38706486 374.18910976 -107.67892571 368.77444186 -107 363 C-106.66768372 362.21267487 -106.33536743 361.42534973 -105.99298096 360.61416626 C-104.95257604 357.87514954 -104.74670444 355.93083685 -104.74121094 353.01708984 C-104.73490662 352.05193451 -104.72860229 351.08677917 -104.72210693 350.09237671 C-104.72817963 348.5423143 -104.72817963 348.5423143 -104.734375 346.9609375 C-104.73246155 345.8842984 -104.7305481 344.8076593 -104.72857666 343.69839478 C-104.72721691 341.4205095 -104.73089866 339.14261643 -104.73925781 336.86474609 C-104.74989735 333.4083473 -104.73938767 329.95247573 -104.7265625 326.49609375 C-104.72788536 324.27604053 -104.73045035 322.05598764 -104.734375 319.8359375 C-104.73032654 318.81470795 -104.72627808 317.79347839 -104.72210693 316.74130249 C-104.76007804 310.81423058 -105.32332194 305.2821014 -106.53903198 299.47766113 C-107.30322773 295.37017855 -107.38287495 291.29333396 -107.375 287.125 C-107.37411377 286.26511475 -107.37322754 285.40522949 -107.37231445 284.51928711 C-107.22640865 276.60408259 -106.1962457 268.35430574 -101.3828125 261.796875 C-99.26374007 257.51084149 -99.60075078 253.40127615 -99.6875 248.6875 C-99.70006836 247.20817993 -99.70006836 247.20817993 -99.71289062 245.69897461 C-99.80438393 240.07076416 -100.19211939 234.6304829 -101 229.0625 C-101.95587253 222.39889944 -102.25665254 215.85623004 -102.3125 209.125 C-102.33860352 207.69812866 -102.33860352 207.69812866 -102.36523438 206.24243164 C-102.35872517 196.92044151 -100.16397544 189.56110791 -95.375 181.5625 C-91.74029767 174.99739432 -91.40547297 169.09579837 -91.26538086 161.69995117 C-91.04252218 151.87917874 -87.7764689 146.40815426 -81.390625 139.04296875 C-73.6794912 132.45322532 -63.35969557 130.63812217 -53.82226562 128 C-47.6267747 126.23674744 -42.46617923 124.3808561 -37 121 C-33.65659866 119.68706614 -30.28662286 118.51260508 -26.890625 117.34375 C-23.72079923 115.87020937 -22.79249662 114.93423271 -21 112 C-20.47096647 109.66316602 -20.47096647 109.66316602 -20.41796875 107.1484375 C-20.37349609 106.21386719 -20.32902344 105.27929688 -20.28320312 104.31640625 C-20.25162109 103.34574219 -20.22003906 102.37507813 -20.1875 101.375 C-20.13658203 100.42753906 -20.08566406 99.48007813 -20.03320312 98.50390625 C-19.7179159 90.69119568 -20.17249469 82.01709306 -24 75 C-24.639375 74.566875 -25.27875 74.13375 -25.9375 73.6875 C-29.54631594 70.73483241 -30.74946924 66.43372739 -31.21875 61.875 C-31.26139335 59.06053879 -31.11909341 56.4479449 -30.39453125 53.72265625 C-29.86703056 50.08237918 -30.62121264 47.20215262 -31.4375 43.625 C-33.01462259 36.68000276 -34.20360857 30.60744267 -31 24 C-30.34 24 -29.68 24 -29 24 C-28.731875 23.071875 -28.46375 22.14375 -28.1875 21.1875 C-27.0880449 18.23633103 -26.51205515 16.80867971 -24 15 C-23.01 15 -22.02 15 -21 15 C-20.62875 14.13375 -20.62875 14.13375 -20.25 13.25 C-17.59519245 8.47134642 -13.81657598 5.57188503 -8.625 3.9375 C-5.7547295 3.19518866 -2.91526215 2.53004766 0 2 C0 1.34 0 0.68 0 0 Z M-90 378 C-89.39816251 380.02045442 -88.72693904 382.02111039 -88 384 C-87.34 384.33 -86.68 384.66 -86 385 C-86 383.02 -86 381.04 -86 379 C-87.32 378.67 -88.64 378.34 -90 378 Z M98 378 C95.71271266 379.83883881 95.71271266 379.83883881 95.875 382.625 C95.91625 383.40875 95.9575 384.1925 96 385 C98.07977297 383.77409808 98.07977297 383.77409808 100 382 C100 380.68 100 379.36 100 378 C99.34 378 98.68 378 98 378 Z " fill="#010001" transform="translate(121,2)"/>
<path d="M0 0 C0.10022461 0.73935791 0.20044922 1.47871582 0.30371094 2.24047852 C2.30980274 18.56675012 2.30980274 18.56675012 6.1875 34.5 C8.59356716 42.53887555 8.53011098 50.6733957 8.5847168 59.02148438 C8.69108909 67.03760654 9.93280332 74.26287577 12 82 C14.26590365 90.61043389 14.45155215 100.12832836 14 109 C13.93425781 110.44632813 13.93425781 110.44632813 13.8671875 111.921875 C13.01477631 121.05797442 9.90847826 128.79245841 6.47338867 137.23339844 C3.97754147 143.39835867 1.70587212 149.54130994 -0.125 155.9375 C-0.33680908 156.6397168 -0.54861816 157.34193359 -0.7668457 158.06542969 C-2.11134074 162.98318569 -1.92819384 167.07704146 -1 172 C-0.81566406 173.02923584 -0.63132812 174.05847168 -0.44140625 175.11889648 C-0.00784962 177.5317261 0.42848738 179.9440573 0.8671875 182.35595703 C3.9638559 199.69860484 6.76911613 216.90033979 1 234 C0.63648438 235.13050781 0.27296875 236.26101563 -0.1015625 237.42578125 C-1.60817645 242.02824388 -3.16389293 246.61188587 -4.76416016 251.18261719 C-8.900408 262.99826744 -11.84720105 274.54605716 -13.7734375 286.9453125 C-13.90532471 287.79424072 -14.03721191 288.64316895 -14.1730957 289.51782227 C-14.42606045 291.17089533 -14.67237521 292.82500467 -14.91088867 294.48022461 C-15.56151628 298.85216427 -16.48411596 302.82678937 -18 307 C-20.98243048 316.7573343 -22.30762829 330.23505165 -18.97265625 340.01171875 C-15.89467596 344.89726642 -11.37535629 348.61832796 -6.953125 352.2734375 C-5 354 -5 354 -3 357 C-2.89160433 361.82360729 -3.78581669 366.70187945 -6 371 C-8.54972745 373.54972745 -10.51870145 374.0804117 -14 375 C-16.33333333 375 -18.66666667 375 -21 375 C-23.40312791 375.52568423 -25.65658134 376.23480207 -28 377 C-32.30095431 373.2813935 -33.72891436 370.70555591 -34.6875 365.125 C-35.02974609 363.27068359 -35.02974609 363.27068359 -35.37890625 361.37890625 C-35.58386719 360.26386719 -35.78882813 359.14882813 -36 358 C-36.35012707 356.68064702 -36.71835554 355.36554318 -37.125 354.0625 C-38 351 -38 351 -38.375 347.4375 C-38.74019626 343.92139557 -38.74019626 343.92139557 -41.015625 341.41015625 C-43.69011756 336.81403026 -43.52062987 333.21201645 -43.375 328 C-43.37371094 327.1234375 -43.37242187 326.246875 -43.37109375 325.34375 C-43.31970239 321.55220983 -43.17030941 318.49358763 -41.92578125 314.88671875 C-40.69143815 311.03785989 -41.23609465 307.72434238 -41.8125 303.8125 C-42.62964116 297.53213151 -43.19148331 291.32779399 -43.4375 285 C-44.18703526 268.76289573 -45.66323811 252.77711145 -50.1875 237.125 C-53.72021132 224.83421901 -54.90416816 212.37572009 -51.49902344 199.91430664 C-49.12288297 190.79918072 -48.82149821 181.11983152 -48.8125 171.75 C-48.81169434 170.94006592 -48.81088867 170.13013184 -48.81005859 169.2956543 C-48.79765482 165.22278209 -48.79765482 165.22278209 -49.47924805 161.22924805 C-50.2411088 157.9678554 -50.33294082 154.68126993 -50.5 151.34765625 C-50.54060547 150.61050888 -50.58121094 149.87336151 -50.62304688 149.11387634 C-50.75236831 146.76359923 -50.87675282 144.41310297 -51 142.0625 C-51.16252252 138.96981078 -51.3298838 135.87743596 -51.5 132.78515625 C-51.53544922 132.0798024 -51.57089844 131.37444855 -51.60742188 130.64772034 C-51.80787003 127.00621812 -52.23779653 123.56228229 -53 120 C-53.30477981 116.81920046 -53.42293282 113.62949024 -53.5625 110.4375 C-53.6049585 109.49890137 -53.64741699 108.56030273 -53.69116211 107.59326172 C-54.1958766 95.06781203 -54.08953974 82.53280834 -54 70 C-55.32 70 -56.64 70 -58 70 C-58.01981934 70.67651611 -58.03963867 71.35303223 -58.06005859 72.05004883 C-58.4590627 85.17419785 -58.99147174 98.27778491 -59.9375 111.375 C-60.01210449 112.4472583 -60.08670898 113.5195166 -60.16357422 114.62426758 C-60.56799537 119.95824344 -61.15708151 125.19046755 -62.03125 130.46875 C-63.08781881 137.02625518 -63.40043612 143.49223932 -63.5625 150.125 C-63.90518549 162.44709541 -63.90518549 162.44709541 -64.578125 168.6015625 C-65.12995206 174.24030595 -64.76316654 179.62648198 -64.1875 185.25 C-64.0627832 186.66152344 -64.0627832 186.66152344 -63.93554688 188.1015625 C-63.55912062 192.02518804 -63.13702945 195.56658091 -61.9453125 199.3359375 C-60.48835805 204.98314112 -60.67175417 210.56793716 -60.6875 216.375 C-60.67138672 217.55578125 -60.65527344 218.7365625 -60.63867188 219.953125 C-60.63476701 226.96625436 -61.44612594 232.50194775 -64 239 C-68.96698943 257.69519632 -70.01820202 277.77949495 -70.8125 297.0390625 C-71.01614775 301.34112117 -71.40619009 305.5953571 -71.9140625 309.87109375 C-72.10349914 311.96191496 -72.10349914 311.96191496 -71.52954102 313.77075195 C-70.37336814 318.63797858 -70.5182117 323.76903415 -70.3125 328.75 C-70.25255859 329.905 -70.19261719 331.06 -70.13085938 332.25 C-69.86371902 338.66136854 -70.05022046 343.88595622 -72 350 C-72.41860797 351.41517566 -72.83655871 352.83054587 -73.25390625 354.24609375 C-73.68772941 355.64396837 -74.1239311 357.04110703 -74.5625 358.4375 C-74.78357422 359.15615234 -75.00464844 359.87480469 -75.23242188 360.61523438 C-76.87704971 365.87704971 -76.87704971 365.87704971 -78 367 C-78.24349011 369.51606449 -78.38363366 372.03086024 -78.5234375 374.5546875 C-79.0743799 377.38165425 -79.64555265 378.36663629 -82 380 C-88.33333333 379.66666667 -88.33333333 379.66666667 -91 377 C-91.81597656 377.54527344 -91.81597656 377.54527344 -92.6484375 378.1015625 C-95.87696909 379.33505463 -97.42845286 378.57262817 -100.625 377.375 C-101.58664063 377.03210938 -102.54828125 376.68921875 -103.5390625 376.3359375 C-106.35210278 374.80885849 -106.98683246 373.98443918 -108 371 C-109.47684662 365.46702534 -109.3465522 361.21984808 -106.51171875 356.2265625 C-104.60084162 353.41209231 -102.52287177 350.75001011 -100.4375 348.0625 C-92.22888819 337.17628499 -92.33246346 328.17472134 -94 315 C-94.79088686 310.60189744 -95.86595434 306.32017394 -97 302 C-98.89395718 293.72125935 -100.51615041 285.41191508 -101.91015625 277.03613281 C-103.16919069 269.60711427 -105.07392837 262.499052 -107.53125 255.37890625 C-108.0177531 253.93322042 -108.50340178 252.48724683 -108.98828125 251.04101562 C-109.73726908 248.81422279 -110.49065797 246.58948374 -111.25927734 244.36938477 C-116.16253171 230.16394731 -119.12775781 216.2399757 -117.375 201.125 C-117.28234863 200.21081299 -117.18969727 199.29662598 -117.09423828 198.35473633 C-116.3107554 191.27711134 -115.01511857 184.34357116 -113.32177734 177.42822266 C-111.31174243 169.00657496 -111.63299785 161.72579013 -114.0625 153.4375 C-114.28147949 152.66591553 -114.50045898 151.89433105 -114.72607422 151.09936523 C-116.31580769 145.7327805 -118.31318117 140.65524678 -120.625 135.5625 C-129.56622083 115.83105789 -128.1279267 95.02662661 -124 74 C-123.505 73.01 -123.505 73.01 -123 72 C-122.76573114 69.79613738 -122.58665313 67.58625433 -122.4375 65.375 C-122.35371094 64.18648438 -122.26992187 62.99796875 -122.18359375 61.7734375 C-122.05974968 59.22804653 -122.02804091 56.67673623 -122.08203125 54.12890625 C-122.10505209 49.47083641 -121.20114489 45.10681028 -120.25 40.5625 C-118.35136702 31.10622674 -116.77189642 21.62081914 -115.30761719 12.08813477 C-115.15067383 11.07678467 -114.99373047 10.06543457 -114.83203125 9.0234375 C-114.69514893 8.12544434 -114.5582666 7.22745117 -114.41723633 6.30224609 C-114 4 -114 4 -113 1 C-111.35 1 -109.7 1 -108 1 C-108 1.66 -108 2.32 -108 3 C-106.06447266 2.96519531 -106.06447266 2.96519531 -104.08984375 2.9296875 C-102.37240166 2.91091764 -100.65495326 2.89271875 -98.9375 2.875 C-98.08994141 2.85824219 -97.24238281 2.84148437 -96.36914062 2.82421875 C-91.16270359 2.7840146 -87.01352092 3.46350664 -82 5 C-75.01680971 6.21420891 -67.94234881 6.19227273 -60.875 6.1875 C-59.19192749 6.18737915 -59.19192749 6.18737915 -57.47485352 6.18725586 C-39.28504797 7.30543871 -39.28504797 7.30543871 -23 3 C-21.00344494 2.81282296 -19.00209265 2.67604461 -17 2.5625 C-11.42963372 2.18214459 -5.43805177 0 0 0 Z " fill="#010102" transform="translate(183,316)"/>
<path d="M0 0 C1.29526611 -0.00926514 2.59053223 -0.01853027 3.92504883 -0.02807617 C5.13572021 -0.02396729 6.3463916 -0.0198584 7.59375 -0.015625 C9.22860352 -0.01224121 9.22860352 -0.01224121 10.89648438 -0.00878906 C13.5 0.25 13.5 0.25 15.5 2.25 C16.07836914 4.15771484 16.07836914 4.15771484 16.53515625 6.4609375 C16.70466797 7.29367187 16.87417969 8.12640625 17.04882812 8.984375 C17.21833984 9.85578125 17.38785156 10.7271875 17.5625 11.625 C17.90703089 13.34125054 18.25206538 15.05740008 18.59765625 16.7734375 C18.74726807 17.53575684 18.89687988 18.29807617 19.05102539 19.08349609 C19.34719048 20.51262549 19.67521845 21.9355681 20.03662109 23.34960938 C21.95302509 31.20908708 21.91049239 40.18503193 21.5 48.25 C21.45617187 49.21421875 21.41234375 50.1784375 21.3671875 51.171875 C20.51477631 60.30797442 17.40847826 68.04245841 13.97338867 76.48339844 C11.47754147 82.64835867 9.20587212 88.79130994 7.375 95.1875 C7.16319092 95.8897168 6.95138184 96.59193359 6.7331543 97.31542969 C5.38865926 102.23318569 5.57180616 106.32704146 6.5 111.25 C6.68433594 112.27923584 6.86867187 113.30847168 7.05859375 114.36889648 C7.49215038 116.7817261 7.92848738 119.1940573 8.3671875 121.60595703 C11.4638559 138.94860484 14.26911613 156.15033979 8.5 173.25 C8.13648438 174.38050781 7.77296875 175.51101563 7.3984375 176.67578125 C5.89182355 181.27824388 4.33610707 185.86188587 2.73583984 190.43261719 C-1.400408 202.24826744 -4.34720105 213.79605716 -6.2734375 226.1953125 C-6.40532471 227.04424072 -6.53721191 227.89316895 -6.6730957 228.76782227 C-6.92606045 230.42089533 -7.17237521 232.07500467 -7.41088867 233.73022461 C-8.06151628 238.10216427 -8.98411596 242.07678937 -10.5 246.25 C-13.48243048 256.0073343 -14.80762829 269.48505165 -11.47265625 279.26171875 C-8.39467596 284.14726642 -3.87535629 287.86832796 0.546875 291.5234375 C2.5 293.25 2.5 293.25 4.5 296.25 C4.60839567 301.07360729 3.71418331 305.95187945 1.5 310.25 C-1.04972745 312.79972745 -3.01870145 313.3304117 -6.5 314.25 C-8.83333333 314.25 -11.16666667 314.25 -13.5 314.25 C-15.90312791 314.77568423 -18.15658134 315.48480207 -20.5 316.25 C-24.80095431 312.5313935 -26.22891436 309.95555591 -27.1875 304.375 C-27.52974609 302.52068359 -27.52974609 302.52068359 -27.87890625 300.62890625 C-28.08386719 299.51386719 -28.28882813 298.39882813 -28.5 297.25 C-28.85012707 295.93064702 -29.21835554 294.61554318 -29.625 293.3125 C-30.5 290.25 -30.5 290.25 -30.875 286.6875 C-31.24019626 283.17139557 -31.24019626 283.17139557 -33.515625 280.66015625 C-36.19011756 276.06403026 -36.02062987 272.46201645 -35.875 267.25 C-35.87371094 266.3734375 -35.87242187 265.496875 -35.87109375 264.59375 C-35.81970239 260.80220983 -35.67030941 257.74358763 -34.42578125 254.13671875 C-33.19143815 250.28785989 -33.73609465 246.97434238 -34.3125 243.0625 C-35.12964116 236.78213151 -35.69148331 230.57779399 -35.9375 224.25 C-36.68703526 208.01289573 -38.16323811 192.02711145 -42.6875 176.375 C-46.22021132 164.08421901 -47.40416816 151.62572009 -43.99902344 139.16430664 C-41.62288297 130.04918072 -41.32149821 120.36983152 -41.3125 111 C-41.31169434 110.19006592 -41.31088867 109.38013184 -41.31005859 108.5456543 C-41.29765482 104.47278209 -41.29765482 104.47278209 -41.97924805 100.47924805 C-42.7411088 97.2178554 -42.83294082 93.93126993 -43 90.59765625 C-43.0609082 89.4919352 -43.0609082 89.4919352 -43.12304688 88.36387634 C-43.25236831 86.01359923 -43.37675282 83.66310297 -43.5 81.3125 C-43.66252252 78.21981078 -43.8298838 75.12743596 -44 72.03515625 C-44.05317383 70.97712547 -44.05317383 70.97712547 -44.10742188 69.89772034 C-44.3078661 66.2562895 -44.73709631 62.81212352 -45.5 59.25 C-45.80503921 56.09006943 -45.92324039 52.92123003 -46.0625 49.75 C-46.1049585 48.81397949 -46.14741699 47.87795898 -46.19116211 46.91357422 C-46.70954397 34.03225432 -46.58842851 21.13879589 -46.5 8.25 C-45.51 7.92 -44.52 7.59 -43.5 7.25 C-43.5 6.59 -43.5 5.93 -43.5 5.25 C-29.60207794 0.01208967 -14.65036545 0.06737246 0 0 Z " fill="#010101" transform="translate(175.5,376.75)"/>
<path d="M0 0 C0.10022461 0.73935791 0.20044922 1.47871582 0.30371094 2.24047852 C2.36485447 18.74703189 2.36485447 18.74703189 6.25 34.875 C8.99452174 44.04127377 8.35569062 53.53178929 8 63 C7.34 62.67 6.68 62.34 6 62 C1.50553948 61.74923068 -2.99935621 61.80969987 -7.5 61.8125 C-8.81105713 61.81330566 -10.12211426 61.81411133 -11.47290039 61.81494141 C-18.83400724 61.8611323 -26.11997525 62.04813869 -33.4375 62.875 C-34.47970703 62.99258667 -34.47970703 62.99258667 -35.54296875 63.11254883 C-39.56647117 63.63711296 -43.16591385 64.71657876 -47 66 C-48.32 66 -49.64 66 -51 66 C-51 66.66 -51 67.32 -51 68 C-54 70 -54 70 -58 70 C-58.33 70.66 -58.66 71.32 -59 72 C-61.5 70.6875 -61.5 70.6875 -64 69 C-64 68.01 -64 67.02 -64 66 C-65.14887695 66.0314209 -66.29775391 66.0628418 -67.48144531 66.09521484 C-71.79755936 66.20489435 -76.11355387 66.27308317 -80.43066406 66.32958984 C-82.28894859 66.35952065 -84.14709483 66.40028147 -86.00488281 66.45263672 C-104.67852585 66.96520711 -104.67852585 66.96520711 -113.51855469 61.49462891 C-116.25995557 59.84342306 -118.94354347 58.91849467 -122 58 C-122.19510709 51.91683965 -121.49393232 46.50566858 -120.25 40.5625 C-118.35136702 31.10622674 -116.77189642 21.62081914 -115.30761719 12.08813477 C-115.15067383 11.07678467 -114.99373047 10.06543457 -114.83203125 9.0234375 C-114.69514893 8.12544434 -114.5582666 7.22745117 -114.41723633 6.30224609 C-114 4 -114 4 -113 1 C-111.35 1 -109.7 1 -108 1 C-108 1.66 -108 2.32 -108 3 C-106.06447266 2.96519531 -106.06447266 2.96519531 -104.08984375 2.9296875 C-102.37240166 2.91091764 -100.65495326 2.89271875 -98.9375 2.875 C-98.08994141 2.85824219 -97.24238281 2.84148437 -96.36914062 2.82421875 C-91.16270359 2.7840146 -87.01352092 3.46350664 -82 5 C-75.01680971 6.21420891 -67.94234881 6.19227273 -60.875 6.1875 C-59.19192749 6.18737915 -59.19192749 6.18737915 -57.47485352 6.18725586 C-39.28504797 7.30543871 -39.28504797 7.30543871 -23 3 C-21.00344494 2.81282296 -19.00209265 2.67604461 -17 2.5625 C-11.42963372 2.18214459 -5.43805177 0 0 0 Z " fill="#83FB72" transform="translate(183,316)"/>
<path d="M0 0 C0.66 0.33 1.32 0.66 2 1 C2.17024926 4.10400888 2.33701589 7.20810628 2.5 10.3125 C2.54842041 11.22572021 2.59684082 12.13894043 2.64672852 13.07983398 C2.93158693 18.73530339 3.06631881 24.34202973 2.83984375 30.00390625 C2.86292871 32.32130227 2.86292871 32.32130227 5 35 C5.29740209 39.45586946 4.99560487 43.91558514 4.8125 48.375 C4.78091797 49.60734375 4.74933594 50.8396875 4.71679688 52.109375 C4.67232422 53.29789063 4.62785156 54.48640625 4.58203125 55.7109375 C4.54311768 56.79681152 4.5042041 57.88268555 4.46411133 59.00146484 C3.90278576 62.62808274 2.61842228 65.38157772 0 68 C-0.36760731 70.32817964 -0.70241581 72.6618385 -1 75 C-1.66 75 -2.32 75 -3 75 C-3 82.26 -3 89.52 -3 97 C-3.66 97 -4.32 97 -5 97 C-5.95918991 71.76797657 -5.95918991 71.76797657 0.6171875 62.79296875 C2.73788548 58.50963809 2.39922201 54.3993957 2.3125 49.6875 C2.30412109 48.70201172 2.29574219 47.71652344 2.28710938 46.70117188 C2.17415058 39.75646534 1.46124592 33.11828226 0.4453125 26.25 C-0.63737651 17.58848788 -0.15657208 8.71022548 0 0 Z " fill="#181218" transform="translate(19,201)"/>
<path d="M0 0 C0 0.66 0 1.32 0 2 C-3.96 2.66 -7.92 3.32 -12 4 C-12.33 5.32 -12.66 6.64 -13 8 C-14.62490954 8.02698189 -16.24994633 8.04638757 -17.875 8.0625 C-19.23238281 8.07990234 -19.23238281 8.07990234 -20.6171875 8.09765625 C-23 8 -23 8 -25 7 C-26.5912342 6.78058781 -28.18929031 6.60940148 -29.7890625 6.46484375 C-31.20058594 6.33432617 -31.20058594 6.33432617 -32.640625 6.20117188 C-34.11789063 6.0706543 -34.11789063 6.0706543 -35.625 5.9375 C-37.11386719 5.80118164 -37.11386719 5.80118164 -38.6328125 5.66210938 C-41.08823868 5.43781564 -43.54394389 5.21726893 -46 5 C-46 4.67 -46 4.34 -46 4 C-45.19780029 3.98018066 -44.39560059 3.96036133 -43.5690918 3.93994141 C-39.94155823 3.84480505 -36.31460955 3.7350792 -32.6875 3.625 C-31.42486328 3.5940625 -30.16222656 3.563125 -28.86132812 3.53125 C-27.04858398 3.47324219 -27.04858398 3.47324219 -25.19921875 3.4140625 C-24.08377686 3.3826416 -22.96833496 3.3512207 -21.8190918 3.31884766 C-18.79631214 3.194751 -18.79631214 3.194751 -16 1 C-10.61096307 0.08660391 -5.45763636 -0.09745779 0 0 Z " fill="#8CF880" transform="translate(160,322)"/>
<path d="M0 0 C0.57490173 0.16076523 1.14980347 0.32153046 1.74212646 0.48716736 C3.93890785 0.98612409 5.87840704 1.15553433 8.12597656 1.20532227 C9.32676849 1.2352401 9.32676849 1.2352401 10.55181885 1.26576233 C11.83327789 1.29083107 11.83327789 1.29083107 13.140625 1.31640625 C14.02280701 1.33718735 14.90498901 1.35796844 15.81390381 1.37937927 C18.62585831 1.44464867 21.43790445 1.50365447 24.25 1.5625 C26.15886356 1.60570673 28.06771793 1.64932171 29.9765625 1.69335938 C34.65094826 1.80030687 39.32542602 1.90163785 44 2 C43.67 2.99 43.34 3.98 43 5 C37.67978261 5.04953293 32.35970024 5.08578256 27.03930664 5.10986328 C25.23036357 5.11990487 23.42143667 5.1335408 21.61254883 5.15087891 C19.00858565 5.17520832 16.40483758 5.18650161 13.80078125 5.1953125 C12.59268547 5.21079636 12.59268547 5.21079636 11.36018372 5.22659302 C7.11030774 5.22743729 3.87932557 4.96516229 0 3 C0 2.01 0 1.02 0 0 Z " fill="#21631B" transform="translate(75,380)"/>
<path d="M0 0 C3.875 0.875 3.875 0.875 5 2 C5.26524675 5.78299819 5.18967161 9.58391531 5.1875 13.375 C5.1884668 15.09565674 5.1884668 15.09565674 5.18945312 16.85107422 C5.11333147 29.61356204 4.12921232 42.29335817 3 55 C2.67 55 2.34 55 2 55 C2 37.18 2 19.36 2 1 C1.34 0.67 0.68 0.34 0 0 Z " fill="#222420" transform="translate(119,385)"/>
<path d="M0 0 C0.33 0.99 0.66 1.98 1 3 C0.67 3.66 0.34 4.32 0 5 C-0.12082534 6.66345582 -0.1753794 8.33220591 -0.1875 10 C-0.20167969 10.886875 -0.21585938 11.77375 -0.23046875 12.6875 C-0.22713126 15.19519984 -0.22713126 15.19519984 2 17 C6.38930414 26.14438363 7.56540881 37.9357232 7 48 C6.34 48.66 5.68 49.32 5 50 C2.875 49.625 2.875 49.625 1 49 C1.33 48.34 1.66 47.68 2 47 C2.66 47 3.32 47 4 47 C3.76011353 46.14063843 3.76011353 46.14063843 3.51538086 45.26391602 C3.01022461 43.04491368 2.82999448 41.0479497 2.75390625 38.77734375 C2.72103516 37.99166016 2.68816406 37.20597656 2.65429688 36.39648438 C2.59295859 34.75340128 2.53568508 33.11016155 2.48242188 31.46679688 C2.43118164 30.29020508 2.43118164 30.29020508 2.37890625 29.08984375 C2.3538501 28.37691162 2.32879395 27.66397949 2.30297852 26.92944336 C2.08734258 24.67719376 2.08734258 24.67719376 0 22 C-0.125 19.3125 -0.125 19.3125 0 17 C-0.66 17 -1.32 17 -2 17 C-2 15.02 -2 13.04 -2 11 C-2.66 11 -3.32 11 -4 11 C-4 10.34 -4 9.68 -4 9 C-3.34 9 -2.68 9 -2 9 C-2 6.36 -2 3.72 -2 1 C-1.34 0.67 -0.68 0.34 0 0 Z " fill="#292628" transform="translate(37,342)"/>
<path d="M0 0 C1.32 0.33 2.64 0.66 4 1 C3.01 1 2.02 1 1 1 C0.67 1.99 0.34 2.98 0 4 C-0.66 4 -1.32 4 -2 4 C-1.67 4.66 -1.34 5.32 -1 6 C-0.88734079 7.44433698 -0.83346141 8.89349819 -0.81054688 10.34204102 C-0.79382935 11.2395961 -0.77711182 12.13715118 -0.7598877 13.06190491 C-0.74631226 14.03276535 -0.73273682 15.00362579 -0.71875 16.00390625 C-0.70034058 16.9975267 -0.68193115 17.99114716 -0.66296387 19.01487732 C-0.58408112 23.27925586 -0.51639734 27.54379591 -0.44775391 31.80834961 C-0.39616492 34.91528477 -0.33886762 38.02207802 -0.28125 41.12890625 C-0.26088684 42.58823326 -0.26088684 42.58823326 -0.2401123 44.07704163 C-0.22339478 44.97144455 -0.20667725 45.86584747 -0.18945312 46.78735352 C-0.17692505 47.57852066 -0.16439697 48.36968781 -0.15148926 49.18482971 C-0.19506064 51.02022211 -0.19506064 51.02022211 1 52 C1.08651611 53.41570123 1.10704904 54.835595 1.09765625 56.25390625 C1.09443359 57.10791016 1.09121094 57.96191406 1.08789062 58.84179688 C1.07951172 59.73962891 1.07113281 60.63746094 1.0625 61.5625 C1.05798828 62.46419922 1.05347656 63.36589844 1.04882812 64.29492188 C1.03700225 66.53001314 1.0205222 68.76497437 1 71 C0.67 71 0.34 71 0 71 C-3.08985552 48.38105762 -3.15636148 25.79028715 -3 3 C-2.01 2.67 -1.02 2.34 0 2 C0 1.34 0 0.68 0 0 Z " fill="#293227" transform="translate(132,382)"/>
<path d="M0 0 C0.66 0 1.32 0 2 0 C2.33 0.99 2.66 1.98 3 3 C2.34 3.66 1.68 4.32 1 5 C0.41846648 7.37955448 0.41846648 7.37955448 0.0625 10.1875 C-1.38940013 19.65887973 -3.1857493 29.04334733 -5.625 38.3125 C-6.97552058 43.52367105 -7.65569117 48.63353133 -8 54 C-10 52 -10 52 -10.08203125 50.20385742 C-9.09593073 41.84076039 -7.55126851 33.5850217 -6 25.3125 C-5.58774295 23.09806999 -5.17668397 20.88342692 -4.76708984 18.66850281 C-4.39651759 16.66700019 -4.02258103 14.66612131 -3.6484375 12.6652832 C-3.02033075 9.11491929 -2.48838325 5.57159046 -2 2 C-1.34 2 -0.68 2 0 2 C0 1.34 0 0.68 0 0 Z " fill="#9ADE88" transform="translate(71,318)"/>
<path d="M0 0 C0.66 0 1.32 0 2 0 C3.35439668 2.70879335 3.06501451 5.00933268 3 8 C2.34 8 1.68 8 1 8 C1 9.65 1 11.3 1 13 C0.01 13.495 0.01 13.495 -1 14 C-1.37400786 16.32716 -1.70764733 18.66117862 -2 21 C-2.33 21.33 -2.66 21.66 -3 22 C-3.08651611 23.41570123 -3.10704904 24.835595 -3.09765625 26.25390625 C-3.09443359 27.10791016 -3.09121094 27.96191406 -3.08789062 28.84179688 C-3.07951172 29.73962891 -3.07113281 30.63746094 -3.0625 31.5625 C-3.05798828 32.46419922 -3.05347656 33.36589844 -3.04882812 34.29492188 C-3.03700225 36.53001314 -3.0205222 38.76497437 -3 41 C-2.01 41 -1.02 41 0 41 C0 41.99 0 42.98 0 44 C-1.65614657 44.38218767 -3.32457024 44.71395102 -5 45 C-7.38323081 42.61676919 -6.30868189 36.06261628 -6.32568359 32.72241211 C-6.22103566 24.36385325 -4.80597315 16.34888632 -0.875 8.85546875 C0.4914349 5.95789474 0.12101332 3.14634634 0 0 Z " fill="#221E23" transform="translate(216,348)"/>
<path d="M0 0 C0.33 0.66 0.66 1.32 1 2 C1.66 2 2.32 2 3 2 C3.33608711 10.05364285 3.0517291 16.49783264 0 24 C-0.66 24 -1.32 24 -2 24 C-1.98839844 24.84304688 -1.97679688 25.68609375 -1.96484375 26.5546875 C-1.95130859 28.19824219 -1.95130859 28.19824219 -1.9375 29.875 C-1.92589844 30.96554687 -1.91429688 32.05609375 -1.90234375 33.1796875 C-2 36 -2 36 -3 38 C1.5838914 39.09315246 6.12511007 39.32282625 10.8125 39.5625 C11.99489258 39.62727539 11.99489258 39.62727539 13.20117188 39.69335938 C15.13394215 39.79878321 17.06695026 39.89983094 19 40 C19 40.33 19 40.66 19 41 C12.73 41 6.46 41 0 41 C0 40.34 0 39.68 0 39 C-1.65 39 -3.3 39 -5 39 C-5.20311079 33.75974157 -4.53238422 29.41898286 -3.125 24.375 C-2.77695313 23.10398437 -2.42890625 21.83296875 -2.0703125 20.5234375 C-1 17 -1 17 0.15625 14.43359375 C1.2382227 11.31290397 0.98412706 8.95555623 0.625 5.6875 C0.51414062 4.61886719 0.40328125 3.55023438 0.2890625 2.44921875 C0.19367188 1.64097656 0.09828125 0.83273437 0 0 Z " fill="#262E23" transform="translate(75,278)"/>
<path d="M0 0 C16.83 0 33.66 0 51 0 C51 0.33 51 0.66 51 1 C50.07316406 1.06058594 49.14632812 1.12117188 48.19140625 1.18359375 C46.39509766 1.30927734 46.39509766 1.30927734 44.5625 1.4375 C43.36753906 1.51871094 42.17257813 1.59992188 40.94140625 1.68359375 C38.11429756 1.67656114 38.11429756 1.67656114 37 3 C32.88175594 3.25722814 28.75029862 3.18525066 24.625 3.1875 C23.48160156 3.19974609 22.33820313 3.21199219 21.16015625 3.22460938 C13.88554955 3.23702338 7.10139275 2.5877829 0 1 C0 0.67 0 0.34 0 0 Z " fill="#53B349" transform="translate(101,322)"/>
<path d="M0 0 C0.33 0 0.66 0 1 0 C1.02741912 1.5415636 1.04658248 3.08327474 1.0625 4.625 C1.07410156 5.48351562 1.08570313 6.34203125 1.09765625 7.2265625 C1 10 1 10 0.50219727 12.55761719 C-0.14725897 17.00940761 -0.14295011 21.35898808 -0.1328125 25.8515625 C-0.13376923 26.78801605 -0.13472595 27.7244696 -0.13571167 28.68930054 C-0.13638987 30.66103177 -0.13456077 32.63276529 -0.13037109 34.60449219 C-0.1250057 37.62179564 -0.13033449 40.63895107 -0.13671875 43.65625 C-0.13605814 45.57552116 -0.13477733 47.49479223 -0.1328125 49.4140625 C-0.13483673 50.31516754 -0.13686096 51.21627258 -0.13894653 52.14468384 C-0.13579437 52.9859079 -0.13264221 53.82713196 -0.12939453 54.69384766 C-0.12859894 55.43075836 -0.12780334 56.16766907 -0.12698364 56.9269104 C0.0036963 59.06034445 0.41677097 60.94782549 1 63 C-0.485 63.495 -0.485 63.495 -2 64 C-2.91463407 60.8844171 -3.12154961 58.10604372 -3.11352539 54.86425781 C-3.11344986 53.84350159 -3.11337433 52.82274536 -3.11329651 51.77105713 C-3.10813522 50.67613953 -3.10297394 49.58122192 -3.09765625 48.453125 C-3.0962413 47.3267865 -3.09482635 46.200448 -3.09336853 45.03997803 C-3.08777199 41.44329165 -3.0752201 37.84666756 -3.0625 34.25 C-3.05748455 31.81119882 -3.05292172 29.37239666 -3.04882812 26.93359375 C-3.0378037 20.95570792 -3.02106898 14.97785841 -3 9 C-2.34 8.67 -1.68 8.34 -1 8 C-0.53476937 6.10466658 -0.53476937 6.10466658 -0.375 3.9375 C-0.25125 2.638125 -0.1275 1.33875 0 0 Z " fill="#150F12" transform="translate(236,300)"/>
<path d="M0 0 C1.35156083 0.00502861 2.70312348 0.00958909 4.0546875 0.01367188 C7.32817265 0.02536289 10.60156186 0.04174971 13.875 0.0625 C13.875 0.3925 13.875 0.7225 13.875 1.0625 C13.06981934 1.11784912 12.26463867 1.17319824 11.43505859 1.23022461 C8.37466435 1.44068968 5.31428173 1.65132285 2.25390625 1.86206055 C0.30730025 1.99605572 -1.63931844 2.12986659 -3.5859375 2.26367188 C-6.14365168 2.43984096 -8.7012692 2.61741879 -11.25878906 2.79638672 C-13.88554455 2.97718765 -16.51195421 3.1515135 -19.13964844 3.31689453 C-21.03118652 3.44040283 -21.03118652 3.44040283 -22.9609375 3.56640625 C-24.09837402 3.63802979 -25.23581055 3.70965332 -26.40771484 3.78344727 C-29.08852886 3.89697241 -29.08852886 3.89697241 -31.125 5.0625 C-33.7973621 5.19665472 -36.44750488 5.10568541 -39.125 5.0625 C-36.60233832 2.53983832 -35.12011838 2.53597821 -31.625 2 C-30.15546875 1.76603516 -30.15546875 1.76603516 -28.65625 1.52734375 C-27.4909375 1.37394531 -26.325625 1.22054688 -25.125 1.0625 C-24.08303467 0.9246106 -24.08303467 0.9246106 -23.02001953 0.78393555 C-15.35128422 -0.11485613 -7.71193462 -0.04972974 0 0 Z " fill="#297221" transform="translate(175.125,376.9375)"/>
<path d="M0 0 C1.03115279 3.26913624 0.9638984 5.86041348 0.5625 9.25 C0.46066406 10.14203125 0.35882813 11.0340625 0.25390625 11.953125 C0.17011719 12.62859375 0.08632812 13.3040625 0 14 C-0.66 14 -1.32 14 -2 14 C-2 19.28 -2 24.56 -2 30 C-2.99 30 -3.98 30 -5 30 C-4.938125 30.928125 -4.87625 31.85625 -4.8125 32.8125 C-5 36 -5 36 -6.51171875 37.69921875 C-7.00285156 38.12847656 -7.49398437 38.55773437 -8 39 C-7.58712891 33.96297271 -6.90496045 29.35910713 -5.5 24.5 C-4.30987821 20.37194473 -3.62375243 16.48079278 -3.24609375 12.2109375 C-2.12326044 2.12326044 -2.12326044 2.12326044 0 0 Z " fill="#8EF37E" transform="translate(72,322)"/>
<path d="M0 0 C1 3 1 3 0 6 C-0.2757246 8.16123524 -0.49928292 10.32939268 -0.6875 12.5 C-0.84798828 14.21703125 -0.84798828 14.21703125 -1.01171875 15.96875 C-1.27791811 19.18055884 -1.27791811 19.18055884 1 22 C1.34413243 27.24801962 0.9775939 31.05601526 -1 36 C-1.33 36 -1.66 36 -2 36 C-2.19466332 34.20909747 -2.38051213 32.41723495 -2.5625 30.625 C-2.66691406 29.62726563 -2.77132812 28.62953125 -2.87890625 27.6015625 C-3 25 -3 25 -2 23 C-2.66 23 -3.32 23 -4 23 C-4.33 20.69 -4.66 18.38 -5 16 C-4.34 15.67 -3.68 15.34 -3 15 C-2.74422221 12.67474734 -2.59424914 10.33737873 -2.5 8 C-2.40575086 5.66262127 -2.25577779 3.32525266 -2 1 C-1.34 0.67 -0.68 0.34 0 0 Z " fill="#211C22" transform="translate(163,36)"/>
<path d="M0 0 C0.99 0 1.98 0 3 0 C3 5.94 3 11.88 3 18 C3.66 18 4.32 18 5 18 C6.05127928 21.38391578 6.04087598 24.33203425 5.87890625 27.859375 C5.83056641 28.97441406 5.78222656 30.08945312 5.73242188 31.23828125 C5.67634766 32.39714844 5.62027344 33.55601562 5.5625 34.75 C5.48418945 36.51150391 5.48418945 36.51150391 5.40429688 38.30859375 C5.27473776 41.20600664 5.13977553 44.10306493 5 47 C4.67 47 4.34 47 4 47 C3.96261719 45.93007813 3.92523438 44.86015625 3.88671875 43.7578125 C3.34369398 30.52360731 1.89634012 17.45211861 0.25952148 4.31225586 C0 2 0 2 0 0 Z " fill="#1D191C" transform="translate(136,563)"/>
<path d="M0 0 C-3.07803391 2.05202261 -3.84567955 2.25785327 -7.34375 2.34375 C-8.59478516 2.38822266 -8.59478516 2.38822266 -9.87109375 2.43359375 C-12.5 2.5 -12.5 2.5 -15.12890625 2.56640625 C-16.37994141 2.61087891 -16.37994141 2.61087891 -17.65625 2.65625 C-18.79803711 2.68428711 -18.79803711 2.68428711 -19.96289062 2.71289062 C-22.30975611 2.89367317 -22.30975611 2.89367317 -25 5 C-26.299375 5.12375 -27.59875 5.2475 -28.9375 5.375 C-32.1546324 5.68901108 -32.87873914 5.89995979 -35.5 8.0625 C-35.995 8.701875 -36.49 9.34125 -37 10 C-37.99 9.67 -38.98 9.34 -40 9 C-40 7 -40 7 -38.86328125 5.4765625 C-29.60279846 -1.8619333 -11.25470209 -0.23339244 0 0 Z " fill="#032602" transform="translate(170,379)"/>
<path d="M0 0 C0.33 0 0.66 0 1 0 C1.19335938 0.85722656 1.38671875 1.71445312 1.5859375 2.59765625 C1.84632813 3.74105469 2.10671875 4.88445312 2.375 6.0625 C2.64699219 7.26132812 2.91898438 8.46015625 3.19921875 9.6953125 C3.95770075 13.05343178 3.95770075 13.05343178 5.1875 16.4375 C6.50893107 22.23146702 6.14771275 28.08328387 6 34 C5.34 33.67 4.68 33.34 4 33 C3.57367106 30.545648 3.24984913 28.16054371 3 25.6875 C2.59508804 20.66836397 2.59508804 20.66836397 0.9453125 15.97265625 C-0.51251739 12.93049057 -0.18681515 10.08801786 -0.125 6.75 C-0.10695312 5.48671875 -0.08890625 4.2234375 -0.0703125 2.921875 C-0.04710937 1.95765625 -0.02390625 0.9934375 0 0 Z " fill="#9DEF87" transform="translate(185,338)"/>
<path d="M0 0 C1.485 0.99 1.485 0.99 3 2 C3.1875 5.625 3.1875 5.625 3 9 C3.99 9 4.98 9 6 9 C6.06058594 10.21558594 6.12117187 11.43117188 6.18359375 12.68359375 C6.26798332 14.26824228 6.3526321 15.85287702 6.4375 17.4375 C6.47681641 18.23994141 6.51613281 19.04238281 6.55664062 19.86914062 C6.4054296 23.75239561 6.4054296 23.75239561 8 27 C8.07271741 29.35313555 8.08370868 31.70833668 8.0625 34.0625 C8.05347656 35.35285156 8.04445312 36.64320313 8.03515625 37.97265625 C8.02355469 38.97167969 8.01195312 39.97070312 8 41 C7.67 41 7.34 41 7 41 C6.51715947 38.04222216 6.03778756 35.08399512 5.5625 32.125 C5.42199219 31.25182129 5.28148437 30.37864258 5.13671875 29.47900391 C4.44660244 25.11287887 3.83011738 20.78593005 3.5 16.375 C3.16375142 12.28993743 2.07165519 8.7343637 0.62109375 4.91015625 C0 3 0 3 0 0 Z " fill="#1C161D" transform="translate(193,247)"/>
<path d="M0 0 C0.99 0 1.98 0 3 0 C2.01827172 12.19845854 0.72797123 24.05236131 -2 36 C-2.21011719 36.96292969 -2.42023437 37.92585938 -2.63671875 38.91796875 C-3.08042437 40.94768597 -3.5380132 42.97436557 -4 45 C-4.33 45 -4.66 45 -5 45 C-5 41.37 -5 37.74 -5 34 C-4.34 34 -3.68 34 -3 34 C-2.90912109 32.62714844 -2.90912109 32.62714844 -2.81640625 31.2265625 C-2.69072266 29.44378906 -2.69072266 29.44378906 -2.5625 27.625 C-2.48128906 26.44164062 -2.40007813 25.25828125 -2.31640625 24.0390625 C-2 21 -2 21 -1 19 C-0.84932786 17.5534758 -0.75138964 16.1012066 -0.68359375 14.6484375 C-0.64169922 13.79765625 -0.59980469 12.946875 -0.55664062 12.0703125 C-0.51732422 11.18085938 -0.47800781 10.29140625 -0.4375 9.375 C-0.37272461 8.02921875 -0.37272461 8.02921875 -0.30664062 6.65625 C-0.20043139 4.43765717 -0.09838806 2.2189512 0 0 Z " fill="#282526" transform="translate(53,259)"/>
<path d="M0 0 C1.27609323 0.90933009 2.54565553 1.82782853 3.8125 2.75 C4.87404297 3.51570312 4.87404297 3.51570312 5.95703125 4.296875 C8.09272462 6.07730007 9.58369986 7.60491918 11 10 C11.31555395 14.76742321 10.18188831 19.76456975 8 24 C5.4345406 26.5654594 3.52313332 26.54046087 0 27 C0.33 26.34 0.66 25.68 1 25 C2.32 25 3.64 25 5 25 C5 24.34 5 23.68 5 23 C5.66 23 6.32 23 7 23 C7 20.36 7 17.72 7 15 C7.99 15 8.98 15 10 15 C9.505 14.21625 9.01 13.4325 8.5 12.625 C7 10 7 10 7 8 C6.34 8 5.68 8 5 8 C3.375 6.625 3.375 6.625 2 5 C2 4.34 2 3.68 2 3 C1.34 3 0.68 3 0 3 C0 2.01 0 1.02 0 0 Z " fill="#211B22" transform="translate(169,663)"/>
<path d="M0 0 C0.33 0 0.66 0 1 0 C1.50744423 1.89385437 2.00564574 3.79018666 2.5 5.6875 C2.7784375 6.74324219 3.056875 7.79898437 3.34375 8.88671875 C3.94200035 11.72484688 4.20792468 14.11504505 4 17 C-0.13920836 21.13920836 -10.94823664 20.44613842 -16.375 20.75390625 C-18.92395751 20.71128488 -18.92395751 20.71128488 -20 22 C-21.66617115 22.04063832 -23.33388095 22.042721 -25 22 C-24.01 21.67 -23.02 21.34 -22 21 C-22 20.34 -22 19.68 -22 19 C-17.38 19 -12.76 19 -8 19 C-8 18.34 -8 17.68 -8 17 C-4.7 17 -1.4 17 2 17 C1.81535634 12.65815798 1.81535634 12.65815798 0 9 C-0.07179964 7.48071962 -0.08392007 5.95832518 -0.0625 4.4375 C-0.05347656 3.61121094 -0.04445312 2.78492188 -0.03515625 1.93359375 C-0.02355469 1.29550781 -0.01195312 0.65742188 0 0 Z " fill="#2A3428" transform="translate(179,299)"/>
<path d="M0 0 C0.33 0 0.66 0 1 0 C3.85057307 13.94744681 4.69261047 29.15271073 1 43 C0.67 43 0.34 43 0 43 C-0.22211116 41.06403108 -0.42722992 39.12610672 -0.625 37.1875 C-0.74101562 36.10855469 -0.85703125 35.02960937 -0.9765625 33.91796875 C-1 31 -1 31 1 28 C1.28044135 24.86497685 1.28044135 24.86497685 1.1875 21.4375 C1.18105469 20.28121094 1.17460937 19.12492188 1.16796875 17.93359375 C1.19771176 15.06596198 1.19771176 15.06596198 0 13 C-0.07092842 10.7927077 -0.08415025 8.58332548 -0.0625 6.375 C-0.05347656 5.18648438 -0.04445312 3.99796875 -0.03515625 2.7734375 C-0.02355469 1.85820312 -0.01195312 0.94296875 0 0 Z " fill="#1E181A" transform="translate(184,505)"/>
<path d="M0 0 C2.375 0.25 2.375 0.25 5 1 C6.3125 3.0625 6.3125 3.0625 7 5 C7.66 3.68 8.32 2.36 9 1 C9.33 3.97 9.66 6.94 10 10 C9.34 10 8.68 10 8 10 C7.7525 10.61875 7.505 11.2375 7.25 11.875 C5.74177256 14.43898664 4.82363942 15.11257047 2 16 C-0.75 15.625 -0.75 15.625 -3 15 C-2.67 14.34 -2.34 13.68 -2 13 C-0.35 13 1.3 13 3 13 C3.33 12.34 3.66 11.68 4 11 C4.66 11 5.32 11 6 11 C6 10.01 6 9.02 6 8 C5.34 8 4.68 8 4 8 C3.896875 7.05125 3.79375 6.1025 3.6875 5.125 C3.31460705 1.70892499 3.31460705 1.70892499 0 0 Z " fill="#0E0A0E" transform="translate(31,379)"/>
<path d="M0 0 C1.08701525 3.26104574 0.92274192 4.22577787 0.14453125 7.46484375 C-0.06405518 8.34245361 -0.2726416 9.22006348 -0.48754883 10.12426758 C-0.83402466 11.51681763 -0.83402466 11.51681763 -1.1875 12.9375 C-1.41655029 13.87940186 -1.64560059 14.82130371 -1.8815918 15.79174805 C-3.5840982 22.65901563 -5.5398146 29.36162264 -8 36 C-8.66 35.67 -9.32 35.34 -10 35 C-10 33.35 -10 31.7 -10 30 C-9.34 29.67 -8.68 29.34 -8 29 C-7.66073053 26.66752239 -7.32759934 24.33414529 -7 22 C-6.34 21.34 -5.68 20.68 -5 20 C-4.54188325 18.02764667 -4.54188325 18.02764667 -4.375 15.875 C-4.189375 13.956875 -4.189375 13.956875 -4 12 C-3.34 12 -2.68 12 -2 12 C-2 8.37 -2 4.74 -2 1 C-1.34 0.67 -0.68 0.34 0 0 Z " fill="#201F1F" transform="translate(47,305)"/>
<path d="M0 0 C0.63599121 0.0707373 1.27198242 0.14147461 1.92724609 0.21435547 C9.50808954 0.9883551 17.00867146 1.15075985 24.625 1.125 C26.39810547 1.13080078 26.39810547 1.13080078 28.20703125 1.13671875 C29.32722656 1.13542969 30.44742188 1.13414062 31.6015625 1.1328125 C32.61557129 1.13168457 33.62958008 1.13055664 34.67431641 1.12939453 C36.96082997 1.26141476 36.96082997 1.26141476 38 0 C39.66617115 -0.04063832 41.33388095 -0.042721 43 0 C40.59375718 2.81226049 40.17310034 2.98230376 36.20288086 3.38818359 C34.62365562 3.40798705 33.04414871 3.4102859 31.46484375 3.3984375 C30.63038223 3.40130768 29.79592072 3.40417786 28.93617249 3.40713501 C27.17350587 3.40917541 25.4108166 3.40364721 23.64819336 3.39111328 C20.94398664 3.37503856 18.24126995 3.39097257 15.53710938 3.41015625 C13.82551752 3.40817421 12.1139266 3.40433134 10.40234375 3.3984375 C9.18513893 3.40754654 9.18513893 3.40754654 7.94334412 3.4168396 C5.66772461 3.38818359 5.66772461 3.38818359 2 3 C1.34 2.01 0.68 1.02 0 0 Z " fill="#7CEF70" transform="translate(101,323)"/>
<path d="M0 0 C0.33 0 0.66 0 1 0 C1 17.82 1 35.64 1 54 C0.01 54 -0.98 54 -2 54 C-1.75885216 53.16604706 -1.75885216 53.16604706 -1.51283264 52.31524658 C-0.95681693 49.80504466 -0.84011107 47.52628314 -0.79467773 44.95605469 C-0.77473251 43.95531921 -0.75478729 42.95458374 -0.73423767 41.92352295 C-0.71752518 40.85047913 -0.70081268 39.7774353 -0.68359375 38.671875 C-0.66281265 37.56773254 -0.64203156 36.46359009 -0.62062073 35.32598877 C-0.55526354 31.80072217 -0.49630436 28.27538141 -0.4375 24.75 C-0.39430164 22.35936735 -0.35068693 19.96874218 -0.30664062 17.578125 C-0.19959628 11.71882827 -0.09780415 5.85945786 0 0 Z " fill="#1B161C" transform="translate(17,310)"/>
<path d="M0 0 C0.86625 0.185625 1.7325 0.37125 2.625 0.5625 C5.94160106 1.18238671 5.94160106 1.18238671 8.9375 0.375 C13.13868936 -0.13943135 15.25032419 1.1251621 19 3 C16.15161879 4.4241906 13.67212092 4.16995508 10.5 4.1875 C9.3346875 4.20167969 8.169375 4.21585937 6.96875 4.23046875 C4 4 4 4 2 2 C1.48050781 2.37253906 0.96101563 2.74507813 0.42578125 3.12890625 C-5.34133791 7.04116638 -5.34133791 7.04116638 -9 6.8125 C-9.66 6.544375 -10.32 6.27625 -11 6 C-10.401875 5.71125 -9.80375 5.4225 -9.1875 5.125 C-6.80672208 3.95257974 -6.80672208 3.95257974 -4 2 C-2.68 2 -1.36 2 0 2 C0 1.34 0 0.68 0 0 Z " fill="#150E15" transform="translate(121,2)"/>
<path d="M0 0 C1.50559539 1.96382007 2.89131683 3.78263366 4 6 C4.99 6.33 5.98 6.66 7 7 C7 7.99 7 8.98 7 10 C6.34 10 5.68 10 5 10 C4.67 10.99 4.34 11.98 4 13 C2.02 12.34 0.04 11.68 -2 11 C-2 8.69 -2 6.38 -2 4 C-1.34 4 -0.68 4 0 4 C0 2.68 0 1.36 0 0 Z " fill="#070408" transform="translate(30,380)"/>
<path d="M0 0 C0.99 0.495 0.99 0.495 2 1 C1.67 2.32 1.34 3.64 1 5 C1.99 5 2.98 5 4 5 C4.05391993 6.79133978 4.09275571 8.58313899 4.125 10.375 C4.14820312 11.37273437 4.17140625 12.37046875 4.1953125 13.3984375 C4 16 4 16 2 18 C1.53837573 20.43252661 1.53837573 20.43252661 1.375 23.125 C1.26285156 24.49011719 1.26285156 24.49011719 1.1484375 25.8828125 C1.09945312 26.58148438 1.05046875 27.28015625 1 28 C0.67 28 0.34 28 0 28 C0 18.76 0 9.52 0 0 Z " fill="#211B22" transform="translate(101,86)"/>
<path d="M0 0 C0.33 0 0.66 0 1 0 C1.2785731 12.8143625 0.48801657 25.27214397 -1 38 C-1.33 38 -1.66 38 -2 38 C-2.02886537 33.68751391 -2.04675255 29.37505238 -2.0625 25.0625 C-2.07087891 23.83080078 -2.07925781 22.59910156 -2.08789062 21.33007812 C-2.09111328 20.16025391 -2.09433594 18.99042969 -2.09765625 17.78515625 C-2.10289307 16.70113525 -2.10812988 15.61711426 -2.11352539 14.50024414 C-2 12 -2 12 -1 11 C-0.76636119 9.15108054 -0.58696365 7.29511969 -0.4375 5.4375 C-0.35371094 4.42558594 -0.26992187 3.41367188 -0.18359375 2.37109375 C-0.12300781 1.58863281 -0.06242188 0.80617187 0 0 Z " fill="#171316" transform="translate(233,202)"/>
<path d="M0 0 C1.32 0 2.64 0 4 0 C4 0.66 4 1.32 4 2 C4.99 2.33 5.98 2.66 7 3 C7 4.32 7 5.64 7 7 C8.32 7.33 9.64 7.66 11 8 C9.989375 7.95875 8.97875 7.9175 7.9375 7.875 C3.81923948 8.00573843 0.88169467 8.73250786 -3 10 C-3.66 9.34 -4.32 8.68 -5 8 C-1.535 7.505 -1.535 7.505 2 7 C2 5.68 2 4.36 2 3 C1.34 3 0.68 3 0 3 C0 2.01 0 1.02 0 0 Z " fill="#1F181B" transform="translate(158,683)"/>
<path d="M0 0 C0.99 0 1.98 0 3 0 C2.74462428 2.1060986 2.47014626 4.20988754 2.1875 6.3125 C2.03667969 7.48425781 1.88585937 8.65601563 1.73046875 9.86328125 C1.0006607 12.99716289 0.67652003 14.26627308 -2 16 C-5.625 15.8125 -5.625 15.8125 -9 15 C-9.33 14.34 -9.66 13.68 -10 13 C-8.68 13 -7.36 13 -6 13 C-5.67 12.01 -5.34 11.02 -5 10 C-2.525 10.99 -2.525 10.99 0 12 C0 8.04 0 4.08 0 0 Z " fill="#0B080B" transform="translate(103,680)"/>
<path d="M0 0 C0.33 0 0.66 0 1 0 C1.05804281 4.41661151 1.09361104 8.83312496 1.125 13.25 C1.15013672 15.13138672 1.15013672 15.13138672 1.17578125 17.05078125 C1.18222656 18.25605469 1.18867187 19.46132813 1.1953125 20.703125 C1.20578613 21.81333008 1.21625977 22.92353516 1.22705078 24.06738281 C1.00468334 26.93950942 0.49281575 28.57223735 -1 31 C-2.01210409 23.77685557 -1.88033658 17.10853597 -1.0625 9.875 C-0.96259766 8.91851563 -0.86269531 7.96203125 -0.75976562 6.9765625 C-0.51546899 4.64992785 -0.26211234 2.324683 0 0 Z " fill="#1A171C" transform="translate(67,507)"/>
<path d="M0 0 C0.33 0 0.66 0 1 0 C1.07977713 4.86640512 0.9898773 9.59392449 0.5 14.4375 C-0.02184823 19.64128232 -0.10202054 24.77428134 0 30 C-0.66 30 -1.32 30 -2 30 C-2.02887512 26.35418313 -2.04675585 22.70839537 -2.0625 19.0625 C-2.07087891 18.02158203 -2.07925781 16.98066406 -2.08789062 15.90820312 C-2.09272461 14.42416992 -2.09272461 14.42416992 -2.09765625 12.91015625 C-2.10289307 11.99371338 -2.10812988 11.07727051 -2.11352539 10.13305664 C-2 8 -2 8 -1 7 C-0.63239269 4.67182036 -0.29758419 2.3381615 0 0 Z " fill="#1F1B1C" transform="translate(118,470)"/>
<path d="M0 0 C0.33 0 0.66 0 1 0 C0.97679687 0.58265625 0.95359375 1.1653125 0.9296875 1.765625 C0.77702661 8.70079103 1.69117533 15.19878611 3 22 C2.01 22 1.02 22 0 22 C0 19.69 0 17.38 0 15 C-0.66 15 -1.32 15 -2 15 C-2 12.03 -2 9.06 -2 6 C-1.34 6 -0.68 6 0 6 C0 4.02 0 2.04 0 0 Z " fill="#1D1A1F" transform="translate(176,277)"/>
<path d="M0 0 C0 0.99 0 1.98 0 3 C-0.97582031 3.06058594 -1.95164063 3.12117188 -2.95703125 3.18359375 C-4.86548828 3.30927734 -4.86548828 3.30927734 -6.8125 3.4375 C-8.07707031 3.51871094 -9.34164062 3.59992188 -10.64453125 3.68359375 C-13.99181893 3.87184547 -13.99181893 3.87184547 -17 5 C-18.72795352 5.06802967 -20.45835365 5.08495645 -22.1875 5.0625 C-23.53908203 5.04896484 -23.53908203 5.04896484 -24.91796875 5.03515625 C-25.60503906 5.02355469 -26.29210937 5.01195312 -27 5 C-27 4.67 -27 4.34 -27 4 C-25.865625 3.855625 -24.73125 3.71125 -23.5625 3.5625 C-20.19222799 3.38828522 -20.19222799 3.38828522 -19 2 C-16.85795689 1.79016721 -14.71075887 1.63176615 -12.5625 1.5 C-8.13627545 1.22791594 -4.33191377 0 0 0 Z " fill="#5FA755" transform="translate(179,317)"/>
<path d="M0 0 C0.99 0.495 0.99 0.495 2 1 C2.59423828 2.81005859 2.59423828 2.81005859 3.0703125 5.1484375 C3.24433594 5.98890625 3.41835937 6.829375 3.59765625 7.6953125 C3.77167969 8.57960938 3.94570312 9.46390625 4.125 10.375 C4.30675781 11.2515625 4.48851562 12.128125 4.67578125 13.03125 C6 19.5428219 6 19.5428219 6 23 C5.01 23 4.02 23 3 23 C3 18.71 3 14.42 3 10 C2.01 9.67 1.02 9.34 0 9 C0 6.03 0 3.06 0 0 Z " fill="#2B3028" transform="translate(189,378)"/>
<path d="M0 0 C5.66082034 0.80868862 8.29672643 1.36157824 13 4 C11.0625 4.5625 11.0625 4.5625 9 5 C8.67 4.67 8.34 4.34 8 4 C5.66055264 4.28730055 3.3260857 4.61936779 1 5 C0.67 8.3 0.34 11.6 0 15 C-0.66 15 -1.32 15 -2 15 C-1.34 10.05 -0.68 5.1 0 0 Z " fill="#395F33" transform="translate(62,375)"/>
<path d="M0 0 C2.97 0.495 2.97 0.495 6 1 C6 1.99 6 2.98 6 4 C2.5647952 6.29013653 1.014669 6.17842973 -3 6 C-3.33 4.35 -3.66 2.7 -4 1 C-3.01 1.99 -2.02 2.98 -1 4 C-0.67 2.68 -0.34 1.36 0 0 Z " fill="#7CEE6A" transform="translate(65,369)"/>
<path d="M0 0 C0.33 0 0.66 0 1 0 C0.979375 0.78375 0.95875 1.5675 0.9375 2.375 C0.81315937 4.98114961 0.81315937 4.98114961 2 7 C1.91089842 9.55807762 1.76705754 12.0762601 1.5625 14.625 C1.51029297 15.33140625 1.45808594 16.0378125 1.40429688 16.765625 C1.27458793 18.51079987 1.13795046 20.25545725 1 22 C0.67 22 0.34 22 0 22 C-3.17117117 4.75675676 -3.17117117 4.75675676 0 0 Z " fill="#171018" transform="translate(90,28)"/>
<path d="M0 0 C0.33 0 0.66 0 1 0 C1.98329211 4.05607995 2.23600253 7.83062202 2 12 C1.34 12.66 0.68 13.32 0 14 C-2.125 13.625 -2.125 13.625 -4 13 C-3.67 12.34 -3.34 11.68 -3 11 C-2.34 11 -1.68 11 -1 11 C-1.01160156 10.28972656 -1.02320313 9.57945312 -1.03515625 8.84765625 C-1.04869141 7.46900391 -1.04869141 7.46900391 -1.0625 6.0625 C-1.07410156 5.14597656 -1.08570313 4.22945313 -1.09765625 3.28515625 C-1 1 -1 1 0 0 Z " fill="#322F32" transform="translate(42,378)"/>
<path d="M0 0 C0 3.61537605 -0.89229241 5.11165997 -3 8 C-3.99 8 -4.98 8 -6 8 C-5.67 8.99 -5.34 9.98 -5 11 C-5.99 11.495 -5.99 11.495 -7 12 C-7.99 11.01 -8.98 10.02 -10 9 C-9.34 9 -8.68 9 -8 9 C-7.7525 8.4225 -7.505 7.845 -7.25 7.25 C-5.46804282 4.04247707 -3.2985891 1.64929455 0 0 Z " fill="#120E13" transform="translate(108,8)"/>
<path d="M0 0 C1.32 0 2.64 0 4 0 C4 5.28 4 10.56 4 16 C3.67 16 3.34 16 3 16 C2.67 12.7 2.34 9.4 2 6 C1.34 6 0.68 6 0 6 C0 4.02 0 2.04 0 0 Z " fill="#85D975" transform="translate(181,332)"/>
<path d="M0 0 C0.33 0 0.66 0 1 0 C1 3.63 1 7.26 1 11 C0.34 11 -0.32 11 -1 11 C-1 16.61 -1 22.22 -1 28 C-1.33 28 -1.66 28 -2 28 C-2.05880804 24.83341337 -2.09386406 21.66697007 -2.125 18.5 C-2.14175781 17.613125 -2.15851563 16.72625 -2.17578125 15.8125 C-2.2172205 10.17676212 -1.60441286 5.40699768 0 0 Z " fill="#221F22" transform="translate(132,514)"/>
<path d="M0 0 C0.99 0 1.98 0 3 0 C3 4.62 3 9.24 3 14 C2.01 13.67 1.02 13.34 0 13 C0 8.71 0 4.42 0 0 Z " fill="#262023" transform="translate(108,617)"/>
<path d="M0 0 C0.33 0.99 0.66 1.98 1 3 C0.67 3.66 0.34 4.32 0 5 C-0.09534254 6.6853196 -0.12985758 8.37449266 -0.125 10.0625 C-0.12757812 10.96097656 -0.13015625 11.85945313 -0.1328125 12.78515625 C-0.24738223 14.97378893 -0.24738223 14.97378893 1 16 C1.04080783 17.99958364 1.04254356 20.00045254 1 22 C0.67 22 0.34 22 0 22 C0 20.35 0 18.7 0 17 C-0.66 17 -1.32 17 -2 17 C-2 15.02 -2 13.04 -2 11 C-2.66 11 -3.32 11 -4 11 C-4 10.34 -4 9.68 -4 9 C-3.34 9 -2.68 9 -2 9 C-2 6.36 -2 3.72 -2 1 C-1.34 0.67 -0.68 0.34 0 0 Z " fill="#222121" transform="translate(37,342)"/>
<path d="M0 0 C0.99 0 1.98 0 3 0 C3 7.66666667 3 15.33333333 3 23 C2.34 22.67 1.68 22.34 1 22 C-0.11933396 18.12809008 -0.10396316 14.38310583 -0.0625 10.375 C-0.05347656 9.24835938 -0.04445312 8.12171875 -0.03515625 6.9609375 C-0.02355469 5.98382813 -0.01195312 5.00671875 0 4 C0 3.01 0 2.02 0 1 C0 0.67 0 0.34 0 0 Z " fill="#1E1B1C" transform="translate(228,240)"/>
<path d="M0 0 C0.33 0 0.66 0 1 0 C1.84023188 4.35332736 2.10770995 8.44442519 2.0625 12.875 C2.05347656 14.02742187 2.04445312 15.17984375 2.03515625 16.3671875 C2.02355469 17.23601562 2.01195312 18.10484375 2 19 C-0.7143239 16.2856761 -0.85269322 13.68936525 -1 10 C-0.79507529 6.64801726 -0.43542818 3.32935082 0 0 Z " fill="#181416" transform="translate(221,156)"/>
<path d="M0 0 C0.33 0 0.66 0 1 0 C1.06058594 0.73605469 1.12117187 1.47210938 1.18359375 2.23046875 C1.26738281 3.20628906 1.35117188 4.18210937 1.4375 5.1875 C1.51871094 6.15042969 1.59992188 7.11335938 1.68359375 8.10546875 C1.97666151 10.78649602 2.42703754 13.3662986 3 16 C0.03 16 -2.94 16 -6 16 C-2 14 -2 14 0 14 C0 9.38 0 4.76 0 0 Z " fill="#8BEA78" transform="translate(188,360)"/>
<path d="M0 0 C2.97922593 -0.02683987 5.95821295 -0.04676037 8.9375 -0.0625 C9.78763672 -0.07087891 10.63777344 -0.07925781 11.51367188 -0.08789062 C12.32255859 -0.09111328 13.13144531 -0.09433594 13.96484375 -0.09765625 C14.7137085 -0.10289307 15.46257324 -0.10812988 16.23413086 -0.11352539 C18 0 18 0 19 1 C21.32817964 1.36760731 23.6618385 1.70241581 26 2 C26 2.33 26 2.66 26 3 C24.58344207 3.0272415 23.16672955 3.04650467 21.75 3.0625 C20.56664062 3.07990234 20.56664062 3.07990234 19.359375 3.09765625 C17.06545393 3.00270919 15.21883648 2.55470912 13 2 C10.75292759 1.7801777 8.50228762 1.59516013 6.25 1.4375 C5.07953125 1.35371094 3.9090625 1.26992188 2.703125 1.18359375 C1.81109375 1.12300781 0.9190625 1.06242187 0 1 C0 0.67 0 0.34 0 0 Z " fill="#86DE7A" transform="translate(75,320)"/>
<path d="M0 0 C0.66 0 1.32 0 2 0 C2 8.25 2 16.5 2 25 C1.34 25.33 0.68 25.66 0 26 C-0.94148531 23.17554408 -1.07311695 21.85828382 -0.87890625 18.98828125 C-0.83056641 18.23095703 -0.78222656 17.47363281 -0.73242188 16.69335938 C-0.64831055 15.51483398 -0.64831055 15.51483398 -0.5625 14.3125 C-0.51029297 13.51521484 -0.45808594 12.71792969 -0.40429688 11.89648438 C-0.27480978 9.93063478 -0.13809959 7.96526335 0 6 C-0.66 5.67 -1.32 5.34 -2 5 C-1.34 5 -0.68 5 0 5 C0 3.35 0 1.7 0 0 Z " fill="#121012" transform="translate(150,90)"/>
<path d="M0 0 C1.98510058 1.63707833 2.91847304 2.50096147 3.34057617 5.0847168 C3.32486572 5.86500244 3.30915527 6.64528809 3.29296875 7.44921875 C3.28330078 8.29677734 3.27363281 9.14433594 3.26367188 10.01757812 C3.23853516 10.89865234 3.21339844 11.77972656 3.1875 12.6875 C3.16719727 14.02651367 3.16719727 14.02651367 3.14648438 15.39257812 C3.11114079 17.59566166 3.06180493 19.79752582 3 22 C2.67 22 2.34 22 2 22 C1.66304138 19.27123692 1.33031571 16.54206837 1 13.8125 C0.90460938 13.04357422 0.80921875 12.27464844 0.7109375 11.48242188 C0.24807106 7.63071189 -0.12467468 3.88829149 0 0 Z " fill="#2F292E" transform="translate(130,431)"/>
<path d="M0 0 C1.32 0 2.64 0 4 0 C4 0.66 4 1.32 4 2 C0.31825638 3.84087181 -4.06824181 3.46968405 -8.12890625 3.71875 C-10.89459821 3.68299798 -10.89459821 3.68299798 -12 5 C-13.66617115 5.04063832 -15.33388095 5.042721 -17 5 C-16.01 4.67 -15.02 4.34 -14 4 C-14 3.34 -14 2.68 -14 2 C-9.38 2 -4.76 2 0 2 C0 1.34 0 0.68 0 0 Z " fill="#183C13" transform="translate(171,316)"/>
<path d="M0 0 C0.33 0 0.66 0 1 0 C1.24979445 1.91408757 1.47408014 3.83151611 1.6875 5.75 C1.87892578 7.35101563 1.87892578 7.35101563 2.07421875 8.984375 C1.99001814 12.40557866 1.30925485 13.55420823 -1 16 C-2.24327778 10.15659442 -1.57300962 5.73303505 0 0 Z " fill="#1D191C" transform="translate(237,364)"/>
<path d="M0 0 C0.33 0 0.66 0 1 0 C1.99 4.95 2.98 9.9 4 15 C2.68 14.67 1.36 14.34 0 14 C0 9.38 0 4.76 0 0 Z " fill="#9FE78E" transform="translate(185,338)"/>
<path d="M0 0 C0.66 0 1.32 0 2 0 C4.3992233 4.64849515 4.19957409 8.91086074 4 14 C3.34 14 2.68 14 2 14 C1.34 9.38 0.68 4.76 0 0 Z " fill="#A2ED97" transform="translate(180,318)"/>
<path d="M0 0 C1.29608947 0.93137592 2.58671632 1.8703566 3.875 2.8125 C4.59429687 3.33457031 5.31359375 3.85664062 6.0546875 4.39453125 C8 6 8 6 10 9 C9.67 9.99 9.34 10.98 9 12 C8.34 10.68 7.68 9.36 7 8 C6.34 8 5.68 8 5 8 C3.375 6.625 3.375 6.625 2 5 C2 4.34 2 3.68 2 3 C1.34 3 0.68 3 0 3 C0 2.01 0 1.02 0 0 Z " fill="#171218" transform="translate(169,663)"/>
<path d="M0 0 C0 3.96 0 7.92 0 12 C-0.99 12.495 -0.99 12.495 -2 13 C-2.33 9.04 -2.66 5.08 -3 1 C-1 0 -1 0 0 0 Z " fill="#191418" transform="translate(144,610)"/>
<path d="M0 0 C1.98 0.495 1.98 0.495 4 1 C4 2.98 4 4.96 4 7 C2.35 6.67 0.7 6.34 -1 6 C-0.67 4.02 -0.34 2.04 0 0 Z " fill="#080408" transform="translate(177,308)"/>
<path d="M0 0 C0.99 0 1.98 0 3 0 C2.34 5.94 1.68 11.88 1 18 C0.67 18 0.34 18 0 18 C0 12.06 0 6.12 0 0 Z " fill="#1E1B1D" transform="translate(53,259)"/>
<path d="M0 0 C0.33 0 0.66 0 1 0 C1.66 5.28 2.32 10.56 3 16 C2.01 15.34 1.02 14.68 0 14 C-0.29296875 10.7421875 -0.29296875 10.7421875 -0.1875 6.875 C-0.16042969 5.59367187 -0.13335937 4.31234375 -0.10546875 2.9921875 C-0.07066406 2.00476563 -0.03585938 1.01734375 0 0 Z " fill="#161115" transform="translate(181,488)"/>
<path d="M0 0 C0.99 0 1.98 0 3 0 C2.77160737 2.10662151 2.51650087 4.21035951 2.25 6.3125 C2.11078125 7.48425781 1.9715625 8.65601563 1.828125 9.86328125 C1 13 1 13 -1.078125 14.91796875 C-1.71234375 15.27503906 -2.3465625 15.63210938 -3 16 C-2.67 14.68 -2.34 13.36 -2 12 C-1.34 12 -0.68 12 0 12 C0 8.04 0 4.08 0 0 Z " fill="#161417" transform="translate(103,680)"/>
<path d="M0 0 C0.66 0.66 1.32 1.32 2 2 C-3.29230769 6.06153846 -3.29230769 6.06153846 -6.875 5.75 C-7.57625 5.5025 -8.2775 5.255 -9 5 C-8.67 4.34 -8.34 3.68 -8 3 C-6.8553125 3.0928125 -6.8553125 3.0928125 -5.6875 3.1875 C-2.95474688 3.25898085 -2.95474688 3.25898085 -1.1875 1.5 C-0.795625 1.005 -0.40375 0.51 0 0 Z " fill="#1D1A1E" transform="translate(37,389)"/>
<path d="M0 0 C3.96 0 7.92 0 12 0 C11.67 0.99 11.34 1.98 11 3 C9.54077307 2.88590407 8.08259402 2.75834456 6.625 2.625 C5.40683594 2.52058594 5.40683594 2.52058594 4.1640625 2.4140625 C2 2 2 2 0 0 Z " fill="#8BF07D" transform="translate(165,320)"/>
<path d="M0 0 C0.33 1.32 0.66 2.64 1 4 C1.66 4 2.32 4 3 4 C2.67 4.66 2.34 5.32 2 6 C1.01 6.33 0.02 6.66 -1 7 C-1.33 7.99 -1.66 8.98 -2 10 C-2.66 9.67 -3.32 9.34 -4 9 C-2.68 6.03 -1.36 3.06 0 0 Z " fill="#110D11" transform="translate(25,184)"/>
<path d="M0 0 C-1.8125 2.5 -1.8125 2.5 -4 5 C-4.99 5 -5.98 5 -7 5 C-6.67 3.35 -6.34 1.7 -6 0 C-3 -1 -3 -1 0 0 Z " fill="#1C1A1C" transform="translate(96,688)"/>
<path d="M0 0 C2.89260975 0.26907998 5.05672151 1.04735841 7.6875 2.25 C7.6875 2.91 7.6875 3.57 7.6875 4.25 C1.7475 3.26 1.7475 3.26 -4.3125 2.25 C-2.3125 0.25 -2.3125 0.25 0 0 Z " fill="#092605" transform="translate(67.3125,377.75)"/>
<path d="M0 0 C2.9375 1.3125 2.9375 1.3125 6 3 C6.33 3.99 6.66 4.98 7 6 C4.33333333 5.33333333 1.66666667 4.66666667 -1 4 C-0.67 2.68 -0.34 1.36 0 0 Z " fill="#021701" transform="translate(73,312)"/>
<path d="M0 0 C0.33 0 0.66 0 1 0 C1.18451025 9.41002278 1.18451025 9.41002278 0 14 C-0.66 14 -1.32 14 -2 14 C-2.04254356 12.00045254 -2.04080783 9.99958364 -2 8 C-1.67 7.67 -1.34 7.34 -1 7 C-0.63239269 4.67182036 -0.29758419 2.3381615 0 0 Z " fill="#292728" transform="translate(118,470)"/>
<path d="M0 0 C0.33 0.99 0.66 1.98 1 3 C1.66 3.33 2.32 3.66 3 4 C2.34 5.65 1.68 7.3 1 9 C-0.32 8.34 -1.64 7.68 -3 7 C-2.01 4.69 -1.02 2.38 0 0 Z " fill="#130F11" transform="translate(221,380)"/>
<path d="M0 0 C0.66 0 1.32 0 2 0 C2.33 0.99 2.66 1.98 3 3 C2.34 3.66 1.68 4.32 1 5 C0.32348793 7.19704511 0.32348793 7.19704511 -0.125 9.625 C-0.37636719 10.85089844 -0.37636719 10.85089844 -0.6328125 12.1015625 C-0.75398438 12.72804688 -0.87515625 13.35453125 -1 14 C-2.13732426 10.59598052 -1.83989957 8.22543336 -1.0625 4.75 C-0.86785156 3.85796875 -0.67320313 2.9659375 -0.47265625 2.046875 C-0.31667969 1.37140625 -0.16070312 0.6959375 0 0 Z " fill="#92EB85" transform="translate(71,318)"/>
<path d="M0 0 C0 0.99 0 1.98 0 3 C-2.57213134 4.61949011 -3.67669159 5.04408751 -6.75 4.625 C-7.4925 4.41875 -8.235 4.2125 -9 4 C-6.01353231 2.00902154 -3.40312738 1.05875074 0 0 Z " fill="#151316" transform="translate(77,127)"/>
<path d="M0 0 C0.66 0 1.32 0 2 0 C1.67 4.62 1.34 9.24 1 14 C-1 12 -1 12 -1.23046875 9.43359375 C-1.21628906 8.44488281 -1.20210938 7.45617187 -1.1875 6.4375 C-1.18105469 5.44621094 -1.17460938 4.45492187 -1.16796875 3.43359375 C-1 1 -1 1 0 0 Z " fill="#272627" transform="translate(114,566)"/>
<path d="M0 0 C0.66 0.33 1.32 0.66 2 1 C2 2.65 2 4.3 2 6 C1.01 6.33 0.02 6.66 -1 7 C-1.33 7.66 -1.66 8.32 -2 9 C-2.66 8.67 -3.32 8.34 -4 8 C-2.68 5.36 -1.36 2.72 0 0 Z " fill="#130F15" transform="translate(95,18)"/>
<path d="M0 0 C1.37562854 1.28965176 2.70766393 2.62689293 4 4 C4 4.66 4 5.32 4 6 C3.01 6.495 3.01 6.495 2 7 C1.34444881 9.52733235 1.34444881 9.52733235 1 12 C0.34 11.67 -0.32 11.34 -1 11 C-0.67 7.37 -0.34 3.74 0 0 Z " fill="#1D1A20" transform="translate(90,643)"/>
<path d="M0 0 C0.33 0 0.66 0 1 0 C1.66 3.63 2.32 7.26 3 11 C2.01 11 1.02 11 0 11 C0 7.37 0 3.74 0 0 Z " fill="#272324" transform="translate(192,390)"/>
<path d="M0 0 C1.48199902 0.44909061 2.96055236 0.90956564 4.4375 1.375 C5.26121094 1.63023437 6.08492187 1.88546875 6.93359375 2.1484375 C9 3 9 3 10 5 C6.7 4.34 3.4 3.68 0 3 C0 2.01 0 1.02 0 0 Z " fill="#130E13" transform="translate(198,134)"/>
<path d="M0 0 C2.97 0.99 5.94 1.98 9 3 C7.68 4.32 6.36 5.64 5 7 C4.731875 6.360625 4.46375 5.72125 4.1875 5.0625 C3.11332248 2.66868314 3.11332248 2.66868314 0 2 C0 1.34 0 0.68 0 0 Z " fill="#161517" transform="translate(175,127)"/>
<path d="M0 0 C0.66 0 1.32 0 2 0 C2.33 0.99 2.66 1.98 3 3 C-3.4 6.07692308 -3.4 6.07692308 -6.4375 5.6875 C-6.953125 5.460625 -7.46875 5.23375 -8 5 C-7.05125 4.54625 -6.1025 4.0925 -5.125 3.625 C-1.99686321 2.19761746 -1.99686321 2.19761746 0 0 Z " fill="#120C14" transform="translate(100,115)"/>
<path d="M0 0 C0.99 0 1.98 0 3 0 C3 1.98 3 3.96 3 6 C3.99 6.33 4.98 6.66 6 7 C6 7.66 6 8.32 6 9 C4.125 8.4375 4.125 8.4375 2 7 C0.75 3.375 0.75 3.375 0 0 Z " fill="#120F14" transform="translate(91,67)"/>
<path d="M0 0 C0.99 0.66 1.98 1.32 3 2 C2.01 2.66 1.02 3.32 0 4 C-0.2502157 7.08365871 -0.2502157 7.08365871 0 10 C-0.99 9.67 -1.98 9.34 -3 9 C-2.4140625 2.84765625 -2.4140625 2.84765625 -2 1 C-1.34 0.67 -0.68 0.34 0 0 Z " fill="#140F14" transform="translate(218,378)"/>
<path d="M0 0 C1.32 0 2.64 0 4 0 C3.67 3.63 3.34 7.26 3 11 C2.67 11 2.34 11 2 11 C1.34 7.37 0.68 3.74 0 0 Z " fill="#181719" transform="translate(206,313)"/>
<path d="M0 0 C2.29633824 3.44450737 2.54016485 5.93812283 3 10 C2.34 10 1.68 10 1 10 C-0.1577506 6.52674819 -0.06866652 3.63932552 0 0 Z " fill="#161016" transform="translate(15,299)"/>
<path d="M0 0 C0.33 0 0.66 0 1 0 C1 3.63 1 7.26 1 11 C0.01 11 -0.98 11 -2 11 C-2 9.35 -2 7.7 -2 6 C-1.34 6 -0.68 6 0 6 C0 4.02 0 2.04 0 0 Z " fill="#16151A" transform="translate(176,277)"/>
<path d="M0 0 C0.99 0 1.98 0 3 0 C3 2.31 3 4.62 3 7 C2.34 7 1.68 7 1 7 C0.67 4.69 0.34 2.38 0 0 Z " fill="#1E1720" transform="translate(75,682)"/>
<path d="M0 0 C2.64 0 5.28 0 8 0 C7.67 0.99 7.34 1.98 7 3 C2.25 2.25 2.25 2.25 0 0 Z " fill="#201C21" transform="translate(216,392)"/>
<path d="M0 0 C3.63 0.33 7.26 0.66 11 1 C7.29489954 2.85255023 5.93924189 3.5183213 2 3 C1.34 2.01 0.68 1.02 0 0 Z " fill="#6FE765" transform="translate(101,323)"/>
<path d="M0 0 C0.66 0.33 1.32 0.66 2 1 C1.34 2.98 0.68 4.96 0 7 C-1.32 6.34 -2.64 5.68 -4 5 C-3.34 4.67 -2.68 4.34 -2 4 C-0.86649466 1.98330173 -0.86649466 1.98330173 0 0 Z " fill="#1A131B" transform="translate(102,13)"/>
<path d="M0 0 C1.32 0 2.64 0 4 0 C4.33 1.65 4.66 3.3 5 5 C2.525 4.01 2.525 4.01 0 3 C0 2.01 0 1.02 0 0 Z " fill="#313131" transform="translate(158,683)"/>
<path d="M0 0 C0.33 0.99 0.66 1.98 1 3 C1.6599679 4.66933058 2.32558869 6.3364521 3 8 C2.01 8.33 1.02 8.66 0 9 C-0.66 6.36 -1.32 3.72 -2 1 C-1.34 0.67 -0.68 0.34 0 0 Z " fill="#100F15" transform="translate(149,672)"/>
<path d="M0 0 C1.31223496 3.93670488 0.24296256 6.12488144 -1 10 C-1.33 10 -1.66 10 -2 10 C-2 7.03 -2 4.06 -2 1 C-1.34 0.67 -0.68 0.34 0 0 Z " fill="#141314" transform="translate(47,305)"/>
</svg>
