<?xml version="1.0" standalone="no"?>
<!DOCTYPE svg PUBLIC "-//W3C//DTD SVG 20010904//EN"
 "http://www.w3.org/TR/2001/REC-SVG-20010904/DTD/svg10.dtd">
<svg version="1.0" xmlns="http://www.w3.org/2000/svg"
 width="33.000000pt" height="35.000000pt" viewBox="0 0 33.000000 35.000000"
 preserveAspectRatio="xMidYMid meet">

<g transform="translate(0.000000,35.000000) scale(0.100000,-0.100000)"
fill="#000000" stroke="none">
<path d="M86 268 l-59 -52 7 -70 c4 -39 13 -81 22 -93 13 -21 22 -23 109 -23
87 0 96 2 109 23 9 12 18 54 22 93 l7 70 -59 52 c-33 28 -68 52 -79 52 -11 0
-46 -24 -79 -52z m94 -158 c0 -25 -18 -36 -26 -16 -8 21 3 49 16 41 5 -3 10
-15 10 -25z"/>
</g>
</svg>
