<svg width="33" height="36" viewBox="0 0 33 36" fill="none" xmlns="http://www.w3.org/2000/svg">
<path d="M2.74909 34.1244C2.47409 34.1244 2.2128 34.0044 2.0203 33.7944C1.75905 33.5094 1.64912 33.0894 1.74537 32.6994L3.47788 25.6344C2.32288 23.2944 1.71784 20.6544 1.71784 17.9844C1.71784 9.08938 8.34534 1.85938 16.4991 1.85938C24.6528 1.85938 31.2803 9.08938 31.2803 17.9844C31.2803 26.8794 24.6528 34.1094 16.4991 34.1094C14.0103 34.1094 11.5766 33.4344 9.40413 32.1444L3.02411 34.0794C2.92786 34.1094 2.84534 34.1244 2.74909 34.1244ZM9.54159 29.8194C9.72034 29.8194 9.8991 29.8794 10.0641 29.9694C12.0029 31.2144 14.2303 31.8744 16.4991 31.8744C23.5116 31.8744 29.2178 25.6494 29.2178 17.9994C29.2178 10.3494 23.5116 4.12439 16.4991 4.12439C9.48659 4.12439 3.78034 10.3494 3.78034 17.9994C3.78034 20.4444 4.37158 22.8294 5.48533 24.9294C5.62283 25.1844 5.6641 25.4994 5.59535 25.7844L4.22035 31.3944L9.28034 29.8644C9.36284 29.8344 9.4591 29.8194 9.54159 29.8194Z" fill="#171717"/>
<path d="M20.2656 26.6404C19.4131 26.6404 18.5331 26.4304 17.6119 25.9954C16.7456 25.5904 15.8794 25.0504 15.0406 24.3754C14.2156 23.7154 13.4044 22.9654 12.6619 22.1554C11.9194 21.3304 11.2319 20.4604 10.6269 19.5604C10.0081 18.6154 9.5131 17.6854 9.1556 16.7704C8.7706 15.7804 8.57812 14.8054 8.57812 13.8754C8.57812 13.2154 8.6881 12.5854 8.89435 12.0004C9.11435 11.3854 9.47186 10.8304 9.93936 10.3504C10.8194 9.40542 12.0844 9.06045 13.0882 9.58545C13.4319 9.75045 13.7207 10.0204 13.9407 10.3804L15.5356 12.8254C15.7006 13.0654 15.8244 13.3204 15.9207 13.5754C16.0307 13.8754 16.0994 14.1755 16.0994 14.4605C16.0994 14.8505 16.0031 15.2405 15.8106 15.5855C15.6869 15.8105 15.5081 16.0805 15.2744 16.3355L15.0956 16.5454C15.1781 16.6654 15.2743 16.8154 15.4256 16.9954C15.7143 17.3554 16.0306 17.7454 16.3744 18.1204C16.7181 18.4804 17.0619 18.8404 17.4056 19.1554C17.5706 19.3054 17.7082 19.4254 17.8182 19.5004L18.0106 19.2904C18.2581 19.0204 18.5057 18.8104 18.7532 18.6754C19.2069 18.3604 19.9081 18.2854 20.5269 18.5704C20.7469 18.6604 20.9669 18.7954 21.2006 18.9754L23.4969 20.7454C23.8132 20.9854 24.0606 21.3154 24.2256 21.6904C24.3631 22.0654 24.4182 22.3954 24.4182 22.7404C24.4182 23.1904 24.3219 23.6254 24.1431 24.0454C23.9644 24.4354 23.7581 24.7804 23.5106 25.0954C23.0706 25.6204 22.5619 26.0104 22.0119 26.2654C21.4619 26.5204 20.8706 26.6404 20.2656 26.6404ZM12.0844 11.6104C12.0019 11.6104 11.7269 11.6104 11.3832 11.9854C11.1219 12.2554 10.9431 12.5404 10.8194 12.8554C10.6956 13.1704 10.6406 13.5304 10.6406 13.8904C10.6406 14.5204 10.7781 15.1954 11.0531 15.9154C11.3419 16.6654 11.7681 17.4604 12.2906 18.2554C12.8269 19.0504 13.4319 19.8454 14.1057 20.5804C14.7794 21.3004 15.4944 21.9754 16.2369 22.5754C16.9519 23.1454 17.6807 23.5954 18.4094 23.9404C19.4544 24.4354 20.4169 24.5554 21.2006 24.1954C21.4756 24.0754 21.7231 23.8654 21.9706 23.5954C22.0944 23.4454 22.1907 23.2954 22.2732 23.1004C22.3144 22.9954 22.3419 22.8754 22.3419 22.7704C22.3419 22.7404 22.3418 22.6954 22.3006 22.6054L20.0044 20.8654C19.9081 20.7904 19.8119 20.7304 19.7294 20.7004C19.6744 20.7304 19.5919 20.7754 19.4407 20.9404L18.9182 21.5104C18.5194 21.9454 17.8869 22.0654 17.3782 21.8704L17.1307 21.7504C16.8144 21.5704 16.4569 21.3004 16.0581 20.9254C15.6731 20.5654 15.3019 20.1904 14.9032 19.7704C14.5182 19.3354 14.1744 18.9304 13.8444 18.5104C13.4869 18.0454 13.2394 17.6704 13.0744 17.3554L12.9232 16.9654C12.8819 16.8154 12.8681 16.6504 12.8681 16.5004C12.8681 16.0804 13.0057 15.7054 13.2669 15.4054L13.7894 14.8204C13.9407 14.6554 13.9957 14.5654 14.0232 14.5054C13.9819 14.4004 13.9269 14.3104 13.8582 14.2054L12.2494 11.7304L12.0844 11.6104Z" fill="#171717"/>
</svg>
