<svg width="32" height="39" viewBox="0 0 32 39" fill="none" xmlns="http://www.w3.org/2000/svg">
<path d="M22.668 34.5312H9.33464C4.46797 34.5312 1.66797 31.1187 1.66797 25.1875V13.8125C1.66797 7.88125 4.46797 4.46875 9.33464 4.46875H22.668C27.5346 4.46875 30.3346 7.88125 30.3346 13.8125V25.1875C30.3346 31.1187 27.5346 34.5312 22.668 34.5312ZM9.33464 6.90625C5.5213 6.90625 3.66797 9.165 3.66797 13.8125V25.1875C3.66797 29.835 5.5213 32.0938 9.33464 32.0938H22.668C26.4813 32.0938 28.3346 29.835 28.3346 25.1875V13.8125C28.3346 9.165 26.4813 6.90625 22.668 6.90625H9.33464Z" fill="#171717"/>
<path d="M15.9984 20.9154C14.8784 20.9154 13.7451 20.4929 12.8784 19.6317L8.70507 15.5692C8.2784 15.1467 8.19841 14.3829 8.54507 13.8629C8.89174 13.3429 9.51841 13.2454 9.94508 13.6679L14.1184 17.7304C15.1317 18.7217 16.8517 18.7217 17.8651 17.7304L22.0384 13.6679C22.4651 13.2454 23.1051 13.3267 23.4384 13.8629C23.7851 14.3829 23.7184 15.1629 23.2784 15.5692L19.1051 19.6317C18.2517 20.4929 17.1184 20.9154 15.9984 20.9154Z" fill="#171717"/>
</svg>
