<svg width="30" height="28" viewBox="0 0 30 28" fill="none" xmlns="http://www.w3.org/2000/svg">
<path d="M19.7611 23.5429C19.4361 23.5429 19.0986 23.5313 18.7361 23.4963C18.0861 23.4496 17.3486 23.3329 16.5861 23.1579L14.4861 22.6913C8.72363 21.4196 6.83613 18.5729 8.18613 13.2063L9.41113 8.31794C9.68613 7.20961 10.0111 6.31128 10.4111 5.56461C12.5611 1.42294 16.6736 1.79628 19.5986 2.43794L21.6861 2.89294C24.6111 3.53461 26.4611 4.54961 27.4986 6.10128C28.5236 7.65294 28.6861 9.64794 27.9986 12.3779L26.7736 17.2546C25.6986 21.5246 23.4611 23.5429 19.7611 23.5429ZM16.3986 3.79128C14.3111 3.79128 12.9861 4.59628 12.0986 6.32294C11.7736 6.95294 11.4861 7.73461 11.2361 8.71461L10.0111 13.6029C8.89863 18.0129 10.1861 19.9379 14.9111 20.9879L17.0111 21.4546C17.6861 21.6063 18.3236 21.6996 18.8986 21.7463C22.2861 22.0613 23.9861 20.6729 24.9361 16.8579L26.1611 11.9813C26.7236 9.72961 26.6486 8.15461 25.8986 7.02294C25.1486 5.89128 23.6736 5.12128 21.2486 4.59628L19.1611 4.14128C18.1236 3.90794 17.1986 3.79128 16.3986 3.79128Z" fill="#171717"/>
<path d="M10.4113 25.9589C7.19884 25.9589 5.14884 24.1623 3.83634 20.3706L2.23634 15.7623C0.461344 10.6289 2.04884 7.73561 7.52384 6.07894L9.49884 5.48394C10.1488 5.29727 10.6363 5.16894 11.0738 5.09894C11.4238 5.02894 11.7863 5.15727 11.9988 5.42561C12.2113 5.69394 12.2488 6.04394 12.0988 6.34727C11.7738 6.96561 11.4863 7.74727 11.2488 8.72727L10.0238 13.6156C8.91134 18.0256 10.1988 19.9506 14.9238 21.0006L17.0238 21.4673C17.6988 21.6189 18.3363 21.7123 18.9113 21.7589C19.3113 21.7939 19.6363 22.0506 19.7488 22.4123C19.8488 22.7739 19.6988 23.1473 19.3738 23.3573C18.5488 23.8823 17.5113 24.3256 16.1988 24.7223L14.2238 25.3289C12.7863 25.7489 11.5363 25.9589 10.4113 25.9589ZM9.72384 7.25727L8.11134 7.74727C3.64884 9.08894 2.58634 11.0489 4.02384 15.2256L5.62384 19.8339C7.07384 23.9989 9.17384 25.0023 13.6363 23.6606L15.6113 23.0539C15.6863 23.0306 15.7488 23.0073 15.8238 22.9839L14.4988 22.6923C8.73634 21.4206 6.84884 18.5739 8.19884 13.2073L9.42384 8.31894C9.51134 7.94561 9.61134 7.58394 9.72384 7.25727Z" fill="#171717"/>
</svg>
