<svg width="25" height="25" viewBox="0 0 25 25" fill="none" xmlns="http://www.w3.org/2000/svg">
<g clip-path="url(#clip0_10_3702)">
<path d="M18.75 16.7487C17.9583 16.7487 17.25 17.0612 16.7083 17.5508L9.28125 13.2279C9.33333 12.9883 9.375 12.7487 9.375 12.4987C9.375 12.2487 9.33333 12.0091 9.28125 11.7695L16.625 7.48828C17.1875 8.00911 17.9271 8.33203 18.75 8.33203C20.4792 8.33203 21.875 6.9362 21.875 5.20703C21.875 3.47786 20.4792 2.08203 18.75 2.08203C17.0208 2.08203 15.625 3.47786 15.625 5.20703C15.625 5.45703 15.6667 5.69661 15.7188 5.9362L8.375 10.2174C7.8125 9.69661 7.07292 9.3737 6.25 9.3737C4.52083 9.3737 3.125 10.7695 3.125 12.4987C3.125 14.2279 4.52083 15.6237 6.25 15.6237C7.07292 15.6237 7.8125 15.3008 8.375 14.7799L15.7917 19.1133C15.7396 19.332 15.7083 19.5612 15.7083 19.7904C15.7083 21.4674 17.0729 22.832 18.75 22.832C20.4271 22.832 21.7917 21.4674 21.7917 19.7904C21.7917 18.1133 20.4271 16.7487 18.75 16.7487Z" fill="black"/>
</g>
<defs>
<clipPath id="clip0_10_3702">
<rect width="25" height="25" fill="white"/>
</clipPath>
</defs>
</svg>
