<svg width="25" height="25" viewBox="0 0 25 25" fill="none" xmlns="http://www.w3.org/2000/svg">
<path d="M13.9423 18.75C13.9423 19.0353 13.8577 19.3141 13.6992 19.5513C13.5408 19.7885 13.3155 19.9733 13.0519 20.0825C12.7884 20.1917 12.4984 20.2202 12.2186 20.1646C11.9388 20.1089 11.6818 19.9716 11.4801 19.7699C11.2784 19.5681 11.1411 19.3112 11.0854 19.0314C11.0298 18.7516 11.0583 18.4616 11.1675 18.198C11.2766 17.9345 11.4615 17.7092 11.6987 17.5508C11.9359 17.3923 12.2147 17.3077 12.5 17.3077C12.8825 17.3077 13.2494 17.4596 13.5199 17.7301C13.7904 18.0006 13.9423 18.3675 13.9423 18.75ZM12.5 5.76923C9.84856 5.76923 7.69231 7.71033 7.69231 10.0962V10.5769C7.69231 10.8319 7.79362 11.0765 7.97394 11.2568C8.15426 11.4372 8.39883 11.5385 8.65385 11.5385C8.90887 11.5385 9.15344 11.4372 9.33376 11.2568C9.51408 11.0765 9.61539 10.8319 9.61539 10.5769V10.0962C9.61539 8.77404 10.9099 7.69231 12.5 7.69231C14.0901 7.69231 15.3846 8.77404 15.3846 10.0962C15.3846 11.4183 14.0901 12.5 12.5 12.5C12.245 12.5 12.0004 12.6013 11.8201 12.7816C11.6398 12.9619 11.5385 13.2065 11.5385 13.4615V14.4231C11.5385 14.6781 11.6398 14.9227 11.8201 15.103C12.0004 15.2833 12.245 15.3846 12.5 15.3846C12.755 15.3846 12.9996 15.2833 13.1799 15.103C13.3602 14.9227 13.4615 14.6781 13.4615 14.4231V14.3365C15.6538 13.9339 17.3077 12.1851 17.3077 10.0962C17.3077 7.71033 15.1514 5.76923 12.5 5.76923ZM25 12.5C25 14.9723 24.2669 17.389 22.8934 19.4446C21.5199 21.5002 19.5676 23.1024 17.2835 24.0485C14.9995 24.9946 12.4861 25.2421 10.0614 24.7598C7.63661 24.2775 5.40933 23.087 3.66117 21.3388C1.91301 19.5907 0.722505 17.3634 0.24019 14.9386C-0.242126 12.5139 0.00541606 10.0005 0.951511 7.71645C1.89761 5.43238 3.49976 3.48015 5.55538 2.10663C7.61099 0.733112 10.0277 0 12.5 0C15.8141 0.00349978 18.9915 1.32158 21.335 3.66503C23.6784 6.00848 24.9965 9.18587 25 12.5ZM23.0769 12.5C23.0769 10.4081 22.4566 8.36314 21.2944 6.62377C20.1322 4.88441 18.4803 3.52874 16.5476 2.7282C14.6149 1.92765 12.4883 1.7182 10.4365 2.12631C8.38483 2.53442 6.5002 3.54178 5.02099 5.02099C3.54178 6.50019 2.53443 8.38482 2.12631 10.4365C1.7182 12.4883 1.92766 14.6149 2.7282 16.5476C3.52874 18.4803 4.88441 20.1322 6.62378 21.2944C8.36315 22.4566 10.4081 23.0769 12.5 23.0769C15.3042 23.0737 17.9926 21.9584 19.9755 19.9755C21.9584 17.9926 23.0737 15.3042 23.0769 12.5Z" fill="black"/>
</svg>
