<svg width="33" height="35" viewBox="0 0 33 35" fill="none" xmlns="http://www.w3.org/2000/svg">
<path d="M28.4784 11.6814L19.5233 4.03969C17.7733 2.55219 15.0389 2.53761 13.3026 4.02511L4.3475 11.6814C3.06234 12.7751 2.28305 14.9626 2.55648 16.6834L4.27914 27.6793C4.67562 30.1439 6.82211 32.0834 9.16 32.0834H23.6522C25.9627 32.0834 28.1502 30.1001 28.5467 27.6647L30.2694 16.6689C30.5155 14.9626 29.7362 12.7751 28.4784 11.6814ZM17.4315 26.2501C17.4315 26.848 16.9666 27.3439 16.4061 27.3439C15.8455 27.3439 15.3807 26.848 15.3807 26.2501V21.8751C15.3807 21.2772 15.8455 20.7814 16.4061 20.7814C16.9666 20.7814 17.4315 21.2772 17.4315 21.8751V26.2501Z" fill="#171717"/>
</svg>
