<svg width="27" height="25" viewBox="0 0 27 25" fill="none" xmlns="http://www.w3.org/2000/svg">
<path d="M13.5 16.4062C11.1713 16.4062 9.28125 14.6562 9.28125 12.5C9.28125 10.3438 11.1713 8.59375 13.5 8.59375C15.8288 8.59375 17.7188 10.3438 17.7188 12.5C17.7188 14.6562 15.8288 16.4062 13.5 16.4062ZM13.5 10.1562C12.105 10.1562 10.9688 11.2083 10.9688 12.5C10.9688 13.7917 12.105 14.8438 13.5 14.8438C14.895 14.8438 16.0312 13.7917 16.0312 12.5C16.0312 11.2083 14.895 10.1562 13.5 10.1562Z" fill="#171717"/>
<path d="M17.1112 23.1155C16.875 23.1155 16.6388 23.0843 16.4025 23.0322C15.705 22.8551 15.12 22.4489 14.7487 21.8759L14.6137 21.6676C13.95 20.6051 13.0387 20.6051 12.375 21.6676L12.2513 21.8655C11.88 22.4489 11.295 22.8655 10.5975 23.0322C9.88875 23.2093 9.1575 23.1155 8.53875 22.7718L6.60375 21.7405C5.9175 21.376 5.4225 20.7822 5.20875 20.0634C5.00625 19.3447 5.1075 18.6051 5.50125 17.9697C5.8275 17.4384 5.9175 16.9593 5.72625 16.6572C5.535 16.3551 5.05125 16.178 4.3875 16.178C2.745 16.178 1.40625 14.9384 1.40625 13.4176V11.5843C1.40625 10.0634 2.745 8.82387 4.3875 8.82387C5.05125 8.82387 5.535 8.64678 5.72625 8.3447C5.9175 8.04262 5.83875 7.56345 5.50125 7.0322C5.1075 6.39678 5.00625 5.64678 5.20875 4.93845C5.41125 4.2197 5.90625 3.62595 6.60375 3.26137L8.55 2.23012C9.82125 1.5322 11.4975 1.93845 12.2625 3.13637L12.3975 3.3447C13.0613 4.4072 13.9725 4.4072 14.6363 3.3447L14.76 3.14678C15.525 1.93845 17.2013 1.5322 18.4837 2.24053L20.4187 3.27178C21.105 3.63637 21.6 4.23012 21.8137 4.94887C22.0162 5.66762 21.915 6.4072 21.5212 7.04262C21.195 7.57387 21.105 8.05303 21.2962 8.35512C21.4875 8.6572 21.9713 8.83428 22.635 8.83428C24.2775 8.83428 25.6163 10.0739 25.6163 11.5947V13.428C25.6163 14.9489 24.2775 16.1884 22.635 16.1884C21.9713 16.1884 21.4875 16.3655 21.2962 16.6676C21.105 16.9697 21.1837 17.4489 21.5212 17.9801C21.915 18.6155 22.0275 19.3655 21.8137 20.0739C21.6112 20.7926 21.1162 21.3864 20.4187 21.7509L18.4725 22.7822C18.045 23.001 17.5837 23.1155 17.1112 23.1155ZM13.5 19.2614C14.5013 19.2614 15.435 19.8447 16.0763 20.876L16.2 21.0739C16.335 21.2926 16.56 21.4489 16.83 21.5114C17.1 21.5739 17.37 21.5426 17.595 21.4176L19.5413 20.3759C19.8338 20.2197 20.0588 19.9593 20.1488 19.6468C20.2388 19.3343 20.1937 19.0114 20.025 18.7405C19.3837 17.7197 19.305 16.6676 19.8 15.8655C20.295 15.0634 21.3188 14.6051 22.6012 14.6051C23.3213 14.6051 23.895 14.0739 23.895 13.4072V11.5739C23.895 10.9176 23.3213 10.3759 22.6012 10.3759C21.3188 10.3759 20.295 9.91762 19.8 9.11553C19.305 8.31345 19.3837 7.26137 20.025 6.24053C20.1937 5.9697 20.2388 5.64678 20.1488 5.33428C20.0588 5.02178 19.845 4.77178 19.5525 4.60512L17.6062 3.57387C17.1225 3.30303 16.4813 3.45928 16.1888 3.91762L16.065 4.11553C15.4237 5.14678 14.49 5.73012 13.4887 5.73012C12.4875 5.73012 11.5538 5.14678 10.9125 4.11553L10.7887 3.9072C10.5075 3.4697 9.8775 3.31345 9.39375 3.57387L7.4475 4.61553C7.155 4.77178 6.93 5.0322 6.84 5.3447C6.75 5.6572 6.795 5.98012 6.96375 6.25095C7.605 7.27178 7.68375 8.32387 7.18875 9.12595C6.69375 9.92803 5.67 10.3864 4.3875 10.3864C3.6675 10.3864 3.09375 10.9176 3.09375 11.5843V13.4176C3.09375 14.0739 3.6675 14.6155 4.3875 14.6155C5.67 14.6155 6.69375 15.0739 7.18875 15.8759C7.68375 16.678 7.605 17.7301 6.96375 18.7509C6.795 19.0218 6.75 19.3447 6.84 19.6572C6.93 19.9697 7.14375 20.2197 7.43625 20.3864L9.3825 21.4176C9.61875 21.553 9.9 21.5843 10.1587 21.5218C10.4288 21.4593 10.6538 21.2926 10.8 21.0739L10.9237 20.876C11.565 19.8551 12.4987 19.2614 13.5 19.2614Z" fill="#171717"/>
</svg>
