<svg width="239" height="47" viewBox="0 0 239 47" fill="none" xmlns="http://www.w3.org/2000/svg">
<path d="M28.1655 12.512V30.3457L22.8006 27.857L21.7938 27.3895L20.7871 27.857L15.4222 30.3457V12.512H28.1655ZM33.2628 4.26196H20.5068C19.105 4.26196 17.9709 5.49946 17.9709 7.01196H30.7142C32.1159 7.01196 33.2628 8.24946 33.2628 9.76196V27.637L35.8115 29.012V7.01196C35.8115 5.49946 34.6646 4.26196 33.2628 4.26196ZM28.1655 9.76196H15.4222C14.0204 9.76196 12.8735 10.9995 12.8735 12.512V34.512L21.7938 30.387L30.7142 34.512V12.512C30.7142 10.9995 29.5673 9.76196 28.1655 9.76196Z" fill="black"/>
<g clip-path="url(#clip0_69_429)">
<path d="M105.475 -0.460449H82.5251C81.0034 -0.460449 79.5441 0.170306 78.4681 1.29306C77.3921 2.41581 76.7876 3.93858 76.7876 5.52639V29.4738C76.7876 31.0616 77.3921 32.5844 78.4681 33.7071C79.5441 34.8299 81.0034 35.4606 82.5251 35.4606H105.475C106.997 35.4606 108.456 34.8299 109.532 33.7071C110.608 32.5844 111.213 31.0616 111.213 29.4738V5.52639C111.213 3.93858 110.608 2.41581 109.532 1.29306C108.456 0.170306 106.997 -0.460449 105.475 -0.460449ZM107.388 29.4738C107.388 30.003 107.186 30.5106 106.827 30.8849C106.469 31.2591 105.982 31.4694 105.475 31.4694H82.5251C82.0179 31.4694 81.5314 31.2591 81.1728 30.8849C80.8141 30.5106 80.6126 30.003 80.6126 29.4738V5.52639C80.6126 4.99712 80.8141 4.48953 81.1728 4.11528C81.5314 3.74103 82.0179 3.53078 82.5251 3.53078H105.475C105.982 3.53078 106.469 3.74103 106.827 4.11528C107.186 4.48953 107.388 4.99712 107.388 5.52639V29.4738Z" fill="#231F20"/>
<path d="M99.7376 15.5044H95.9126V11.5132C95.9126 10.9839 95.7111 10.4763 95.3524 10.1021C94.9938 9.72783 94.5073 9.51758 94.0001 9.51758C93.4929 9.51758 93.0064 9.72783 92.6478 10.1021C92.2891 10.4763 92.0876 10.9839 92.0876 11.5132V15.5044H88.2626C87.7554 15.5044 87.2689 15.7147 86.9103 16.0889C86.5516 16.4632 86.3501 16.9708 86.3501 17.5C86.3501 18.0293 86.5516 18.5369 86.9103 18.9111C87.2689 19.2854 87.7554 19.4956 88.2626 19.4956H92.0876V23.4869C92.0876 24.0161 92.2891 24.5237 92.6478 24.898C93.0064 25.2722 93.4929 25.4825 94.0001 25.4825C94.5073 25.4825 94.9938 25.2722 95.3524 24.898C95.7111 24.5237 95.9126 24.0161 95.9126 23.4869V19.4956H99.7376C100.245 19.4956 100.731 19.2854 101.09 18.9111C101.449 18.5369 101.65 18.0293 101.65 17.5C101.65 16.9708 101.449 16.4632 101.09 16.0889C100.731 15.7147 100.245 15.5044 99.7376 15.5044Z" fill="#231F20"/>
</g>
<g clip-path="url(#clip1_69_429)">
<line x1="158" y1="1" x2="158" y2="28" stroke="black" stroke-width="2"/>
<rect x="151.5" y="13.5" width="1" height="3" rx="0.5" fill="black" stroke="black"/>
<rect x="164.5" y="13.5" width="1" height="3" rx="0.5" fill="black" stroke="black"/>
<rect x="147" y="28" width="2" height="3" fill="black" stroke="black" stroke-width="2"/>
<path d="M167 28H169V32H167V28Z" fill="black" stroke="black" stroke-width="2"/>
<rect x="144" y="2" width="28" height="26" rx="4" stroke="black" stroke-width="2"/>
</g>
<rect x="206" y="1" width="32" height="33" rx="16" stroke="black" stroke-width="2"/>
<defs>
<clipPath id="clip0_69_429">
<rect width="34" height="35" fill="white" transform="translate(77)"/>
</clipPath>
<clipPath id="clip1_69_429">
<rect width="30" height="32" fill="white" transform="translate(143)"/>
</clipPath>
</defs>
</svg>
