<svg width="23" height="24" viewBox="0 0 23 24" fill="none" xmlns="http://www.w3.org/2000/svg">
<path d="M16.6799 9.66657L9.24877 14.8481C9.17973 14.8963 9.09776 14.9345 9.00756 14.9605C8.91735 14.9866 8.82066 15 8.72302 15C8.62538 15 8.52869 14.9866 8.43848 14.9605C8.34827 14.9345 8.26631 14.8963 8.19727 14.8481C8.12822 14.8 8.07346 14.7428 8.03609 14.6799C7.99872 14.617 7.97949 14.5496 7.97949 14.4815C7.97949 14.4134 7.99872 14.346 8.03609 14.2831C8.07346 14.2202 8.12822 14.1631 8.19727 14.1149L15.1036 9.29998L8.19727 4.48501C8.05783 4.38779 7.97949 4.25592 7.97949 4.11842C7.97949 3.98092 8.05783 3.84905 8.19727 3.75182C8.3367 3.6546 8.52582 3.59998 8.72302 3.59998C8.92022 3.59998 9.10933 3.6546 9.24877 3.75182L16.6799 8.93338C16.749 8.9815 16.8038 9.03865 16.8412 9.10155C16.8786 9.16446 16.8979 9.23188 16.8979 9.29998C16.8979 9.36807 16.8786 9.4355 16.8412 9.4984C16.8038 9.5613 16.749 9.61845 16.6799 9.66657Z" fill="#9D9595"/>
</svg>
