<svg width="24" height="20" viewBox="0 0 24 20" fill="none" xmlns="http://www.w3.org/2000/svg">
<path d="M0 1.30434C0 0.583981 0.486062 0 1.08564 0H22.0747C22.6742 0 23.1603 0.583981 23.1603 1.30434C23.1603 2.02471 22.6742 2.60869 22.0747 2.60869H1.08564C0.486062 2.60869 0 2.02471 0 1.30434Z" fill="#212121"/>
<path d="M0 10.0001C0 9.27978 0.486062 8.6958 1.08564 8.6958H22.0747C22.6742 8.6958 23.1603 9.27978 23.1603 10.0001C23.1603 10.7205 22.6742 11.3045 22.0747 11.3045H1.08564C0.486062 11.3045 0 10.7205 0 10.0001Z" fill="#212121"/>
<path d="M1.08564 17.3914C0.486062 17.3914 0 17.9754 0 18.6957C0 19.416 0.486062 20 1.08564 20H22.0747C22.6742 20 23.1603 19.416 23.1603 18.6957C23.1603 17.9754 22.6742 17.3914 22.0747 17.3914H1.08564Z" fill="#212121"/>
</svg>
