<svg width="26" height="34" viewBox="0 0 26 34" fill="none" xmlns="http://www.w3.org/2000/svg">
<path d="M13.0222 28.9136C10.498 28.9136 7.97384 28.3926 5.57968 27.3504C4.66968 26.942 3.97634 26.1111 3.67301 25.0266C3.35884 23.9422 3.46718 22.7451 3.96551 21.6748L5.21134 18.9849C5.47134 18.4216 5.70968 17.2949 5.70968 16.633V12.5629C5.70968 7.32389 8.99218 3.05664 13.0222 3.05664C17.0522 3.05664 20.3347 7.32389 20.3347 12.5629V16.633C20.3347 17.2808 20.573 18.4216 20.833 18.999L22.068 21.6748C22.5338 22.6888 22.6205 23.9141 22.3063 25.0266C21.9922 26.1392 21.3097 26.9842 20.4538 27.3504C18.0705 28.3926 15.5463 28.9136 13.0222 28.9136ZM13.0222 5.16914C9.89134 5.16914 7.33468 8.47872 7.33468 12.5629V16.633C7.33468 17.6611 7.00968 19.1821 6.60884 20.0693L5.36301 22.7592C5.12468 23.2803 5.05968 23.8296 5.20051 24.2943C5.33051 24.7731 5.65551 25.1393 6.09968 25.3365C10.628 27.3081 15.4272 27.3081 19.9555 25.3365C20.3455 25.1675 20.6488 24.7872 20.7897 24.2802C20.9305 23.7732 20.898 23.224 20.6813 22.7592L19.4355 20.0693C19.0238 19.1539 18.7097 17.647 18.7097 16.6189V12.5629C18.7097 8.47872 16.1638 5.16914 13.0222 5.16914Z" fill="#171717"/>
<path d="M15.037 5.54911C14.9612 5.54911 14.8853 5.53503 14.8095 5.50686C14.4953 5.39419 14.192 5.30969 13.8995 5.25336C12.9787 5.09844 12.0903 5.18294 11.2562 5.50686C10.9528 5.63361 10.6278 5.50686 10.422 5.21111C10.2162 4.91536 10.1512 4.49286 10.2703 4.11261C10.7145 2.63386 11.7978 1.66211 13.0328 1.66211C14.2678 1.66211 15.3512 2.61978 15.7953 4.11261C15.9037 4.49286 15.8495 4.91536 15.6437 5.21111C15.4812 5.43644 15.2537 5.54911 15.037 5.54911Z" fill="#171717"/>
<path d="M13.0234 32.125C11.9509 32.125 10.9109 31.5617 10.1526 30.5758C9.39427 29.59 8.96094 28.238 8.96094 26.8438H10.5859C10.5859 27.6747 10.8459 28.4915 11.3009 29.083C11.7559 29.6745 12.3843 30.0125 13.0234 30.0125C14.3668 30.0125 15.4609 28.5901 15.4609 26.8438H17.0859C17.0859 29.759 15.2659 32.125 13.0234 32.125Z" fill="#171717"/>
</svg>
