<svg width="41" height="39" viewBox="0 0 41 39" fill="none" xmlns="http://www.w3.org/2000/svg">
<path d="M33.1051 7.76744C31.8235 7.76744 30.6471 7.08779 30.0588 6.03919L28.5462 3.22349C27.5798 1.4564 25.0588 0 22.916 0H18.105C15.9412 0 13.4201 1.4564 12.4538 3.22349L10.9412 6.03919C10.3529 7.08779 9.17644 7.76744 7.89493 7.76744C3.3361 7.76744 -0.277353 11.321 0.0167648 15.5155L1.1092 31.5552C1.3613 35.5555 3.69324 38.8372 9.49157 38.8372H31.5084C37.3067 38.8372 39.6177 35.5555 39.8908 31.5552L40.9832 15.5155C41.2773 11.321 37.6639 7.76744 33.1051 7.76744ZM17.3487 10.1948H23.6513C24.5126 10.1948 25.2269 10.855 25.2269 11.6512C25.2269 12.4473 24.5126 13.1076 23.6513 13.1076H17.3487C16.4874 13.1076 15.7731 12.4473 15.7731 11.6512C15.7731 10.855 16.4874 10.1948 17.3487 10.1948ZM20.5 31.3028C16.5924 31.3028 13.3991 28.3706 13.3991 24.7393C13.3991 21.108 16.5714 18.1758 20.5 18.1758C24.4286 18.1758 27.6008 21.108 27.6008 24.7393C27.6008 28.3706 24.4076 31.3028 20.5 31.3028Z" fill="#171717"/>
</svg>
