<svg width="30" height="30" viewBox="0 0 30 30" fill="none" xmlns="http://www.w3.org/2000/svg">
<path d="M29.597 17.425C29.492 17.5323 29.3725 17.6104 29.2453 17.6547C29.1181 17.6991 28.9857 17.7089 28.8557 17.6836C28.7257 17.6584 28.6007 17.5985 28.4877 17.5074C28.3747 17.4163 28.276 17.2958 28.1972 17.1528C27.5945 16.0497 26.8101 15.1548 25.907 14.54C25.0039 13.9252 24.0074 13.6077 22.9978 13.613C22.8012 13.613 22.6089 13.534 22.4451 13.386C22.2812 13.238 22.1531 13.0275 22.0766 12.7808C22.0247 12.6133 21.998 12.4333 21.998 12.2515C21.998 12.0697 22.0247 11.8898 22.0766 11.7223C22.1531 11.4756 22.2812 11.2651 22.4451 11.1171C22.6089 10.9691 22.8012 10.8901 22.9978 10.8901C23.5588 10.89 24.1086 10.6757 24.5846 10.2716C25.0607 9.86739 25.444 9.28953 25.6909 8.60362C25.9379 7.91772 26.0386 7.15126 25.9817 6.39131C25.9248 5.63136 25.7125 4.90837 25.3689 4.30448C25.0253 3.70059 24.5642 3.24 24.038 2.97502C23.5119 2.71004 22.9416 2.6513 22.3921 2.80546C21.8427 2.95963 21.3359 3.32052 20.9295 3.84715C20.5232 4.37378 20.2334 5.04504 20.0931 5.78468C20.0603 5.95788 20.0027 6.12058 19.9237 6.26349C19.8447 6.4064 19.7458 6.52673 19.6326 6.61759C19.5195 6.70846 19.3943 6.76808 19.2642 6.79307C19.1341 6.81806 19.0017 6.80791 18.8745 6.76322C18.7473 6.71852 18.6278 6.64014 18.5228 6.53257C18.4179 6.42499 18.3295 6.29032 18.2628 6.13625C18.196 5.98217 18.1523 5.8117 18.1339 5.63458C18.1156 5.45746 18.123 5.27715 18.1558 5.10395C18.3505 4.0783 18.7183 3.12866 19.2299 2.33061C19.7416 1.53255 20.383 0.908101 21.1031 0.506947C21.8231 0.105792 22.602 -0.0609948 23.3778 0.0198555C24.1535 0.100706 24.9047 0.426963 25.5716 0.972666C26.2384 1.51837 26.8025 2.26846 27.219 3.16324C27.6355 4.05803 27.8929 5.07282 27.9706 6.12687C28.0484 7.18092 27.9444 8.24513 27.667 9.23483C27.3895 10.2245 26.9462 11.1124 26.3724 11.8278C27.732 12.6293 28.9139 13.9013 29.8008 15.5173C29.8795 15.6607 29.9368 15.8239 29.9692 15.9974C30.0016 16.171 30.0085 16.3515 29.9896 16.5287C29.9707 16.7059 29.9263 16.8763 29.8589 17.0301C29.7915 17.1839 29.7025 17.3181 29.597 17.425ZM22.8628 27.9082C22.9351 28.0631 22.9837 28.2364 23.0056 28.4176C23.0275 28.5988 23.0222 28.7841 22.9902 28.9625C22.9581 29.1408 22.8998 29.3085 22.8189 29.4554C22.738 29.6023 22.6361 29.7254 22.5194 29.8173C22.4026 29.9091 22.2734 29.9679 22.1395 29.9901C22.0057 30.0122 21.8699 29.9972 21.7404 29.9461C21.6109 29.8949 21.4903 29.8086 21.3859 29.6924C21.2815 29.5761 21.1955 29.4323 21.133 29.2696C20.5031 27.8174 19.6061 26.6139 18.5303 25.7779C17.4546 24.9418 16.2373 24.5021 14.9987 24.5021C13.76 24.5021 12.5428 24.9418 11.4671 25.7779C10.3913 26.6139 9.49425 27.8174 8.86438 29.2696C8.80187 29.4323 8.71584 29.5761 8.61146 29.6924C8.50707 29.8086 8.3865 29.8949 8.25698 29.9461C8.12747 29.9972 7.99169 30.0122 7.85782 29.9901C7.72396 29.9679 7.59476 29.9091 7.47801 29.8173C7.36125 29.7254 7.25936 29.6023 7.17845 29.4554C7.09755 29.3085 7.0393 29.1408 7.00722 28.9625C6.97513 28.7841 6.96988 28.5988 6.99176 28.4176C7.01365 28.2364 7.06223 28.0631 7.13457 27.9082C8.10396 25.6403 9.58204 23.8556 11.3516 22.8164C10.3559 21.7783 9.62408 20.3415 9.25908 18.7079C8.89409 17.0743 8.91425 15.326 9.31672 13.7088C9.7192 12.0916 10.4838 10.6868 11.5029 9.69182C12.5221 8.69685 13.7446 8.16175 14.9987 8.16175C16.2528 8.16175 17.4753 8.69685 18.4945 9.69182C19.5136 10.6868 20.2782 12.0916 20.6807 13.7088C21.0831 15.326 21.1033 17.0743 20.7383 18.7079C20.3733 20.3415 19.6415 21.7783 18.6458 22.8164C20.4153 23.8556 21.8934 25.6403 22.8628 27.9082ZM14.9987 21.7817C15.7897 21.7817 16.563 21.4623 17.2207 20.8639C17.8784 20.2655 18.3911 19.415 18.6938 18.4199C18.9965 17.4248 19.0757 16.3298 18.9214 15.2735C18.7671 14.2171 18.3861 13.2467 17.8268 12.4851C17.2674 11.7235 16.5548 11.2049 15.779 10.9947C15.0031 10.7846 14.1989 10.8925 13.4681 11.3046C12.7373 11.7168 12.1127 12.4148 11.6732 13.3104C11.2337 14.2059 10.9991 15.2588 10.9991 16.3359C10.9991 17.7802 11.4205 19.1653 12.1706 20.1866C12.9206 21.2079 13.9379 21.7817 14.9987 21.7817ZM7.99948 12.2515C7.99948 11.8905 7.89413 11.5442 7.70662 11.2889C7.5191 11.0335 7.26478 10.8901 6.99959 10.8901C6.43856 10.89 5.88879 10.6757 5.41273 10.2716C4.93666 9.86739 4.55339 9.28953 4.30643 8.60362C4.05948 7.91772 3.95874 7.15126 4.01567 6.39131C4.0726 5.63136 4.28491 4.90837 4.62849 4.30448C4.97207 3.70059 5.43314 3.24 5.95933 2.97502C6.48552 2.71004 7.05575 2.6513 7.60523 2.80546C8.15471 2.95963 8.66143 3.32052 9.06782 3.84715C9.47422 4.37378 9.764 5.04504 9.90426 5.78468C9.97056 6.13447 10.1362 6.43408 10.3647 6.61759C10.5933 6.8011 10.866 6.85348 11.1229 6.76322C11.3798 6.67295 11.5998 6.44742 11.7346 6.13625C11.8694 5.82507 11.9078 5.45375 11.8415 5.10395C11.6469 4.0783 11.2791 3.12866 10.7674 2.33061C10.2558 1.53255 9.6144 0.908101 8.89432 0.506947C8.17424 0.105792 7.39533 -0.0609948 6.61958 0.0198555C5.84383 0.100706 5.09264 0.426963 4.42579 0.972666C3.75894 1.51837 3.19483 2.26846 2.77834 3.16324C2.36186 4.05803 2.1045 5.07282 2.02674 6.12687C1.94898 7.18092 2.05296 8.24513 2.33042 9.23483C2.60788 10.2245 3.05115 11.1124 3.62497 11.8278C2.26673 12.6301 1.08615 13.902 0.200357 15.5173C0.041079 15.8062 -0.0273992 16.1694 0.00998663 16.527C0.0473725 16.8846 0.18756 17.2073 0.399709 17.4242C0.611858 17.6411 0.878591 17.7343 1.14123 17.6834C1.40387 17.6325 1.6409 17.4416 1.80018 17.1528C2.40284 16.0497 3.18729 15.1548 4.09036 14.54C4.99344 13.9252 5.98992 13.6077 6.99959 13.613C7.26478 13.613 7.5191 13.4696 7.70662 13.2142C7.89413 12.9589 7.99948 12.6126 7.99948 12.2515Z" fill="black"/>
</svg>
