<svg width="32" height="35" viewBox="0 0 32 35" fill="none" xmlns="http://www.w3.org/2000/svg">
<path d="M10.6665 8.3855C10.1198 8.3855 9.6665 7.88967 9.6665 7.29175V2.91675C9.6665 2.31883 10.1198 1.823 10.6665 1.823C11.2132 1.823 11.6665 2.31883 11.6665 2.91675V7.29175C11.6665 7.88967 11.2132 8.3855 10.6665 8.3855Z" fill="#171717" fill-opacity="0.9"/>
<path d="M21.3335 8.3855C20.7868 8.3855 20.3335 7.88967 20.3335 7.29175V2.91675C20.3335 2.31883 20.7868 1.823 21.3335 1.823C21.8802 1.823 22.3335 2.31883 22.3335 2.91675V7.29175C22.3335 7.88967 21.8802 8.3855 21.3335 8.3855Z" fill="#171717" fill-opacity="0.9"/>
<path d="M24.2667 32.3021C21.36 32.3021 19 29.7209 19 26.5417C19 23.3625 21.36 20.7812 24.2667 20.7812C27.1733 20.7812 29.5333 23.3625 29.5333 26.5417C29.5333 29.7209 27.1733 32.3021 24.2667 32.3021ZM24.2667 22.9688C22.4667 22.9688 21 24.5729 21 26.5417C21 28.5104 22.4667 30.1146 24.2667 30.1146C26.0667 30.1146 27.5333 28.5104 27.5333 26.5417C27.5333 24.5729 26.0667 22.9688 24.2667 22.9688Z" fill="#171717" fill-opacity="0.9"/>
<path d="M29.3334 33.1771C29.0801 33.1771 28.8268 33.075 28.6268 32.8563L27.2934 31.3979C26.9068 30.975 26.9068 30.275 27.2934 29.8521C27.6801 29.4292 28.3201 29.4292 28.7067 29.8521L30.0401 31.3104C30.4267 31.7334 30.4267 32.4333 30.0401 32.8563C29.8401 33.075 29.5867 33.1771 29.3334 33.1771Z" fill="#171717" fill-opacity="0.9"/>
<path d="M11.3333 21.1458C11.16 21.1458 10.9867 21.102 10.8267 21.0291C10.6533 20.9562 10.5067 20.8541 10.3867 20.7228C10.3333 20.6499 10.2667 20.577 10.2267 20.5041C10.1733 20.4166 10.1333 20.3291 10.1067 20.2416C10.0667 20.1541 10.04 20.0666 10.0267 19.9791C10.0133 19.877 10 19.7749 10 19.6874C10 19.3083 10.1467 18.9291 10.3867 18.652C10.5067 18.5208 10.6533 18.4187 10.8267 18.3458C11.3067 18.1124 11.9067 18.2437 12.28 18.652C12.52 18.9291 12.6667 19.3083 12.6667 19.6874C12.6667 19.7749 12.6533 19.877 12.64 19.9791C12.6267 20.0666 12.6 20.1541 12.56 20.2416C12.5333 20.3291 12.4933 20.4166 12.44 20.5041C12.3867 20.577 12.3333 20.6499 12.28 20.7228C12.0267 20.9853 11.68 21.1458 11.3333 21.1458Z" fill="#171717" fill-opacity="0.9"/>
<path d="M15.9998 21.1457C15.6532 21.1457 15.3065 20.9853 15.0532 20.7228C14.8132 20.4457 14.6665 20.0812 14.6665 19.6874C14.6665 19.4978 14.7065 19.3082 14.7732 19.1332C14.8398 18.9582 14.9332 18.7978 15.0532 18.652C15.5465 18.1124 16.4398 18.1124 16.9465 18.652C17.1865 18.9291 17.3332 19.3082 17.3332 19.6874C17.3332 19.7749 17.3198 19.877 17.3065 19.9791C17.2932 20.0666 17.2665 20.1541 17.2265 20.2416C17.1998 20.3291 17.1598 20.4166 17.1065 20.5041C17.0532 20.577 16.9998 20.6499 16.9465 20.7228C16.6932 20.9853 16.3465 21.1457 15.9998 21.1457Z" fill="#171717" fill-opacity="0.9"/>
<path d="M11.3333 26.25C10.9867 26.25 10.64 26.0896 10.3867 25.8271C10.1467 25.55 10 25.1708 10 24.7917C10 24.6021 10.04 24.4125 10.1067 24.2375C10.1733 24.0479 10.2667 23.8875 10.3867 23.7563C10.88 23.2167 11.7867 23.2167 12.28 23.7563C12.52 24.0333 12.6667 24.4125 12.6667 24.7917C12.6667 25.1708 12.52 25.55 12.28 25.8271C12.0267 26.0896 11.68 26.25 11.3333 26.25Z" fill="#171717" fill-opacity="0.9"/>
<path d="M27.3332 14.3499H4.6665C4.11984 14.3499 3.6665 13.854 3.6665 13.2561C3.6665 12.6582 4.11984 12.1624 4.6665 12.1624H27.3332C27.8798 12.1624 28.3332 12.6582 28.3332 13.2561C28.3332 13.854 27.8798 14.3499 27.3332 14.3499Z" fill="#171717" fill-opacity="0.9"/>
<path d="M17.8267 33.1772H10.6667C5.8 33.1772 3 30.1147 3 24.7917V12.3959C3 7.073 5.8 4.0105 10.6667 4.0105H21.3333C26.2 4.0105 29 7.073 29 12.3959V18.9584C29 19.5563 28.5467 20.0522 28 20.0522C27.4533 20.0522 27 19.5563 27 18.9584V12.3959C27 8.22508 25.1467 6.198 21.3333 6.198H10.6667C6.85333 6.198 5 8.22508 5 12.3959V24.7917C5 28.9626 6.85333 30.9897 10.6667 30.9897H17.8267C18.3733 30.9897 18.8267 31.4855 18.8267 32.0834C18.8267 32.6813 18.3733 33.1772 17.8267 33.1772Z" fill="#171717" fill-opacity="0.9"/>
</svg>
