<svg width="30" height="30" viewBox="0 0 30 30" fill="none" xmlns="http://www.w3.org/2000/svg">
<path d="M28.786 18.2906C28.4139 17.9327 27.9809 17.6869 27.5205 17.5723C27.0601 17.4577 26.5848 17.4773 26.1315 17.6297L20.9024 19.1328C21.0241 18.4903 21.0278 17.8217 20.9134 17.1771C20.799 16.5325 20.5694 15.9287 20.2417 15.4108C19.9141 14.893 19.4969 14.4746 19.0216 14.1869C18.5462 13.8993 18.0249 13.7499 17.4968 13.75H11.2404C10.715 13.7484 10.1946 13.8769 9.70914 14.1282C9.2237 14.3795 8.7829 14.7485 8.41221 15.2141L5.58523 18.75H1.99963C1.4693 18.75 0.960683 19.0134 0.585679 19.4822C0.210675 19.9511 0 20.587 0 21.25L0 27.5C0 28.163 0.210675 28.7989 0.585679 29.2678C0.960683 29.7366 1.4693 30 1.99963 30H14.9973C15.079 30 15.1604 29.9875 15.2397 29.9625L23.2382 27.4625C23.2892 27.4473 23.339 27.4264 23.387 27.4L28.2448 24.8156L28.2998 24.7844C28.7667 24.4927 29.1665 24.0572 29.4615 23.519C29.7566 22.9808 29.9372 22.3575 29.9863 21.7079C30.0355 21.0582 29.9515 20.4037 29.7424 19.8058C29.5333 19.208 29.2058 18.6865 28.791 18.2906H28.786ZM1.99963 21.25H4.99908V27.5H1.99963V21.25ZM27.4237 22.5328L22.6746 25.0609L14.8723 27.5H6.99872V20.5172L9.82695 16.9828C10.012 16.7497 10.2322 16.5648 10.4749 16.439C10.7175 16.3132 10.9777 16.249 11.2404 16.25H17.4968C17.8945 16.25 18.276 16.4475 18.5573 16.7992C18.8385 17.1508 18.9965 17.6277 18.9965 18.125C18.9965 18.6223 18.8385 19.0992 18.5573 19.4508C18.276 19.8025 17.8945 20 17.4968 20H13.9974C13.7323 20 13.478 20.1317 13.2905 20.3661C13.103 20.6005 12.9976 20.9185 12.9976 21.25C12.9976 21.5815 13.103 21.8995 13.2905 22.1339C13.478 22.3683 13.7323 22.5 13.9974 22.5H17.9967C18.072 22.4997 18.147 22.4893 18.2204 22.4688L26.5939 20.0609L26.6326 20.0484C26.8882 19.9597 27.1611 19.9923 27.3986 20.14C27.6362 20.2876 27.8216 20.5399 27.9193 20.8482C28.0171 21.1566 28.0201 21.4992 27.9279 21.8102C27.8357 22.1212 27.6548 22.3786 27.42 22.5328H27.4237ZM20.4962 11.25C20.7433 11.2504 20.9899 11.2253 21.2336 11.175C21.5077 12.193 22.0093 13.0917 22.679 13.7646C23.3487 14.4376 24.1585 14.8567 25.0127 14.9725C25.8669 15.0882 26.7297 14.8958 27.4992 14.4179C28.2687 13.9401 28.9126 13.1967 29.3549 12.2758C29.7972 11.3549 30.0193 10.2948 29.995 9.22109C29.9707 8.14734 29.701 7.10474 29.2177 6.21656C28.7345 5.32838 28.0579 4.63175 27.2681 4.20906C26.4782 3.78636 25.608 3.65526 24.7605 3.83125C24.4965 2.85039 24.0212 1.97958 23.3869 1.31465C22.7526 0.649731 21.9839 0.216473 21.1653 0.0625595C20.3468 -0.0913543 19.5101 0.0400425 18.7474 0.44229C17.9847 0.844537 17.3256 1.50204 16.8426 2.34245C16.3595 3.18285 16.0712 4.17357 16.0095 5.20559C15.9478 6.2376 16.115 7.2709 16.4927 8.19177C16.8705 9.11264 17.444 9.88538 18.1504 10.425C18.8568 10.9645 19.6685 11.25 20.4962 11.25ZM27.9949 9.375C27.9949 9.99307 27.8483 10.5973 27.5736 11.1112C27.299 11.6251 26.9086 12.0256 26.4519 12.2621C25.9951 12.4986 25.4926 12.5605 25.0077 12.44C24.5228 12.3194 24.0775 12.0217 23.7279 11.5847C23.3783 11.1477 23.1403 10.5908 23.0438 9.98466C22.9474 9.37847 22.9969 8.75014 23.1861 8.17912C23.3752 7.6081 23.6956 7.12004 24.1067 6.77666C24.5177 6.43328 25.001 6.25 25.4953 6.25C26.1582 6.25 26.794 6.57924 27.2628 7.16529C27.7315 7.75134 27.9949 8.5462 27.9949 9.375ZM20.4962 2.5C21.0415 2.50034 21.5718 2.72361 22.0061 3.13575C22.4405 3.54789 22.7551 4.12631 22.9021 4.78281C22.39 5.23328 21.9588 5.8124 21.6359 6.48315C21.3131 7.1539 21.1059 7.9015 21.0274 8.67813C20.8528 8.72525 20.6748 8.74934 20.4962 8.75C19.8333 8.75 19.1976 8.42076 18.7288 7.83471C18.26 7.24866 17.9967 6.4538 17.9967 5.625C17.9967 4.7962 18.26 4.00134 18.7288 3.41529C19.1976 2.82924 19.8333 2.5 20.4962 2.5Z" fill="black"/>
</svg>
