<svg width="360" height="498" viewBox="0 0 360 498" fill="none" xmlns="http://www.w3.org/2000/svg">
<path d="M0 87C0 52.3645 0 35.0468 8.20963 22.5489C11.9598 16.8398 16.8398 11.9598 22.5489 8.20963C35.0468 0 52.3646 0 87 0H273C307.635 0 324.953 0 337.451 8.20963C343.16 11.9598 348.04 16.8398 351.79 22.5489C360 35.0468 360 52.3646 360 87V411C360 445.635 360 462.953 351.79 475.451C348.04 481.16 343.16 486.04 337.451 489.79C324.953 498 307.635 498 273 498H87C52.3646 498 35.0468 498 22.5489 489.79C16.8398 486.04 11.9598 481.16 8.20963 475.451C0 462.953 0 445.635 0 411V87Z" fill="#D9D9D9"/>
</svg>
