<svg width="21" height="27" viewBox="0 0 21 27" fill="none" xmlns="http://www.w3.org/2000/svg">
<path d="M17.5 19.0843C16.6133 19.0843 15.82 19.491 15.2133 20.128L6.895 14.503C6.95333 14.1913 7 13.8795 7 13.5542C7 13.2289 6.95333 12.9172 6.895 12.6054L15.12 7.03464C15.75 7.71235 16.5783 8.13253 17.5 8.13253C19.4367 8.13253 21 6.31627 21 4.06627C21 1.81627 19.4367 0 17.5 0C15.5633 0 14 1.81627 14 4.06627C14 4.39157 14.0467 4.70331 14.105 5.01506L5.88 10.5858C5.25 9.90813 4.42167 9.48795 3.5 9.48795C1.56333 9.48795 0 11.3042 0 13.5542C0 15.8042 1.56333 17.6205 3.5 17.6205C4.42167 17.6205 5.25 17.2003 5.88 16.5226L14.1867 22.1611C14.1283 22.4458 14.0933 22.744 14.0933 23.0422C14.0933 25.2244 15.6217 27 17.5 27C19.3783 27 20.9067 25.2244 20.9067 23.0422C20.9067 20.8599 19.3783 19.0843 17.5 19.0843Z" fill="black"/>
</svg>
