<svg width="25" height="24" viewBox="0 0 25 24" fill="none" xmlns="http://www.w3.org/2000/svg">
<path d="M8.59375 17.6393C8.59375 17.8529 8.52502 18.0617 8.39625 18.2393C8.26749 18.4169 8.08446 18.5554 7.87033 18.6371C7.6562 18.7188 7.42057 18.7402 7.19325 18.6986C6.96593 18.6569 6.75712 18.554 6.59323 18.403C6.42934 18.252 6.31773 18.0595 6.27252 17.85C6.2273 17.6405 6.25051 17.4234 6.3392 17.2261C6.4279 17.0287 6.5781 16.8601 6.77082 16.7414C6.96353 16.6227 7.1901 16.5594 7.42188 16.5594C7.73268 16.5594 8.03075 16.6732 8.25052 16.8757C8.47029 17.0782 8.59375 17.3529 8.59375 17.6393ZM11.3281 17.9993C11.0963 17.9993 10.8698 18.0627 10.6771 18.1813C10.4844 18.3 10.3341 18.4687 10.2455 18.666C10.1568 18.8634 10.1336 19.0805 10.1788 19.29C10.224 19.4995 10.3356 19.6919 10.4995 19.8429C10.6634 19.994 10.8722 20.0968 11.0995 20.1385C11.3268 20.1802 11.5624 20.1588 11.7766 20.0771C11.9907 19.9953 12.1737 19.8569 12.3025 19.6793C12.4313 19.5017 12.5 19.2929 12.5 19.0793C12.5 18.7929 12.3765 18.5182 12.1568 18.3156C11.937 18.1131 11.6389 17.9993 11.3281 17.9993ZM16.0156 16.5594C15.7838 16.5594 15.5573 16.6227 15.3646 16.7414C15.1719 16.8601 15.0217 17.0287 14.933 17.2261C14.8443 17.4234 14.821 17.6405 14.8663 17.85C14.9115 18.0595 15.0231 18.252 15.187 18.403C15.3509 18.554 15.5597 18.6569 15.787 18.6986C16.0143 18.7402 16.2499 18.7188 16.4641 18.6371C16.6782 18.5554 16.8612 18.4169 16.99 18.2393C17.1188 18.0617 17.1875 17.8529 17.1875 17.6393C17.1875 17.3529 17.064 17.0782 16.8443 16.8757C16.6245 16.6732 16.3264 16.5594 16.0156 16.5594ZM6.64062 20.1593C6.40885 20.1593 6.18228 20.2226 5.98957 20.3413C5.79685 20.4599 5.64665 20.6286 5.55795 20.8259C5.46926 21.0233 5.44605 21.2404 5.49127 21.4499C5.53648 21.6594 5.64809 21.8518 5.81198 22.0029C5.97587 22.1539 6.18468 22.2568 6.412 22.2984C6.63932 22.3401 6.87495 22.3187 7.08908 22.237C7.30321 22.1552 7.48624 22.0168 7.615 21.8392C7.74377 21.6616 7.8125 21.4528 7.8125 21.2392C7.8125 20.9528 7.68904 20.6781 7.46927 20.4756C7.2495 20.273 6.95143 20.1593 6.64062 20.1593ZM15.2344 20.1593C15.0026 20.1593 14.776 20.2226 14.5833 20.3413C14.3906 20.4599 14.2404 20.6286 14.1517 20.8259C14.063 21.0233 14.0398 21.2404 14.085 21.4499C14.1302 21.6594 14.2418 21.8518 14.4057 22.0029C14.5696 22.1539 14.7784 22.2568 15.0058 22.2984C15.2331 22.3401 15.4687 22.3187 15.6828 22.237C15.897 22.1552 16.08 22.0168 16.2088 21.8392C16.3375 21.6616 16.4062 21.4528 16.4062 21.2392C16.4062 20.9528 16.2828 20.6781 16.063 20.4756C15.8432 20.273 15.5452 20.1593 15.2344 20.1593ZM22.6562 8.27966C22.6542 10.0931 21.8716 11.8317 20.4801 13.114C19.0887 14.3963 17.2021 15.1175 15.2344 15.1194H7.42188C6.07507 15.1194 4.78343 14.6264 3.8311 13.7487C2.87877 12.8711 2.34375 11.6808 2.34375 10.4396C2.34375 9.19842 2.87877 8.00808 3.8311 7.13044C4.78343 6.2528 6.07507 5.75975 7.42188 5.75975C7.71381 5.75998 8.0052 5.78286 8.29297 5.82815C8.91603 4.33669 10.0856 3.09308 11.599 2.31277C13.1125 1.53246 14.8744 1.26463 16.5796 1.55567C18.2848 1.84671 19.8258 2.67829 20.9356 3.90633C22.0454 5.13437 22.6541 6.6815 22.6562 8.27966ZM21.0938 8.27966C21.0875 6.87756 20.4903 5.53257 19.4282 4.52862C18.3661 3.52467 16.9223 2.94035 15.4015 2.899C13.8807 2.85766 12.402 3.36253 11.2776 4.30703C10.1531 5.25154 9.47093 6.56175 9.375 7.96108C9.3691 8.05562 9.34305 8.14818 9.29834 8.23345C9.25363 8.31872 9.19113 8.39504 9.11441 8.45805C8.95948 8.58531 8.75603 8.65063 8.54883 8.63965C8.34163 8.62867 8.14765 8.54229 8.00956 8.3995C7.87147 8.25672 7.80059 8.06923 7.8125 7.87828C7.82617 7.65869 7.85124 7.44179 7.88769 7.2276C7.73321 7.20933 7.57763 7.20001 7.42188 7.1997C6.48947 7.1997 5.59526 7.54105 4.93595 8.14864C4.27665 8.75624 3.90625 9.58032 3.90625 10.4396C3.90625 11.2989 4.27665 12.1229 4.93595 12.7305C5.59526 13.3381 6.48947 13.6795 7.42188 13.6795H15.2344C16.7878 13.6778 18.2771 13.1084 19.3756 12.0961C20.474 11.0838 21.0919 9.71127 21.0938 8.27966Z" fill="black"/>
</svg>
