<svg width="15" height="16" viewBox="0 0 15 16" fill="none" xmlns="http://www.w3.org/2000/svg">
<g clip-path="url(#clip0_1_159)">
<path d="M13.4365 9.42393L6.61904 15.5319C6.5557 15.5886 6.48051 15.6337 6.39775 15.6644C6.31499 15.6951 6.22629 15.7109 6.13671 15.7109C6.04713 15.7109 5.95843 15.6951 5.87567 15.6644C5.79292 15.6337 5.71772 15.5886 5.65438 15.5319C5.59104 15.4751 5.54079 15.4078 5.50651 15.3336C5.47223 15.2595 5.45459 15.18 5.45459 15.0998C5.45459 15.0195 5.47223 14.94 5.50651 14.8659C5.54079 14.7917 5.59104 14.7244 5.65438 14.6676L11.9903 8.9918L5.65438 3.31598C5.52646 3.20137 5.45459 3.04592 5.45459 2.88384C5.45459 2.72176 5.52646 2.56631 5.65438 2.4517C5.7823 2.33709 5.9558 2.27271 6.13671 2.27271C6.31762 2.27271 6.49112 2.33709 6.61904 2.4517L13.4365 8.55966C13.4998 8.61638 13.5501 8.68375 13.5844 8.7579C13.6188 8.83205 13.6364 8.91153 13.6364 8.9918C13.6364 9.07206 13.6188 9.15154 13.5844 9.22569C13.5501 9.29984 13.4998 9.36721 13.4365 9.42393Z" fill="#686666"/>
</g>
<defs>
<clipPath id="clip0_1_159">
<rect width="15" height="15.9091" fill="white"/>
</clipPath>
</defs>
</svg>
