<svg width="27" height="28" viewBox="0 0 27 28" fill="none" xmlns="http://www.w3.org/2000/svg">
<path d="M9 26.039C8.685 26.039 8.35873 25.9573 8.06623 25.794C7.42498 25.444 7.03125 24.744 7.03125 23.9973V22.3407C3.63375 21.9791 1.40625 19.389 1.40625 15.679V8.67904C1.40625 4.6657 4.005 1.9707 7.875 1.9707H19.125C22.995 1.9707 25.5938 4.6657 25.5938 8.67904V15.679C25.5938 19.6923 22.995 22.3873 19.125 22.3873H14.8837L10.0912 25.7007C9.76497 25.9224 9.3825 26.039 9 26.039ZM7.875 3.70903C4.9725 3.70903 3.09375 5.65736 3.09375 8.66736V15.6674C3.09375 18.6774 4.9725 20.6258 7.875 20.6258C8.33625 20.6258 8.71875 21.0224 8.71875 21.5008V23.9858C8.71875 24.1374 8.80876 24.2074 8.86501 24.2424C8.92126 24.2774 9.03377 24.3124 9.15752 24.2307L14.1638 20.7774C14.2988 20.6841 14.4675 20.6258 14.6363 20.6258H19.1363C22.0388 20.6258 23.9175 18.6774 23.9175 15.6674V8.66736C23.9175 5.65736 22.0388 3.70903 19.1363 3.70903H7.875Z" fill="#171717"/>
<path d="M13.5003 14.1289C13.039 14.1289 12.6565 13.7322 12.6565 13.2539V13.009C12.6565 11.6556 13.6128 10.9906 13.9728 10.7339C14.389 10.4423 14.524 10.2439 14.524 9.94061C14.524 9.35728 14.0628 8.87891 13.5003 8.87891C12.9378 8.87891 12.4766 9.35728 12.4766 9.94061C12.4766 10.4189 12.0941 10.8156 11.6328 10.8156C11.1716 10.8156 10.7891 10.4189 10.7891 9.94061C10.7891 8.38895 12.004 7.12891 13.5003 7.12891C14.9965 7.12891 16.2115 8.38895 16.2115 9.94061C16.2115 11.2706 15.2665 11.9356 14.9178 12.1806C14.479 12.4839 14.344 12.6823 14.344 13.009V13.2539C14.344 13.7439 13.9615 14.1289 13.5003 14.1289Z" fill="#171717"/>
<path d="M13.5 17.0332C13.0275 17.0332 12.6562 16.6365 12.6562 16.1582C12.6562 15.6799 13.0387 15.2832 13.5 15.2832C13.9612 15.2832 14.3438 15.6799 14.3438 16.1582C14.3438 16.6365 13.9725 17.0332 13.5 17.0332Z" fill="#171717"/>
</svg>
