<svg width="44" height="43" viewBox="0 0 44 43" fill="none" xmlns="http://www.w3.org/2000/svg">
<path d="M41.7349 26.4143V31.1033C41.7349 38.5567 37.2066 43 29.6109 43H12.124C6.80275 43 2.96314 40.8091 1.16854 36.9186L1.39808 36.7548L11.6649 29.9976C13.3343 28.8919 15.6923 29.0148 17.1739 30.2843L17.8834 30.8576C19.511 32.2295 22.1403 32.2295 23.768 30.8576L32.4489 23.5476C34.0765 22.1757 36.7058 22.1757 38.3335 23.5476L41.7349 26.4143Z" fill="#171717"/>
<path opacity="0.4" d="M39.5856 14.3333H33.4505C30.8004 14.3333 29.2144 12.7772 29.2144 10.1767V4.15668C29.2144 3.33763 29.3814 2.64144 29.6735 2.04763C29.6527 2.04763 29.6318 2.04763 29.6109 2.04763H12.124C4.52824 2.04763 0 6.49096 0 13.9443V31.1033C0 33.3352 0.396482 35.2805 1.16858 36.9186L1.39812 36.7548L11.6649 29.9976C13.3343 28.8919 15.6923 29.0148 17.1739 30.2843L17.8834 30.8576C19.5111 32.2295 22.1404 32.2295 23.768 30.8576L32.4489 23.5476C34.0766 22.1757 36.7059 22.1757 38.3335 23.5476L41.7349 26.4143V13.9443C41.7349 13.9238 41.7349 13.9033 41.7349 13.8829C41.1298 14.1695 40.4203 14.3333 39.5856 14.3333Z" fill="#171717"/>
<path d="M14.6072 19.2067C17.3501 19.2067 19.5737 17.0248 19.5737 14.3333C19.5737 11.6419 17.3501 9.46 14.6072 9.46C11.8643 9.46 9.64076 11.6419 9.64076 14.3333C9.64076 17.0248 11.8643 19.2067 14.6072 19.2067Z" fill="#171717"/>
<path d="M39.5855 0H33.4505C30.8003 0 29.2144 1.55619 29.2144 4.15667V10.1767C29.2144 12.7771 30.8003 14.3333 33.4505 14.3333H39.5855C42.2357 14.3333 43.8216 12.7771 43.8216 10.1767V4.15667C43.8216 1.55619 42.2357 0 39.5855 0ZM41.5471 8.04714C41.3384 8.2519 41.0254 8.39524 40.6915 8.41571H37.7492L37.7701 11.2619C37.7492 11.61 37.624 11.8967 37.3736 12.1424C37.1649 12.3471 36.8519 12.4905 36.518 12.4905C35.8294 12.4905 35.266 11.9376 35.266 11.2619V8.39524L32.3445 8.41571C31.6559 8.41571 31.0925 7.84238 31.0925 7.16667C31.0925 6.49095 31.6559 5.9381 32.3445 5.9381L35.266 5.95857V3.0919C35.266 2.41619 35.8294 1.84286 36.518 1.84286C37.2066 1.84286 37.7701 2.41619 37.7701 3.0919L37.7492 5.9381H40.6915C41.3801 5.9381 41.9435 6.49095 41.9435 7.16667C41.9227 7.51476 41.7766 7.80143 41.5471 8.04714Z" fill="#171717"/>
</svg>
