<svg width="29" height="27" viewBox="0 0 29 27" fill="none" xmlns="http://www.w3.org/2000/svg">
<path d="M11.562 21.1723C11.3324 21.1723 11.1029 21.0935 10.9216 20.9248L3.58703 14.096C3.23661 13.7698 3.23661 13.2298 3.58703 12.9035L10.9216 6.07477C11.272 5.74852 11.852 5.74852 12.2024 6.07477C12.5529 6.40102 12.5529 6.94102 12.2024 7.26727L5.50828 13.4998L12.2024 19.7323C12.5529 20.0585 12.5529 20.5985 12.2024 20.9248C12.0333 21.0935 11.7916 21.1723 11.562 21.1723Z" fill="#171717"/>
<path d="M24.7698 14.3438H4.43359C3.93818 14.3438 3.52734 13.9612 3.52734 13.5C3.52734 13.0387 3.93818 12.6562 4.43359 12.6562H24.7698C25.2653 12.6562 25.6761 13.0387 25.6761 13.5C25.6761 13.9612 25.2653 14.3438 24.7698 14.3438Z" fill="#171717"/>
</svg>
