<svg width="21" height="21" viewBox="0 0 21 21" fill="none" xmlns="http://www.w3.org/2000/svg">
<path d="M21 14.8995C21 18.7215 18.7215 21 14.8995 21H13.65C13.0725 21 12.6 20.5275 12.6 19.95V13.8915C12.6 13.608 12.831 13.3665 13.1145 13.3665L14.9625 13.335C15.1095 13.3245 15.2355 13.2195 15.267 13.0725L15.6345 11.067C15.666 10.878 15.519 10.6995 15.3195 10.6995L13.083 10.731C12.789 10.731 12.558 10.5 12.5475 10.2165L12.5055 7.64399C12.5055 7.47599 12.642 7.32901 12.8205 7.32901L15.3405 7.287C15.519 7.287 15.6555 7.15051 15.6555 6.97201L15.6135 4.45199C15.6135 4.27349 15.477 4.137 15.2985 4.137L12.4635 4.17901C10.7205 4.21051 9.33451 5.6385 9.36601 7.38149L9.4185 10.269C9.429 10.563 9.19801 10.794 8.90401 10.8045L7.64399 10.8255C7.46549 10.8255 7.32901 10.962 7.32901 11.1405L7.36051 13.1355C7.36051 13.314 7.49699 13.4505 7.67549 13.4505L8.93551 13.4295C9.22951 13.4295 9.46048 13.6605 9.47098 13.944L9.56548 19.929C9.57598 20.517 9.10348 21 8.51548 21H6.10049C2.2785 21 0 18.7215 0 14.889V6.10049C0 2.2785 2.2785 0 6.10049 0H14.8995C18.7215 0 21 2.2785 21 6.10049V14.8995Z" fill="white"/>
</svg>
