<svg width="34" height="25" viewBox="0 0 34 25" fill="none" xmlns="http://www.w3.org/2000/svg">
<path d="M12.5311 24.4972C12.1819 24.4972 11.8327 24.3714 11.557 24.102L0.399783 13.1984C-0.133261 12.6775 -0.133261 11.8152 0.399783 11.2943L11.557 0.390697C12.09 -0.130232 12.9723 -0.130232 13.5053 0.390697C14.0384 0.911627 14.0384 1.77386 13.5053 2.29479L3.32234 12.2463L13.5053 22.1979C14.0384 22.7188 14.0384 23.5811 13.5053 24.102C13.248 24.3714 12.8804 24.4972 12.5311 24.4972Z" fill="#171717"/>
<path d="M32.6215 13.5936H1.68649C0.932874 13.5936 0.307925 12.9828 0.307925 12.2463C0.307925 11.5099 0.932874 10.8991 1.68649 10.8991H32.6215C33.3751 10.8991 34 11.5099 34 12.2463C34 12.9828 33.3751 13.5936 32.6215 13.5936Z" fill="#171717"/>
</svg>
