<svg width="36" height="35" viewBox="0 0 36 35" fill="none" xmlns="http://www.w3.org/2000/svg">
<path d="M14.985 33.2208C14.085 33.2208 13.23 32.7834 12.645 32.0104L10.845 29.6771C10.845 29.6917 10.77 29.6479 10.74 29.6479H10.185C5.05501 29.6479 1.875 28.2917 1.875 21.5688V15.7354C1.875 9.59585 5.73002 7.99168 8.97002 7.7146C9.33002 7.67085 9.75001 7.65625 10.185 7.65625H19.785C25.215 7.65625 28.095 10.4563 28.095 15.7354V21.5688C28.095 21.9917 28.08 22.4 28.02 22.7938C27.75 25.9 26.1 29.6479 19.785 29.6479H19.185L17.325 32.0104C16.74 32.7834 15.885 33.2208 14.985 33.2208ZM10.185 9.84375C9.84001 9.84375 9.51001 9.85833 9.19501 9.8875C5.71501 10.1792 4.125 12.0313 4.125 15.7354V21.5688C4.125 26.5708 5.71501 27.4604 10.185 27.4604H10.785C11.46 27.4604 12.225 27.825 12.645 28.35L14.445 30.6979C14.775 31.1354 15.195 31.1354 15.525 30.6979L17.325 28.3646C17.76 27.7959 18.45 27.4604 19.185 27.4604H19.785C23.595 27.4604 25.5 25.9 25.785 22.575C25.83 22.225 25.845 21.9042 25.845 21.5688V15.7354C25.845 11.6667 23.97 9.84375 19.785 9.84375H10.185Z" fill="#171717"/>
<path d="M14.9844 20.694C14.1444 20.694 13.4844 20.0378 13.4844 19.2357C13.4844 18.4336 14.1594 17.7773 14.9844 17.7773C15.8094 17.7773 16.4844 18.4336 16.4844 19.2357C16.4844 20.0378 15.8244 20.694 14.9844 20.694Z" fill="#171717"/>
<path d="M19.7852 20.694C18.9452 20.694 18.2852 20.0378 18.2852 19.2357C18.2852 18.4336 18.9602 17.7773 19.7852 17.7773C20.6102 17.7773 21.2852 18.4336 21.2852 19.2357C21.2852 20.0378 20.6102 20.694 19.7852 20.694Z" fill="#171717"/>
<path d="M10.1992 20.694C9.35922 20.694 8.69922 20.0378 8.69922 19.2357C8.69922 18.4336 9.37422 17.7773 10.1992 17.7773C11.0242 17.7773 11.6992 18.4336 11.6992 19.2357C11.6992 20.0378 11.0242 20.694 10.1992 20.694Z" fill="#171717"/>
<path d="M26.9095 23.7576C26.6095 23.7576 26.3095 23.6409 26.0995 23.4221C25.8595 23.1888 25.7545 22.8534 25.7995 22.5326C25.8445 22.2263 25.8595 21.9055 25.8595 21.5701V15.7367C25.8595 11.668 23.9845 9.84505 19.7995 9.84505H10.1994C9.85445 9.84505 9.52449 9.85963 9.20949 9.8888C8.87949 9.93255 8.53447 9.81587 8.29447 9.59712C8.05447 9.36378 7.91945 9.04298 7.94945 8.72215C8.21945 5.57215 9.88445 1.82422 16.1994 1.82422H25.7995C31.2295 1.82422 34.1095 4.62423 34.1095 9.9034V15.7367C34.1095 21.8763 30.2545 23.4805 27.0145 23.7576C26.9695 23.7576 26.9395 23.7576 26.9095 23.7576ZM10.3795 7.65755H19.7845C25.2145 7.65755 28.0945 10.4576 28.0945 15.7367V21.3805C30.6445 20.768 31.8445 18.9451 31.8445 15.7367V9.9034C31.8445 5.83465 29.9695 4.01172 25.7845 4.01172H16.1845C12.8845 4.01172 11.0245 5.17839 10.3795 7.65755Z" fill="#171717"/>
</svg>
