<svg width="26" height="23" viewBox="0 0 26 23" fill="none" xmlns="http://www.w3.org/2000/svg">
<path d="M20.1516 3.44922C18.0775 3.44922 15.8438 3.83255 14.3016 4.88672C12.7593 3.83255 10.5257 3.44922 8.45156 3.44922C6.37747 3.44922 4.14384 3.83255 2.60156 4.88672V18.9263C2.60156 19.5492 3.37802 19.3576 3.39929 19.3576C4.8352 18.7346 6.90929 18.3034 8.45156 18.3034C10.5257 18.3034 12.7593 18.6867 14.3016 19.7409C15.7375 18.9263 18.3434 18.3034 20.1516 18.3034C21.9066 18.3034 23.7147 18.5909 25.2038 19.3096C25.6399 19.5109 26.0016 19.1276 26.0016 18.8784V4.88672C24.4167 3.81339 22.1406 3.44922 20.1516 3.44922ZM23.8743 16.8659C22.7043 16.5305 21.4279 16.3867 20.1516 16.3867C18.3434 16.3867 15.7375 17.0096 14.3016 17.8242V6.80339C15.7375 5.9888 18.3434 5.36589 20.1516 5.36589C21.4279 5.36589 22.7043 5.50964 23.8743 5.84505V16.8659Z" fill="black"/>
</svg>
