<?xml version="1.0" standalone="no"?>
<!DOCTYPE svg PUBLIC "-//W3C//DTD SVG 20010904//EN"
 "http://www.w3.org/TR/2001/REC-SVG-20010904/DTD/svg10.dtd">
<svg version="1.0" xmlns="http://www.w3.org/2000/svg"
 width="31.000000pt" height="32.000000pt" viewBox="0 0 31.000000 32.000000"
 preserveAspectRatio="xMidYMid meet">

<g transform="translate(0.000000,32.000000) scale(0.100000,-0.100000)"
fill="#000000" stroke="none">
<path d="M26 294 c-23 -22 -23 -225 -1 -248 8 -8 15 -22 15 -30 0 -9 8 -16 20
-16 11 0 20 7 20 15 0 12 16 15 80 15 64 0 80 -3 80 -15 0 -8 9 -15 20 -15 13
0 20 7 20 19 0 10 7 24 15 31 22 18 22 222 -1 244 -23 23 -245 23 -268 0z
m124 -124 l0 -121 -57 3 -58 3 -3 104 c-1 58 0 111 2 118 4 9 24 13 61 13 l55
0 0 -120z m138 11 c2 -67 -1 -108 -9 -117 -7 -8 -31 -14 -60 -14 l-49 0 0 120
0 121 58 -3 57 -3 3 -104z"/>
<path d="M90 170 c0 -11 5 -20 10 -20 6 0 10 9 10 20 0 11 -4 20 -10 20 -5 0
-10 -9 -10 -20z"/>
<path d="M220 170 c0 -11 5 -20 10 -20 6 0 10 9 10 20 0 11 -4 20 -10 20 -5 0
-10 -9 -10 -20z"/>
</g>
</svg>
